<?xml version="1.0" encoding="UTF-8" standalone="yes"?><svg xmlns="http://www.w3.org/2000/svg" xmlns:xlink="http://www.w3.org/1999/xlink" height="706pt" style="width:3852px;height:706px;" version="1.1" viewBox="0 0 3852 706" width="3852pt"><defs><filter height="300%" id="f1" width="300%" x="-1" y="-1"><feGaussianBlur result="blurOut" stdDeviation="2"/><feColorMatrix in="blurOut" result="blurOut2" type="matrix" values="0 0 0 0 0 0 0 0 0 0 0 0 0 0 0 0 0 0 .4 0"/><feOffset dx="4" dy="4" in="blurOut2" result="blurOut3"/><feBlend in="SourceGraphic" in2="blurOut3" mode="normal"/></filter></defs><g><polygon fill="#FFFFFF" filter="url(#f1)" points="1248.42,257,1494.42,257,1501.42,280.6094,2475.42,280.6094,2475.42,591,1248.42,591,1248.42,257" style="stroke: #000000; stroke-width: 2.0;"/><line style="stroke: #000000; stroke-width: 2.0;" x1="1248.42" x2="1501.42" y1="280.6094" y2="280.6094"/><text fill="#000000" font-size="14" font-weight="bold" lengthAdjust="spacingAndGlyphs" textLength="240" x="1251.42" y="274">EA_Model.Class_Model.simulation</text><polygon fill="#FFFFFF" filter="url(#f1)" points="2823.42,24,3105.42,24,3112.42,47.6094,3421.42,47.6094,3421.42,233,2823.42,233,2823.42,24" style="stroke: #000000; stroke-width: 2.0;"/><line style="stroke: #000000; stroke-width: 2.0;" x1="2823.42" x2="3112.42" y1="47.6094" y2="47.6094"/><text fill="#000000" font-size="14" font-weight="bold" lengthAdjust="spacingAndGlyphs" textLength="276" x="2826.42" y="41">EA_Model.Class_Model.atm.transaction</text><polygon fill="#FFFFFF" filter="url(#f1)" points="2499.42,490,2729.42,490,2736.42,513.6094,3117.42,513.6094,3117.42,699,2499.42,699,2499.42,490" style="stroke: #000000; stroke-width: 2.0;"/><line style="stroke: #000000; stroke-width: 2.0;" x1="2499.42" x2="2736.42" y1="513.6094" y2="513.6094"/><text fill="#000000" font-size="14" font-weight="bold" lengthAdjust="spacingAndGlyphs" textLength="224" x="2502.42" y="507">EA_Model.Class_Model.banking</text><polygon fill="#FFFFFF" filter="url(#f1)" points="747.423,257,946.423,257,953.423,280.6094,957.423,280.6094,957.423,466,747.423,466,747.423,257" style="stroke: #000000; stroke-width: 2.0;"/><line style="stroke: #000000; stroke-width: 2.0;" x1="747.423" x2="953.423" y1="280.6094" y2="280.6094"/><text fill="#000000" font-size="14" font-weight="bold" lengthAdjust="spacingAndGlyphs" textLength="193" x="750.423" y="274">EA_Model.Class_Model.atm</text><polygon fill="#FFFFFF" filter="url(#f1)" points="33.4233,490,293.4233,490,300.4233,513.6094,1224.42,513.6094,1224.42,699,33.4233,699,33.4233,490" style="stroke: #000000; stroke-width: 2.0;"/><line style="stroke: #000000; stroke-width: 2.0;" x1="33.4233" x2="300.4233" y1="513.6094" y2="513.6094"/><text fill="#000000" font-size="14" font-weight="bold" lengthAdjust="spacingAndGlyphs" textLength="254" x="36.4233" y="507">EA_Model.Class_Model.atm.physical</text><polygon fill="#FFFFFF" filter="url(#f1)" points="3445.42,24,3615.42,24,3622.42,47.6094,3683.42,47.6094,3683.42,125,3445.42,125,3445.42,24" style="stroke: #000000; stroke-width: 2.0;"/><line style="stroke: #000000; stroke-width: 2.0;" x1="3445.42" x2="3622.42" y1="47.6094" y2="47.6094"/><text fill="#000000" font-size="14" font-weight="bold" lengthAdjust="spacingAndGlyphs" textLength="164" x="3448.42" y="41">EA_Model.Class_Model</text><polygon fill="#FFFFFF" filter="url(#f1)" points="3707.42,24,3783.42,24,3790.42,47.6094,3845.42,47.6094,3845.42,125,3707.42,125,3707.42,24" style="stroke: #000000; stroke-width: 2.0;"/><line style="stroke: #000000; stroke-width: 2.0;" x1="3707.42" x2="3790.42" y1="47.6094" y2="47.6094"/><text fill="#000000" font-size="14" font-weight="bold" lengthAdjust="spacingAndGlyphs" textLength="70" x="3710.42" y="41">EA_Model</text><rect fill="#FFF8DC" filter="url(#f1)" height="48" style="stroke: #2E8B57; stroke-width: 1.5;" width="91" x="1538.17" y="294"/><ellipse cx="1553.17" cy="310" fill="#ADD1B2" rx="11" ry="11" style="stroke: #2E8B57; stroke-width: 1.0;"/><path d="M1555.9356,311.5313 L1558.3263,312.2813 Q1557.7794,314.2656 1556.5059,315.2344 Q1555.2325,316.2031 1553.2638,316.2031 Q1550.8419,316.2031 1549.2872,314.5469 Q1547.7325,312.8906 1547.7325,310.0156 Q1547.7325,306.9844 1549.295,305.3047 Q1550.8575,303.625 1553.42,303.625 Q1555.6544,303.625 1557.045,304.9375 Q1557.8731,305.7188 1558.295,307.1875 L1555.8575,307.7656 Q1555.6388,306.8125 1554.9591,306.2656 Q1554.2794,305.7188 1553.295,305.7188 Q1551.9356,305.7188 1551.0997,306.6953 Q1550.2638,307.6719 1550.2638,309.8438 Q1550.2638,312.1406 1551.0919,313.125 Q1551.92,314.1094 1553.2481,314.1094 Q1554.2325,314.1094 1554.9356,313.4844 Q1555.6388,312.8594 1555.9356,311.5313 Z "/><text fill="#000000" font-size="12" lengthAdjust="spacingAndGlyphs" textLength="59" x="1567.17" y="314.4531">Simulation</text><line style="stroke: #2E8B57; stroke-width: 1.5;" x1="1539.17" x2="1628.17" y1="326" y2="326"/><line style="stroke: #2E8B57; stroke-width: 1.5;" x1="1539.17" x2="1628.17" y1="334" y2="334"/><rect fill="#FFF8DC" filter="url(#f1)" height="48" style="stroke: #2E8B57; stroke-width: 1.5;" width="122" x="2081.42" y="402"/><ellipse cx="2096.42" cy="418" fill="#ADD1B2" rx="11" ry="11" style="stroke: #2E8B57; stroke-width: 1.0;"/><path d="M2099.1856,419.5313 L2101.5763,420.2813 Q2101.0294,422.2656 2099.7559,423.2344 Q2098.4825,424.2031 2096.5138,424.2031 Q2094.0919,424.2031 2092.5372,422.5469 Q2090.9825,420.8906 2090.9825,418.0156 Q2090.9825,414.9844 2092.545,413.3047 Q2094.1075,411.625 2096.67,411.625 Q2098.9044,411.625 2100.295,412.9375 Q2101.1231,413.7188 2101.545,415.1875 L2099.1075,415.7656 Q2098.8888,414.8125 2098.2091,414.2656 Q2097.5294,413.7188 2096.545,413.7188 Q2095.1856,413.7188 2094.3497,414.6953 Q2093.5138,415.6719 2093.5138,417.8438 Q2093.5138,420.1406 2094.3419,421.125 Q2095.17,422.1094 2096.4981,422.1094 Q2097.4825,422.1094 2098.1856,421.4844 Q2098.8888,420.8594 2099.1856,419.5313 Z "/><text fill="#000000" font-size="12" lengthAdjust="spacingAndGlyphs" textLength="90" x="2110.42" y="422.4531">SimCardReader</text><line style="stroke: #2E8B57; stroke-width: 1.5;" x1="2082.42" x2="2202.42" y1="434" y2="434"/><line style="stroke: #2E8B57; stroke-width: 1.5;" x1="2082.42" x2="2202.42" y1="442" y2="442"/><rect fill="#FFF8DC" filter="url(#f1)" height="48" style="stroke: #2E8B57; stroke-width: 1.5;" width="106" x="1390.42" y="402"/><ellipse cx="1405.42" cy="418" fill="#ADD1B2" rx="11" ry="11" style="stroke: #2E8B57; stroke-width: 1.0;"/><path d="M1408.1856,419.5313 L1410.5763,420.2813 Q1410.0294,422.2656 1408.7559,423.2344 Q1407.4825,424.2031 1405.5138,424.2031 Q1403.0919,424.2031 1401.5372,422.5469 Q1399.9825,420.8906 1399.9825,418.0156 Q1399.9825,414.9844 1401.545,413.3047 Q1403.1075,411.625 1405.67,411.625 Q1407.9044,411.625 1409.295,412.9375 Q1410.1231,413.7188 1410.545,415.1875 L1408.1075,415.7656 Q1407.8888,414.8125 1407.2091,414.2656 Q1406.5294,413.7188 1405.545,413.7188 Q1404.1856,413.7188 1403.3497,414.6953 Q1402.5138,415.6719 1402.5138,417.8438 Q1402.5138,420.1406 1403.3419,421.125 Q1404.17,422.1094 1405.4981,422.1094 Q1406.4825,422.1094 1407.1856,421.4844 Q1407.8888,420.8594 1408.1856,419.5313 Z "/><text fill="#000000" font-size="12" lengthAdjust="spacingAndGlyphs" textLength="74" x="1419.42" y="422.4531">SimKeyboard</text><line style="stroke: #2E8B57; stroke-width: 1.5;" x1="1391.42" x2="1495.42" y1="434" y2="434"/><line style="stroke: #2E8B57; stroke-width: 1.5;" x1="1391.42" x2="1495.42" y1="442" y2="442"/><rect fill="#FFF8DC" filter="url(#f1)" height="48" style="stroke: #2E8B57; stroke-width: 1.5;" width="95" x="1944.17" y="527"/><ellipse cx="1959.17" cy="543" fill="#ADD1B2" rx="11" ry="11" style="stroke: #2E8B57; stroke-width: 1.0;"/><path d="M1961.9356,544.5313 L1964.3263,545.2813 Q1963.7794,547.2656 1962.5059,548.2344 Q1961.2325,549.2031 1959.2638,549.2031 Q1956.8419,549.2031 1955.2872,547.5469 Q1953.7325,545.8906 1953.7325,543.0156 Q1953.7325,539.9844 1955.295,538.3047 Q1956.8575,536.625 1959.42,536.625 Q1961.6544,536.625 1963.045,537.9375 Q1963.8731,538.7188 1964.295,540.1875 L1961.8575,540.7656 Q1961.6388,539.8125 1960.9591,539.2656 Q1960.2794,538.7188 1959.295,538.7188 Q1957.9356,538.7188 1957.0997,539.6953 Q1956.2638,540.6719 1956.2638,542.8438 Q1956.2638,545.1406 1957.0919,546.125 Q1957.92,547.1094 1959.2481,547.1094 Q1960.2325,547.1094 1960.9356,546.4844 Q1961.6388,545.8594 1961.9356,544.5313 Z "/><text fill="#000000" font-size="12" lengthAdjust="spacingAndGlyphs" textLength="63" x="1973.17" y="547.4531">SimDisplay</text><line style="stroke: #2E8B57; stroke-width: 1.5;" x1="1945.17" x2="2038.17" y1="559" y2="559"/><line style="stroke: #2E8B57; stroke-width: 1.5;" x1="1945.17" x2="2038.17" y1="567" y2="567"/><rect fill="#FFF8DC" filter="url(#f1)" height="48" style="stroke: #2E8B57; stroke-width: 1.5;" width="116" x="2238.42" y="402"/><ellipse cx="2253.42" cy="418" fill="#ADD1B2" rx="11" ry="11" style="stroke: #2E8B57; stroke-width: 1.0;"/><path d="M2256.1856,419.5313 L2258.5763,420.2813 Q2258.0294,422.2656 2256.7559,423.2344 Q2255.4825,424.2031 2253.5138,424.2031 Q2251.0919,424.2031 2249.5372,422.5469 Q2247.9825,420.8906 2247.9825,418.0156 Q2247.9825,414.9844 2249.545,413.3047 Q2251.1075,411.625 2253.67,411.625 Q2255.9044,411.625 2257.295,412.9375 Q2258.1231,413.7188 2258.545,415.1875 L2256.1075,415.7656 Q2255.8888,414.8125 2255.2091,414.2656 Q2254.5294,413.7188 2253.545,413.7188 Q2252.1856,413.7188 2251.3497,414.6953 Q2250.5138,415.6719 2250.5138,417.8438 Q2250.5138,420.1406 2251.3419,421.125 Q2252.17,422.1094 2253.4981,422.1094 Q2254.4825,422.1094 2255.1856,421.4844 Q2255.8888,420.8594 2256.1856,419.5313 Z "/><text fill="#000000" font-size="12" lengthAdjust="spacingAndGlyphs" textLength="84" x="2267.42" y="422.4531">SimulatedBank</text><line style="stroke: #2E8B57; stroke-width: 1.5;" x1="2239.42" x2="2353.42" y1="434" y2="434"/><line style="stroke: #2E8B57; stroke-width: 1.5;" x1="2239.42" x2="2353.42" y1="442" y2="442"/><rect fill="#FFF8DC" filter="url(#f1)" height="48" style="stroke: #2E8B57; stroke-width: 1.5;" width="53" x="1265.17" y="402"/><ellipse cx="1280.17" cy="418" fill="#ADD1B2" rx="11" ry="11" style="stroke: #2E8B57; stroke-width: 1.0;"/><path d="M1282.9356,419.5313 L1285.3263,420.2813 Q1284.7794,422.2656 1283.5059,423.2344 Q1282.2325,424.2031 1280.2638,424.2031 Q1277.8419,424.2031 1276.2872,422.5469 Q1274.7325,420.8906 1274.7325,418.0156 Q1274.7325,414.9844 1276.295,413.3047 Q1277.8575,411.625 1280.42,411.625 Q1282.6544,411.625 1284.045,412.9375 Q1284.8731,413.7188 1285.295,415.1875 L1282.8575,415.7656 Q1282.6388,414.8125 1281.9591,414.2656 Q1281.2794,413.7188 1280.295,413.7188 Q1278.9356,413.7188 1278.0997,414.6953 Q1277.2638,415.6719 1277.2638,417.8438 Q1277.2638,420.1406 1278.0919,421.125 Q1278.92,422.1094 1280.2481,422.1094 Q1281.2325,422.1094 1281.9356,421.4844 Q1282.6388,420.8594 1282.9356,419.5313 Z "/><text fill="#000000" font-size="12" lengthAdjust="spacingAndGlyphs" textLength="21" x="1294.17" y="422.4531">GUI</text><line style="stroke: #2E8B57; stroke-width: 1.5;" x1="1266.17" x2="1317.17" y1="434" y2="434"/><line style="stroke: #2E8B57; stroke-width: 1.5;" x1="1266.17" x2="1317.17" y1="442" y2="442"/><rect fill="#FFF8DC" filter="url(#f1)" height="48" style="stroke: #2E8B57; stroke-width: 1.5;" width="70" x="2389.42" y="402"/><ellipse cx="2404.42" cy="418" fill="#ADD1B2" rx="11" ry="11" style="stroke: #2E8B57; stroke-width: 1.0;"/><path d="M2407.1856,419.5313 L2409.5763,420.2813 Q2409.0294,422.2656 2407.7559,423.2344 Q2406.4825,424.2031 2404.5138,424.2031 Q2402.0919,424.2031 2400.5372,422.5469 Q2398.9825,420.8906 2398.9825,418.0156 Q2398.9825,414.9844 2400.545,413.3047 Q2402.1075,411.625 2404.67,411.625 Q2406.9044,411.625 2408.295,412.9375 Q2409.1231,413.7188 2409.545,415.1875 L2407.1075,415.7656 Q2406.8888,414.8125 2406.2091,414.2656 Q2405.5294,413.7188 2404.545,413.7188 Q2403.1856,413.7188 2402.3497,414.6953 Q2401.5138,415.6719 2401.5138,417.8438 Q2401.5138,420.1406 2402.3419,421.125 Q2403.17,422.1094 2404.4981,422.1094 Q2405.4825,422.1094 2406.1856,421.4844 Q2406.8888,420.8594 2407.1856,419.5313 Z "/><text fill="#000000" font-size="12" lengthAdjust="spacingAndGlyphs" textLength="38" x="2418.42" y="422.4531">Failure</text><line style="stroke: #2E8B57; stroke-width: 1.5;" x1="2390.42" x2="2458.42" y1="434" y2="434"/><line style="stroke: #2E8B57; stroke-width: 1.5;" x1="2390.42" x2="2458.42" y1="442" y2="442"/><rect fill="#FFF8DC" filter="url(#f1)" height="48" style="stroke: #2E8B57; stroke-width: 1.5;" width="134" x="1568.42" y="402"/><ellipse cx="1583.42" cy="418" fill="#ADD1B2" rx="11" ry="11" style="stroke: #2E8B57; stroke-width: 1.0;"/><path d="M1586.1856,419.5313 L1588.5763,420.2813 Q1588.0294,422.2656 1586.7559,423.2344 Q1585.4825,424.2031 1583.5138,424.2031 Q1581.0919,424.2031 1579.5372,422.5469 Q1577.9825,420.8906 1577.9825,418.0156 Q1577.9825,414.9844 1579.545,413.3047 Q1581.1075,411.625 1583.67,411.625 Q1585.9044,411.625 1587.295,412.9375 Q1588.1231,413.7188 1588.545,415.1875 L1586.1075,415.7656 Q1585.8888,414.8125 1585.2091,414.2656 Q1584.5294,413.7188 1583.545,413.7188 Q1582.1856,413.7188 1581.3497,414.6953 Q1580.5138,415.6719 1580.5138,417.8438 Q1580.5138,420.1406 1581.3419,421.125 Q1582.17,422.1094 1583.4981,422.1094 Q1584.4825,422.1094 1585.1856,421.4844 Q1585.8888,420.8594 1586.1856,419.5313 Z "/><text fill="#000000" font-size="12" lengthAdjust="spacingAndGlyphs" textLength="102" x="1597.42" y="422.4531">SimOperatorPanel</text><line style="stroke: #2E8B57; stroke-width: 1.5;" x1="1569.42" x2="1701.42" y1="434" y2="434"/><line style="stroke: #2E8B57; stroke-width: 1.5;" x1="1569.42" x2="1701.42" y1="442" y2="442"/><rect fill="#FFF8DC" filter="url(#f1)" height="48" style="stroke: #2E8B57; stroke-width: 1.5;" width="132" x="1737.42" y="402"/><ellipse cx="1752.42" cy="418" fill="#ADD1B2" rx="11" ry="11" style="stroke: #2E8B57; stroke-width: 1.0;"/><path d="M1755.1856,419.5313 L1757.5763,420.2813 Q1757.0294,422.2656 1755.7559,423.2344 Q1754.4825,424.2031 1752.5138,424.2031 Q1750.0919,424.2031 1748.5372,422.5469 Q1746.9825,420.8906 1746.9825,418.0156 Q1746.9825,414.9844 1748.545,413.3047 Q1750.1075,411.625 1752.67,411.625 Q1754.9044,411.625 1756.295,412.9375 Q1757.1231,413.7188 1757.545,415.1875 L1755.1075,415.7656 Q1754.8888,414.8125 1754.2091,414.2656 Q1753.5294,413.7188 1752.545,413.7188 Q1751.1856,413.7188 1750.3497,414.6953 Q1749.5138,415.6719 1749.5138,417.8438 Q1749.5138,420.1406 1750.3419,421.125 Q1751.17,422.1094 1752.4981,422.1094 Q1753.4825,422.1094 1754.1856,421.4844 Q1754.8888,420.8594 1755.1856,419.5313 Z "/><text fill="#000000" font-size="12" lengthAdjust="spacingAndGlyphs" textLength="100" x="1766.42" y="422.4531">SimReceiptPrinter</text><line style="stroke: #2E8B57; stroke-width: 1.5;" x1="1738.42" x2="1868.42" y1="434" y2="434"/><line style="stroke: #2E8B57; stroke-width: 1.5;" x1="1738.42" x2="1868.42" y1="442" y2="442"/><rect fill="#FFF8DC" filter="url(#f1)" height="48" style="stroke: #2E8B57; stroke-width: 1.5;" width="91" x="1265.17" y="527"/><ellipse cx="1280.17" cy="543" fill="#ADD1B2" rx="11" ry="11" style="stroke: #2E8B57; stroke-width: 1.0;"/><path d="M1282.9356,544.5313 L1285.3263,545.2813 Q1284.7794,547.2656 1283.5059,548.2344 Q1282.2325,549.2031 1280.2638,549.2031 Q1277.8419,549.2031 1276.2872,547.5469 Q1274.7325,545.8906 1274.7325,543.0156 Q1274.7325,539.9844 1276.295,538.3047 Q1277.8575,536.625 1280.42,536.625 Q1282.6544,536.625 1284.045,537.9375 Q1284.8731,538.7188 1285.295,540.1875 L1282.8575,540.7656 Q1282.6388,539.8125 1281.9591,539.2656 Q1281.2794,538.7188 1280.295,538.7188 Q1278.9356,538.7188 1278.0997,539.6953 Q1277.2638,540.6719 1277.2638,542.8438 Q1277.2638,545.1406 1278.0919,546.125 Q1278.92,547.1094 1280.2481,547.1094 Q1281.2325,547.1094 1281.9356,546.4844 Q1282.6388,545.8594 1282.9356,544.5313 Z "/><text fill="#000000" font-size="12" lengthAdjust="spacingAndGlyphs" textLength="59" x="1294.17" y="547.4531">CardPanel</text><line style="stroke: #2E8B57; stroke-width: 1.5;" x1="1266.17" x2="1355.17" y1="559" y2="559"/><line style="stroke: #2E8B57; stroke-width: 1.5;" x1="1266.17" x2="1355.17" y1="567" y2="567"/><rect fill="#FFF8DC" filter="url(#f1)" height="48" style="stroke: #2E8B57; stroke-width: 1.5;" width="152" x="1756.42" y="527"/><ellipse cx="1771.42" cy="543" fill="#ADD1B2" rx="11" ry="11" style="stroke: #2E8B57; stroke-width: 1.0;"/><path d="M1774.1856,544.5313 L1776.5763,545.2813 Q1776.0294,547.2656 1774.7559,548.2344 Q1773.4825,549.2031 1771.5138,549.2031 Q1769.0919,549.2031 1767.5372,547.5469 Q1765.9825,545.8906 1765.9825,543.0156 Q1765.9825,539.9844 1767.545,538.3047 Q1769.1075,536.625 1771.67,536.625 Q1773.9044,536.625 1775.295,537.9375 Q1776.1231,538.7188 1776.545,540.1875 L1774.1075,540.7656 Q1773.8888,539.8125 1773.2091,539.2656 Q1772.5294,538.7188 1771.545,538.7188 Q1770.1856,538.7188 1769.3497,539.6953 Q1768.5138,540.6719 1768.5138,542.8438 Q1768.5138,545.1406 1769.3419,546.125 Q1770.17,547.1094 1771.4981,547.1094 Q1772.4825,547.1094 1773.1856,546.4844 Q1773.8888,545.8594 1774.1856,544.5313 Z "/><text fill="#000000" font-size="12" lengthAdjust="spacingAndGlyphs" textLength="120" x="1785.42" y="547.4531">SimEnvelopeAcceptor</text><line style="stroke: #2E8B57; stroke-width: 1.5;" x1="1757.42" x2="1907.42" y1="559" y2="559"/><line style="stroke: #2E8B57; stroke-width: 1.5;" x1="1757.42" x2="1907.42" y1="567" y2="567"/><rect fill="#FFF8DC" filter="url(#f1)" height="48" style="stroke: #2E8B57; stroke-width: 1.5;" width="142" x="1904.42" y="402"/><ellipse cx="1919.42" cy="418" fill="#ADD1B2" rx="11" ry="11" style="stroke: #2E8B57; stroke-width: 1.0;"/><path d="M1922.1856,419.5313 L1924.5763,420.2813 Q1924.0294,422.2656 1922.7559,423.2344 Q1921.4825,424.2031 1919.5138,424.2031 Q1917.0919,424.2031 1915.5372,422.5469 Q1913.9825,420.8906 1913.9825,418.0156 Q1913.9825,414.9844 1915.545,413.3047 Q1917.1075,411.625 1919.67,411.625 Q1921.9044,411.625 1923.295,412.9375 Q1924.1231,413.7188 1924.545,415.1875 L1922.1075,415.7656 Q1921.8888,414.8125 1921.2091,414.2656 Q1920.5294,413.7188 1919.545,413.7188 Q1918.1856,413.7188 1917.3497,414.6953 Q1916.5138,415.6719 1916.5138,417.8438 Q1916.5138,420.1406 1917.3419,421.125 Q1918.17,422.1094 1919.4981,422.1094 Q1920.4825,422.1094 1921.1856,421.4844 Q1921.8888,420.8594 1922.1856,419.5313 Z "/><text fill="#000000" font-size="12" lengthAdjust="spacingAndGlyphs" textLength="110" x="1933.42" y="422.4531">SimCashDispenser</text><line style="stroke: #2E8B57; stroke-width: 1.5;" x1="1905.42" x2="2045.42" y1="434" y2="434"/><line style="stroke: #2E8B57; stroke-width: 1.5;" x1="1905.42" x2="2045.42" y1="442" y2="442"/><rect fill="#FFF8DC" filter="url(#f1)" height="48" style="stroke: #2E8B57; stroke-width: 1.5;" width="87" x="1391.17" y="527"/><ellipse cx="1406.17" cy="543" fill="#ADD1B2" rx="11" ry="11" style="stroke: #2E8B57; stroke-width: 1.0;"/><path d="M1408.9356,544.5313 L1411.3263,545.2813 Q1410.7794,547.2656 1409.5059,548.2344 Q1408.2325,549.2031 1406.2638,549.2031 Q1403.8419,549.2031 1402.2872,547.5469 Q1400.7325,545.8906 1400.7325,543.0156 Q1400.7325,539.9844 1402.295,538.3047 Q1403.8575,536.625 1406.42,536.625 Q1408.6544,536.625 1410.045,537.9375 Q1410.8731,538.7188 1411.295,540.1875 L1408.8575,540.7656 Q1408.6388,539.8125 1407.9591,539.2656 Q1407.2794,538.7188 1406.295,538.7188 Q1404.9356,538.7188 1404.0997,539.6953 Q1403.2638,540.6719 1403.2638,542.8438 Q1403.2638,545.1406 1404.0919,546.125 Q1404.92,547.1094 1406.2481,547.1094 Q1407.2325,547.1094 1407.9356,546.4844 Q1408.6388,545.8594 1408.9356,544.5313 Z "/><text fill="#000000" font-size="12" lengthAdjust="spacingAndGlyphs" textLength="55" x="1420.17" y="547.4531">ATMPanel</text><line style="stroke: #2E8B57; stroke-width: 1.5;" x1="1392.17" x2="1477.17" y1="559" y2="559"/><line style="stroke: #2E8B57; stroke-width: 1.5;" x1="1392.17" x2="1477.17" y1="567" y2="567"/><rect fill="#FFF8DC" filter="url(#f1)" height="48" style="stroke: #2E8B57; stroke-width: 1.5;" width="85" x="1513.17" y="527"/><ellipse cx="1528.17" cy="543" fill="#ADD1B2" rx="11" ry="11" style="stroke: #2E8B57; stroke-width: 1.0;"/><path d="M1530.9356,544.5313 L1533.3263,545.2813 Q1532.7794,547.2656 1531.5059,548.2344 Q1530.2325,549.2031 1528.2638,549.2031 Q1525.8419,549.2031 1524.2872,547.5469 Q1522.7325,545.8906 1522.7325,543.0156 Q1522.7325,539.9844 1524.295,538.3047 Q1525.8575,536.625 1528.42,536.625 Q1530.6544,536.625 1532.045,537.9375 Q1532.8731,538.7188 1533.295,540.1875 L1530.8575,540.7656 Q1530.6388,539.8125 1529.9591,539.2656 Q1529.2794,538.7188 1528.295,538.7188 Q1526.9356,538.7188 1526.0997,539.6953 Q1525.2638,540.6719 1525.2638,542.8438 Q1525.2638,545.1406 1526.0919,546.125 Q1526.92,547.1094 1528.2481,547.1094 Q1529.2325,547.1094 1529.9356,546.4844 Q1530.6388,545.8594 1530.9356,544.5313 Z "/><text fill="#000000" font-size="12" lengthAdjust="spacingAndGlyphs" textLength="53" x="1542.17" y="547.4531">LogPanel</text><line style="stroke: #2E8B57; stroke-width: 1.5;" x1="1514.17" x2="1597.17" y1="559" y2="559"/><line style="stroke: #2E8B57; stroke-width: 1.5;" x1="1514.17" x2="1597.17" y1="567" y2="567"/><rect fill="#FFF8DC" filter="url(#f1)" height="48" style="stroke: #2E8B57; stroke-width: 1.5;" width="88" x="1633.42" y="527"/><ellipse cx="1648.42" cy="543" fill="#ADD1B2" rx="11" ry="11" style="stroke: #2E8B57; stroke-width: 1.0;"/><path d="M1651.1856,544.5313 L1653.5763,545.2813 Q1653.0294,547.2656 1651.7559,548.2344 Q1650.4825,549.2031 1648.5138,549.2031 Q1646.0919,549.2031 1644.5372,547.5469 Q1642.9825,545.8906 1642.9825,543.0156 Q1642.9825,539.9844 1644.545,538.3047 Q1646.1075,536.625 1648.67,536.625 Q1650.9044,536.625 1652.295,537.9375 Q1653.1231,538.7188 1653.545,540.1875 L1651.1075,540.7656 Q1650.8888,539.8125 1650.2091,539.2656 Q1649.5294,538.7188 1648.545,538.7188 Q1647.1856,538.7188 1646.3497,539.6953 Q1645.5138,540.6719 1645.5138,542.8438 Q1645.5138,545.1406 1646.3419,546.125 Q1647.17,547.1094 1648.4981,547.1094 Q1649.4825,547.1094 1650.1856,546.4844 Q1650.8888,545.8594 1651.1856,544.5313 Z "/><text fill="#000000" font-size="12" lengthAdjust="spacingAndGlyphs" textLength="56" x="1662.42" y="547.4531">BillsPanel</text><line style="stroke: #2E8B57; stroke-width: 1.5;" x1="1634.42" x2="1720.42" y1="559" y2="559"/><line style="stroke: #2E8B57; stroke-width: 1.5;" x1="1634.42" x2="1720.42" y1="567" y2="567"/><rect fill="#FFF8DC" filter="url(#f1)" height="48" style="stroke: #2E8B57; stroke-width: 1.5;" width="87" x="2257.17" y="294"/><ellipse cx="2272.17" cy="310" fill="#ADD1B2" rx="11" ry="11" style="stroke: #2E8B57; stroke-width: 1.0;"/><path d="M2274.9356,311.5313 L2277.3263,312.2813 Q2276.7794,314.2656 2275.5059,315.2344 Q2274.2325,316.2031 2272.2638,316.2031 Q2269.8419,316.2031 2268.2872,314.5469 Q2266.7325,312.8906 2266.7325,310.0156 Q2266.7325,306.9844 2268.295,305.3047 Q2269.8575,303.625 2272.42,303.625 Q2274.6544,303.625 2276.045,304.9375 Q2276.8731,305.7188 2277.295,307.1875 L2274.8575,307.7656 Q2274.6388,306.8125 2273.9591,306.2656 Q2273.2794,305.7188 2272.295,305.7188 Q2270.9356,305.7188 2270.0997,306.6953 Q2269.2638,307.6719 2269.2638,309.8438 Q2269.2638,312.1406 2270.0919,313.125 Q2270.92,314.1094 2272.2481,314.1094 Q2273.2325,314.1094 2273.9356,313.4844 Q2274.6388,312.8594 2274.9356,311.5313 Z "/><text fill="#000000" font-size="12" lengthAdjust="spacingAndGlyphs" textLength="55" x="2286.17" y="314.4531">InvalidPIN</text><line style="stroke: #2E8B57; stroke-width: 1.5;" x1="2258.17" x2="2343.17" y1="326" y2="326"/><line style="stroke: #2E8B57; stroke-width: 1.5;" x1="2258.17" x2="2343.17" y1="334" y2="334"/><rect fill="#FFF8DC" filter="url(#f1)" height="48" style="stroke: #2E8B57; stroke-width: 1.5;" width="80" x="2379.42" y="294"/><ellipse cx="2394.42" cy="310" fill="#ADD1B2" rx="11" ry="11" style="stroke: #2E8B57; stroke-width: 1.0;"/><path d="M2397.1856,311.5313 L2399.5763,312.2813 Q2399.0294,314.2656 2397.7559,315.2344 Q2396.4825,316.2031 2394.5138,316.2031 Q2392.0919,316.2031 2390.5372,314.5469 Q2388.9825,312.8906 2388.9825,310.0156 Q2388.9825,306.9844 2390.545,305.3047 Q2392.1075,303.625 2394.67,303.625 Q2396.9044,303.625 2398.295,304.9375 Q2399.1231,305.7188 2399.545,307.1875 L2397.1075,307.7656 Q2396.8888,306.8125 2396.2091,306.2656 Q2395.5294,305.7188 2394.545,305.7188 Q2393.1856,305.7188 2392.3497,306.6953 Q2391.5138,307.6719 2391.5138,309.8438 Q2391.5138,312.1406 2392.3419,313.125 Q2393.17,314.1094 2394.4981,314.1094 Q2395.4825,314.1094 2396.1856,313.4844 Q2396.8888,312.8594 2397.1856,311.5313 Z "/><text fill="#000000" font-size="12" lengthAdjust="spacingAndGlyphs" textLength="48" x="2408.42" y="314.4531">Success</text><line style="stroke: #2E8B57; stroke-width: 1.5;" x1="2380.42" x2="2458.42" y1="326" y2="326"/><line style="stroke: #2E8B57; stroke-width: 1.5;" x1="2380.42" x2="2458.42" y1="334" y2="334"/><rect fill="#FFF8DC" filter="url(#f1)" height="48" style="stroke: #2E8B57; stroke-width: 1.5;" width="97" x="3011.17" y="169"/><ellipse cx="3026.17" cy="185" fill="#ADD1B2" rx="11" ry="11" style="stroke: #2E8B57; stroke-width: 1.0;"/><path d="M3028.9356,186.5313 L3031.3263,187.2813 Q3030.7794,189.2656 3029.5059,190.2344 Q3028.2325,191.2031 3026.2638,191.2031 Q3023.8419,191.2031 3022.2872,189.5469 Q3020.7325,187.8906 3020.7325,185.0156 Q3020.7325,181.9844 3022.295,180.3047 Q3023.8575,178.625 3026.42,178.625 Q3028.6544,178.625 3030.045,179.9375 Q3030.8731,180.7188 3031.295,182.1875 L3028.8575,182.7656 Q3028.6388,181.8125 3027.9591,181.2656 Q3027.2794,180.7188 3026.295,180.7188 Q3024.9356,180.7188 3024.0997,181.6953 Q3023.2638,182.6719 3023.2638,184.8438 Q3023.2638,187.1406 3024.0919,188.125 Q3024.92,189.1094 3026.2481,189.1094 Q3027.2325,189.1094 3027.9356,188.4844 Q3028.6388,187.8594 3028.9356,186.5313 Z "/><text fill="#000000" font-size="12" lengthAdjust="spacingAndGlyphs" textLength="65" x="3040.17" y="189.4531">Transaction</text><line style="stroke: #2E8B57; stroke-width: 1.5;" x1="3012.17" x2="3107.17" y1="201" y2="201"/><line style="stroke: #2E8B57; stroke-width: 1.5;" x1="3012.17" x2="3107.17" y1="209" y2="209"/><rect fill="#FFF8DC" filter="url(#f1)" height="48" style="stroke: #2E8B57; stroke-width: 1.5;" width="78" x="3216.42" y="61"/><ellipse cx="3231.42" cy="77" fill="#ADD1B2" rx="11" ry="11" style="stroke: #2E8B57; stroke-width: 1.0;"/><path d="M3234.1856,78.5313 L3236.5763,79.2813 Q3236.0294,81.2656 3234.7559,82.2344 Q3233.4825,83.2031 3231.5138,83.2031 Q3229.0919,83.2031 3227.5372,81.5469 Q3225.9825,79.8906 3225.9825,77.0156 Q3225.9825,73.9844 3227.545,72.3047 Q3229.1075,70.625 3231.67,70.625 Q3233.9044,70.625 3235.295,71.9375 Q3236.1231,72.7188 3236.545,74.1875 L3234.1075,74.7656 Q3233.8888,73.8125 3233.2091,73.2656 Q3232.5294,72.7188 3231.545,72.7188 Q3230.1856,72.7188 3229.3497,73.6953 Q3228.5138,74.6719 3228.5138,76.8438 Q3228.5138,79.1406 3229.3419,80.125 Q3230.17,81.1094 3231.4981,81.1094 Q3232.4825,81.1094 3233.1856,80.4844 Q3233.8888,79.8594 3234.1856,78.5313 Z "/><text fill="#000000" font-size="12" lengthAdjust="spacingAndGlyphs" textLength="46" x="3245.42" y="81.4531">Transfer</text><line style="stroke: #2E8B57; stroke-width: 1.5;" x1="3217.42" x2="3293.42" y1="93" y2="93"/><line style="stroke: #2E8B57; stroke-width: 1.5;" x1="3217.42" x2="3293.42" y1="101" y2="101"/><rect fill="#FFF8DC" filter="url(#f1)" height="48" style="stroke: #2E8B57; stroke-width: 1.5;" width="75" x="3330.17" y="61"/><ellipse cx="3345.17" cy="77" fill="#ADD1B2" rx="11" ry="11" style="stroke: #2E8B57; stroke-width: 1.0;"/><path d="M3347.9356,78.5313 L3350.3263,79.2813 Q3349.7794,81.2656 3348.5059,82.2344 Q3347.2325,83.2031 3345.2638,83.2031 Q3342.8419,83.2031 3341.2872,81.5469 Q3339.7325,79.8906 3339.7325,77.0156 Q3339.7325,73.9844 3341.295,72.3047 Q3342.8575,70.625 3345.42,70.625 Q3347.6544,70.625 3349.045,71.9375 Q3349.8731,72.7188 3350.295,74.1875 L3347.8575,74.7656 Q3347.6388,73.8125 3346.9591,73.2656 Q3346.2794,72.7188 3345.295,72.7188 Q3343.9356,72.7188 3343.0997,73.6953 Q3342.2638,74.6719 3342.2638,76.8438 Q3342.2638,79.1406 3343.0919,80.125 Q3343.92,81.1094 3345.2481,81.1094 Q3346.2325,81.1094 3346.9356,80.4844 Q3347.6388,79.8594 3347.9356,78.5313 Z "/><text fill="#000000" font-size="12" lengthAdjust="spacingAndGlyphs" textLength="43" x="3359.17" y="81.4531">Deposit</text><line style="stroke: #2E8B57; stroke-width: 1.5;" x1="3331.17" x2="3404.17" y1="93" y2="93"/><line style="stroke: #2E8B57; stroke-width: 1.5;" x1="3331.17" x2="3404.17" y1="101" y2="101"/><rect fill="#FFF8DC" filter="url(#f1)" height="48" style="stroke: #2E8B57; stroke-width: 1.5;" width="68" x="2984.42" y="61"/><ellipse cx="2999.42" cy="77" fill="#ADD1B2" rx="11" ry="11" style="stroke: #2E8B57; stroke-width: 1.0;"/><path d="M3002.1856,78.5313 L3004.5763,79.2813 Q3004.0294,81.2656 3002.7559,82.2344 Q3001.4825,83.2031 2999.5138,83.2031 Q2997.0919,83.2031 2995.5372,81.5469 Q2993.9825,79.8906 2993.9825,77.0156 Q2993.9825,73.9844 2995.545,72.3047 Q2997.1075,70.625 2999.67,70.625 Q3001.9044,70.625 3003.295,71.9375 Q3004.1231,72.7188 3004.545,74.1875 L3002.1075,74.7656 Q3001.8888,73.8125 3001.2091,73.2656 Q3000.5294,72.7188 2999.545,72.7188 Q2998.1856,72.7188 2997.3497,73.6953 Q2996.5138,74.6719 2996.5138,76.8438 Q2996.5138,79.1406 2997.3419,80.125 Q2998.17,81.1094 2999.4981,81.1094 Q3000.4825,81.1094 3001.1856,80.4844 Q3001.8888,79.8594 3002.1856,78.5313 Z "/><text fill="#000000" font-size="12" lengthAdjust="spacingAndGlyphs" textLength="36" x="3013.42" y="81.4531">Inquiry</text><line style="stroke: #2E8B57; stroke-width: 1.5;" x1="2985.42" x2="3051.42" y1="93" y2="93"/><line style="stroke: #2E8B57; stroke-width: 1.5;" x1="2985.42" x2="3051.42" y1="101" y2="101"/><rect fill="#FFF8DC" filter="url(#f1)" height="48" style="stroke: #2E8B57; stroke-width: 1.5;" width="93" x="3088.17" y="61"/><ellipse cx="3103.17" cy="77" fill="#ADD1B2" rx="11" ry="11" style="stroke: #2E8B57; stroke-width: 1.0;"/><path d="M3105.9356,78.5313 L3108.3263,79.2813 Q3107.7794,81.2656 3106.5059,82.2344 Q3105.2325,83.2031 3103.2638,83.2031 Q3100.8419,83.2031 3099.2872,81.5469 Q3097.7325,79.8906 3097.7325,77.0156 Q3097.7325,73.9844 3099.295,72.3047 Q3100.8575,70.625 3103.42,70.625 Q3105.6544,70.625 3107.045,71.9375 Q3107.8731,72.7188 3108.295,74.1875 L3105.8575,74.7656 Q3105.6388,73.8125 3104.9591,73.2656 Q3104.2794,72.7188 3103.295,72.7188 Q3101.9356,72.7188 3101.0997,73.6953 Q3100.2638,74.6719 3100.2638,76.8438 Q3100.2638,79.1406 3101.0919,80.125 Q3101.92,81.1094 3103.2481,81.1094 Q3104.2325,81.1094 3104.9356,80.4844 Q3105.6388,79.8594 3105.9356,78.5313 Z "/><text fill="#000000" font-size="12" lengthAdjust="spacingAndGlyphs" textLength="61" x="3117.17" y="81.4531">Withdrawal</text><line style="stroke: #2E8B57; stroke-width: 1.5;" x1="3089.17" x2="3180.17" y1="93" y2="93"/><line style="stroke: #2E8B57; stroke-width: 1.5;" x1="3089.17" x2="3180.17" y1="101" y2="101"/><rect fill="#FFF8DC" filter="url(#f1)" height="48" style="stroke: #2E8B57; stroke-width: 1.5;" width="109" x="2840.17" y="61"/><ellipse cx="2855.17" cy="77" fill="#ADD1B2" rx="11" ry="11" style="stroke: #2E8B57; stroke-width: 1.0;"/><path d="M2857.9356,78.5313 L2860.3263,79.2813 Q2859.7794,81.2656 2858.5059,82.2344 Q2857.2325,83.2031 2855.2638,83.2031 Q2852.8419,83.2031 2851.2872,81.5469 Q2849.7325,79.8906 2849.7325,77.0156 Q2849.7325,73.9844 2851.295,72.3047 Q2852.8575,70.625 2855.42,70.625 Q2857.6544,70.625 2859.045,71.9375 Q2859.8731,72.7188 2860.295,74.1875 L2857.8575,74.7656 Q2857.6388,73.8125 2856.9591,73.2656 Q2856.2794,72.7188 2855.295,72.7188 Q2853.9356,72.7188 2853.0997,73.6953 Q2852.2638,74.6719 2852.2638,76.8438 Q2852.2638,79.1406 2853.0919,80.125 Q2853.92,81.1094 2855.2481,81.1094 Q2856.2325,81.1094 2856.9356,80.4844 Q2857.6388,79.8594 2857.9356,78.5313 Z "/><text fill="#000000" font-size="12" lengthAdjust="spacingAndGlyphs" textLength="77" x="2869.17" y="81.4531">CardRetained</text><line style="stroke: #2E8B57; stroke-width: 1.5;" x1="2841.17" x2="2948.17" y1="93" y2="93"/><line style="stroke: #2E8B57; stroke-width: 1.5;" x1="2841.17" x2="2948.17" y1="101" y2="101"/><rect fill="#FFF8DC" filter="url(#f1)" height="48" style="stroke: #2E8B57; stroke-width: 1.5;" width="67" x="3026.17" y="635"/><ellipse cx="3041.17" cy="651" fill="#ADD1B2" rx="11" ry="11" style="stroke: #2E8B57; stroke-width: 1.0;"/><path d="M3043.9356,652.5313 L3046.3263,653.2813 Q3045.7794,655.2656 3044.5059,656.2344 Q3043.2325,657.2031 3041.2638,657.2031 Q3038.8419,657.2031 3037.2872,655.5469 Q3035.7325,653.8906 3035.7325,651.0156 Q3035.7325,647.9844 3037.295,646.3047 Q3038.8575,644.625 3041.42,644.625 Q3043.6544,644.625 3045.045,645.9375 Q3045.8731,646.7188 3046.295,648.1875 L3043.8575,648.7656 Q3043.6388,647.8125 3042.9591,647.2656 Q3042.2794,646.7188 3041.295,646.7188 Q3039.9356,646.7188 3039.0997,647.6953 Q3038.2638,648.6719 3038.2638,650.8438 Q3038.2638,653.1406 3039.0919,654.125 Q3039.92,655.1094 3041.2481,655.1094 Q3042.2325,655.1094 3042.9356,654.4844 Q3043.6388,653.8594 3043.9356,652.5313 Z "/><text fill="#000000" font-size="12" lengthAdjust="spacingAndGlyphs" textLength="35" x="3055.17" y="655.4531">Money</text><line style="stroke: #2E8B57; stroke-width: 1.5;" x1="3027.17" x2="3092.17" y1="667" y2="667"/><line style="stroke: #2E8B57; stroke-width: 1.5;" x1="3027.17" x2="3092.17" y1="675" y2="675"/><rect fill="#FFF8DC" filter="url(#f1)" height="48" style="stroke: #2E8B57; stroke-width: 1.5;" width="67" x="2797.17" y="527"/><ellipse cx="2812.17" cy="543" fill="#ADD1B2" rx="11" ry="11" style="stroke: #2E8B57; stroke-width: 1.0;"/><path d="M2814.9356,544.5313 L2817.3263,545.2813 Q2816.7794,547.2656 2815.5059,548.2344 Q2814.2325,549.2031 2812.2638,549.2031 Q2809.8419,549.2031 2808.2872,547.5469 Q2806.7325,545.8906 2806.7325,543.0156 Q2806.7325,539.9844 2808.295,538.3047 Q2809.8575,536.625 2812.42,536.625 Q2814.6544,536.625 2816.045,537.9375 Q2816.8731,538.7188 2817.295,540.1875 L2814.8575,540.7656 Q2814.6388,539.8125 2813.9591,539.2656 Q2813.2794,538.7188 2812.295,538.7188 Q2810.9356,538.7188 2810.0997,539.6953 Q2809.2638,540.6719 2809.2638,542.8438 Q2809.2638,545.1406 2810.0919,546.125 Q2810.92,547.1094 2812.2481,547.1094 Q2813.2325,547.1094 2813.9356,546.4844 Q2814.6388,545.8594 2814.9356,544.5313 Z "/><text fill="#000000" font-size="12" lengthAdjust="spacingAndGlyphs" textLength="35" x="2826.17" y="547.4531">Status</text><line style="stroke: #2E8B57; stroke-width: 1.5;" x1="2798.17" x2="2863.17" y1="559" y2="559"/><line style="stroke: #2E8B57; stroke-width: 1.5;" x1="2798.17" x2="2863.17" y1="567" y2="567"/><rect fill="#FFF8DC" filter="url(#f1)" height="48" style="stroke: #2E8B57; stroke-width: 1.5;" width="83" x="2899.17" y="527"/><ellipse cx="2914.17" cy="543" fill="#ADD1B2" rx="11" ry="11" style="stroke: #2E8B57; stroke-width: 1.0;"/><path d="M2916.9356,544.5313 L2919.3263,545.2813 Q2918.7794,547.2656 2917.5059,548.2344 Q2916.2325,549.2031 2914.2638,549.2031 Q2911.8419,549.2031 2910.2872,547.5469 Q2908.7325,545.8906 2908.7325,543.0156 Q2908.7325,539.9844 2910.295,538.3047 Q2911.8575,536.625 2914.42,536.625 Q2916.6544,536.625 2918.045,537.9375 Q2918.8731,538.7188 2919.295,540.1875 L2916.8575,540.7656 Q2916.6388,539.8125 2915.9591,539.2656 Q2915.2794,538.7188 2914.295,538.7188 Q2912.9356,538.7188 2912.0997,539.6953 Q2911.2638,540.6719 2911.2638,542.8438 Q2911.2638,545.1406 2912.0919,546.125 Q2912.92,547.1094 2914.2481,547.1094 Q2915.2325,547.1094 2915.9356,546.4844 Q2916.6388,545.8594 2916.9356,544.5313 Z "/><text fill="#000000" font-size="12" lengthAdjust="spacingAndGlyphs" textLength="51" x="2928.17" y="547.4531">Message</text><line style="stroke: #2E8B57; stroke-width: 1.5;" x1="2900.17" x2="2981.17" y1="559" y2="559"/><line style="stroke: #2E8B57; stroke-width: 1.5;" x1="2900.17" x2="2981.17" y1="567" y2="567"/><rect fill="#FFF8DC" filter="url(#f1)" height="48" style="stroke: #2E8B57; stroke-width: 1.5;" width="84" x="3017.42" y="527"/><ellipse cx="3032.42" cy="543" fill="#ADD1B2" rx="11" ry="11" style="stroke: #2E8B57; stroke-width: 1.0;"/><path d="M3035.1856,544.5313 L3037.5763,545.2813 Q3037.0294,547.2656 3035.7559,548.2344 Q3034.4825,549.2031 3032.5138,549.2031 Q3030.0919,549.2031 3028.5372,547.5469 Q3026.9825,545.8906 3026.9825,543.0156 Q3026.9825,539.9844 3028.545,538.3047 Q3030.1075,536.625 3032.67,536.625 Q3034.9044,536.625 3036.295,537.9375 Q3037.1231,538.7188 3037.545,540.1875 L3035.1075,540.7656 Q3034.8888,539.8125 3034.2091,539.2656 Q3033.5294,538.7188 3032.545,538.7188 Q3031.1856,538.7188 3030.3497,539.6953 Q3029.5138,540.6719 3029.5138,542.8438 Q3029.5138,545.1406 3030.3419,546.125 Q3031.17,547.1094 3032.4981,547.1094 Q3033.4825,547.1094 3034.1856,546.4844 Q3034.8888,545.8594 3035.1856,544.5313 Z "/><text fill="#000000" font-size="12" lengthAdjust="spacingAndGlyphs" textLength="52" x="3046.42" y="547.4531">Balances</text><line style="stroke: #2E8B57; stroke-width: 1.5;" x1="3018.42" x2="3100.42" y1="559" y2="559"/><line style="stroke: #2E8B57; stroke-width: 1.5;" x1="3018.42" x2="3100.42" y1="567" y2="567"/><rect fill="#FFF8DC" filter="url(#f1)" height="48" style="stroke: #2E8B57; stroke-width: 1.5;" width="137" x="2625.17" y="527"/><ellipse cx="2640.17" cy="543" fill="#ADD1B2" rx="11" ry="11" style="stroke: #2E8B57; stroke-width: 1.0;"/><path d="M2642.9356,544.5313 L2645.3263,545.2813 Q2644.7794,547.2656 2643.5059,548.2344 Q2642.2325,549.2031 2640.2638,549.2031 Q2637.8419,549.2031 2636.2872,547.5469 Q2634.7325,545.8906 2634.7325,543.0156 Q2634.7325,539.9844 2636.295,538.3047 Q2637.8575,536.625 2640.42,536.625 Q2642.6544,536.625 2644.045,537.9375 Q2644.8731,538.7188 2645.295,540.1875 L2642.8575,540.7656 Q2642.6388,539.8125 2641.9591,539.2656 Q2641.2794,538.7188 2640.295,538.7188 Q2638.9356,538.7188 2638.0997,539.6953 Q2637.2638,540.6719 2637.2638,542.8438 Q2637.2638,545.1406 2638.0919,546.125 Q2638.92,547.1094 2640.2481,547.1094 Q2641.2325,547.1094 2641.9356,546.4844 Q2642.6388,545.8594 2642.9356,544.5313 Z "/><text fill="#000000" font-size="12" lengthAdjust="spacingAndGlyphs" textLength="105" x="2654.17" y="547.4531">AccountInformation</text><line style="stroke: #2E8B57; stroke-width: 1.5;" x1="2626.17" x2="2761.17" y1="559" y2="559"/><line style="stroke: #2E8B57; stroke-width: 1.5;" x1="2626.17" x2="2761.17" y1="567" y2="567"/><rect fill="#FFF8DC" filter="url(#f1)" height="48" style="stroke: #2E8B57; stroke-width: 1.5;" width="59" x="2921.17" y="635"/><ellipse cx="2936.17" cy="651" fill="#ADD1B2" rx="11" ry="11" style="stroke: #2E8B57; stroke-width: 1.0;"/><path d="M2938.9356,652.5313 L2941.3263,653.2813 Q2940.7794,655.2656 2939.5059,656.2344 Q2938.2325,657.2031 2936.2638,657.2031 Q2933.8419,657.2031 2932.2872,655.5469 Q2930.7325,653.8906 2930.7325,651.0156 Q2930.7325,647.9844 2932.295,646.3047 Q2933.8575,644.625 2936.42,644.625 Q2938.6544,644.625 2940.045,645.9375 Q2940.8731,646.7188 2941.295,648.1875 L2938.8575,648.7656 Q2938.6388,647.8125 2937.9591,647.2656 Q2937.2794,646.7188 2936.295,646.7188 Q2934.9356,646.7188 2934.0997,647.6953 Q2933.2638,648.6719 2933.2638,650.8438 Q2933.2638,653.1406 2934.0919,654.125 Q2934.92,655.1094 2936.2481,655.1094 Q2937.2325,655.1094 2937.9356,654.4844 Q2938.6388,653.8594 2938.9356,652.5313 Z "/><text fill="#000000" font-size="12" lengthAdjust="spacingAndGlyphs" textLength="27" x="2950.17" y="655.4531">Card</text><line style="stroke: #2E8B57; stroke-width: 1.5;" x1="2922.17" x2="2979.17" y1="667" y2="667"/><line style="stroke: #2E8B57; stroke-width: 1.5;" x1="2922.17" x2="2979.17" y1="675" y2="675"/><rect fill="#FFF8DC" filter="url(#f1)" height="48" style="stroke: #2E8B57; stroke-width: 1.5;" width="74" x="2515.42" y="527"/><ellipse cx="2530.42" cy="543" fill="#ADD1B2" rx="11" ry="11" style="stroke: #2E8B57; stroke-width: 1.0;"/><path d="M2533.1856,544.5313 L2535.5763,545.2813 Q2535.0294,547.2656 2533.7559,548.2344 Q2532.4825,549.2031 2530.5138,549.2031 Q2528.0919,549.2031 2526.5372,547.5469 Q2524.9825,545.8906 2524.9825,543.0156 Q2524.9825,539.9844 2526.545,538.3047 Q2528.1075,536.625 2530.67,536.625 Q2532.9044,536.625 2534.295,537.9375 Q2535.1231,538.7188 2535.545,540.1875 L2533.1075,540.7656 Q2532.8888,539.8125 2532.2091,539.2656 Q2531.5294,538.7188 2530.545,538.7188 Q2529.1856,538.7188 2528.3497,539.6953 Q2527.5138,540.6719 2527.5138,542.8438 Q2527.5138,545.1406 2528.3419,546.125 Q2529.17,547.1094 2530.4981,547.1094 Q2531.4825,547.1094 2532.1856,546.4844 Q2532.8888,545.8594 2533.1856,544.5313 Z "/><text fill="#000000" font-size="12" lengthAdjust="spacingAndGlyphs" textLength="42" x="2544.42" y="547.4531">Receipt</text><line style="stroke: #2E8B57; stroke-width: 1.5;" x1="2516.42" x2="2588.42" y1="559" y2="559"/><line style="stroke: #2E8B57; stroke-width: 1.5;" x1="2516.42" x2="2588.42" y1="567" y2="567"/><rect fill="#FFF8DC" filter="url(#f1)" height="48" style="stroke: #2E8B57; stroke-width: 1.5;" width="55" x="814.173" y="402"/><ellipse cx="829.173" cy="418" fill="#ADD1B2" rx="11" ry="11" style="stroke: #2E8B57; stroke-width: 1.0;"/><path d="M831.9386,419.5313 L834.3293,420.2813 Q833.7824,422.2656 832.5089,423.2344 Q831.2355,424.2031 829.2668,424.2031 Q826.8449,424.2031 825.2902,422.5469 Q823.7355,420.8906 823.7355,418.0156 Q823.7355,414.9844 825.298,413.3047 Q826.8605,411.625 829.423,411.625 Q831.6574,411.625 833.048,412.9375 Q833.8761,413.7188 834.298,415.1875 L831.8605,415.7656 Q831.6418,414.8125 830.9621,414.2656 Q830.2824,413.7188 829.298,413.7188 Q827.9386,413.7188 827.1027,414.6953 Q826.2668,415.6719 826.2668,417.8438 Q826.2668,420.1406 827.0949,421.125 Q827.923,422.1094 829.2511,422.1094 Q830.2355,422.1094 830.9386,421.4844 Q831.6418,420.8594 831.9386,419.5313 Z "/><text fill="#000000" font-size="12" lengthAdjust="spacingAndGlyphs" textLength="23" x="843.173" y="422.4531">ATM</text><line style="stroke: #2E8B57; stroke-width: 1.5;" x1="815.173" x2="868.173" y1="434" y2="434"/><line style="stroke: #2E8B57; stroke-width: 1.5;" x1="815.173" x2="868.173" y1="442" y2="442"/><rect fill="#FFF8DC" filter="url(#f1)" height="48" style="stroke: #2E8B57; stroke-width: 1.5;" width="78" x="813.423" y="294"/><ellipse cx="828.423" cy="310" fill="#ADD1B2" rx="11" ry="11" style="stroke: #2E8B57; stroke-width: 1.0;"/><path d="M831.1886,311.5313 L833.5793,312.2813 Q833.0324,314.2656 831.7589,315.2344 Q830.4855,316.2031 828.5168,316.2031 Q826.0949,316.2031 824.5402,314.5469 Q822.9855,312.8906 822.9855,310.0156 Q822.9855,306.9844 824.548,305.3047 Q826.1105,303.625 828.673,303.625 Q830.9074,303.625 832.298,304.9375 Q833.1261,305.7188 833.548,307.1875 L831.1105,307.7656 Q830.8918,306.8125 830.2121,306.2656 Q829.5324,305.7188 828.548,305.7188 Q827.1886,305.7188 826.3527,306.6953 Q825.5168,307.6719 825.5168,309.8438 Q825.5168,312.1406 826.3449,313.125 Q827.173,314.1094 828.5011,314.1094 Q829.4855,314.1094 830.1886,313.4844 Q830.8918,312.8594 831.1886,311.5313 Z "/><text fill="#000000" font-size="12" lengthAdjust="spacingAndGlyphs" textLength="46" x="842.423" y="314.4531">Session</text><line style="stroke: #2E8B57; stroke-width: 1.5;" x1="814.423" x2="890.423" y1="326" y2="326"/><line style="stroke: #2E8B57; stroke-width: 1.5;" x1="814.423" x2="890.423" y1="334" y2="334"/><rect fill="#FFF8DC" filter="url(#f1)" height="48" style="stroke: #2E8B57; stroke-width: 1.5;" width="53" x="241.173" y="635"/><ellipse cx="256.173" cy="651" fill="#ADD1B2" rx="11" ry="11" style="stroke: #2E8B57; stroke-width: 1.0;"/><path d="M258.9386,652.5313 L261.3293,653.2813 Q260.7824,655.2656 259.5089,656.2344 Q258.2355,657.2031 256.2668,657.2031 Q253.8449,657.2031 252.2902,655.5469 Q250.7355,653.8906 250.7355,651.0156 Q250.7355,647.9844 252.298,646.3047 Q253.8605,644.625 256.423,644.625 Q258.6574,644.625 260.048,645.9375 Q260.8761,646.7188 261.298,648.1875 L258.8605,648.7656 Q258.6418,647.8125 257.9621,647.2656 Q257.2824,646.7188 256.298,646.7188 Q254.9386,646.7188 254.1027,647.6953 Q253.2668,648.6719 253.2668,650.8438 Q253.2668,653.1406 254.0949,654.125 Q254.923,655.1094 256.2511,655.1094 Q257.2355,655.1094 257.9386,654.4844 Q258.6418,653.8594 258.9386,652.5313 Z "/><text fill="#000000" font-size="12" lengthAdjust="spacingAndGlyphs" textLength="21" x="270.173" y="655.4531">Log</text><line style="stroke: #2E8B57; stroke-width: 1.5;" x1="242.173" x2="293.173" y1="667" y2="667"/><line style="stroke: #2E8B57; stroke-width: 1.5;" x1="242.173" x2="293.173" y1="675" y2="675"/><rect fill="#FFF8DC" filter="url(#f1)" height="48" style="stroke: #2E8B57; stroke-width: 1.5;" width="134" x="774.423" y="527"/><ellipse cx="789.423" cy="543" fill="#ADD1B2" rx="11" ry="11" style="stroke: #2E8B57; stroke-width: 1.0;"/><path d="M792.1886,544.5313 L794.5793,545.2813 Q794.0324,547.2656 792.7589,548.2344 Q791.4855,549.2031 789.5168,549.2031 Q787.0949,549.2031 785.5402,547.5469 Q783.9855,545.8906 783.9855,543.0156 Q783.9855,539.9844 785.548,538.3047 Q787.1105,536.625 789.673,536.625 Q791.9074,536.625 793.298,537.9375 Q794.1261,538.7188 794.548,540.1875 L792.1105,540.7656 Q791.8918,539.8125 791.2121,539.2656 Q790.5324,538.7188 789.548,538.7188 Q788.1886,538.7188 787.3527,539.6953 Q786.5168,540.6719 786.5168,542.8438 Q786.5168,545.1406 787.3449,546.125 Q788.173,547.1094 789.5011,547.1094 Q790.4855,547.1094 791.1886,546.4844 Q791.8918,545.8594 792.1886,544.5313 Z "/><text fill="#000000" font-size="12" lengthAdjust="spacingAndGlyphs" textLength="102" x="803.423" y="547.4531">CustomerConsole</text><line style="stroke: #2E8B57; stroke-width: 1.5;" x1="775.423" x2="907.423" y1="559" y2="559"/><line style="stroke: #2E8B57; stroke-width: 1.5;" x1="775.423" x2="907.423" y1="567" y2="567"/><rect fill="#FFF8DC" filter="url(#f1)" height="48" style="stroke: #2E8B57; stroke-width: 1.5;" width="100" x="639.423" y="527"/><ellipse cx="654.423" cy="543" fill="#ADD1B2" rx="11" ry="11" style="stroke: #2E8B57; stroke-width: 1.0;"/><path d="M657.1886,544.5313 L659.5793,545.2813 Q659.0324,547.2656 657.7589,548.2344 Q656.4855,549.2031 654.5168,549.2031 Q652.0949,549.2031 650.5402,547.5469 Q648.9855,545.8906 648.9855,543.0156 Q648.9855,539.9844 650.548,538.3047 Q652.1105,536.625 654.673,536.625 Q656.9074,536.625 658.298,537.9375 Q659.1261,538.7188 659.548,540.1875 L657.1105,540.7656 Q656.8918,539.8125 656.2121,539.2656 Q655.5324,538.7188 654.548,538.7188 Q653.1886,538.7188 652.3527,539.6953 Q651.5168,540.6719 651.5168,542.8438 Q651.5168,545.1406 652.3449,546.125 Q653.173,547.1094 654.5011,547.1094 Q655.4855,547.1094 656.1886,546.4844 Q656.8918,545.8594 657.1886,544.5313 Z "/><text fill="#000000" font-size="12" lengthAdjust="spacingAndGlyphs" textLength="68" x="668.423" y="547.4531">CardReader</text><line style="stroke: #2E8B57; stroke-width: 1.5;" x1="640.423" x2="738.423" y1="559" y2="559"/><line style="stroke: #2E8B57; stroke-width: 1.5;" x1="640.423" x2="738.423" y1="567" y2="567"/><rect fill="#FFF8DC" filter="url(#f1)" height="48" style="stroke: #2E8B57; stroke-width: 1.5;" width="120" x="943.423" y="527"/><ellipse cx="958.423" cy="543" fill="#ADD1B2" rx="11" ry="11" style="stroke: #2E8B57; stroke-width: 1.0;"/><path d="M961.1886,544.5313 L963.5793,545.2813 Q963.0324,547.2656 961.7589,548.2344 Q960.4855,549.2031 958.5168,549.2031 Q956.0949,549.2031 954.5402,547.5469 Q952.9855,545.8906 952.9855,543.0156 Q952.9855,539.9844 954.548,538.3047 Q956.1105,536.625 958.673,536.625 Q960.9074,536.625 962.298,537.9375 Q963.1261,538.7188 963.548,540.1875 L961.1105,540.7656 Q960.8918,539.8125 960.2121,539.2656 Q959.5324,538.7188 958.548,538.7188 Q957.1886,538.7188 956.3527,539.6953 Q955.5168,540.6719 955.5168,542.8438 Q955.5168,545.1406 956.3449,546.125 Q957.173,547.1094 958.5011,547.1094 Q959.4855,547.1094 960.1886,546.4844 Q960.8918,545.8594 961.1886,544.5313 Z "/><text fill="#000000" font-size="12" lengthAdjust="spacingAndGlyphs" textLength="88" x="972.423" y="547.4531">CashDispenser</text><line style="stroke: #2E8B57; stroke-width: 1.5;" x1="944.423" x2="1062.423" y1="559" y2="559"/><line style="stroke: #2E8B57; stroke-width: 1.5;" x1="944.423" x2="1062.423" y1="567" y2="567"/><rect fill="#FFF8DC" filter="url(#f1)" height="48" style="stroke: #2E8B57; stroke-width: 1.5;" width="119" x="362.173" y="527"/><ellipse cx="377.173" cy="543" fill="#ADD1B2" rx="11" ry="11" style="stroke: #2E8B57; stroke-width: 1.0;"/><path d="M379.9386,544.5313 L382.3293,545.2813 Q381.7824,547.2656 380.5089,548.2344 Q379.2355,549.2031 377.2668,549.2031 Q374.8449,549.2031 373.2902,547.5469 Q371.7355,545.8906 371.7355,543.0156 Q371.7355,539.9844 373.298,538.3047 Q374.8605,536.625 377.423,536.625 Q379.6574,536.625 381.048,537.9375 Q381.8761,538.7188 382.298,540.1875 L379.8605,540.7656 Q379.6418,539.8125 378.9621,539.2656 Q378.2824,538.7188 377.298,538.7188 Q375.9386,538.7188 375.1027,539.6953 Q374.2668,540.6719 374.2668,542.8438 Q374.2668,545.1406 375.0949,546.125 Q375.923,547.1094 377.2511,547.1094 Q378.2355,547.1094 378.9386,546.4844 Q379.6418,545.8594 379.9386,544.5313 Z "/><text fill="#000000" font-size="12" lengthAdjust="spacingAndGlyphs" textLength="87" x="391.173" y="547.4531">NetworkToBank</text><line style="stroke: #2E8B57; stroke-width: 1.5;" x1="363.173" x2="480.173" y1="559" y2="559"/><line style="stroke: #2E8B57; stroke-width: 1.5;" x1="363.173" x2="480.173" y1="567" y2="567"/><rect fill="#FFF8DC" filter="url(#f1)" height="48" style="stroke: #2E8B57; stroke-width: 1.5;" width="88" x="516.423" y="527"/><ellipse cx="531.423" cy="543" fill="#ADD1B2" rx="11" ry="11" style="stroke: #2E8B57; stroke-width: 1.0;"/><path d="M534.1886,544.5313 L536.5793,545.2813 Q536.0324,547.2656 534.7589,548.2344 Q533.4855,549.2031 531.5168,549.2031 Q529.0949,549.2031 527.5402,547.5469 Q525.9855,545.8906 525.9855,543.0156 Q525.9855,539.9844 527.548,538.3047 Q529.1105,536.625 531.673,536.625 Q533.9074,536.625 535.298,537.9375 Q536.1261,538.7188 536.548,540.1875 L534.1105,540.7656 Q533.8918,539.8125 533.2121,539.2656 Q532.5324,538.7188 531.548,538.7188 Q530.1886,538.7188 529.3527,539.6953 Q528.5168,540.6719 528.5168,542.8438 Q528.5168,545.1406 529.3449,546.125 Q530.173,547.1094 531.5011,547.1094 Q532.4855,547.1094 533.1886,546.4844 Q533.8918,545.8594 534.1886,544.5313 Z "/><text fill="#000000" font-size="12" lengthAdjust="spacingAndGlyphs" textLength="56" x="545.423" y="547.4531">Cancelled</text><line style="stroke: #2E8B57; stroke-width: 1.5;" x1="517.423" x2="603.423" y1="559" y2="559"/><line style="stroke: #2E8B57; stroke-width: 1.5;" x1="517.423" x2="603.423" y1="567" y2="567"/><rect fill="#FFF8DC" filter="url(#f1)" height="48" style="stroke: #2E8B57; stroke-width: 1.5;" width="112" x="214.423" y="527"/><ellipse cx="229.423" cy="543" fill="#ADD1B2" rx="11" ry="11" style="stroke: #2E8B57; stroke-width: 1.0;"/><path d="M232.1886,544.5313 L234.5793,545.2813 Q234.0324,547.2656 232.7589,548.2344 Q231.4855,549.2031 229.5168,549.2031 Q227.0949,549.2031 225.5402,547.5469 Q223.9855,545.8906 223.9855,543.0156 Q223.9855,539.9844 225.548,538.3047 Q227.1105,536.625 229.673,536.625 Q231.9074,536.625 233.298,537.9375 Q234.1261,538.7188 234.548,540.1875 L232.1105,540.7656 Q231.8918,539.8125 231.2121,539.2656 Q230.5324,538.7188 229.548,538.7188 Q228.1886,538.7188 227.3527,539.6953 Q226.5168,540.6719 226.5168,542.8438 Q226.5168,545.1406 227.3449,546.125 Q228.173,547.1094 229.5011,547.1094 Q230.4855,547.1094 231.1886,546.4844 Q231.8918,545.8594 232.1886,544.5313 Z "/><text fill="#000000" font-size="12" lengthAdjust="spacingAndGlyphs" textLength="80" x="243.423" y="547.4531">OperatorPanel</text><line style="stroke: #2E8B57; stroke-width: 1.5;" x1="215.423" x2="325.423" y1="559" y2="559"/><line style="stroke: #2E8B57; stroke-width: 1.5;" x1="215.423" x2="325.423" y1="567" y2="567"/><rect fill="#FFF8DC" filter="url(#f1)" height="48" style="stroke: #2E8B57; stroke-width: 1.5;" width="110" x="1098.42" y="527"/><ellipse cx="1113.42" cy="543" fill="#ADD1B2" rx="11" ry="11" style="stroke: #2E8B57; stroke-width: 1.0;"/><path d="M1116.1856,544.5313 L1118.5763,545.2813 Q1118.0294,547.2656 1116.7559,548.2344 Q1115.4825,549.2031 1113.5138,549.2031 Q1111.0919,549.2031 1109.5372,547.5469 Q1107.9825,545.8906 1107.9825,543.0156 Q1107.9825,539.9844 1109.545,538.3047 Q1111.1075,536.625 1113.67,536.625 Q1115.9044,536.625 1117.295,537.9375 Q1118.1231,538.7188 1118.545,540.1875 L1116.1075,540.7656 Q1115.8888,539.8125 1115.2091,539.2656 Q1114.5294,538.7188 1113.545,538.7188 Q1112.1856,538.7188 1111.3497,539.6953 Q1110.5138,540.6719 1110.5138,542.8438 Q1110.5138,545.1406 1111.3419,546.125 Q1112.17,547.1094 1113.4981,547.1094 Q1114.4825,547.1094 1115.1856,546.4844 Q1115.8888,545.8594 1116.1856,544.5313 Z "/><text fill="#000000" font-size="12" lengthAdjust="spacingAndGlyphs" textLength="78" x="1127.42" y="547.4531">ReceiptPrinter</text><line style="stroke: #2E8B57; stroke-width: 1.5;" x1="1099.42" x2="1207.42" y1="559" y2="559"/><line style="stroke: #2E8B57; stroke-width: 1.5;" x1="1099.42" x2="1207.42" y1="567" y2="567"/><rect fill="#FFF8DC" filter="url(#f1)" height="48" style="stroke: #2E8B57; stroke-width: 1.5;" width="130" x="49.4233" y="527"/><ellipse cx="64.4233" cy="543" fill="#ADD1B2" rx="11" ry="11" style="stroke: #2E8B57; stroke-width: 1.0;"/><path d="M67.1889,544.5313 L69.5796,545.2813 Q69.0327,547.2656 67.7592,548.2344 Q66.4858,549.2031 64.5171,549.2031 Q62.0952,549.2031 60.5405,547.5469 Q58.9858,545.8906 58.9858,543.0156 Q58.9858,539.9844 60.5483,538.3047 Q62.1108,536.625 64.6733,536.625 Q66.9077,536.625 68.2983,537.9375 Q69.1264,538.7188 69.5483,540.1875 L67.1108,540.7656 Q66.8921,539.8125 66.2124,539.2656 Q65.5327,538.7188 64.5483,538.7188 Q63.1889,538.7188 62.353,539.6953 Q61.5171,540.6719 61.5171,542.8438 Q61.5171,545.1406 62.3452,546.125 Q63.1733,547.1094 64.5014,547.1094 Q65.4858,547.1094 66.1889,546.4844 Q66.8921,545.8594 67.1889,544.5313 Z "/><text fill="#000000" font-size="12" lengthAdjust="spacingAndGlyphs" textLength="98" x="78.4233" y="547.4531">EnvelopeAcceptor</text><line style="stroke: #2E8B57; stroke-width: 1.5;" x1="50.4233" x2="178.4233" y1="559" y2="559"/><line style="stroke: #2E8B57; stroke-width: 1.5;" x1="50.4233" x2="178.4233" y1="567" y2="567"/><rect fill="#FFF8DC" filter="url(#f1)" height="48" style="stroke: #2E8B57; stroke-width: 1.5;" width="89" x="3578.17" y="61"/><ellipse cx="3593.17" cy="77" fill="#ADD1B2" rx="11" ry="11" style="stroke: #2E8B57; stroke-width: 1.0;"/><path d="M3595.9356,78.5313 L3598.3263,79.2813 Q3597.7794,81.2656 3596.5059,82.2344 Q3595.2325,83.2031 3593.2638,83.2031 Q3590.8419,83.2031 3589.2872,81.5469 Q3587.7325,79.8906 3587.7325,77.0156 Q3587.7325,73.9844 3589.295,72.3047 Q3590.8575,70.625 3593.42,70.625 Q3595.6544,70.625 3597.045,71.9375 Q3597.8731,72.7188 3598.295,74.1875 L3595.8575,74.7656 Q3595.6388,73.8125 3594.9591,73.2656 Q3594.2794,72.7188 3593.295,72.7188 Q3591.9356,72.7188 3591.0997,73.6953 Q3590.2638,74.6719 3590.2638,76.8438 Q3590.2638,79.1406 3591.0919,80.125 Q3591.92,81.1094 3593.2481,81.1094 Q3594.2325,81.1094 3594.9356,80.4844 Q3595.6388,79.8594 3595.9356,78.5313 Z "/><text fill="#000000" font-size="12" lengthAdjust="spacingAndGlyphs" textLength="57" x="3607.17" y="81.4531">ATMApplet</text><line style="stroke: #2E8B57; stroke-width: 1.5;" x1="3579.17" x2="3666.17" y1="93" y2="93"/><line style="stroke: #2E8B57; stroke-width: 1.5;" x1="3579.17" x2="3666.17" y1="101" y2="101"/><rect fill="#FFF8DC" filter="url(#f1)" height="48" style="stroke: #2E8B57; stroke-width: 1.5;" width="81" x="3462.17" y="61"/><ellipse cx="3477.17" cy="77" fill="#ADD1B2" rx="11" ry="11" style="stroke: #2E8B57; stroke-width: 1.0;"/><path d="M3479.9356,78.5313 L3482.3263,79.2813 Q3481.7794,81.2656 3480.5059,82.2344 Q3479.2325,83.2031 3477.2638,83.2031 Q3474.8419,83.2031 3473.2872,81.5469 Q3471.7325,79.8906 3471.7325,77.0156 Q3471.7325,73.9844 3473.295,72.3047 Q3474.8575,70.625 3477.42,70.625 Q3479.6544,70.625 3481.045,71.9375 Q3481.8731,72.7188 3482.295,74.1875 L3479.8575,74.7656 Q3479.6388,73.8125 3478.9591,73.2656 Q3478.2794,72.7188 3477.295,72.7188 Q3475.9356,72.7188 3475.0997,73.6953 Q3474.2638,74.6719 3474.2638,76.8438 Q3474.2638,79.1406 3475.0919,80.125 Q3475.92,81.1094 3477.2481,81.1094 Q3478.2325,81.1094 3478.9356,80.4844 Q3479.6388,79.8594 3479.9356,78.5313 Z "/><text fill="#000000" font-size="12" lengthAdjust="spacingAndGlyphs" textLength="49" x="3491.17" y="81.4531">ATMMain</text><line style="stroke: #2E8B57; stroke-width: 1.5;" x1="3463.17" x2="3542.17" y1="93" y2="93"/><line style="stroke: #2E8B57; stroke-width: 1.5;" x1="3463.17" x2="3542.17" y1="101" y2="101"/><rect fill="#FFF8DC" filter="url(#f1)" height="48" style="stroke: #2E8B57; stroke-width: 1.5;" width="106" x="3723.42" y="61"/><ellipse cx="3738.42" cy="77" fill="#ADD1B2" rx="11" ry="11" style="stroke: #2E8B57; stroke-width: 1.0;"/><path d="M3741.1856,78.5313 L3743.5763,79.2813 Q3743.0294,81.2656 3741.7559,82.2344 Q3740.4825,83.2031 3738.5138,83.2031 Q3736.0919,83.2031 3734.5372,81.5469 Q3732.9825,79.8906 3732.9825,77.0156 Q3732.9825,73.9844 3734.545,72.3047 Q3736.1075,70.625 3738.67,70.625 Q3740.9044,70.625 3742.295,71.9375 Q3743.1231,72.7188 3743.545,74.1875 L3741.1075,74.7656 Q3740.8888,73.8125 3740.2091,73.2656 Q3739.5294,72.7188 3738.545,72.7188 Q3737.1856,72.7188 3736.3497,73.6953 Q3735.5138,74.6719 3735.5138,76.8438 Q3735.5138,79.1406 3736.3419,80.125 Q3737.17,81.1094 3738.4981,81.1094 Q3739.4825,81.1094 3740.1856,80.4844 Q3740.8888,79.8594 3741.1856,78.5313 Z "/><text fill="#000000" font-size="12" lengthAdjust="spacingAndGlyphs" textLength="74" x="3752.42" y="81.4531">EARootClass</text><line style="stroke: #2E8B57; stroke-width: 1.5;" x1="3724.42" x2="3828.42" y1="93" y2="93"/><line style="stroke: #2E8B57; stroke-width: 1.5;" x1="3724.42" x2="3828.42" y1="101" y2="101"/><path d="M709.998,526.686 C722.702,512.93 739.719,495.607 756.423,482 C774.548,467.236 796.783,452.968 813.965,442.665 " fill="none" style="stroke: #A80036; stroke-width: 1.0;"/><path d="M868.929,443.67 C885.653,454.131 907.222,468.21 925.423,482 C942.308,494.792 960.187,510.227 974.561,523.156 " fill="none" style="stroke: #A80036; stroke-width: 1.0;"/><polygon fill="#A80036" points="978.519,526.731,974.5218,517.7297,974.8087,523.3793,969.1591,523.6662,978.519,526.731" style="stroke: #A80036; stroke-width: 1.0;"/><path d="M841.423,450.135 C841.423,470.494 841.423,500.191 841.423,521.908 " fill="none" style="stroke: #A80036; stroke-width: 1.0;"/><polygon fill="#A80036" points="841.423,526.968,845.423,517.968,841.423,521.968,837.423,517.968,841.423,526.968" style="stroke: #A80036; stroke-width: 1.0;"/><path d="M813.901,427.174 C705.844,428.188 310.955,435.095 196.423,482 C174.335,491.046 153.676,508.254 138.62,523.096 " fill="none" style="stroke: #A80036; stroke-width: 1.0;"/><polygon fill="#A80036" points="134.916,526.812,144.1034,523.2635,138.4465,523.2715,138.4385,517.6146,134.916,526.812" style="stroke: #A80036; stroke-width: 1.0;"/><path d="M813.805,426.7 C678.058,425.505 85.9139,423.684 31.4233,482 C-4.079,519.995 -0.5782,558.013 31.4233,599 C56.4634,631.0708 177.508,648.2885 235.851,654.8434 " fill="none" style="stroke: #A80036; stroke-width: 1.0;"/><polygon fill="#A80036" points="240.958,655.4079,232.4512,650.4446,235.9882,654.8593,231.5735,658.3963,240.958,655.4079" style="stroke: #A80036; stroke-width: 1.0;"/><path d="M814.122,426.344 C754.012,425.943 606.946,430.75 498.423,482 C477.907,491.689 458.766,508.541 444.7,523.044 " fill="none" style="stroke: #A80036; stroke-width: 1.0;"/><polygon fill="#A80036" points="441.236,526.675,450.343,522.925,444.6877,523.0576,444.5551,517.4023,441.236,526.675" style="stroke: #A80036; stroke-width: 1.0;"/><path d="M288.538,526.994 C302.14,511.498 322.187,492.109 344.423,482 C429.477,443.333 722.869,430.806 814.119,427.798 " fill="none" style="stroke: #A80036; stroke-width: 1.0;"/><path d="M868.825,428.696 C914.988,432.527 1010.1,444.664 1080.42,482 C1099.58,492.171 1117.46,508.662 1130.73,522.857 " fill="none" style="stroke: #A80036; stroke-width: 1.0;"/><polygon fill="#A80036" points="1134.35,526.793,1131.2112,517.4577,1130.9691,523.1094,1125.3174,522.8672,1134.35,526.793" style="stroke: #A80036; stroke-width: 1.0;"/><path d="M850.036,342 C848.376,358.003 846.151,379.446 844.378,396.528 " fill="none" style="stroke: #A80036; stroke-width: 1.0;"/><polygon fill="#A80036" points="843.843,401.678,848.7525,393.14,844.3602,396.7048,840.7954,392.3125,843.843,401.678" style="stroke: #A80036; stroke-width: 1.0;"/><path d="M972.381,575.153 C958.68,584.16 941.954,593.598 925.423,599 C806.704,637.7982 413.738,653.2841 299.085,657.0423 " fill="none" style="stroke: #A80036; stroke-width: 1.0;"/><polygon fill="#A80036" points="293.838,657.2125,302.9635,660.9172,298.8353,657.0496,302.7029,652.9215,293.838,657.2125" style="stroke: #A80036; stroke-width: 1.0;"/><path d="M1033.12,575.227 C1046.74,584.486 1063.58,594.095 1080.42,599 C1284.86,658.54 2787.11,595.955 2996.42,635 C3004.58,636.5206 3013.07,638.9752 3021.08,641.7265 " fill="none" style="stroke: #A80036; stroke-width: 1.0;"/><polygon fill="#A80036" points="3026,643.4722,3018.855,636.6936,3021.2877,641.8007,3016.1806,644.2334,3026,643.4722" style="stroke: #A80036; stroke-width: 1.0;"/><path d="M147.622,575 C174.042,593.304 210.736,618.7264 236.532,636.5982 " fill="none" style="stroke: #A80036; stroke-width: 1.0;"/><polygon fill="#A80036" points="240.896,639.6213,235.7755,631.2082,236.7859,636.7741,231.22,637.7844,240.896,639.6213" style="stroke: #A80036; stroke-width: 1.0;"/><path d="M388.008,575 C361.415,593.304 324.481,618.7264 298.516,636.5982 " fill="none" style="stroke: #A80036; stroke-width: 1.0;"/><polygon fill="#A80036" points="294.124,639.6213,303.8057,637.8144,298.243,636.7868,299.2706,631.2241,294.124,639.6213" style="stroke: #A80036; stroke-width: 1.0;"/><path d="M3367.42,109.28 C3367.42,150.941 3367.42,241.003 3367.42,317 C3367.42,317 3367.42,317 3367.42,427 C3367.42,512.27 3348.45,545.037 3282.42,599 C3228.87,642.7709 3146.08,654.3358 3097.88,657.2278 " fill="none" style="stroke: #A80036; stroke-width: 1.0;"/><polygon fill="#A80036" points="3092.75,657.5105,3101.9638,660.9897,3097.7418,657.2248,3101.5068,653.0028,3092.75,657.5105" style="stroke: #A80036; stroke-width: 1.0;"/><path d="M3010.96,194.248 C2685.99,196.025 835.5,207.938 795.423,249 C756.102,289.288 793.843,358.802 820.392,397.309 " fill="none" style="stroke: #A80036; stroke-width: 1.0;"/><polygon fill="#A80036" points="823.569,401.847,821.6845,392.1801,820.7016,397.7509,815.1308,396.768,823.569,401.847" style="stroke: #A80036; stroke-width: 1.0;"/><path d="M3011.15,194.552 C2760.44,197.56 1604.83,213.165 1248.42,249 C1119.64,261.948 969.512,291.849 896.632,307.326 " fill="none" style="stroke: #A80036; stroke-width: 1.0;"/><polygon fill="#A80036" points="891.519,308.415,901.1548,310.4526,896.4093,307.3735,899.4884,302.628,891.519,308.415" style="stroke: #A80036; stroke-width: 1.0;"/><path d="M3059.42,217.084 C3059.42,279.853 3059.42,453.504 3059.42,521.845 " fill="none" style="stroke: #A80036; stroke-width: 1.0;"/><polygon fill="#A80036" points="3059.42,526.968,3063.42,517.968,3059.42,521.968,3055.42,517.968,3059.42,526.968" style="stroke: #A80036; stroke-width: 1.0;"/><path d="M3073.2,217.303 C3110.65,283.983 3205.79,478.477 3118.42,599 C3088.23,640.6484 3056.8,617.5107 3008.42,635 C3000.66,637.8059 2992.38,640.9788 2984.58,644.0517 " fill="none" style="stroke: #A80036; stroke-width: 1.0;"/><polygon fill="#A80036" points="2979.8,645.948,2989.6407,646.3497,2984.4481,644.1053,2986.6924,638.9128,2979.8,645.948" style="stroke: #A80036; stroke-width: 1.0;"/><path d="M3051.71,217.084 C3030.73,279.853 2972.68,453.504 2949.83,521.845 " fill="none" style="stroke: #A80036; stroke-width: 1.0;"/><polygon fill="#A80036" points="2948.12,526.968,2954.7654,519.699,2949.7041,522.2256,2947.1775,517.1643,2948.12,526.968" style="stroke: #A80036; stroke-width: 1.0;"/><path d="M3262.29,109.039 C3273.96,150.324 3296.42,239.815 3296.42,317 C3296.42,317 3296.42,317 3296.42,427 C3296.42,510.938 3279.83,541.774 3218.42,599 C3184.86,630.282 3133.24,645.342 3097.98,652.338 " fill="none" style="stroke: #A80036; stroke-width: 1.0;"/><polygon fill="#A80036" points="3092.9,653.3127,3102.4928,655.5438,3097.8103,652.3699,3100.9843,647.6874,3092.9,653.3127" style="stroke: #A80036; stroke-width: 1.0;"/><path d="M3150.27,109.084 C3176.35,149.37 3225.42,235.965 3225.42,317 C3225.42,317 3225.42,317 3225.42,427 C3225.42,508.411 3214.92,536.778 3162.42,599 C3145.25,619.3537 3119.17,634.1927 3097.55,643.8981 " fill="none" style="stroke: #A80036; stroke-width: 1.0;"/><polygon fill="#A80036" points="3092.73,646.0123,3102.5788,646.0501,3097.3068,643.9992,3099.3578,638.7272,3092.73,646.0123" style="stroke: #A80036; stroke-width: 1.0;"/><path d="M3059.42,575 C3059.42,591.003 3059.42,612.446 3059.42,629.528 " fill="none" style="stroke: #A80036; stroke-width: 1.0;"/><polygon fill="#A80036" points="3059.42,634.6784,3063.42,625.6784,3059.42,629.6784,3055.42,625.6784,3059.42,634.6784" style="stroke: #A80036; stroke-width: 1.0;"/><path d="M2942.59,575 C2944.1,591.003 2946.13,612.446 2947.74,629.528 " fill="none" style="stroke: #A80036; stroke-width: 1.0;"/><polygon fill="#A80036" points="2948.22,634.6784,2951.3582,625.3429,2947.751,629.7004,2943.3935,626.0933,2948.22,634.6784" style="stroke: #A80036; stroke-width: 1.0;"/><path d="M2966.24,575 C2984.83,591.555 3009.95,613.931 3029.43,631.2791 " fill="none" style="stroke: #A80036; stroke-width: 1.0;"/><polygon fill="#A80036" points="3033.24,634.6784,3029.184,625.7035,3029.5078,631.3511,3023.8603,631.675,3033.24,634.6784" style="stroke: #A80036; stroke-width: 1.0;"/><path d="M1313.68,450.21 C1322.84,458.684 1333.98,467.719 1345.42,474 C1356.39,480.024 1361.82,475.354 1372.42,482 C1389.11,492.456 1404.1,508.605 1415.16,522.543 " fill="none" style="stroke: #A80036; stroke-width: 1.0;"/><polygon fill="#A80036" points="1418.46,526.789,1416.0869,517.2303,1415.3882,522.8439,1409.7747,522.1452,1418.46,526.789" style="stroke: #A80036; stroke-width: 1.0;"/><path d="M1311.15,450.069 C1320.5,459.298 1332.46,468.928 1345.42,474 C1373.27,484.896 1587.2,469.626 1614.42,482 C1633.31,490.583 1649.14,507.759 1660.22,522.701 " fill="none" style="stroke: #A80036; stroke-width: 1.0;"/><polygon fill="#A80036" points="1663.21,526.847,1661.1858,517.2084,1660.2836,522.7929,1654.6991,521.8907,1663.21,526.847" style="stroke: #A80036; stroke-width: 1.0;"/><path d="M1295,450.135 C1298.14,470.494 1302.73,500.191 1306.08,521.908 " fill="none" style="stroke: #A80036; stroke-width: 1.0;"/><polygon fill="#A80036" points="1306.87,526.968,1309.4504,517.4632,1306.1074,522.0265,1301.544,518.6834,1306.87,526.968" style="stroke: #A80036; stroke-width: 1.0;"/><path d="M1311.46,450.169 C1320.79,459.296 1332.64,468.82 1345.42,474 C1376.16,486.451 1464.52,467.678 1494.42,482 C1512.73,490.766 1527.97,507.76 1538.65,522.565 " fill="none" style="stroke: #A80036; stroke-width: 1.0;"/><polygon fill="#A80036" points="1541.53,526.674,1539.6209,517.012,1538.6521,522.5852,1533.0789,521.6165,1541.53,526.674" style="stroke: #A80036; stroke-width: 1.0;"/><path d="M1474.4,450.224 C1488.58,459.482 1506.06,469.092 1523.42,474 C1566.41,486.155 1884.45,464.187 1925.42,482 C1944.87,490.454 1961.46,507.631 1973.15,522.605 " fill="none" style="stroke: #A80036; stroke-width: 1.0;"/><polygon fill="#A80036" points="1976.31,526.761,1974.0498,517.175,1973.2849,522.7799,1967.68,522.0151,1976.31,526.761" style="stroke: #A80036; stroke-width: 1.0;"/><path d="M1474.45,450.082 C1488.63,459.313 1506.11,468.942 1523.42,474 C1569.32,487.405 1693.22,466.429 1738.42,482 C1763.39,490.599 1787.43,508.221 1804.95,523.371 " fill="none" style="stroke: #A80036; stroke-width: 1.0;"/><polygon fill="#A80036" points="1808.81,526.761,1804.6876,517.8164,1805.0533,523.4614,1799.4083,523.8271,1808.81,526.761" style="stroke: #A80036; stroke-width: 1.0;"/><path d="M2314.53,450.013 C2346.59,488.803 2417.56,566.18 2497.42,599 C2600.26,641.2593 2887.71,611.712 2996.42,635 C3004.53,636.737 3013,639.2876 3021.01,642.0647 " fill="none" style="stroke: #A80036; stroke-width: 1.0;"/><polygon fill="#A80036" points="3025.93,643.8179,3018.8044,637.019,3021.2225,642.133,3016.1085,644.551,3025.93,643.8179" style="stroke: #A80036; stroke-width: 1.0;"/><path d="M1538.12,325.471 C1400.93,345.07 992.145,403.468 873.836,420.37 " fill="none" style="stroke: #A80036; stroke-width: 1.0;"/><polygon fill="#A80036" points="868.754,421.096,878.2292,423.783,873.7037,420.3889,877.0979,415.8634,868.754,421.096" style="stroke: #A80036; stroke-width: 1.0;"/><path d="M1537.91,333.861 C1489.77,349.817 1411.74,376.345 1345.42,402 C1338.09,404.838 1330.27,408.055 1322.92,411.165 " fill="none" style="stroke: #A80036; stroke-width: 1.0;"/><polygon fill="#A80036" points="1317.92,413.295,1327.768,413.4263,1322.5157,411.3254,1324.6166,406.0731,1317.92,413.295" style="stroke: #A80036; stroke-width: 1.0;"/><path d="M1628.76,325.109 C1714.32,337.02 1905.22,365.415 2063.42,402 C2067.62,402.972 2071.93,404.034 2076.27,405.152 " fill="none" style="stroke: #A80036; stroke-width: 1.0;"/><polygon fill="#A80036" points="2081.36,406.488,2073.6725,400.3315,2076.5243,405.2169,2071.6388,408.0687,2081.36,406.488" style="stroke: #A80036; stroke-width: 1.0;"/><path d="M1628.77,331.263 C1694.94,349.154 1818.77,382.64 1899.12,404.367 " fill="none" style="stroke: #A80036; stroke-width: 1.0;"/><polygon fill="#A80036" points="1904.35,405.78,1896.7174,399.5556,1899.5257,404.4661,1894.6152,407.2744,1904.35,405.78" style="stroke: #A80036; stroke-width: 1.0;"/><path d="M1567.44,342.233 C1546.34,376.012 1515.68,438.512 1550.42,474 C1565,488.891 1906.32,473.678 1925.42,482 C1944.86,490.468 1961.46,507.645 1973.14,522.615 " fill="none" style="stroke: #A80036; stroke-width: 1.0;"/><polygon fill="#A80036" points="1976.31,526.77,1974.031,517.1884,1973.2772,522.7948,1967.6708,522.041,1976.31,526.77" style="stroke: #A80036; stroke-width: 1.0;"/><path d="M1538.07,322.42 C1487.95,328.903 1409.43,347.67 1372.42,402 C1354.41,428.447 1350.04,451.127 1372.42,474 C1386.65,488.538 1719.14,475.524 1738.42,482 C1763.63,490.467 1787.84,508.285 1805.37,523.557 " fill="none" style="stroke: #A80036; stroke-width: 1.0;"/><polygon fill="#A80036" points="1809.23,526.974,1805.1421,518.0136,1805.486,523.66,1799.8396,524.004,1809.23,526.974" style="stroke: #A80036; stroke-width: 1.0;"/><path d="M1553.05,342 C1531.09,358.624 1501.38,381.118 1478.43,398.496 " fill="none" style="stroke: #A80036; stroke-width: 1.0;"/><polygon fill="#A80036" points="1474.23,401.678,1483.8211,399.4396,1478.218,398.662,1478.9955,393.0589,1474.23,401.678" style="stroke: #A80036; stroke-width: 1.0;"/><path d="M1594.71,342 C1602.62,358.141 1613.26,379.816 1621.67,396.969 " fill="none" style="stroke: #A80036; stroke-width: 1.0;"/><polygon fill="#A80036" points="1623.98,401.678,1623.6058,391.8363,1621.7772,397.1894,1616.424,395.3608,1623.98,401.678" style="stroke: #A80036; stroke-width: 1.0;"/><path d="M1628.74,340.835 C1664.13,357.887 1713.38,381.615 1750.57,399.532 " fill="none" style="stroke: #A80036; stroke-width: 1.0;"/><polygon fill="#A80036" points="1755.5,401.909,1749.1299,394.3976,1750.996,399.7377,1745.6559,401.6039,1755.5,401.909" style="stroke: #A80036; stroke-width: 1.0;"/><path d="M1629.04,322.355 C1734.23,330.652 2001.54,354.952 2220.42,402 C2224.59,402.895 2228.86,403.91 2233.14,405.001 " fill="none" style="stroke: #A80036; stroke-width: 1.0;"/><polygon fill="#A80036" points="2238.17,406.316,2230.4825,400.1595,2233.3343,405.0449,2228.4488,407.8967,2238.17,406.316" style="stroke: #A80036; stroke-width: 1.0;"/><path d="M3344.94,109.053 C3335.34,117.713 3323.57,126.921 3311.42,133 C3253.38,162.056 3180.6,177.107 3128.2,184.707 " fill="none" style="stroke: #A80036; stroke-width: 1.0;"/><polygon fill="none" points="3128.89,191.676,3108.14,187.398,3127.03,177.8,3128.89,191.676" style="stroke: #A80036; stroke-width: 1.0;"/><path d="M3027.32,109 C3031.91,120.864 3037.65,135.719 3043.01,149.569 " fill="none" style="stroke: #A80036; stroke-width: 1.0;"/><polygon fill="none" points="3049.72,147.5,3050.4,168.678,3036.66,152.55,3049.72,147.5" style="stroke: #A80036; stroke-width: 1.0;"/><path d="M3230,109.152 C3220.25,117.327 3208.74,126.175 3197.42,133 C3175.37,146.295 3149.78,158.118 3126.66,167.624 " fill="none" style="stroke: #A80036; stroke-width: 1.0;"/><polygon fill="none" points="3129.14,174.174,3107.97,175.046,3123.97,161.161,3129.14,174.174" style="stroke: #A80036; stroke-width: 1.0;"/><path d="M3118.15,109 C3109.27,121.554 3098.02,137.456 3087.74,151.974 " fill="none" style="stroke: #A80036; stroke-width: 1.0;"/><polygon fill="none" points="3093.19,156.395,3075.92,168.678,3081.76,148.309,3093.19,156.395" style="stroke: #A80036; stroke-width: 1.0;"/><path d="M2459.52,330.099 C2529.76,350.994 2677.19,401.452 2778.42,482 C2788.41,489.943 2797.54,500.206 2805.27,510.338 " fill="none" style="stroke: #A80036; stroke-width: 1.0;"/><polygon fill="none" points="2811.1,506.448,2816.87,526.837,2799.64,514.497,2811.1,506.448" style="stroke: #A80036; stroke-width: 1.0;"/><path d="M2459.73,436.218 C2503.12,447.147 2579.15,465.011 2645.42,474 C2674.76,477.98 2752.28,468.091 2778.42,482 C2790.48,488.414 2800.58,498.983 2808.57,509.898 " fill="none" style="stroke: #A80036; stroke-width: 1.0;"/><polygon fill="none" points="2814.5,506.169,2819.38,526.788,2802.71,513.716,2814.5,506.169" style="stroke: #A80036; stroke-width: 1.0;"/><path d="M2327.33,342 C2343.23,355.589 2363.71,373.1 2381.76,388.533 " fill="none" style="stroke: #A80036; stroke-width: 1.0;"/><polygon fill="none" points="2386.49,383.362,2397.14,401.678,2377.39,394.004,2386.49,383.362" style="stroke: #A80036; stroke-width: 1.0;"/></g></svg>