<?xml version="1.0" encoding="UTF-8" standalone="yes"?><svg xmlns="http://www.w3.org/2000/svg" xmlns:xlink="http://www.w3.org/1999/xlink" height="1124pt" style="width:840px;height:1124px;" version="1.1" viewBox="0 0 840 1124" width="840pt"><defs><filter height="300%" id="f1" width="300%" x="-1" y="-1"><feGaussianBlur result="blurOut" stdDeviation="2"/><feColorMatrix in="blurOut" result="blurOut2" type="matrix" values="0 0 0 0 0 0 0 0 0 0 0 0 0 0 0 0 0 0 .4 0"/><feOffset dx="4" dy="4" in="blurOut2" result="blurOut3"/><feBlend in="SourceGraphic" in2="blurOut3" mode="normal"/></filter></defs><g><rect fill="#FEFECE" filter="url(#f1)" height="103.3438" style="stroke: #A80036; stroke-width: 1.5;" width="100" x="251" y="119.5"/><ellipse cx="266" cy="135.5" fill="#ADD1B2" rx="11" ry="11" style="stroke: #A80036; stroke-width: 1.0;"/><path d="M268.7656,137.0313 L271.1563,137.7813 Q270.6094,139.7656 269.3359,140.7344 Q268.0625,141.7031 266.0938,141.7031 Q263.6719,141.7031 262.1172,140.0469 Q260.5625,138.3906 260.5625,135.5156 Q260.5625,132.4844 262.125,130.8047 Q263.6875,129.125 266.25,129.125 Q268.4844,129.125 269.875,130.4375 Q270.7031,131.2188 271.125,132.6875 L268.6875,133.2656 Q268.4688,132.3125 267.7891,131.7656 Q267.1094,131.2188 266.125,131.2188 Q264.7656,131.2188 263.9297,132.1953 Q263.0938,133.1719 263.0938,135.3438 Q263.0938,137.6406 263.9219,138.625 Q264.75,139.6094 266.0781,139.6094 Q267.0625,139.6094 267.7656,138.9844 Q268.4688,138.3594 268.7656,137.0313 Z "/><text fill="#000000" font-size="12" lengthAdjust="spacingAndGlyphs" textLength="68" x="280" y="139.9531">CardReader</text><line style="stroke: #A80036; stroke-width: 1.5;" x1="252" x2="350" y1="151.5" y2="151.5"/><text fill="#000000" font-size="11" lengthAdjust="spacingAndGlyphs" textLength="17" x="257" y="166.5">atm</text><line style="stroke: #A80036; stroke-width: 1.5;" x1="252" x2="350" y1="173.3359" y2="173.3359"/><text fill="#000000" font-size="11" lengthAdjust="spacingAndGlyphs" textLength="53" x="257" y="188.3359">readCard()</text><text fill="#000000" font-size="11" lengthAdjust="spacingAndGlyphs" textLength="54" x="257" y="202.1719">ejectCard()</text><text fill="#000000" font-size="11" lengthAdjust="spacingAndGlyphs" textLength="58" x="257" y="216.0078">retainCard()</text><rect fill="#FEFECE" filter="url(#f1)" height="75.6719" style="stroke: #A80036; stroke-width: 1.5;" width="130" x="6" y="855"/><ellipse cx="21" cy="871" fill="#ADD1B2" rx="11" ry="11" style="stroke: #A80036; stroke-width: 1.0;"/><path d="M23.7656,872.5313 L26.1563,873.2813 Q25.6094,875.2656 24.3359,876.2344 Q23.0625,877.2031 21.0938,877.2031 Q18.6719,877.2031 17.1172,875.5469 Q15.5625,873.8906 15.5625,871.0156 Q15.5625,867.9844 17.125,866.3047 Q18.6875,864.625 21.25,864.625 Q23.4844,864.625 24.875,865.9375 Q25.7031,866.7188 26.125,868.1875 L23.6875,868.7656 Q23.4688,867.8125 22.7891,867.2656 Q22.1094,866.7188 21.125,866.7188 Q19.7656,866.7188 18.9297,867.6953 Q18.0938,868.6719 18.0938,870.8438 Q18.0938,873.1406 18.9219,874.125 Q19.75,875.1094 21.0781,875.1094 Q22.0625,875.1094 22.7656,874.4844 Q23.4688,873.8594 23.7656,872.5313 Z "/><text fill="#000000" font-size="12" lengthAdjust="spacingAndGlyphs" textLength="98" x="35" y="875.4531">EnvelopeAcceptor</text><line style="stroke: #A80036; stroke-width: 1.5;" x1="7" x2="135" y1="887" y2="887"/><text fill="#000000" font-size="11" lengthAdjust="spacingAndGlyphs" textLength="14" x="12" y="902">log</text><line style="stroke: #A80036; stroke-width: 1.5;" x1="7" x2="135" y1="908.8359" y2="908.8359"/><text fill="#000000" font-size="11" lengthAdjust="spacingAndGlyphs" textLength="85" x="12" y="923.8359">acceptEnvelope()</text><rect fill="#FEFECE" filter="url(#f1)" height="117.1797" style="stroke: #A80036; stroke-width: 1.5;" width="119" x="171.75" y="834.5"/><ellipse cx="186.75" cy="850.5" fill="#ADD1B2" rx="11" ry="11" style="stroke: #A80036; stroke-width: 1.0;"/><path d="M189.5156,852.0313 L191.9063,852.7813 Q191.3594,854.7656 190.0859,855.7344 Q188.8125,856.7031 186.8438,856.7031 Q184.4219,856.7031 182.8672,855.0469 Q181.3125,853.3906 181.3125,850.5156 Q181.3125,847.4844 182.875,845.8047 Q184.4375,844.125 187,844.125 Q189.2344,844.125 190.625,845.4375 Q191.4531,846.2188 191.875,847.6875 L189.4375,848.2656 Q189.2188,847.3125 188.5391,846.7656 Q187.8594,846.2188 186.875,846.2188 Q185.5156,846.2188 184.6797,847.1953 Q183.8438,848.1719 183.8438,850.3438 Q183.8438,852.6406 184.6719,853.625 Q185.5,854.6094 186.8281,854.6094 Q187.8125,854.6094 188.5156,853.9844 Q189.2188,853.3594 189.5156,852.0313 Z "/><text fill="#000000" font-size="12" lengthAdjust="spacingAndGlyphs" textLength="87" x="200.75" y="854.9531">NetworkToBank</text><line style="stroke: #A80036; stroke-width: 1.5;" x1="172.75" x2="289.75" y1="866.5" y2="866.5"/><text fill="#000000" font-size="11" lengthAdjust="spacingAndGlyphs" textLength="14" x="177.75" y="881.5">log</text><text fill="#000000" font-size="11" lengthAdjust="spacingAndGlyphs" textLength="65" x="177.75" y="895.3359">bankAddress</text><line style="stroke: #A80036; stroke-width: 1.5;" x1="172.75" x2="289.75" y1="902.1719" y2="902.1719"/><text fill="#000000" font-size="11" lengthAdjust="spacingAndGlyphs" textLength="86" x="177.75" y="917.1719">openConnection()</text><text fill="#000000" font-size="11" lengthAdjust="spacingAndGlyphs" textLength="88" x="177.75" y="931.0078">closeConnection()</text><text fill="#000000" font-size="11" lengthAdjust="spacingAndGlyphs" textLength="76" x="177.75" y="944.8438">sendMessage()</text><rect fill="#FEFECE" filter="url(#f1)" height="61.8359" style="stroke: #A80036; stroke-width: 1.5;" width="59" x="600.75" y="553"/><ellipse cx="615.75" cy="569" fill="#ADD1B2" rx="11" ry="11" style="stroke: #A80036; stroke-width: 1.0;"/><path d="M618.5156,570.5313 L620.9063,571.2813 Q620.3594,573.2656 619.0859,574.2344 Q617.8125,575.2031 615.8438,575.2031 Q613.4219,575.2031 611.8672,573.5469 Q610.3125,571.8906 610.3125,569.0156 Q610.3125,565.9844 611.875,564.3047 Q613.4375,562.625 616,562.625 Q618.2344,562.625 619.625,563.9375 Q620.4531,564.7188 620.875,566.1875 L618.4375,566.7656 Q618.2188,565.8125 617.5391,565.2656 Q616.8594,564.7188 615.875,564.7188 Q614.5156,564.7188 613.6797,565.6953 Q612.8438,566.6719 612.8438,568.8438 Q612.8438,571.1406 613.6719,572.125 Q614.5,573.1094 615.8281,573.1094 Q616.8125,573.1094 617.5156,572.4844 Q618.2188,571.8594 618.5156,570.5313 Z "/><text fill="#000000" font-size="12" lengthAdjust="spacingAndGlyphs" textLength="27" x="629.75" y="573.4531">Card</text><line style="stroke: #A80036; stroke-width: 1.5;" x1="601.75" x2="658.75" y1="585" y2="585"/><text fill="#000000" font-size="11" lengthAdjust="spacingAndGlyphs" textLength="36" x="606.75" y="600">number</text><line style="stroke: #A80036; stroke-width: 1.5;" x1="601.75" x2="658.75" y1="606.8359" y2="606.8359"/><rect fill="#FEFECE" filter="url(#f1)" height="380.0625" style="stroke: #A80036; stroke-width: 1.5;" width="158" x="363" y="394"/><ellipse cx="426.25" cy="410" fill="#ADD1B2" rx="11" ry="11" style="stroke: #A80036; stroke-width: 1.0;"/><path d="M429.0156,411.5313 L431.4063,412.2813 Q430.8594,414.2656 429.5859,415.2344 Q428.3125,416.2031 426.3438,416.2031 Q423.9219,416.2031 422.3672,414.5469 Q420.8125,412.8906 420.8125,410.0156 Q420.8125,406.9844 422.375,405.3047 Q423.9375,403.625 426.5,403.625 Q428.7344,403.625 430.125,404.9375 Q430.9531,405.7188 431.375,407.1875 L428.9375,407.7656 Q428.7188,406.8125 428.0391,406.2656 Q427.3594,405.7188 426.375,405.7188 Q425.0156,405.7188 424.1797,406.6953 Q423.3438,407.6719 423.3438,409.8438 Q423.3438,412.1406 424.1719,413.125 Q425,414.1094 426.3281,414.1094 Q427.3125,414.1094 428.0156,413.4844 Q428.7188,412.8594 429.0156,411.5313 Z "/><text fill="#000000" font-size="12" lengthAdjust="spacingAndGlyphs" textLength="23" x="446.75" y="414.4531">ATM</text><line style="stroke: #A80036; stroke-width: 1.5;" x1="364" x2="520" y1="426" y2="426"/><text fill="#000000" font-size="11" lengthAdjust="spacingAndGlyphs" textLength="8" x="369" y="441">id</text><text fill="#000000" font-size="11" lengthAdjust="spacingAndGlyphs" textLength="26" x="369" y="454.8359">place</text><text fill="#000000" font-size="11" lengthAdjust="spacingAndGlyphs" textLength="50" x="369" y="468.6719">bankName</text><text fill="#000000" font-size="11" lengthAdjust="spacingAndGlyphs" textLength="65" x="369" y="482.5078">bankAddress</text><text fill="#000000" font-size="11" lengthAdjust="spacingAndGlyphs" textLength="57" x="369" y="496.3438">cardReader</text><text fill="#000000" font-size="11" lengthAdjust="spacingAndGlyphs" textLength="73" x="369" y="510.1797">cashDispenser</text><text fill="#000000" font-size="11" lengthAdjust="spacingAndGlyphs" textLength="84" x="369" y="524.0156">customerConsole</text><text fill="#000000" font-size="11" lengthAdjust="spacingAndGlyphs" textLength="89" x="369" y="537.8516">envelopeAcceptor</text><text fill="#000000" font-size="11" lengthAdjust="spacingAndGlyphs" textLength="14" x="369" y="551.6875">log</text><text fill="#000000" font-size="11" lengthAdjust="spacingAndGlyphs" textLength="76" x="369" y="565.5234">networkToBank</text><text fill="#000000" font-size="11" lengthAdjust="spacingAndGlyphs" textLength="67" x="369" y="579.3594">operatorPanel</text><text fill="#000000" font-size="11" lengthAdjust="spacingAndGlyphs" textLength="64" x="369" y="593.1953">receiptPrinter</text><text fill="#000000" font-size="11" lengthAdjust="spacingAndGlyphs" textLength="24" x="369" y="607.0313">state</text><text fill="#000000" font-size="11" lengthAdjust="spacingAndGlyphs" textLength="47" x="369" y="620.8672">switchOn</text><text fill="#000000" font-size="11" lengthAdjust="spacingAndGlyphs" textLength="61" x="369" y="634.7031">cardInserted</text><text fill="#000000" font-size="11" lengthAdjust="spacingAndGlyphs" textLength="59" x="369" y="648.5391">OFF_STATE</text><text fill="#000000" font-size="11" lengthAdjust="spacingAndGlyphs" textLength="60" x="369" y="662.375">IDLE_STATE</text><text fill="#000000" font-size="11" lengthAdjust="spacingAndGlyphs" textLength="146" x="369" y="676.2109">SERVING_CUSTOMER_STATE</text><line style="stroke: #A80036; stroke-width: 1.5;" x1="364" x2="520" y1="683.0469" y2="683.0469"/><text fill="#000000" font-size="11" lengthAdjust="spacingAndGlyphs" textLength="24" x="369" y="698.0469">run()</text><text fill="#000000" font-size="11" lengthAdjust="spacingAndGlyphs" textLength="55" x="369" y="711.8828">switchOn()</text><text fill="#000000" font-size="11" lengthAdjust="spacingAndGlyphs" textLength="57" x="369" y="725.7188">switchOff()</text><text fill="#000000" font-size="11" lengthAdjust="spacingAndGlyphs" textLength="69" x="369" y="739.5547">cardInserted()</text><text fill="#000000" font-size="11" lengthAdjust="spacingAndGlyphs" textLength="81" x="369" y="753.3906">performStartup()</text><text fill="#000000" font-size="11" lengthAdjust="spacingAndGlyphs" textLength="96" x="369" y="767.2266">performShutdown()</text><rect fill="#FEFECE" filter="url(#f1)" height="103.3438" style="stroke: #A80036; stroke-width: 1.5;" width="120" x="326" y="841.5"/><ellipse cx="341" cy="857.5" fill="#ADD1B2" rx="11" ry="11" style="stroke: #A80036; stroke-width: 1.0;"/><path d="M343.7656,859.0313 L346.1563,859.7813 Q345.6094,861.7656 344.3359,862.7344 Q343.0625,863.7031 341.0938,863.7031 Q338.6719,863.7031 337.1172,862.0469 Q335.5625,860.3906 335.5625,857.5156 Q335.5625,854.4844 337.125,852.8047 Q338.6875,851.125 341.25,851.125 Q343.4844,851.125 344.875,852.4375 Q345.7031,853.2188 346.125,854.6875 L343.6875,855.2656 Q343.4688,854.3125 342.7891,853.7656 Q342.1094,853.2188 341.125,853.2188 Q339.7656,853.2188 338.9297,854.1953 Q338.0938,855.1719 338.0938,857.3438 Q338.0938,859.6406 338.9219,860.625 Q339.75,861.6094 341.0781,861.6094 Q342.0625,861.6094 342.7656,860.9844 Q343.4688,860.3594 343.7656,859.0313 Z "/><text fill="#000000" font-size="12" lengthAdjust="spacingAndGlyphs" textLength="88" x="355" y="861.9531">CashDispenser</text><line style="stroke: #A80036; stroke-width: 1.5;" x1="327" x2="445" y1="873.5" y2="873.5"/><text fill="#000000" font-size="11" lengthAdjust="spacingAndGlyphs" textLength="14" x="332" y="888.5">log</text><text fill="#000000" font-size="11" lengthAdjust="spacingAndGlyphs" textLength="63" x="332" y="902.3359">cashOnHand</text><line style="stroke: #A80036; stroke-width: 1.5;" x1="327" x2="445" y1="909.1719" y2="909.1719"/><text fill="#000000" font-size="11" lengthAdjust="spacingAndGlyphs" textLength="101" x="332" y="924.1719">checkCashOnHand()</text><text fill="#000000" font-size="11" lengthAdjust="spacingAndGlyphs" textLength="77" x="332" y="938.0078">dispenseCash()</text><rect fill="#FEFECE" filter="url(#f1)" height="103.3438" style="stroke: #A80036; stroke-width: 1.5;" width="125" x="245.75" y="1012.5"/><ellipse cx="293.5" cy="1028.5" fill="#ADD1B2" rx="11" ry="11" style="stroke: #A80036; stroke-width: 1.0;"/><path d="M296.2656,1030.0313 L298.6563,1030.7813 Q298.1094,1032.7656 296.8359,1033.7344 Q295.5625,1034.7031 293.5938,1034.7031 Q291.1719,1034.7031 289.6172,1033.0469 Q288.0625,1031.3906 288.0625,1028.5156 Q288.0625,1025.4844 289.625,1023.8047 Q291.1875,1022.125 293.75,1022.125 Q295.9844,1022.125 297.375,1023.4375 Q298.2031,1024.2188 298.625,1025.6875 L296.1875,1026.2656 Q295.9688,1025.3125 295.2891,1024.7656 Q294.6094,1024.2188 293.625,1024.2188 Q292.2656,1024.2188 291.4297,1025.1953 Q290.5938,1026.1719 290.5938,1028.3438 Q290.5938,1030.6406 291.4219,1031.625 Q292.25,1032.6094 293.5781,1032.6094 Q294.5625,1032.6094 295.2656,1031.9844 Q295.9688,1031.3594 296.2656,1030.0313 Z "/><text fill="#000000" font-size="12" lengthAdjust="spacingAndGlyphs" textLength="21" x="314" y="1032.9531">Log</text><line style="stroke: #A80036; stroke-width: 1.5;" x1="246.75" x2="369.75" y1="1044.5" y2="1044.5"/><line style="stroke: #A80036; stroke-width: 1.5;" x1="246.75" x2="369.75" y1="1052.5" y2="1052.5"/><text fill="#000000" font-size="11" lengthAdjust="spacingAndGlyphs" textLength="47" x="251.75" y="1067.5">logSend()</text><text fill="#000000" font-size="11" lengthAdjust="spacingAndGlyphs" textLength="71" x="251.75" y="1081.3359">logResponse()</text><text fill="#000000" font-size="11" lengthAdjust="spacingAndGlyphs" textLength="98" x="251.75" y="1095.1719">logCashDispensed()</text><text fill="#000000" font-size="11" lengthAdjust="spacingAndGlyphs" textLength="113" x="251.75" y="1109.0078">logEnvelopeAccepted()</text><rect fill="#FEFECE" filter="url(#f1)" height="103.3438" style="stroke: #A80036; stroke-width: 1.5;" width="134" x="552" y="841.5"/><ellipse cx="567" cy="857.5" fill="#ADD1B2" rx="11" ry="11" style="stroke: #A80036; stroke-width: 1.0;"/><path d="M569.7656,859.0313 L572.1563,859.7813 Q571.6094,861.7656 570.3359,862.7344 Q569.0625,863.7031 567.0938,863.7031 Q564.6719,863.7031 563.1172,862.0469 Q561.5625,860.3906 561.5625,857.5156 Q561.5625,854.4844 563.125,852.8047 Q564.6875,851.125 567.25,851.125 Q569.4844,851.125 570.875,852.4375 Q571.7031,853.2188 572.125,854.6875 L569.6875,855.2656 Q569.4688,854.3125 568.7891,853.7656 Q568.1094,853.2188 567.125,853.2188 Q565.7656,853.2188 564.9297,854.1953 Q564.0938,855.1719 564.0938,857.3438 Q564.0938,859.6406 564.9219,860.625 Q565.75,861.6094 567.0781,861.6094 Q568.0625,861.6094 568.7656,860.9844 Q569.4688,860.3594 569.7656,859.0313 Z "/><text fill="#000000" font-size="12" lengthAdjust="spacingAndGlyphs" textLength="102" x="581" y="861.9531">CustomerConsole</text><line style="stroke: #A80036; stroke-width: 1.5;" x1="553" x2="685" y1="873.5" y2="873.5"/><line style="stroke: #A80036; stroke-width: 1.5;" x1="553" x2="685" y1="881.5" y2="881.5"/><text fill="#000000" font-size="11" lengthAdjust="spacingAndGlyphs" textLength="42" x="558" y="896.5">display()</text><text fill="#000000" font-size="11" lengthAdjust="spacingAndGlyphs" textLength="45" x="558" y="910.3359">readPIN()</text><text fill="#000000" font-size="11" lengthAdjust="spacingAndGlyphs" textLength="89" x="558" y="924.1719">readMenuChoice()</text><text fill="#000000" font-size="11" lengthAdjust="spacingAndGlyphs" textLength="67" x="558" y="938.0078">readAmount()</text><rect fill="#FEFECE" filter="url(#f1)" height="324.7188" style="stroke: #A80036; stroke-width: 1.5;" width="194" x="533" y="8.5"/><ellipse cx="593.25" cy="24.5" fill="#ADD1B2" rx="11" ry="11" style="stroke: #A80036; stroke-width: 1.0;"/><path d="M596.0156,26.0313 L598.4063,26.7813 Q597.8594,28.7656 596.5859,29.7344 Q595.3125,30.7031 593.3438,30.7031 Q590.9219,30.7031 589.3672,29.0469 Q587.8125,27.3906 587.8125,24.5156 Q587.8125,21.4844 589.375,19.8047 Q590.9375,18.125 593.5,18.125 Q595.7344,18.125 597.125,19.4375 Q597.9531,20.2188 598.375,21.6875 L595.9375,22.2656 Q595.7188,21.3125 595.0391,20.7656 Q594.3594,20.2188 593.375,20.2188 Q592.0156,20.2188 591.1797,21.1953 Q590.3438,22.1719 590.3438,24.3438 Q590.3438,26.6406 591.1719,27.625 Q592,28.6094 593.3281,28.6094 Q594.3125,28.6094 595.0156,27.9844 Q595.7188,27.3594 596.0156,26.0313 Z "/><text fill="#000000" font-size="12" lengthAdjust="spacingAndGlyphs" textLength="65" x="613.75" y="28.9531">Transaction</text><line style="stroke: #A80036; stroke-width: 1.5;" x1="534" x2="726" y1="40.5" y2="40.5"/><text fill="#000000" font-size="11" lengthAdjust="spacingAndGlyphs" textLength="17" x="539" y="55.5">atm</text><text fill="#000000" font-size="11" lengthAdjust="spacingAndGlyphs" textLength="38" x="539" y="69.3359">session</text><text fill="#000000" font-size="11" lengthAdjust="spacingAndGlyphs" textLength="22" x="539" y="83.1719">card</text><text fill="#000000" font-size="11" lengthAdjust="spacingAndGlyphs" textLength="14" x="539" y="97.0078">pin</text><text fill="#000000" font-size="11" lengthAdjust="spacingAndGlyphs" textLength="63" x="539" y="110.8438">serialNumber</text><text fill="#000000" font-size="11" lengthAdjust="spacingAndGlyphs" textLength="44" x="539" y="124.6797">message</text><text fill="#000000" font-size="11" lengthAdjust="spacingAndGlyphs" textLength="44" x="539" y="138.5156">balances</text><text fill="#000000" font-size="11" lengthAdjust="spacingAndGlyphs" textLength="146" x="539" y="152.3516">TRANSACTION_TYPES_MENU</text><text fill="#000000" font-size="11" lengthAdjust="spacingAndGlyphs" textLength="85" x="539" y="166.1875">nextSerialNumber</text><text fill="#000000" font-size="11" lengthAdjust="spacingAndGlyphs" textLength="24" x="539" y="180.0234">state</text><text fill="#000000" font-size="11" lengthAdjust="spacingAndGlyphs" textLength="138" x="539" y="193.8594">GETTING_SPECIFICS_STATE</text><text fill="#000000" font-size="11" lengthAdjust="spacingAndGlyphs" textLength="138" x="539" y="207.6953">SENDING_TO_BANK_STATE</text><text fill="#000000" font-size="11" lengthAdjust="spacingAndGlyphs" textLength="100" x="539" y="221.5313">INVALID_PIN_STATE</text><text fill="#000000" font-size="11" lengthAdjust="spacingAndGlyphs" textLength="182" x="539" y="235.3672">COMPLETING_TRANSACTION_STATE</text><text fill="#000000" font-size="11" lengthAdjust="spacingAndGlyphs" textLength="130" x="539" y="249.2031">PRINTING_RECEIPT_STATE</text><text fill="#000000" font-size="11" lengthAdjust="spacingAndGlyphs" textLength="154" x="539" y="263.0391">ASKING_DO_ANOTHER_STATE</text><line style="stroke: #A80036; stroke-width: 1.5;" x1="534" x2="726" y1="269.875" y2="269.875"/><text fill="#000000" font-size="11" lengthAdjust="spacingAndGlyphs" textLength="90" x="539" y="284.875">makeTransaction()</text><text fill="#000000" font-size="11" lengthAdjust="spacingAndGlyphs" textLength="103" x="539" y="298.7109">performTransaction()</text><text fill="#000000" font-size="11" lengthAdjust="spacingAndGlyphs" textLength="138" x="539" y="312.5469">performInvalidPINExtension()</text><text fill="#000000" font-size="11" lengthAdjust="spacingAndGlyphs" textLength="108" x="539" y="326.3828">completeTransaction()</text><rect fill="#FEFECE" filter="url(#f1)" height="61.8359" style="stroke: #A80036; stroke-width: 1.5;" width="112" x="386" y="140"/><ellipse cx="401" cy="156" fill="#ADD1B2" rx="11" ry="11" style="stroke: #A80036; stroke-width: 1.0;"/><path d="M403.7656,157.5313 L406.1563,158.2813 Q405.6094,160.2656 404.3359,161.2344 Q403.0625,162.2031 401.0938,162.2031 Q398.6719,162.2031 397.1172,160.5469 Q395.5625,158.8906 395.5625,156.0156 Q395.5625,152.9844 397.125,151.3047 Q398.6875,149.625 401.25,149.625 Q403.4844,149.625 404.875,150.9375 Q405.7031,151.7188 406.125,153.1875 L403.6875,153.7656 Q403.4688,152.8125 402.7891,152.2656 Q402.1094,151.7188 401.125,151.7188 Q399.7656,151.7188 398.9297,152.6953 Q398.0938,153.6719 398.0938,155.8438 Q398.0938,158.1406 398.9219,159.125 Q399.75,160.1094 401.0781,160.1094 Q402.0625,160.1094 402.7656,159.4844 Q403.4688,158.8594 403.7656,157.5313 Z "/><text fill="#000000" font-size="12" lengthAdjust="spacingAndGlyphs" textLength="80" x="415" y="160.4531">OperatorPanel</text><line style="stroke: #A80036; stroke-width: 1.5;" x1="387" x2="497" y1="172" y2="172"/><text fill="#000000" font-size="11" lengthAdjust="spacingAndGlyphs" textLength="17" x="392" y="187">atm</text><line style="stroke: #A80036; stroke-width: 1.5;" x1="387" x2="497" y1="193.8359" y2="193.8359"/><rect fill="#FEFECE" filter="url(#f1)" height="61.8359" style="stroke: #A80036; stroke-width: 1.5;" width="110" x="721" y="862"/><ellipse cx="736" cy="878" fill="#ADD1B2" rx="11" ry="11" style="stroke: #A80036; stroke-width: 1.0;"/><path d="M738.7656,879.5313 L741.1563,880.2813 Q740.6094,882.2656 739.3359,883.2344 Q738.0625,884.2031 736.0938,884.2031 Q733.6719,884.2031 732.1172,882.5469 Q730.5625,880.8906 730.5625,878.0156 Q730.5625,874.9844 732.125,873.3047 Q733.6875,871.625 736.25,871.625 Q738.4844,871.625 739.875,872.9375 Q740.7031,873.7188 741.125,875.1875 L738.6875,875.7656 Q738.4688,874.8125 737.7891,874.2656 Q737.1094,873.7188 736.125,873.7188 Q734.7656,873.7188 733.9297,874.6953 Q733.0938,875.6719 733.0938,877.8438 Q733.0938,880.1406 733.9219,881.125 Q734.75,882.1094 736.0781,882.1094 Q737.0625,882.1094 737.7656,881.4844 Q738.4688,880.8594 738.7656,879.5313 Z "/><text fill="#000000" font-size="12" lengthAdjust="spacingAndGlyphs" textLength="78" x="750" y="882.4531">ReceiptPrinter</text><line style="stroke: #A80036; stroke-width: 1.5;" x1="722" x2="830" y1="894" y2="894"/><line style="stroke: #A80036; stroke-width: 1.5;" x1="722" x2="830" y1="902" y2="902"/><text fill="#000000" font-size="11" lengthAdjust="spacingAndGlyphs" textLength="65" x="727" y="917">printReceipt()</text><path d="M318.431,222.809 C333.241,265.978 355.467,330.765 377.004,393.542 " fill="none" style="stroke: #A80036; stroke-width: 1.0;"/><path d="M407.491,774.184 C403.397,796.629 399.499,817.996 396.175,836.218 " fill="none" style="stroke: #A80036; stroke-width: 1.0;"/><polygon fill="#A80036" points="395.253,841.273,400.803,833.1368,396.1502,836.3542,392.9329,831.7013,395.253,841.273" style="stroke: #A80036; stroke-width: 1.0;"/><path d="M521.181,722.337 C544.43,762.661 568.546,804.489 587.016,836.525 " fill="none" style="stroke: #A80036; stroke-width: 1.0;"/><polygon fill="#A80036" points="589.699,841.179,588.6692,831.3841,587.2017,836.8473,581.7385,835.3798,589.699,841.179" style="stroke: #A80036; stroke-width: 1.0;"/><path d="M362.866,650.483 C289.254,711.396 181.89,800.24 119.977,851.472 " fill="none" style="stroke: #A80036; stroke-width: 1.0;"/><polygon fill="#A80036" points="115.966,854.791,125.4498,852.1345,119.818,851.6032,120.3493,845.9713,115.966,854.791" style="stroke: #A80036; stroke-width: 1.0;"/><path d="M489.394,774.376 C494.939,833.971 490.637,898.216 463,952 C444.397,988.204 407.898,1015.24 374.99,1033.5609 " fill="none" style="stroke: #A80036; stroke-width: 1.0;"/><polygon fill="#A80036" points="370.581,1035.976,380.3959,1035.159,374.9659,1033.5733,376.5516,1028.1432,370.581,1035.976" style="stroke: #A80036; stroke-width: 1.0;"/><path d="M362.831,700.189 C332.604,744.169 299.295,792.632 273.722,829.841 " fill="none" style="stroke: #A80036; stroke-width: 1.0;"/><polygon fill="#A80036" points="270.642,834.322,279.036,829.1703,273.4739,830.2013,272.4429,824.6392,270.642,834.322" style="stroke: #A80036; stroke-width: 1.0;"/><path d="M442,202.222 C442,243.237 442,319.91 442,393.763 " fill="none" style="stroke: #A80036; stroke-width: 1.0;"/><path d="M521.119,708.794 C539.599,732.236 560.52,755.254 583,774 C629.1,812.444 653.439,801.647 704,834 C715.339,841.256 726.976,849.982 737.499,858.437 " fill="none" style="stroke: #A80036; stroke-width: 1.0;"/><polygon fill="#A80036" points="741.627,861.786,737.1558,853.0105,737.7434,858.6368,732.1171,859.2243,741.627,861.786" style="stroke: #A80036; stroke-width: 1.0;"/><path d="M362.597,944.706 C353.419,964.591 342.861,987.467 333.491,1007.77 " fill="none" style="stroke: #A80036; stroke-width: 1.0;"/><polygon fill="#A80036" points="331.386,1012.33,338.7897,1005.835,333.4816,1007.7903,331.5263,1002.4821,331.386,1012.33" style="stroke: #A80036; stroke-width: 1.0;"/><path d="M123.011,931.088 C157.709,955.83 203.652,988.592 241.072,1015.275 " fill="none" style="stroke: #A80036; stroke-width: 1.0;"/><polygon fill="#A80036" points="245.592,1018.498,240.5863,1010.0161,241.5209,1015.5952,235.9418,1016.5298,245.592,1018.498" style="stroke: #A80036; stroke-width: 1.0;"/><path d="M257.284,951.688 C265.487,969.693 274.516,989.51 282.654,1007.371 " fill="none" style="stroke: #A80036; stroke-width: 1.0;"/><polygon fill="#A80036" points="284.924,1012.353,284.8329,1002.5046,282.8511,1007.8029,277.5527,1005.8212,284.924,1012.353" style="stroke: #A80036; stroke-width: 1.0;"/><path d="M556.102,333.553 C545.307,357.153 534.141,381.565 523.21,405.462 " fill="none" style="stroke: #A80036; stroke-width: 1.0;"/><polygon fill="#A80036" points="521.027,410.234,528.4083,403.7135,523.1069,405.6871,521.1333,400.3857,521.027,410.234" style="stroke: #A80036; stroke-width: 1.0;"/><path d="M630,333.553 C630,412.274 630,500.021 630,547.609 " fill="none" style="stroke: #A80036; stroke-width: 1.0;"/><polygon fill="#A80036" points="630,552.648,634,543.648,630,547.648,626,543.648,630,552.648" style="stroke: #A80036; stroke-width: 1.0;"/></g></svg>