<?xml version="1.0" encoding="UTF-8" standalone="yes"?><svg xmlns="http://www.w3.org/2000/svg" xmlns:xlink="http://www.w3.org/1999/xlink" height="1606pt" style="width:1236px;height:1606px;" version="1.1" viewBox="0 0 1236 1606" width="1236pt"><defs><filter height="300%" id="f1" width="300%" x="-1" y="-1"><feGaussianBlur result="blurOut" stdDeviation="2"/><feColorMatrix in="blurOut" result="blurOut2" type="matrix" values="0 0 0 0 0 0 0 0 0 0 0 0 0 0 0 0 0 0 .4 0"/><feOffset dx="4" dy="4" in="blurOut2" result="blurOut3"/><feBlend in="SourceGraphic" in2="blurOut3" mode="normal"/></filter></defs><g><rect fill="#FEFECE" filter="url(#f1)" height="103.3438" style="stroke: #A80036; stroke-width: 1.5;" width="100" x="564.25" y="553.5"/><ellipse cx="579.25" cy="569.5" fill="#ADD1B2" rx="11" ry="11" style="stroke: #A80036; stroke-width: 1.0;"/><path d="M582.0156,571.0313 L584.4063,571.7813 Q583.8594,573.7656 582.5859,574.7344 Q581.3125,575.7031 579.3438,575.7031 Q576.9219,575.7031 575.3672,574.0469 Q573.8125,572.3906 573.8125,569.5156 Q573.8125,566.4844 575.375,564.8047 Q576.9375,563.125 579.5,563.125 Q581.7344,563.125 583.125,564.4375 Q583.9531,565.2188 584.375,566.6875 L581.9375,567.2656 Q581.7188,566.3125 581.0391,565.7656 Q580.3594,565.2188 579.375,565.2188 Q578.0156,565.2188 577.1797,566.1953 Q576.3438,567.1719 576.3438,569.3438 Q576.3438,571.6406 577.1719,572.625 Q578,573.6094 579.3281,573.6094 Q580.3125,573.6094 581.0156,572.9844 Q581.7188,572.3594 582.0156,571.0313 Z "/><text fill="#000000" font-size="12" lengthAdjust="spacingAndGlyphs" textLength="68" x="593.25" y="573.9531">CardReader</text><line style="stroke: #A80036; stroke-width: 1.5;" x1="565.25" x2="663.25" y1="585.5" y2="585.5"/><text fill="#000000" font-size="11" lengthAdjust="spacingAndGlyphs" textLength="17" x="570.25" y="600.5">atm</text><line style="stroke: #A80036; stroke-width: 1.5;" x1="565.25" x2="663.25" y1="607.3359" y2="607.3359"/><text fill="#000000" font-size="11" lengthAdjust="spacingAndGlyphs" textLength="53" x="570.25" y="622.3359">readCard()</text><text fill="#000000" font-size="11" lengthAdjust="spacingAndGlyphs" textLength="54" x="570.25" y="636.1719">ejectCard()</text><text fill="#000000" font-size="11" lengthAdjust="spacingAndGlyphs" textLength="58" x="570.25" y="650.0078">retainCard()</text><rect fill="#FEFECE" filter="url(#f1)" height="75.6719" style="stroke: #A80036; stroke-width: 1.5;" width="130" x="908.25" y="1337"/><ellipse cx="923.25" cy="1353" fill="#ADD1B2" rx="11" ry="11" style="stroke: #A80036; stroke-width: 1.0;"/><path d="M926.0156,1354.5313 L928.4063,1355.2813 Q927.8594,1357.2656 926.5859,1358.2344 Q925.3125,1359.2031 923.3438,1359.2031 Q920.9219,1359.2031 919.3672,1357.5469 Q917.8125,1355.8906 917.8125,1353.0156 Q917.8125,1349.9844 919.375,1348.3047 Q920.9375,1346.625 923.5,1346.625 Q925.7344,1346.625 927.125,1347.9375 Q927.9531,1348.7188 928.375,1350.1875 L925.9375,1350.7656 Q925.7188,1349.8125 925.0391,1349.2656 Q924.3594,1348.7188 923.375,1348.7188 Q922.0156,1348.7188 921.1797,1349.6953 Q920.3438,1350.6719 920.3438,1352.8438 Q920.3438,1355.1406 921.1719,1356.125 Q922,1357.1094 923.3281,1357.1094 Q924.3125,1357.1094 925.0156,1356.4844 Q925.7188,1355.8594 926.0156,1354.5313 Z "/><text fill="#000000" font-size="12" lengthAdjust="spacingAndGlyphs" textLength="98" x="937.25" y="1357.4531">EnvelopeAcceptor</text><line style="stroke: #A80036; stroke-width: 1.5;" x1="909.25" x2="1037.25" y1="1369" y2="1369"/><text fill="#000000" font-size="11" lengthAdjust="spacingAndGlyphs" textLength="14" x="914.25" y="1384">log</text><line style="stroke: #A80036; stroke-width: 1.5;" x1="909.25" x2="1037.25" y1="1390.8359" y2="1390.8359"/><text fill="#000000" font-size="11" lengthAdjust="spacingAndGlyphs" textLength="85" x="914.25" y="1405.8359">acceptEnvelope()</text><rect fill="#FEFECE" filter="url(#f1)" height="117.1797" style="stroke: #A80036; stroke-width: 1.5;" width="119" x="1074" y="1316.5"/><ellipse cx="1089" cy="1332.5" fill="#ADD1B2" rx="11" ry="11" style="stroke: #A80036; stroke-width: 1.0;"/><path d="M1091.7656,1334.0313 L1094.1563,1334.7813 Q1093.6094,1336.7656 1092.3359,1337.7344 Q1091.0625,1338.7031 1089.0938,1338.7031 Q1086.6719,1338.7031 1085.1172,1337.0469 Q1083.5625,1335.3906 1083.5625,1332.5156 Q1083.5625,1329.4844 1085.125,1327.8047 Q1086.6875,1326.125 1089.25,1326.125 Q1091.4844,1326.125 1092.875,1327.4375 Q1093.7031,1328.2188 1094.125,1329.6875 L1091.6875,1330.2656 Q1091.4688,1329.3125 1090.7891,1328.7656 Q1090.1094,1328.2188 1089.125,1328.2188 Q1087.7656,1328.2188 1086.9297,1329.1953 Q1086.0938,1330.1719 1086.0938,1332.3438 Q1086.0938,1334.6406 1086.9219,1335.625 Q1087.75,1336.6094 1089.0781,1336.6094 Q1090.0625,1336.6094 1090.7656,1335.9844 Q1091.4688,1335.3594 1091.7656,1334.0313 Z "/><text fill="#000000" font-size="12" lengthAdjust="spacingAndGlyphs" textLength="87" x="1103" y="1336.9531">NetworkToBank</text><line style="stroke: #A80036; stroke-width: 1.5;" x1="1075" x2="1192" y1="1348.5" y2="1348.5"/><text fill="#000000" font-size="11" lengthAdjust="spacingAndGlyphs" textLength="14" x="1080" y="1363.5">log</text><text fill="#000000" font-size="11" lengthAdjust="spacingAndGlyphs" textLength="65" x="1080" y="1377.3359">bankAddress</text><line style="stroke: #A80036; stroke-width: 1.5;" x1="1075" x2="1192" y1="1384.1719" y2="1384.1719"/><text fill="#000000" font-size="11" lengthAdjust="spacingAndGlyphs" textLength="86" x="1080" y="1399.1719">openConnection()</text><text fill="#000000" font-size="11" lengthAdjust="spacingAndGlyphs" textLength="88" x="1080" y="1413.0078">closeConnection()</text><text fill="#000000" font-size="11" lengthAdjust="spacingAndGlyphs" textLength="76" x="1080" y="1426.8438">sendMessage()</text><rect fill="#FEFECE" filter="url(#f1)" height="61.8359" style="stroke: #A80036; stroke-width: 1.5;" width="59" x="190" y="1035"/><ellipse cx="205" cy="1051" fill="#ADD1B2" rx="11" ry="11" style="stroke: #A80036; stroke-width: 1.0;"/><path d="M207.7656,1052.5313 L210.1563,1053.2813 Q209.6094,1055.2656 208.3359,1056.2344 Q207.0625,1057.2031 205.0938,1057.2031 Q202.6719,1057.2031 201.1172,1055.5469 Q199.5625,1053.8906 199.5625,1051.0156 Q199.5625,1047.9844 201.125,1046.3047 Q202.6875,1044.625 205.25,1044.625 Q207.4844,1044.625 208.875,1045.9375 Q209.7031,1046.7188 210.125,1048.1875 L207.6875,1048.7656 Q207.4688,1047.8125 206.7891,1047.2656 Q206.1094,1046.7188 205.125,1046.7188 Q203.7656,1046.7188 202.9297,1047.6953 Q202.0938,1048.6719 202.0938,1050.8438 Q202.0938,1053.1406 202.9219,1054.125 Q203.75,1055.1094 205.0781,1055.1094 Q206.0625,1055.1094 206.7656,1054.4844 Q207.4688,1053.8594 207.7656,1052.5313 Z "/><text fill="#000000" font-size="12" lengthAdjust="spacingAndGlyphs" textLength="27" x="219" y="1055.4531">Card</text><line style="stroke: #A80036; stroke-width: 1.5;" x1="191" x2="248" y1="1067" y2="1067"/><text fill="#000000" font-size="11" lengthAdjust="spacingAndGlyphs" textLength="36" x="196" y="1082">number</text><line style="stroke: #A80036; stroke-width: 1.5;" x1="191" x2="248" y1="1088.8359" y2="1088.8359"/><rect fill="#FEFECE" filter="url(#f1)" height="380.0625" style="stroke: #A80036; stroke-width: 1.5;" width="158" x="734.25" y="876"/><ellipse cx="797.5" cy="892" fill="#ADD1B2" rx="11" ry="11" style="stroke: #A80036; stroke-width: 1.0;"/><path d="M800.2656,893.5313 L802.6563,894.2813 Q802.1094,896.2656 800.8359,897.2344 Q799.5625,898.2031 797.5938,898.2031 Q795.1719,898.2031 793.6172,896.5469 Q792.0625,894.8906 792.0625,892.0156 Q792.0625,888.9844 793.625,887.3047 Q795.1875,885.625 797.75,885.625 Q799.9844,885.625 801.375,886.9375 Q802.2031,887.7188 802.625,889.1875 L800.1875,889.7656 Q799.9688,888.8125 799.2891,888.2656 Q798.6094,887.7188 797.625,887.7188 Q796.2656,887.7188 795.4297,888.6953 Q794.5938,889.6719 794.5938,891.8438 Q794.5938,894.1406 795.4219,895.125 Q796.25,896.1094 797.5781,896.1094 Q798.5625,896.1094 799.2656,895.4844 Q799.9688,894.8594 800.2656,893.5313 Z "/><text fill="#000000" font-size="12" lengthAdjust="spacingAndGlyphs" textLength="23" x="818" y="896.4531">ATM</text><line style="stroke: #A80036; stroke-width: 1.5;" x1="735.25" x2="891.25" y1="908" y2="908"/><text fill="#000000" font-size="11" lengthAdjust="spacingAndGlyphs" textLength="8" x="740.25" y="923">id</text><text fill="#000000" font-size="11" lengthAdjust="spacingAndGlyphs" textLength="26" x="740.25" y="936.8359">place</text><text fill="#000000" font-size="11" lengthAdjust="spacingAndGlyphs" textLength="50" x="740.25" y="950.6719">bankName</text><text fill="#000000" font-size="11" lengthAdjust="spacingAndGlyphs" textLength="65" x="740.25" y="964.5078">bankAddress</text><text fill="#000000" font-size="11" lengthAdjust="spacingAndGlyphs" textLength="57" x="740.25" y="978.3438">cardReader</text><text fill="#000000" font-size="11" lengthAdjust="spacingAndGlyphs" textLength="73" x="740.25" y="992.1797">cashDispenser</text><text fill="#000000" font-size="11" lengthAdjust="spacingAndGlyphs" textLength="84" x="740.25" y="1006.0156">customerConsole</text><text fill="#000000" font-size="11" lengthAdjust="spacingAndGlyphs" textLength="89" x="740.25" y="1019.8516">envelopeAcceptor</text><text fill="#000000" font-size="11" lengthAdjust="spacingAndGlyphs" textLength="14" x="740.25" y="1033.6875">log</text><text fill="#000000" font-size="11" lengthAdjust="spacingAndGlyphs" textLength="76" x="740.25" y="1047.5234">networkToBank</text><text fill="#000000" font-size="11" lengthAdjust="spacingAndGlyphs" textLength="67" x="740.25" y="1061.3594">operatorPanel</text><text fill="#000000" font-size="11" lengthAdjust="spacingAndGlyphs" textLength="64" x="740.25" y="1075.1953">receiptPrinter</text><text fill="#000000" font-size="11" lengthAdjust="spacingAndGlyphs" textLength="24" x="740.25" y="1089.0313">state</text><text fill="#000000" font-size="11" lengthAdjust="spacingAndGlyphs" textLength="47" x="740.25" y="1102.8672">switchOn</text><text fill="#000000" font-size="11" lengthAdjust="spacingAndGlyphs" textLength="61" x="740.25" y="1116.7031">cardInserted</text><text fill="#000000" font-size="11" lengthAdjust="spacingAndGlyphs" textLength="59" x="740.25" y="1130.5391">OFF_STATE</text><text fill="#000000" font-size="11" lengthAdjust="spacingAndGlyphs" textLength="60" x="740.25" y="1144.375">IDLE_STATE</text><text fill="#000000" font-size="11" lengthAdjust="spacingAndGlyphs" textLength="146" x="740.25" y="1158.2109">SERVING_CUSTOMER_STATE</text><line style="stroke: #A80036; stroke-width: 1.5;" x1="735.25" x2="891.25" y1="1165.0469" y2="1165.0469"/><text fill="#000000" font-size="11" lengthAdjust="spacingAndGlyphs" textLength="24" x="740.25" y="1180.0469">run()</text><text fill="#000000" font-size="11" lengthAdjust="spacingAndGlyphs" textLength="55" x="740.25" y="1193.8828">switchOn()</text><text fill="#000000" font-size="11" lengthAdjust="spacingAndGlyphs" textLength="57" x="740.25" y="1207.7188">switchOff()</text><text fill="#000000" font-size="11" lengthAdjust="spacingAndGlyphs" textLength="69" x="740.25" y="1221.5547">cardInserted()</text><text fill="#000000" font-size="11" lengthAdjust="spacingAndGlyphs" textLength="81" x="740.25" y="1235.3906">performStartup()</text><text fill="#000000" font-size="11" lengthAdjust="spacingAndGlyphs" textLength="96" x="740.25" y="1249.2266">performShutdown()</text><rect fill="#FEFECE" filter="url(#f1)" height="103.3438" style="stroke: #A80036; stroke-width: 1.5;" width="120" x="753.25" y="1323.5"/><ellipse cx="768.25" cy="1339.5" fill="#ADD1B2" rx="11" ry="11" style="stroke: #A80036; stroke-width: 1.0;"/><path d="M771.0156,1341.0313 L773.4063,1341.7813 Q772.8594,1343.7656 771.5859,1344.7344 Q770.3125,1345.7031 768.3438,1345.7031 Q765.9219,1345.7031 764.3672,1344.0469 Q762.8125,1342.3906 762.8125,1339.5156 Q762.8125,1336.4844 764.375,1334.8047 Q765.9375,1333.125 768.5,1333.125 Q770.7344,1333.125 772.125,1334.4375 Q772.9531,1335.2188 773.375,1336.6875 L770.9375,1337.2656 Q770.7188,1336.3125 770.0391,1335.7656 Q769.3594,1335.2188 768.375,1335.2188 Q767.0156,1335.2188 766.1797,1336.1953 Q765.3438,1337.1719 765.3438,1339.3438 Q765.3438,1341.6406 766.1719,1342.625 Q767,1343.6094 768.3281,1343.6094 Q769.3125,1343.6094 770.0156,1342.9844 Q770.7188,1342.3594 771.0156,1341.0313 Z "/><text fill="#000000" font-size="12" lengthAdjust="spacingAndGlyphs" textLength="88" x="782.25" y="1343.9531">CashDispenser</text><line style="stroke: #A80036; stroke-width: 1.5;" x1="754.25" x2="872.25" y1="1355.5" y2="1355.5"/><text fill="#000000" font-size="11" lengthAdjust="spacingAndGlyphs" textLength="14" x="759.25" y="1370.5">log</text><text fill="#000000" font-size="11" lengthAdjust="spacingAndGlyphs" textLength="63" x="759.25" y="1384.3359">cashOnHand</text><line style="stroke: #A80036; stroke-width: 1.5;" x1="754.25" x2="872.25" y1="1391.1719" y2="1391.1719"/><text fill="#000000" font-size="11" lengthAdjust="spacingAndGlyphs" textLength="101" x="759.25" y="1406.1719">checkCashOnHand()</text><text fill="#000000" font-size="11" lengthAdjust="spacingAndGlyphs" textLength="77" x="759.25" y="1420.0078">dispenseCash()</text><rect fill="#FEFECE" filter="url(#f1)" height="103.3438" style="stroke: #A80036; stroke-width: 1.5;" width="125" x="991" y="1494.5"/><ellipse cx="1038.75" cy="1510.5" fill="#ADD1B2" rx="11" ry="11" style="stroke: #A80036; stroke-width: 1.0;"/><path d="M1041.5156,1512.0313 L1043.9063,1512.7813 Q1043.3594,1514.7656 1042.0859,1515.7344 Q1040.8125,1516.7031 1038.8438,1516.7031 Q1036.4219,1516.7031 1034.8672,1515.0469 Q1033.3125,1513.3906 1033.3125,1510.5156 Q1033.3125,1507.4844 1034.875,1505.8047 Q1036.4375,1504.125 1039,1504.125 Q1041.2344,1504.125 1042.625,1505.4375 Q1043.4531,1506.2188 1043.875,1507.6875 L1041.4375,1508.2656 Q1041.2188,1507.3125 1040.5391,1506.7656 Q1039.8594,1506.2188 1038.875,1506.2188 Q1037.5156,1506.2188 1036.6797,1507.1953 Q1035.8438,1508.1719 1035.8438,1510.3438 Q1035.8438,1512.6406 1036.6719,1513.625 Q1037.5,1514.6094 1038.8281,1514.6094 Q1039.8125,1514.6094 1040.5156,1513.9844 Q1041.2188,1513.3594 1041.5156,1512.0313 Z "/><text fill="#000000" font-size="12" lengthAdjust="spacingAndGlyphs" textLength="21" x="1059.25" y="1514.9531">Log</text><line style="stroke: #A80036; stroke-width: 1.5;" x1="992" x2="1115" y1="1526.5" y2="1526.5"/><line style="stroke: #A80036; stroke-width: 1.5;" x1="992" x2="1115" y1="1534.5" y2="1534.5"/><text fill="#000000" font-size="11" lengthAdjust="spacingAndGlyphs" textLength="47" x="997" y="1549.5">logSend()</text><text fill="#000000" font-size="11" lengthAdjust="spacingAndGlyphs" textLength="71" x="997" y="1563.3359">logResponse()</text><text fill="#000000" font-size="11" lengthAdjust="spacingAndGlyphs" textLength="98" x="997" y="1577.1719">logCashDispensed()</text><text fill="#000000" font-size="11" lengthAdjust="spacingAndGlyphs" textLength="113" x="997" y="1591.0078">logEnvelopeAccepted()</text><rect fill="#FEFECE" filter="url(#f1)" height="103.3438" style="stroke: #A80036; stroke-width: 1.5;" width="134" x="439.25" y="1323.5"/><ellipse cx="454.25" cy="1339.5" fill="#ADD1B2" rx="11" ry="11" style="stroke: #A80036; stroke-width: 1.0;"/><path d="M457.0156,1341.0313 L459.4063,1341.7813 Q458.8594,1343.7656 457.5859,1344.7344 Q456.3125,1345.7031 454.3438,1345.7031 Q451.9219,1345.7031 450.3672,1344.0469 Q448.8125,1342.3906 448.8125,1339.5156 Q448.8125,1336.4844 450.375,1334.8047 Q451.9375,1333.125 454.5,1333.125 Q456.7344,1333.125 458.125,1334.4375 Q458.9531,1335.2188 459.375,1336.6875 L456.9375,1337.2656 Q456.7188,1336.3125 456.0391,1335.7656 Q455.3594,1335.2188 454.375,1335.2188 Q453.0156,1335.2188 452.1797,1336.1953 Q451.3438,1337.1719 451.3438,1339.3438 Q451.3438,1341.6406 452.1719,1342.625 Q453,1343.6094 454.3281,1343.6094 Q455.3125,1343.6094 456.0156,1342.9844 Q456.7188,1342.3594 457.0156,1341.0313 Z "/><text fill="#000000" font-size="12" lengthAdjust="spacingAndGlyphs" textLength="102" x="468.25" y="1343.9531">CustomerConsole</text><line style="stroke: #A80036; stroke-width: 1.5;" x1="440.25" x2="572.25" y1="1355.5" y2="1355.5"/><line style="stroke: #A80036; stroke-width: 1.5;" x1="440.25" x2="572.25" y1="1363.5" y2="1363.5"/><text fill="#000000" font-size="11" lengthAdjust="spacingAndGlyphs" textLength="42" x="445.25" y="1378.5">display()</text><text fill="#000000" font-size="11" lengthAdjust="spacingAndGlyphs" textLength="45" x="445.25" y="1392.3359">readPIN()</text><text fill="#000000" font-size="11" lengthAdjust="spacingAndGlyphs" textLength="89" x="445.25" y="1406.1719">readMenuChoice()</text><text fill="#000000" font-size="11" lengthAdjust="spacingAndGlyphs" textLength="67" x="445.25" y="1420.0078">readAmount()</text><rect fill="#FEFECE" filter="url(#f1)" height="324.7188" style="stroke: #A80036; stroke-width: 1.5;" width="194" x="253.25" y="8.5"/><ellipse cx="313.5" cy="24.5" fill="#ADD1B2" rx="11" ry="11" style="stroke: #A80036; stroke-width: 1.0;"/><path d="M316.2656,26.0313 L318.6563,26.7813 Q318.1094,28.7656 316.8359,29.7344 Q315.5625,30.7031 313.5938,30.7031 Q311.1719,30.7031 309.6172,29.0469 Q308.0625,27.3906 308.0625,24.5156 Q308.0625,21.4844 309.625,19.8047 Q311.1875,18.125 313.75,18.125 Q315.9844,18.125 317.375,19.4375 Q318.2031,20.2188 318.625,21.6875 L316.1875,22.2656 Q315.9688,21.3125 315.2891,20.7656 Q314.6094,20.2188 313.625,20.2188 Q312.2656,20.2188 311.4297,21.1953 Q310.5938,22.1719 310.5938,24.3438 Q310.5938,26.6406 311.4219,27.625 Q312.25,28.6094 313.5781,28.6094 Q314.5625,28.6094 315.2656,27.9844 Q315.9688,27.3594 316.2656,26.0313 Z "/><text fill="#000000" font-size="12" lengthAdjust="spacingAndGlyphs" textLength="65" x="334" y="28.9531">Transaction</text><line style="stroke: #A80036; stroke-width: 1.5;" x1="254.25" x2="446.25" y1="40.5" y2="40.5"/><text fill="#000000" font-size="11" lengthAdjust="spacingAndGlyphs" textLength="17" x="259.25" y="55.5">atm</text><text fill="#000000" font-size="11" lengthAdjust="spacingAndGlyphs" textLength="38" x="259.25" y="69.3359">session</text><text fill="#000000" font-size="11" lengthAdjust="spacingAndGlyphs" textLength="22" x="259.25" y="83.1719">card</text><text fill="#000000" font-size="11" lengthAdjust="spacingAndGlyphs" textLength="14" x="259.25" y="97.0078">pin</text><text fill="#000000" font-size="11" lengthAdjust="spacingAndGlyphs" textLength="63" x="259.25" y="110.8438">serialNumber</text><text fill="#000000" font-size="11" lengthAdjust="spacingAndGlyphs" textLength="44" x="259.25" y="124.6797">message</text><text fill="#000000" font-size="11" lengthAdjust="spacingAndGlyphs" textLength="44" x="259.25" y="138.5156">balances</text><text fill="#000000" font-size="11" lengthAdjust="spacingAndGlyphs" textLength="146" x="259.25" y="152.3516">TRANSACTION_TYPES_MENU</text><text fill="#000000" font-size="11" lengthAdjust="spacingAndGlyphs" textLength="85" x="259.25" y="166.1875">nextSerialNumber</text><text fill="#000000" font-size="11" lengthAdjust="spacingAndGlyphs" textLength="24" x="259.25" y="180.0234">state</text><text fill="#000000" font-size="11" lengthAdjust="spacingAndGlyphs" textLength="138" x="259.25" y="193.8594">GETTING_SPECIFICS_STATE</text><text fill="#000000" font-size="11" lengthAdjust="spacingAndGlyphs" textLength="138" x="259.25" y="207.6953">SENDING_TO_BANK_STATE</text><text fill="#000000" font-size="11" lengthAdjust="spacingAndGlyphs" textLength="100" x="259.25" y="221.5313">INVALID_PIN_STATE</text><text fill="#000000" font-size="11" lengthAdjust="spacingAndGlyphs" textLength="182" x="259.25" y="235.3672">COMPLETING_TRANSACTION_STATE</text><text fill="#000000" font-size="11" lengthAdjust="spacingAndGlyphs" textLength="130" x="259.25" y="249.2031">PRINTING_RECEIPT_STATE</text><text fill="#000000" font-size="11" lengthAdjust="spacingAndGlyphs" textLength="154" x="259.25" y="263.0391">ASKING_DO_ANOTHER_STATE</text><line style="stroke: #A80036; stroke-width: 1.5;" x1="254.25" x2="446.25" y1="269.875" y2="269.875"/><text fill="#000000" font-size="11" lengthAdjust="spacingAndGlyphs" textLength="90" x="259.25" y="284.875">makeTransaction()</text><text fill="#000000" font-size="11" lengthAdjust="spacingAndGlyphs" textLength="103" x="259.25" y="298.7109">performTransaction()</text><text fill="#000000" font-size="11" lengthAdjust="spacingAndGlyphs" textLength="138" x="259.25" y="312.5469">performInvalidPINExtension()</text><text fill="#000000" font-size="11" lengthAdjust="spacingAndGlyphs" textLength="108" x="259.25" y="326.3828">completeTransaction()</text><rect fill="#FEFECE" filter="url(#f1)" height="61.8359" style="stroke: #A80036; stroke-width: 1.5;" width="112" x="699.25" y="574"/><ellipse cx="714.25" cy="590" fill="#ADD1B2" rx="11" ry="11" style="stroke: #A80036; stroke-width: 1.0;"/><path d="M717.0156,591.5313 L719.4063,592.2813 Q718.8594,594.2656 717.5859,595.2344 Q716.3125,596.2031 714.3438,596.2031 Q711.9219,596.2031 710.3672,594.5469 Q708.8125,592.8906 708.8125,590.0156 Q708.8125,586.9844 710.375,585.3047 Q711.9375,583.625 714.5,583.625 Q716.7344,583.625 718.125,584.9375 Q718.9531,585.7188 719.375,587.1875 L716.9375,587.7656 Q716.7188,586.8125 716.0391,586.2656 Q715.3594,585.7188 714.375,585.7188 Q713.0156,585.7188 712.1797,586.6953 Q711.3438,587.6719 711.3438,589.8438 Q711.3438,592.1406 712.1719,593.125 Q713,594.1094 714.3281,594.1094 Q715.3125,594.1094 716.0156,593.4844 Q716.7188,592.8594 717.0156,591.5313 Z "/><text fill="#000000" font-size="12" lengthAdjust="spacingAndGlyphs" textLength="80" x="728.25" y="594.4531">OperatorPanel</text><line style="stroke: #A80036; stroke-width: 1.5;" x1="700.25" x2="810.25" y1="606" y2="606"/><text fill="#000000" font-size="11" lengthAdjust="spacingAndGlyphs" textLength="17" x="705.25" y="621">atm</text><line style="stroke: #A80036; stroke-width: 1.5;" x1="700.25" x2="810.25" y1="627.8359" y2="627.8359"/><rect fill="#FEFECE" filter="url(#f1)" height="61.8359" style="stroke: #A80036; stroke-width: 1.5;" width="110" x="608.25" y="1344"/><ellipse cx="623.25" cy="1360" fill="#ADD1B2" rx="11" ry="11" style="stroke: #A80036; stroke-width: 1.0;"/><path d="M626.0156,1361.5313 L628.4063,1362.2813 Q627.8594,1364.2656 626.5859,1365.2344 Q625.3125,1366.2031 623.3438,1366.2031 Q620.9219,1366.2031 619.3672,1364.5469 Q617.8125,1362.8906 617.8125,1360.0156 Q617.8125,1356.9844 619.375,1355.3047 Q620.9375,1353.625 623.5,1353.625 Q625.7344,1353.625 627.125,1354.9375 Q627.9531,1355.7188 628.375,1357.1875 L625.9375,1357.7656 Q625.7188,1356.8125 625.0391,1356.2656 Q624.3594,1355.7188 623.375,1355.7188 Q622.0156,1355.7188 621.1797,1356.6953 Q620.3438,1357.6719 620.3438,1359.8438 Q620.3438,1362.1406 621.1719,1363.125 Q622,1364.1094 623.3281,1364.1094 Q624.3125,1364.1094 625.0156,1363.4844 Q625.7188,1362.8594 626.0156,1361.5313 Z "/><text fill="#000000" font-size="12" lengthAdjust="spacingAndGlyphs" textLength="78" x="637.25" y="1364.4531">ReceiptPrinter</text><line style="stroke: #A80036; stroke-width: 1.5;" x1="609.25" x2="717.25" y1="1376" y2="1376"/><line style="stroke: #A80036; stroke-width: 1.5;" x1="609.25" x2="717.25" y1="1384" y2="1384"/><text fill="#000000" font-size="11" lengthAdjust="spacingAndGlyphs" textLength="65" x="614.25" y="1399">printReceipt()</text><rect fill="#FEFECE" filter="url(#f1)" height="186.3594" style="stroke: #A80036; stroke-width: 1.5;" width="195" x="918" y="512"/><ellipse cx="988.25" cy="528" fill="#ADD1B2" rx="11" ry="11" style="stroke: #A80036; stroke-width: 1.0;"/><path d="M991.0156,529.5313 L993.4063,530.2813 Q992.8594,532.2656 991.5859,533.2344 Q990.3125,534.2031 988.3438,534.2031 Q985.9219,534.2031 984.3672,532.5469 Q982.8125,530.8906 982.8125,528.0156 Q982.8125,524.9844 984.375,523.3047 Q985.9375,521.625 988.5,521.625 Q990.7344,521.625 992.125,522.9375 Q992.9531,523.7188 993.375,525.1875 L990.9375,525.7656 Q990.7188,524.8125 990.0391,524.2656 Q989.3594,523.7188 988.375,523.7188 Q987.0156,523.7188 986.1797,524.6953 Q985.3438,525.6719 985.3438,527.8438 Q985.3438,530.1406 986.1719,531.125 Q987,532.1094 988.3281,532.1094 Q989.3125,532.1094 990.0156,531.4844 Q990.7188,530.8594 991.0156,529.5313 Z "/><text fill="#000000" font-size="12" lengthAdjust="spacingAndGlyphs" textLength="46" x="1008.75" y="532.4531">Session</text><line style="stroke: #A80036; stroke-width: 1.5;" x1="919" x2="1112" y1="544" y2="544"/><text fill="#000000" font-size="11" lengthAdjust="spacingAndGlyphs" textLength="17" x="924" y="559">atm</text><text fill="#000000" font-size="11" lengthAdjust="spacingAndGlyphs" textLength="14" x="924" y="572.8359">pin</text><text fill="#000000" font-size="11" lengthAdjust="spacingAndGlyphs" textLength="24" x="924" y="586.6719">state</text><text fill="#000000" font-size="11" lengthAdjust="spacingAndGlyphs" textLength="119" x="924" y="600.5078">READING_CARD_STATE</text><text fill="#000000" font-size="11" lengthAdjust="spacingAndGlyphs" textLength="105" x="924" y="614.3438">READING_PIN_STATE</text><text fill="#000000" font-size="11" lengthAdjust="spacingAndGlyphs" textLength="172" x="924" y="628.1797">CHOOSING_TRANSACTION_STATE</text><text fill="#000000" font-size="11" lengthAdjust="spacingAndGlyphs" textLength="183" x="924" y="642.0156">PERFORMING_TRANSACTION_STATE</text><text fill="#000000" font-size="11" lengthAdjust="spacingAndGlyphs" textLength="121" x="924" y="655.8516">EJECTING_CARD_STATE</text><text fill="#000000" font-size="11" lengthAdjust="spacingAndGlyphs" textLength="68" x="924" y="669.6875">FINAL_STATE</text><line style="stroke: #A80036; stroke-width: 1.5;" x1="919" x2="1112" y1="676.5234" y2="676.5234"/><text fill="#000000" font-size="11" lengthAdjust="spacingAndGlyphs" textLength="85" x="924" y="691.5234">performSession()</text><rect fill="#FEFECE" filter="url(#f1)" height="421.5703" style="stroke: #A80036; stroke-width: 1.5;" width="101" x="428" y="394"/><ellipse cx="447.5" cy="410" fill="#ADD1B2" rx="11" ry="11" style="stroke: #A80036; stroke-width: 1.0;"/><path d="M450.2656,411.5313 L452.6563,412.2813 Q452.1094,414.2656 450.8359,415.2344 Q449.5625,416.2031 447.5938,416.2031 Q445.1719,416.2031 443.6172,414.5469 Q442.0625,412.8906 442.0625,410.0156 Q442.0625,406.9844 443.625,405.3047 Q445.1875,403.625 447.75,403.625 Q449.9844,403.625 451.375,404.9375 Q452.2031,405.7188 452.625,407.1875 L450.1875,407.7656 Q449.9688,406.8125 449.2891,406.2656 Q448.6094,405.7188 447.625,405.7188 Q446.2656,405.7188 445.4297,406.6953 Q444.5938,407.6719 444.5938,409.8438 Q444.5938,412.1406 445.4219,413.125 Q446.25,414.1094 447.5781,414.1094 Q448.5625,414.1094 449.2656,413.4844 Q449.9688,412.8594 450.2656,411.5313 Z "/><text fill="#000000" font-size="12" lengthAdjust="spacingAndGlyphs" textLength="59" x="462.5" y="414.4531">Simulation</text><line style="stroke: #A80036; stroke-width: 1.5;" x1="429" x2="528" y1="426" y2="426"/><text fill="#000000" font-size="11" lengthAdjust="spacingAndGlyphs" textLength="50" x="434" y="441">PIN_MODE</text><text fill="#000000" font-size="11" lengthAdjust="spacingAndGlyphs" textLength="79" x="434" y="454.8359">AMOUNT_MODE</text><text fill="#000000" font-size="11" lengthAdjust="spacingAndGlyphs" textLength="63" x="434" y="468.6719">MENU_MODE</text><text fill="#000000" font-size="11" lengthAdjust="spacingAndGlyphs" textLength="17" x="434" y="482.5078">atm</text><text fill="#000000" font-size="11" lengthAdjust="spacingAndGlyphs" textLength="67" x="434" y="496.3438">operatorPanel</text><text fill="#000000" font-size="11" lengthAdjust="spacingAndGlyphs" textLength="57" x="434" y="510.1797">cardReader</text><text fill="#000000" font-size="11" lengthAdjust="spacingAndGlyphs" textLength="34" x="434" y="524.0156">display</text><text fill="#000000" font-size="11" lengthAdjust="spacingAndGlyphs" textLength="45" x="434" y="537.8516">keyboard</text><text fill="#000000" font-size="11" lengthAdjust="spacingAndGlyphs" textLength="73" x="434" y="551.6875">cashDispenser</text><text fill="#000000" font-size="11" lengthAdjust="spacingAndGlyphs" textLength="89" x="434" y="565.5234">envelopeAcceptor</text><text fill="#000000" font-size="11" lengthAdjust="spacingAndGlyphs" textLength="64" x="434" y="579.3594">receiptPrinter</text><text fill="#000000" font-size="11" lengthAdjust="spacingAndGlyphs" textLength="14" x="434" y="593.1953">gui</text><text fill="#000000" font-size="11" lengthAdjust="spacingAndGlyphs" textLength="69" x="434" y="607.0313">simulatedBank</text><text fill="#000000" font-size="11" lengthAdjust="spacingAndGlyphs" textLength="56" x="434" y="620.8672">theInstance</text><line style="stroke: #A80036; stroke-width: 1.5;" x1="429" x2="528" y1="627.7031" y2="627.7031"/><text fill="#000000" font-size="11" lengthAdjust="spacingAndGlyphs" textLength="53" x="434" y="642.7031">readCard()</text><text fill="#000000" font-size="11" lengthAdjust="spacingAndGlyphs" textLength="54" x="434" y="656.5391">ejectCard()</text><text fill="#000000" font-size="11" lengthAdjust="spacingAndGlyphs" textLength="58" x="434" y="670.375">retainCard()</text><text fill="#000000" font-size="11" lengthAdjust="spacingAndGlyphs" textLength="67" x="434" y="684.2109">clearDisplay()</text><text fill="#000000" font-size="11" lengthAdjust="spacingAndGlyphs" textLength="42" x="434" y="698.0469">display()</text><text fill="#000000" font-size="11" lengthAdjust="spacingAndGlyphs" textLength="53" x="434" y="711.8828">readInput()</text><text fill="#000000" font-size="11" lengthAdjust="spacingAndGlyphs" textLength="77" x="434" y="725.7188">dispenseCash()</text><text fill="#000000" font-size="11" lengthAdjust="spacingAndGlyphs" textLength="85" x="434" y="739.5547">acceptEnvelope()</text><text fill="#000000" font-size="11" lengthAdjust="spacingAndGlyphs" textLength="85" x="434" y="753.3906">printReceiptLine()</text><text fill="#000000" font-size="11" lengthAdjust="spacingAndGlyphs" textLength="67" x="434" y="767.2266">printLogLine()</text><text fill="#000000" font-size="11" lengthAdjust="spacingAndGlyphs" textLength="76" x="434" y="781.0625">sendMessage()</text><text fill="#000000" font-size="11" lengthAdjust="spacingAndGlyphs" textLength="84" x="434" y="794.8984">switchChanged()</text><text fill="#000000" font-size="11" lengthAdjust="spacingAndGlyphs" textLength="69" x="434" y="808.7344">cardInserted()</text><rect fill="#FEFECE" filter="url(#f1)" height="214.0313" style="stroke: #A80036; stroke-width: 1.5;" width="113" x="113" y="498"/><ellipse cx="141.5" cy="514" fill="#ADD1B2" rx="11" ry="11" style="stroke: #A80036; stroke-width: 1.0;"/><path d="M144.2656,515.5313 L146.6563,516.2813 Q146.1094,518.2656 144.8359,519.2344 Q143.5625,520.2031 141.5938,520.2031 Q139.1719,520.2031 137.6172,518.5469 Q136.0625,516.8906 136.0625,514.0156 Q136.0625,510.9844 137.625,509.3047 Q139.1875,507.625 141.75,507.625 Q143.9844,507.625 145.375,508.9375 Q146.2031,509.7188 146.625,511.1875 L144.1875,511.7656 Q143.9688,510.8125 143.2891,510.2656 Q142.6094,509.7188 141.625,509.7188 Q140.2656,509.7188 139.4297,510.6953 Q138.5938,511.6719 138.5938,513.8438 Q138.5938,516.1406 139.4219,517.125 Q140.25,518.1094 141.5781,518.1094 Q142.5625,518.1094 143.2656,517.4844 Q143.9688,516.8594 144.2656,515.5313 Z "/><text fill="#000000" font-size="12" lengthAdjust="spacingAndGlyphs" textLength="51" x="158.5" y="518.4531">Message</text><line style="stroke: #A80036; stroke-width: 1.5;" x1="114" x2="225" y1="530" y2="530"/><text fill="#000000" font-size="11" lengthAdjust="spacingAndGlyphs" textLength="71" x="119" y="545">WITHDRAWAL</text><text fill="#000000" font-size="11" lengthAdjust="spacingAndGlyphs" textLength="87" x="119" y="558.8359">INITIATE_DEPOSIT</text><text fill="#000000" font-size="11" lengthAdjust="spacingAndGlyphs" textLength="101" x="119" y="572.6719">COMPLETE_DEPOSIT</text><text fill="#000000" font-size="11" lengthAdjust="spacingAndGlyphs" textLength="54" x="119" y="586.5078">TRANSFER</text><text fill="#000000" font-size="11" lengthAdjust="spacingAndGlyphs" textLength="41" x="119" y="600.3438">INQUIRY</text><text fill="#000000" font-size="11" lengthAdjust="spacingAndGlyphs" textLength="69" x="119" y="614.1797">messageCode</text><text fill="#000000" font-size="11" lengthAdjust="spacingAndGlyphs" textLength="22" x="119" y="628.0156">card</text><text fill="#000000" font-size="11" lengthAdjust="spacingAndGlyphs" textLength="14" x="119" y="641.8516">pin</text><text fill="#000000" font-size="11" lengthAdjust="spacingAndGlyphs" textLength="63" x="119" y="655.6875">serialNumber</text><text fill="#000000" font-size="11" lengthAdjust="spacingAndGlyphs" textLength="63" x="119" y="669.5234">fromAccount</text><text fill="#000000" font-size="11" lengthAdjust="spacingAndGlyphs" textLength="50" x="119" y="683.3594">toAccount</text><text fill="#000000" font-size="11" lengthAdjust="spacingAndGlyphs" textLength="35" x="119" y="697.1953">amount</text><line style="stroke: #A80036; stroke-width: 1.5;" x1="114" x2="225" y1="704.0313" y2="704.0313"/><rect fill="#FEFECE" filter="url(#f1)" height="172.5234" style="stroke: #A80036; stroke-width: 1.5;" width="100" x="588.25" y="979.5"/><ellipse cx="624.4" cy="995.5" fill="#ADD1B2" rx="11" ry="11" style="stroke: #A80036; stroke-width: 1.0;"/><path d="M627.1656,997.0313 L629.5563,997.7813 Q629.0094,999.7656 627.7359,1000.7344 Q626.4625,1001.7031 624.4938,1001.7031 Q622.0719,1001.7031 620.5172,1000.0469 Q618.9625,998.3906 618.9625,995.5156 Q618.9625,992.4844 620.525,990.8047 Q622.0875,989.125 624.65,989.125 Q626.8844,989.125 628.275,990.4375 Q629.1031,991.2188 629.525,992.6875 L627.0875,993.2656 Q626.8688,992.3125 626.1891,991.7656 Q625.5094,991.2188 624.525,991.2188 Q623.1656,991.2188 622.3297,992.1953 Q621.4938,993.1719 621.4938,995.3438 Q621.4938,997.6406 622.3219,998.625 Q623.15,999.6094 624.4781,999.6094 Q625.4625,999.6094 626.1656,998.9844 Q626.8688,998.3594 627.1656,997.0313 Z "/><text fill="#000000" font-size="12" lengthAdjust="spacingAndGlyphs" textLength="21" x="643.1" y="999.9531">GUI</text><line style="stroke: #A80036; stroke-width: 1.5;" x1="589.25" x2="687.25" y1="1011.5" y2="1011.5"/><text fill="#000000" font-size="11" lengthAdjust="spacingAndGlyphs" textLength="55" x="594.25" y="1026.5">mainLayout</text><text fill="#000000" font-size="11" lengthAdjust="spacingAndGlyphs" textLength="43" x="594.25" y="1040.3359">atmPanel</text><text fill="#000000" font-size="11" lengthAdjust="spacingAndGlyphs" textLength="44" x="594.25" y="1054.1719">billsPanel</text><text fill="#000000" font-size="11" lengthAdjust="spacingAndGlyphs" textLength="48" x="594.25" y="1068.0078">cardPanel</text><text fill="#000000" font-size="11" lengthAdjust="spacingAndGlyphs" textLength="40" x="594.25" y="1081.8438">logPanel</text><line style="stroke: #A80036; stroke-width: 1.5;" x1="589.25" x2="687.25" y1="1088.6797" y2="1088.6797"/><text fill="#000000" font-size="11" lengthAdjust="spacingAndGlyphs" textLength="53" x="594.25" y="1103.6797">readCard()</text><text fill="#000000" font-size="11" lengthAdjust="spacingAndGlyphs" textLength="67" x="594.25" y="1117.5156">printLogLine()</text><text fill="#000000" font-size="11" lengthAdjust="spacingAndGlyphs" textLength="59" x="594.25" y="1131.3516">showCard()</text><text fill="#000000" font-size="11" lengthAdjust="spacingAndGlyphs" textLength="88" x="594.25" y="1145.1875">makeConstraints()</text><rect fill="#FEFECE" filter="url(#f1)" height="214.0313" style="stroke: #A80036; stroke-width: 1.5;" width="150" x="403.25" y="959"/><ellipse cx="433.55" cy="975" fill="#ADD1B2" rx="11" ry="11" style="stroke: #A80036; stroke-width: 1.0;"/><path d="M436.3156,976.5313 L438.7063,977.2813 Q438.1594,979.2656 436.8859,980.2344 Q435.6125,981.2031 433.6438,981.2031 Q431.2219,981.2031 429.6672,979.5469 Q428.1125,977.8906 428.1125,975.0156 Q428.1125,971.9844 429.675,970.3047 Q431.2375,968.625 433.8,968.625 Q436.0344,968.625 437.425,969.9375 Q438.2531,970.7188 438.675,972.1875 L436.2375,972.7656 Q436.0188,971.8125 435.3391,971.2656 Q434.6594,970.7188 433.675,970.7188 Q432.3156,970.7188 431.4797,971.6953 Q430.6438,972.6719 430.6438,974.8438 Q430.6438,977.1406 431.4719,978.125 Q432.3,979.1094 433.6281,979.1094 Q434.6125,979.1094 435.3156,978.4844 Q436.0188,977.8594 436.3156,976.5313 Z "/><text fill="#000000" font-size="12" lengthAdjust="spacingAndGlyphs" textLength="84" x="450.95" y="979.4531">SimulatedBank</text><line style="stroke: #A80036; stroke-width: 1.5;" x1="404.25" x2="552.25" y1="991" y2="991"/><text fill="#000000" font-size="11" lengthAdjust="spacingAndGlyphs" textLength="15" x="409.25" y="1006">PIN</text><text fill="#000000" font-size="11" lengthAdjust="spacingAndGlyphs" textLength="98" x="409.25" y="1019.8359">ACCOUNT_NUMBER</text><text fill="#000000" font-size="11" lengthAdjust="spacingAndGlyphs" textLength="121" x="409.25" y="1033.6719">WITHDRAWALS_TODAY</text><text fill="#000000" font-size="11" lengthAdjust="spacingAndGlyphs" textLength="138" x="409.25" y="1047.5078">DAILY_WITHDRAWAL_LIMIT</text><text fill="#000000" font-size="11" lengthAdjust="spacingAndGlyphs" textLength="49" x="409.25" y="1061.3438">BALANCE</text><text fill="#000000" font-size="11" lengthAdjust="spacingAndGlyphs" textLength="114" x="409.25" y="1075.1797">AVAILABLE_BALANCE</text><line style="stroke: #A80036; stroke-width: 1.5;" x1="404.25" x2="552.25" y1="1082.0156" y2="1082.0156"/><text fill="#000000" font-size="11" lengthAdjust="spacingAndGlyphs" textLength="84" x="409.25" y="1097.0156">handleMessage()</text><text fill="#000000" font-size="11" lengthAdjust="spacingAndGlyphs" textLength="63" x="409.25" y="1110.8516">withdrawal()</text><text fill="#000000" font-size="11" lengthAdjust="spacingAndGlyphs" textLength="74" x="409.25" y="1124.6875">initiateDeposit()</text><text fill="#000000" font-size="11" lengthAdjust="spacingAndGlyphs" textLength="87" x="409.25" y="1138.5234">completeDeposit()</text><text fill="#000000" font-size="11" lengthAdjust="spacingAndGlyphs" textLength="47" x="409.25" y="1152.3594">transfer()</text><text fill="#000000" font-size="11" lengthAdjust="spacingAndGlyphs" textLength="40" x="409.25" y="1166.1953">inquiry()</text><rect fill="#FEFECE" filter="url(#f1)" height="103.3438" style="stroke: #A80036; stroke-width: 1.5;" width="67" x="317" y="1494.5"/><ellipse cx="332" cy="1510.5" fill="#ADD1B2" rx="11" ry="11" style="stroke: #A80036; stroke-width: 1.0;"/><path d="M334.7656,1512.0313 L337.1563,1512.7813 Q336.6094,1514.7656 335.3359,1515.7344 Q334.0625,1516.7031 332.0938,1516.7031 Q329.6719,1516.7031 328.1172,1515.0469 Q326.5625,1513.3906 326.5625,1510.5156 Q326.5625,1507.4844 328.125,1505.8047 Q329.6875,1504.125 332.25,1504.125 Q334.4844,1504.125 335.875,1505.4375 Q336.7031,1506.2188 337.125,1507.6875 L334.6875,1508.2656 Q334.4688,1507.3125 333.7891,1506.7656 Q333.1094,1506.2188 332.125,1506.2188 Q330.7656,1506.2188 329.9297,1507.1953 Q329.0938,1508.1719 329.0938,1510.3438 Q329.0938,1512.6406 329.9219,1513.625 Q330.75,1514.6094 332.0781,1514.6094 Q333.0625,1514.6094 333.7656,1513.9844 Q334.4688,1513.3594 334.7656,1512.0313 Z "/><text fill="#000000" font-size="12" lengthAdjust="spacingAndGlyphs" textLength="35" x="346" y="1514.9531">Money</text><line style="stroke: #A80036; stroke-width: 1.5;" x1="318" x2="383" y1="1526.5" y2="1526.5"/><text fill="#000000" font-size="11" lengthAdjust="spacingAndGlyphs" textLength="27" x="323" y="1541.5">cents</text><line style="stroke: #A80036; stroke-width: 1.5;" x1="318" x2="383" y1="1548.3359" y2="1548.3359"/><text fill="#000000" font-size="11" lengthAdjust="spacingAndGlyphs" textLength="26" x="323" y="1563.3359">add()</text><text fill="#000000" font-size="11" lengthAdjust="spacingAndGlyphs" textLength="48" x="323" y="1577.1719">subtract()</text><text fill="#000000" font-size="11" lengthAdjust="spacingAndGlyphs" textLength="54" x="323" y="1591.0078">lessEqual()</text><rect fill="#FEFECE" filter="url(#f1)" height="75.6719" style="stroke: #A80036; stroke-width: 1.5;" width="84" x="284.25" y="1028"/><ellipse cx="299.25" cy="1044" fill="#ADD1B2" rx="11" ry="11" style="stroke: #A80036; stroke-width: 1.0;"/><path d="M302.0156,1045.5313 L304.4063,1046.2813 Q303.8594,1048.2656 302.5859,1049.2344 Q301.3125,1050.2031 299.3438,1050.2031 Q296.9219,1050.2031 295.3672,1048.5469 Q293.8125,1046.8906 293.8125,1044.0156 Q293.8125,1040.9844 295.375,1039.3047 Q296.9375,1037.625 299.5,1037.625 Q301.7344,1037.625 303.125,1038.9375 Q303.9531,1039.7188 304.375,1041.1875 L301.9375,1041.7656 Q301.7188,1040.8125 301.0391,1040.2656 Q300.3594,1039.7188 299.375,1039.7188 Q298.0156,1039.7188 297.1797,1040.6953 Q296.3438,1041.6719 296.3438,1043.8438 Q296.3438,1046.1406 297.1719,1047.125 Q298,1048.1094 299.3281,1048.1094 Q300.3125,1048.1094 301.0156,1047.4844 Q301.7188,1046.8594 302.0156,1045.5313 Z "/><text fill="#000000" font-size="12" lengthAdjust="spacingAndGlyphs" textLength="52" x="313.25" y="1048.4531">Balances</text><line style="stroke: #A80036; stroke-width: 1.5;" x1="285.25" x2="367.25" y1="1060" y2="1060"/><text fill="#000000" font-size="11" lengthAdjust="spacingAndGlyphs" textLength="20" x="290.25" y="1075">total</text><text fill="#000000" font-size="11" lengthAdjust="spacingAndGlyphs" textLength="42" x="290.25" y="1088.8359">available</text><line style="stroke: #A80036; stroke-width: 1.5;" x1="285.25" x2="367.25" y1="1095.6719" y2="1095.6719"/><rect fill="#FEFECE" filter="url(#f1)" height="89.5078" style="stroke: #A80036; stroke-width: 1.5;" width="89" x="6" y="126"/><ellipse cx="27.75" cy="142" fill="#ADD1B2" rx="11" ry="11" style="stroke: #A80036; stroke-width: 1.0;"/><path d="M30.5156,143.5313 L32.9063,144.2813 Q32.3594,146.2656 31.0859,147.2344 Q29.8125,148.2031 27.8438,148.2031 Q25.4219,148.2031 23.8672,146.5469 Q22.3125,144.8906 22.3125,142.0156 Q22.3125,138.9844 23.875,137.3047 Q25.4375,135.625 28,135.625 Q30.2344,135.625 31.625,136.9375 Q32.4531,137.7188 32.875,139.1875 L30.4375,139.7656 Q30.2188,138.8125 29.5391,138.2656 Q28.8594,137.7188 27.875,137.7188 Q26.5156,137.7188 25.6797,138.6953 Q24.8438,139.6719 24.8438,141.8438 Q24.8438,144.1406 25.6719,145.125 Q26.5,146.1094 27.8281,146.1094 Q28.8125,146.1094 29.5156,145.4844 Q30.2188,144.8594 30.5156,143.5313 Z "/><text fill="#000000" font-size="12" lengthAdjust="spacingAndGlyphs" textLength="42" x="43.25" y="146.4531">Receipt</text><line style="stroke: #A80036; stroke-width: 1.5;" x1="7" x2="94" y1="158" y2="158"/><text fill="#000000" font-size="11" lengthAdjust="spacingAndGlyphs" textLength="71" x="12" y="173">headingPortion</text><text fill="#000000" font-size="11" lengthAdjust="spacingAndGlyphs" textLength="64" x="12" y="186.8359">detailsPortion</text><text fill="#000000" font-size="11" lengthAdjust="spacingAndGlyphs" textLength="77" x="12" y="200.6719">balancesPortion</text><line style="stroke: #A80036; stroke-width: 1.5;" x1="7" x2="94" y1="207.5078" y2="207.5078"/><rect fill="#FEFECE" filter="url(#f1)" height="61.8359" style="stroke: #A80036; stroke-width: 1.5;" width="87" x="483" y="140"/><ellipse cx="498" cy="156" fill="#ADD1B2" rx="11" ry="11" style="stroke: #A80036; stroke-width: 1.0;"/><path d="M500.7656,157.5313 L503.1563,158.2813 Q502.6094,160.2656 501.3359,161.2344 Q500.0625,162.2031 498.0938,162.2031 Q495.6719,162.2031 494.1172,160.5469 Q492.5625,158.8906 492.5625,156.0156 Q492.5625,152.9844 494.125,151.3047 Q495.6875,149.625 498.25,149.625 Q500.4844,149.625 501.875,150.9375 Q502.7031,151.7188 503.125,153.1875 L500.6875,153.7656 Q500.4688,152.8125 499.7891,152.2656 Q499.1094,151.7188 498.125,151.7188 Q496.7656,151.7188 495.9297,152.6953 Q495.0938,153.6719 495.0938,155.8438 Q495.0938,158.1406 495.9219,159.125 Q496.75,160.1094 498.0781,160.1094 Q499.0625,160.1094 499.7656,159.4844 Q500.4688,158.8594 500.7656,157.5313 Z "/><text fill="#000000" font-size="12" lengthAdjust="spacingAndGlyphs" textLength="55" x="512" y="160.4531">InvalidPIN</text><line style="stroke: #A80036; stroke-width: 1.5;" x1="484" x2="569" y1="172" y2="172"/><line style="stroke: #A80036; stroke-width: 1.5;" x1="484" x2="569" y1="180" y2="180"/><text fill="#000000" font-size="11" lengthAdjust="spacingAndGlyphs" textLength="61" x="489" y="195">isInvalidPIN()</text><rect fill="#FEFECE" filter="url(#f1)" height="75.6719" style="stroke: #A80036; stroke-width: 1.5;" width="73" x="605" y="133"/><ellipse cx="622.7" cy="149" fill="#ADD1B2" rx="11" ry="11" style="stroke: #A80036; stroke-width: 1.0;"/><path d="M625.4656,150.5313 L627.8563,151.2813 Q627.3094,153.2656 626.0359,154.2344 Q624.7625,155.2031 622.7938,155.2031 Q620.3719,155.2031 618.8172,153.5469 Q617.2625,151.8906 617.2625,149.0156 Q617.2625,145.9844 618.825,144.3047 Q620.3875,142.625 622.95,142.625 Q625.1844,142.625 626.575,143.9375 Q627.4031,144.7188 627.825,146.1875 L625.3875,146.7656 Q625.1688,145.8125 624.4891,145.2656 Q623.8094,144.7188 622.825,144.7188 Q621.4656,144.7188 620.6297,145.6953 Q619.7938,146.6719 619.7938,148.8438 Q619.7938,151.1406 620.6219,152.125 Q621.45,153.1094 622.7781,153.1094 Q623.7625,153.1094 624.4656,152.4844 Q625.1688,151.8594 625.4656,150.5313 Z "/><text fill="#000000" font-size="12" lengthAdjust="spacingAndGlyphs" textLength="35" x="637.3" y="153.4531">Status</text><line style="stroke: #A80036; stroke-width: 1.5;" x1="606" x2="677" y1="165" y2="165"/><line style="stroke: #A80036; stroke-width: 1.5;" x1="606" x2="677" y1="173" y2="173"/><text fill="#000000" font-size="11" lengthAdjust="spacingAndGlyphs" textLength="59" x="611" y="188">isSuccess()</text><text fill="#000000" font-size="11" lengthAdjust="spacingAndGlyphs" textLength="61" x="611" y="201.8359">isInvalidPIN()</text><rect fill="#FEFECE" filter="url(#f1)" height="48" style="stroke: #A80036; stroke-width: 1.5;" width="88" x="130.25" y="147"/><ellipse cx="145.25" cy="163" fill="#ADD1B2" rx="11" ry="11" style="stroke: #A80036; stroke-width: 1.0;"/><path d="M148.0156,164.5313 L150.4063,165.2813 Q149.8594,167.2656 148.5859,168.2344 Q147.3125,169.2031 145.3438,169.2031 Q142.9219,169.2031 141.3672,167.5469 Q139.8125,165.8906 139.8125,163.0156 Q139.8125,159.9844 141.375,158.3047 Q142.9375,156.625 145.5,156.625 Q147.7344,156.625 149.125,157.9375 Q149.9531,158.7188 150.375,160.1875 L147.9375,160.7656 Q147.7188,159.8125 147.0391,159.2656 Q146.3594,158.7188 145.375,158.7188 Q144.0156,158.7188 143.1797,159.6953 Q142.3438,160.6719 142.3438,162.8438 Q142.3438,165.1406 143.1719,166.125 Q144,167.1094 145.3281,167.1094 Q146.3125,167.1094 147.0156,166.4844 Q147.7188,165.8594 148.0156,164.5313 Z "/><text fill="#000000" font-size="12" lengthAdjust="spacingAndGlyphs" textLength="56" x="159.25" y="167.4531">Cancelled</text><line style="stroke: #A80036; stroke-width: 1.5;" x1="131.25" x2="217.25" y1="179" y2="179"/><line style="stroke: #A80036; stroke-width: 1.5;" x1="131.25" x2="217.25" y1="187" y2="187"/><path d="M627.631,656.55 C639.689,699.663 658.92,762.91 681.25,816 C696.663,852.644 715.589,891.11 734.245,926.55 " fill="none" style="stroke: #A80036; stroke-width: 1.0;"/><path d="M813.25,1256.184 C813.25,1278.629 813.25,1299.996 813.25,1318.218 " fill="none" style="stroke: #A80036; stroke-width: 1.0;"/><polygon fill="#A80036" points="813.25,1323.273,817.25,1314.273,813.25,1318.273,809.25,1314.273,813.25,1323.273" style="stroke: #A80036; stroke-width: 1.0;"/><path d="M734.192,1223.079 C725.252,1234.875 715.597,1246.041 705.25,1256 C663.713,1295.977 639.619,1286.232 590.25,1316 C586.238,1318.419 582.158,1320.957 578.068,1323.564 " fill="none" style="stroke: #A80036; stroke-width: 1.0;"/><polygon fill="#A80036" points="573.629,1326.417,583.3628,1324.9162,577.8353,1323.7138,579.0377,1318.1862,573.629,1326.417" style="stroke: #A80036; stroke-width: 1.0;"/><path d="M892.313,1218.701 C914.06,1260.429 935.899,1302.333 951.402,1332.079 " fill="none" style="stroke: #A80036; stroke-width: 1.0;"/><polygon fill="#A80036" points="953.834,1336.746,953.2221,1326.9162,951.5234,1332.3119,946.1276,1330.6132,953.834,1336.746" style="stroke: #A80036; stroke-width: 1.0;"/><path d="M892.38,1090.571 C987.489,1123.65 1142.71,1193.908 1210.25,1316 C1235.64,1361.89 1234.36,1387.426 1210.25,1434 C1191.23,1470.74 1153.83,1497.922 1120.3,1516.1902 " fill="none" style="stroke: #A80036; stroke-width: 1.0;"/><polygon fill="#A80036" points="1115.81,1518.5969,1125.6308,1517.8546,1120.213,1516.2276,1121.84,1510.8098,1115.81,1518.5969" style="stroke: #A80036; stroke-width: 1.0;"/><path d="M892.351,1142.888 C947.207,1195.515 1019.28,1264.658 1070.25,1313.561 " fill="none" style="stroke: #A80036; stroke-width: 1.0;"/><polygon fill="#A80036" points="1073.88,1317.047,1070.1483,1307.9325,1070.2695,1313.588,1064.614,1313.7092,1073.88,1317.047" style="stroke: #A80036; stroke-width: 1.0;"/><path d="M759.056,636.116 C765.211,684.83 777.827,784.671 789.339,875.771 " fill="none" style="stroke: #A80036; stroke-width: 1.0;"/><path d="M734.077,1229.041 C713.705,1270.735 693.745,1311.588 680.234,1339.24 " fill="none" style="stroke: #A80036; stroke-width: 1.0;"/><polygon fill="#A80036" points="677.955,1343.905,685.5005,1337.5753,680.1504,1339.4128,678.313,1334.0626,677.955,1343.905" style="stroke: #A80036; stroke-width: 1.0;"/><path d="M974.737,698.058 C951.726,750.345 922.083,817.7 894.489,880.403 " fill="none" style="stroke: #A80036; stroke-width: 1.0;"/><polygon fill="#A80036" points="892.337,885.293,899.6241,878.6674,894.3515,880.7168,892.3021,875.4442,892.337,885.293" style="stroke: #A80036; stroke-width: 1.0;"/><path d="M873.548,1421.195 C879.507,1425.553 885.482,1429.882 891.25,1434 C922.325,1456.187 957.214,1480.205 986.634,1500.2054 " fill="none" style="stroke: #A80036; stroke-width: 1.0;"/><polygon fill="#A80036" points="990.934,1503.1264,985.7355,1494.7613,986.7976,1500.3175,981.2413,1501.3796,990.934,1503.1264" style="stroke: #A80036; stroke-width: 1.0;"/><path d="M753.216,1424.369 C747.639,1427.886 741.941,1431.161 736.25,1434 C616.67,1493.662 459.799,1526.2044 388.49,1538.7946 " fill="none" style="stroke: #A80036; stroke-width: 1.0;"/><polygon fill="#A80036" points="383.505,1539.6667,393.0596,1542.0563,388.4302,1538.8053,391.6813,1534.176,383.505,1539.6667" style="stroke: #A80036; stroke-width: 1.0;"/><path d="M990.806,1413.088 C1001.415,1435.498 1015.14,1464.487 1027.02,1489.579 " fill="none" style="stroke: #A80036; stroke-width: 1.0;"/><polygon fill="#A80036" points="1029.21,1494.217,1028.9718,1484.371,1027.0694,1489.6984,1021.742,1487.796,1029.21,1494.217" style="stroke: #A80036; stroke-width: 1.0;"/><path d="M1105.94,1433.688 C1097.35,1451.847 1087.88,1471.849 1079.37,1489.828 " fill="none" style="stroke: #A80036; stroke-width: 1.0;"/><polygon fill="#A80036" points="1077.22,1494.353,1084.6818,1487.9248,1079.3563,1489.8323,1077.4487,1484.5068,1077.22,1494.353" style="stroke: #A80036; stroke-width: 1.0;"/><path d="M447.526,321.21 C453.198,325.86 459.107,330.16 465.25,334 C604.304,420.87 723.158,268.99 829.25,394 C888.187,463.45 869.174,698.308 845.437,870.656 " fill="none" style="stroke: #A80036; stroke-width: 1.0;"/><polygon fill="#A80036" points="844.733,875.736,849.9295,867.3696,845.4187,870.7832,842.0051,866.2725,844.733,875.736" style="stroke: #A80036; stroke-width: 1.0;"/><path d="M447.415,321.39 C453.118,325.99 459.063,330.23 465.25,334 C628.191,433.2 731.428,288.33 890.25,394 C930.808,420.98 960.13,466.01 980.136,507.46 " fill="none" style="stroke: #A80036; stroke-width: 1.0;"/><polygon fill="#A80036" points="982.286,511.97,982.0401,502.1242,980.1419,507.4531,974.813,505.5548,982.286,511.97" style="stroke: #A80036; stroke-width: 1.0;"/><path d="M345.904,333.72 C340.24,544.44 330.673,900.424 327.393,1022.461 " fill="none" style="stroke: #A80036; stroke-width: 1.0;"/><polygon fill="#A80036" points="327.251,1027.747,331.4913,1018.8577,327.3853,1022.7488,323.4941,1018.6428,327.251,1027.747" style="stroke: #A80036; stroke-width: 1.0;"/><path d="M326.527,333.72 C294.991,548.69 241.281,914.822 224.451,1029.546 " fill="none" style="stroke: #A80036; stroke-width: 1.0;"/><polygon fill="#A80036" points="223.678,1034.818,228.9419,1026.4939,224.4037,1029.8709,221.0266,1025.3327,223.678,1034.818" style="stroke: #A80036; stroke-width: 1.0;"/><path d="M278.932,333.61 C270.185,353.9 261.447,374.41 253.25,394 C239.817,426.11 225.616,461.16 212.788,493.27 " fill="none" style="stroke: #A80036; stroke-width: 1.0;"/><polygon fill="#A80036" points="210.906,497.98,217.9624,491.1093,212.763,493.3376,210.5346,488.1381,210.906,497.98" style="stroke: #A80036; stroke-width: 1.0;"/><path d="M328.113,1104.11 C332.301,1187.507 342.476,1390.16 347.437,1488.971 " fill="none" style="stroke: #A80036; stroke-width: 1.0;"/><polygon fill="#A80036" points="347.698,1494.174,351.2404,1484.9843,347.4466,1489.1803,343.2505,1485.3865,347.698,1494.174" style="stroke: #A80036; stroke-width: 1.0;"/><path d="M180.815,712.169 C191.92,814.106 208.054,962.223 215.377,1029.445 " fill="none" style="stroke: #A80036; stroke-width: 1.0;"/><polygon fill="#A80036" points="215.931,1034.532,218.9328,1025.1517,215.3895,1029.5614,210.9798,1026.0181,215.931,1034.532" style="stroke: #A80036; stroke-width: 1.0;"/><path d="M152.488,712.025 C135.704,842.768 119.232,1070.455 172.25,1256 C199.942,1352.912 270.091,1449.335 313.6,1502.6603 " fill="none" style="stroke: #A80036; stroke-width: 1.0;"/><polygon fill="#A80036" points="316.946,1506.7395,314.3313,1497.244,313.7752,1502.8735,308.1457,1502.3173,316.946,1506.7395" style="stroke: #A80036; stroke-width: 1.0;"/><path d="M449.843,1173.084 C423.681,1270.78 385.886,1411.923 365.19,1489.209 " fill="none" style="stroke: #A80036; stroke-width: 1.0;"/><polygon fill="#A80036" points="363.852,1494.206,370.0437,1486.5468,365.1452,1489.3761,362.3159,1484.4777,363.852,1494.206" style="stroke: #A80036; stroke-width: 1.0;"/><path d="M528.607,793.927 C533.91,801.787 539.771,809.205 546.25,816 C598.37,870.666 647.786,826.982 705.25,876 C714.307,883.726 722.77,892.412 730.649,901.705 " fill="none" style="stroke: #A80036; stroke-width: 1.0;"/><polygon fill="#A80036" points="733.99,905.724,731.3127,896.246,730.7937,901.879,725.1607,901.3601,733.99,905.724" style="stroke: #A80036; stroke-width: 1.0;"/><path d="M528.547,765.195 C534.355,782.399 540.323,799.602 546.25,816 C556.013,843.011 560.053,849.15 570.25,876 C582.354,907.873 595.131,942.967 606.301,974.174 " fill="none" style="stroke: #A80036; stroke-width: 1.0;"/><polygon fill="#A80036" points="608.08,979.148,608.8167,969.3267,606.3968,974.4398,601.2837,972.0199,608.08,979.148" style="stroke: #A80036; stroke-width: 1.0;"/><path d="M478.25,816.022 C478.25,863.544 478.25,912.188 478.25,953.724 " fill="none" style="stroke: #A80036; stroke-width: 1.0;"/><polygon fill="#A80036" points="478.25,958.754,482.25,949.754,478.25,953.754,474.25,949.754,478.25,958.754" style="stroke: #A80036; stroke-width: 1.0;"/></g></svg>