<?xml version="1.0" encoding="UTF-8" standalone="yes"?><svg xmlns="http://www.w3.org/2000/svg" xmlns:xlink="http://www.w3.org/1999/xlink" height="2172pt" style="width:2172px;height:2172px;" version="1.1" viewBox="0 0 2172 2172" width="2172pt"><defs><filter height="300%" id="f1" width="300%" x="-1" y="-1"><feGaussianBlur result="blurOut" stdDeviation="2"/><feColorMatrix in="blurOut" result="blurOut2" type="matrix" values="0 0 0 0 0 0 0 0 0 0 0 0 0 0 0 0 0 0 .4 0"/><feOffset dx="4" dy="4" in="blurOut2" result="blurOut3"/><feBlend in="SourceGraphic" in2="blurOut3" mode="normal"/></filter></defs><g><rect fill="#FEFECE" filter="url(#f1)" height="103.3438" style="stroke: #A80036; stroke-width: 1.5;" width="100" x="427.25" y="553.5"/><ellipse cx="442.25" cy="569.5" fill="#ADD1B2" rx="11" ry="11" style="stroke: #A80036; stroke-width: 1.0;"/><path d="M445.0156,571.0313 L447.4063,571.7813 Q446.8594,573.7656 445.5859,574.7344 Q444.3125,575.7031 442.3438,575.7031 Q439.9219,575.7031 438.3672,574.0469 Q436.8125,572.3906 436.8125,569.5156 Q436.8125,566.4844 438.375,564.8047 Q439.9375,563.125 442.5,563.125 Q444.7344,563.125 446.125,564.4375 Q446.9531,565.2188 447.375,566.6875 L444.9375,567.2656 Q444.7188,566.3125 444.0391,565.7656 Q443.3594,565.2188 442.375,565.2188 Q441.0156,565.2188 440.1797,566.1953 Q439.3438,567.1719 439.3438,569.3438 Q439.3438,571.6406 440.1719,572.625 Q441,573.6094 442.3281,573.6094 Q443.3125,573.6094 444.0156,572.9844 Q444.7188,572.3594 445.0156,571.0313 Z "/><text fill="#000000" font-size="12" lengthAdjust="spacingAndGlyphs" textLength="68" x="456.25" y="573.9531">CardReader</text><line style="stroke: #A80036; stroke-width: 1.5;" x1="428.25" x2="526.25" y1="585.5" y2="585.5"/><text fill="#000000" font-size="11" lengthAdjust="spacingAndGlyphs" textLength="17" x="433.25" y="600.5">atm</text><line style="stroke: #A80036; stroke-width: 1.5;" x1="428.25" x2="526.25" y1="607.3359" y2="607.3359"/><text fill="#000000" font-size="11" lengthAdjust="spacingAndGlyphs" textLength="53" x="433.25" y="622.3359">readCard()</text><text fill="#000000" font-size="11" lengthAdjust="spacingAndGlyphs" textLength="54" x="433.25" y="636.1719">ejectCard()</text><text fill="#000000" font-size="11" lengthAdjust="spacingAndGlyphs" textLength="58" x="433.25" y="650.0078">retainCard()</text><rect fill="#FEFECE" filter="url(#f1)" height="75.6719" style="stroke: #A80036; stroke-width: 1.5;" width="130" x="1130.25" y="1620"/><ellipse cx="1145.25" cy="1636" fill="#ADD1B2" rx="11" ry="11" style="stroke: #A80036; stroke-width: 1.0;"/><path d="M1148.0156,1637.5313 L1150.4063,1638.2813 Q1149.8594,1640.2656 1148.5859,1641.2344 Q1147.3125,1642.2031 1145.3438,1642.2031 Q1142.9219,1642.2031 1141.3672,1640.5469 Q1139.8125,1638.8906 1139.8125,1636.0156 Q1139.8125,1632.9844 1141.375,1631.3047 Q1142.9375,1629.625 1145.5,1629.625 Q1147.7344,1629.625 1149.125,1630.9375 Q1149.9531,1631.7188 1150.375,1633.1875 L1147.9375,1633.7656 Q1147.7188,1632.8125 1147.0391,1632.2656 Q1146.3594,1631.7188 1145.375,1631.7188 Q1144.0156,1631.7188 1143.1797,1632.6953 Q1142.3438,1633.6719 1142.3438,1635.8438 Q1142.3438,1638.1406 1143.1719,1639.125 Q1144,1640.1094 1145.3281,1640.1094 Q1146.3125,1640.1094 1147.0156,1639.4844 Q1147.7188,1638.8594 1148.0156,1637.5313 Z "/><text fill="#000000" font-size="12" lengthAdjust="spacingAndGlyphs" textLength="98" x="1159.25" y="1640.4531">EnvelopeAcceptor</text><line style="stroke: #A80036; stroke-width: 1.5;" x1="1131.25" x2="1259.25" y1="1652" y2="1652"/><text fill="#000000" font-size="11" lengthAdjust="spacingAndGlyphs" textLength="14" x="1136.25" y="1667">log</text><line style="stroke: #A80036; stroke-width: 1.5;" x1="1131.25" x2="1259.25" y1="1673.8359" y2="1673.8359"/><text fill="#000000" font-size="11" lengthAdjust="spacingAndGlyphs" textLength="85" x="1136.25" y="1688.8359">acceptEnvelope()</text><rect fill="#FEFECE" filter="url(#f1)" height="117.1797" style="stroke: #A80036; stroke-width: 1.5;" width="119" x="760" y="1599.5"/><ellipse cx="775" cy="1615.5" fill="#ADD1B2" rx="11" ry="11" style="stroke: #A80036; stroke-width: 1.0;"/><path d="M777.7656,1617.0313 L780.1563,1617.7813 Q779.6094,1619.7656 778.3359,1620.7344 Q777.0625,1621.7031 775.0938,1621.7031 Q772.6719,1621.7031 771.1172,1620.0469 Q769.5625,1618.3906 769.5625,1615.5156 Q769.5625,1612.4844 771.125,1610.8047 Q772.6875,1609.125 775.25,1609.125 Q777.4844,1609.125 778.875,1610.4375 Q779.7031,1611.2188 780.125,1612.6875 L777.6875,1613.2656 Q777.4688,1612.3125 776.7891,1611.7656 Q776.1094,1611.2188 775.125,1611.2188 Q773.7656,1611.2188 772.9297,1612.1953 Q772.0938,1613.1719 772.0938,1615.3438 Q772.0938,1617.6406 772.9219,1618.625 Q773.75,1619.6094 775.0781,1619.6094 Q776.0625,1619.6094 776.7656,1618.9844 Q777.4688,1618.3594 777.7656,1617.0313 Z "/><text fill="#000000" font-size="12" lengthAdjust="spacingAndGlyphs" textLength="87" x="789" y="1619.9531">NetworkToBank</text><line style="stroke: #A80036; stroke-width: 1.5;" x1="761" x2="878" y1="1631.5" y2="1631.5"/><text fill="#000000" font-size="11" lengthAdjust="spacingAndGlyphs" textLength="14" x="766" y="1646.5">log</text><text fill="#000000" font-size="11" lengthAdjust="spacingAndGlyphs" textLength="65" x="766" y="1660.3359">bankAddress</text><line style="stroke: #A80036; stroke-width: 1.5;" x1="761" x2="878" y1="1667.1719" y2="1667.1719"/><text fill="#000000" font-size="11" lengthAdjust="spacingAndGlyphs" textLength="86" x="766" y="1682.1719">openConnection()</text><text fill="#000000" font-size="11" lengthAdjust="spacingAndGlyphs" textLength="88" x="766" y="1696.0078">closeConnection()</text><text fill="#000000" font-size="11" lengthAdjust="spacingAndGlyphs" textLength="76" x="766" y="1709.8438">sendMessage()</text><rect fill="#FEFECE" filter="url(#f1)" height="61.8359" style="stroke: #A80036; stroke-width: 1.5;" width="59" x="90" y="1035"/><ellipse cx="105" cy="1051" fill="#ADD1B2" rx="11" ry="11" style="stroke: #A80036; stroke-width: 1.0;"/><path d="M107.7656,1052.5313 L110.1563,1053.2813 Q109.6094,1055.2656 108.3359,1056.2344 Q107.0625,1057.2031 105.0938,1057.2031 Q102.6719,1057.2031 101.1172,1055.5469 Q99.5625,1053.8906 99.5625,1051.0156 Q99.5625,1047.9844 101.125,1046.3047 Q102.6875,1044.625 105.25,1044.625 Q107.4844,1044.625 108.875,1045.9375 Q109.7031,1046.7188 110.125,1048.1875 L107.6875,1048.7656 Q107.4688,1047.8125 106.7891,1047.2656 Q106.1094,1046.7188 105.125,1046.7188 Q103.7656,1046.7188 102.9297,1047.6953 Q102.0938,1048.6719 102.0938,1050.8438 Q102.0938,1053.1406 102.9219,1054.125 Q103.75,1055.1094 105.0781,1055.1094 Q106.0625,1055.1094 106.7656,1054.4844 Q107.4688,1053.8594 107.7656,1052.5313 Z "/><text fill="#000000" font-size="12" lengthAdjust="spacingAndGlyphs" textLength="27" x="119" y="1055.4531">Card</text><line style="stroke: #A80036; stroke-width: 1.5;" x1="91" x2="148" y1="1067" y2="1067"/><text fill="#000000" font-size="11" lengthAdjust="spacingAndGlyphs" textLength="36" x="96" y="1082">number</text><line style="stroke: #A80036; stroke-width: 1.5;" x1="91" x2="148" y1="1088.8359" y2="1088.8359"/><rect fill="#FEFECE" filter="url(#f1)" height="380.0625" style="stroke: #A80036; stroke-width: 1.5;" width="158" x="762.25" y="876"/><ellipse cx="825.5" cy="892" fill="#ADD1B2" rx="11" ry="11" style="stroke: #A80036; stroke-width: 1.0;"/><path d="M828.2656,893.5313 L830.6563,894.2813 Q830.1094,896.2656 828.8359,897.2344 Q827.5625,898.2031 825.5938,898.2031 Q823.1719,898.2031 821.6172,896.5469 Q820.0625,894.8906 820.0625,892.0156 Q820.0625,888.9844 821.625,887.3047 Q823.1875,885.625 825.75,885.625 Q827.9844,885.625 829.375,886.9375 Q830.2031,887.7188 830.625,889.1875 L828.1875,889.7656 Q827.9688,888.8125 827.2891,888.2656 Q826.6094,887.7188 825.625,887.7188 Q824.2656,887.7188 823.4297,888.6953 Q822.5938,889.6719 822.5938,891.8438 Q822.5938,894.1406 823.4219,895.125 Q824.25,896.1094 825.5781,896.1094 Q826.5625,896.1094 827.2656,895.4844 Q827.9688,894.8594 828.2656,893.5313 Z "/><text fill="#000000" font-size="12" lengthAdjust="spacingAndGlyphs" textLength="23" x="846" y="896.4531">ATM</text><line style="stroke: #A80036; stroke-width: 1.5;" x1="763.25" x2="919.25" y1="908" y2="908"/><text fill="#000000" font-size="11" lengthAdjust="spacingAndGlyphs" textLength="8" x="768.25" y="923">id</text><text fill="#000000" font-size="11" lengthAdjust="spacingAndGlyphs" textLength="26" x="768.25" y="936.8359">place</text><text fill="#000000" font-size="11" lengthAdjust="spacingAndGlyphs" textLength="50" x="768.25" y="950.6719">bankName</text><text fill="#000000" font-size="11" lengthAdjust="spacingAndGlyphs" textLength="65" x="768.25" y="964.5078">bankAddress</text><text fill="#000000" font-size="11" lengthAdjust="spacingAndGlyphs" textLength="57" x="768.25" y="978.3438">cardReader</text><text fill="#000000" font-size="11" lengthAdjust="spacingAndGlyphs" textLength="73" x="768.25" y="992.1797">cashDispenser</text><text fill="#000000" font-size="11" lengthAdjust="spacingAndGlyphs" textLength="84" x="768.25" y="1006.0156">customerConsole</text><text fill="#000000" font-size="11" lengthAdjust="spacingAndGlyphs" textLength="89" x="768.25" y="1019.8516">envelopeAcceptor</text><text fill="#000000" font-size="11" lengthAdjust="spacingAndGlyphs" textLength="14" x="768.25" y="1033.6875">log</text><text fill="#000000" font-size="11" lengthAdjust="spacingAndGlyphs" textLength="76" x="768.25" y="1047.5234">networkToBank</text><text fill="#000000" font-size="11" lengthAdjust="spacingAndGlyphs" textLength="67" x="768.25" y="1061.3594">operatorPanel</text><text fill="#000000" font-size="11" lengthAdjust="spacingAndGlyphs" textLength="64" x="768.25" y="1075.1953">receiptPrinter</text><text fill="#000000" font-size="11" lengthAdjust="spacingAndGlyphs" textLength="24" x="768.25" y="1089.0313">state</text><text fill="#000000" font-size="11" lengthAdjust="spacingAndGlyphs" textLength="47" x="768.25" y="1102.8672">switchOn</text><text fill="#000000" font-size="11" lengthAdjust="spacingAndGlyphs" textLength="61" x="768.25" y="1116.7031">cardInserted</text><text fill="#000000" font-size="11" lengthAdjust="spacingAndGlyphs" textLength="59" x="768.25" y="1130.5391">OFF_STATE</text><text fill="#000000" font-size="11" lengthAdjust="spacingAndGlyphs" textLength="60" x="768.25" y="1144.375">IDLE_STATE</text><text fill="#000000" font-size="11" lengthAdjust="spacingAndGlyphs" textLength="146" x="768.25" y="1158.2109">SERVING_CUSTOMER_STATE</text><line style="stroke: #A80036; stroke-width: 1.5;" x1="763.25" x2="919.25" y1="1165.0469" y2="1165.0469"/><text fill="#000000" font-size="11" lengthAdjust="spacingAndGlyphs" textLength="24" x="768.25" y="1180.0469">run()</text><text fill="#000000" font-size="11" lengthAdjust="spacingAndGlyphs" textLength="55" x="768.25" y="1193.8828">switchOn()</text><text fill="#000000" font-size="11" lengthAdjust="spacingAndGlyphs" textLength="57" x="768.25" y="1207.7188">switchOff()</text><text fill="#000000" font-size="11" lengthAdjust="spacingAndGlyphs" textLength="69" x="768.25" y="1221.5547">cardInserted()</text><text fill="#000000" font-size="11" lengthAdjust="spacingAndGlyphs" textLength="81" x="768.25" y="1235.3906">performStartup()</text><text fill="#000000" font-size="11" lengthAdjust="spacingAndGlyphs" textLength="96" x="768.25" y="1249.2266">performShutdown()</text><rect fill="#FEFECE" filter="url(#f1)" height="103.3438" style="stroke: #A80036; stroke-width: 1.5;" width="120" x="604.25" y="1606.5"/><ellipse cx="619.25" cy="1622.5" fill="#ADD1B2" rx="11" ry="11" style="stroke: #A80036; stroke-width: 1.0;"/><path d="M622.0156,1624.0313 L624.4063,1624.7813 Q623.8594,1626.7656 622.5859,1627.7344 Q621.3125,1628.7031 619.3438,1628.7031 Q616.9219,1628.7031 615.3672,1627.0469 Q613.8125,1625.3906 613.8125,1622.5156 Q613.8125,1619.4844 615.375,1617.8047 Q616.9375,1616.125 619.5,1616.125 Q621.7344,1616.125 623.125,1617.4375 Q623.9531,1618.2188 624.375,1619.6875 L621.9375,1620.2656 Q621.7188,1619.3125 621.0391,1618.7656 Q620.3594,1618.2188 619.375,1618.2188 Q618.0156,1618.2188 617.1797,1619.1953 Q616.3438,1620.1719 616.3438,1622.3438 Q616.3438,1624.6406 617.1719,1625.625 Q618,1626.6094 619.3281,1626.6094 Q620.3125,1626.6094 621.0156,1625.9844 Q621.7188,1625.3594 622.0156,1624.0313 Z "/><text fill="#000000" font-size="12" lengthAdjust="spacingAndGlyphs" textLength="88" x="633.25" y="1626.9531">CashDispenser</text><line style="stroke: #A80036; stroke-width: 1.5;" x1="605.25" x2="723.25" y1="1638.5" y2="1638.5"/><text fill="#000000" font-size="11" lengthAdjust="spacingAndGlyphs" textLength="14" x="610.25" y="1653.5">log</text><text fill="#000000" font-size="11" lengthAdjust="spacingAndGlyphs" textLength="63" x="610.25" y="1667.3359">cashOnHand</text><line style="stroke: #A80036; stroke-width: 1.5;" x1="605.25" x2="723.25" y1="1674.1719" y2="1674.1719"/><text fill="#000000" font-size="11" lengthAdjust="spacingAndGlyphs" textLength="101" x="610.25" y="1689.1719">checkCashOnHand()</text><text fill="#000000" font-size="11" lengthAdjust="spacingAndGlyphs" textLength="77" x="610.25" y="1703.0078">dispenseCash()</text><rect fill="#FEFECE" filter="url(#f1)" height="103.3438" style="stroke: #A80036; stroke-width: 1.5;" width="125" x="886" y="2060.5"/><ellipse cx="933.75" cy="2076.5" fill="#ADD1B2" rx="11" ry="11" style="stroke: #A80036; stroke-width: 1.0;"/><path d="M936.5156,2078.0313 L938.9063,2078.7813 Q938.3594,2080.7656 937.0859,2081.7344 Q935.8125,2082.7031 933.8438,2082.7031 Q931.4219,2082.7031 929.8672,2081.0469 Q928.3125,2079.3906 928.3125,2076.5156 Q928.3125,2073.4844 929.875,2071.8047 Q931.4375,2070.125 934,2070.125 Q936.2344,2070.125 937.625,2071.4375 Q938.4531,2072.2188 938.875,2073.6875 L936.4375,2074.2656 Q936.2188,2073.3125 935.5391,2072.7656 Q934.8594,2072.2188 933.875,2072.2188 Q932.5156,2072.2188 931.6797,2073.1953 Q930.8438,2074.1719 930.8438,2076.3438 Q930.8438,2078.6406 931.6719,2079.625 Q932.5,2080.6094 933.8281,2080.6094 Q934.8125,2080.6094 935.5156,2079.9844 Q936.2188,2079.3594 936.5156,2078.0313 Z "/><text fill="#000000" font-size="12" lengthAdjust="spacingAndGlyphs" textLength="21" x="954.25" y="2080.9531">Log</text><line style="stroke: #A80036; stroke-width: 1.5;" x1="887" x2="1010" y1="2092.5" y2="2092.5"/><line style="stroke: #A80036; stroke-width: 1.5;" x1="887" x2="1010" y1="2100.5" y2="2100.5"/><text fill="#000000" font-size="11" lengthAdjust="spacingAndGlyphs" textLength="47" x="892" y="2115.5">logSend()</text><text fill="#000000" font-size="11" lengthAdjust="spacingAndGlyphs" textLength="71" x="892" y="2129.3359">logResponse()</text><text fill="#000000" font-size="11" lengthAdjust="spacingAndGlyphs" textLength="98" x="892" y="2143.1719">logCashDispensed()</text><text fill="#000000" font-size="11" lengthAdjust="spacingAndGlyphs" textLength="113" x="892" y="2157.0078">logEnvelopeAccepted()</text><rect fill="#FEFECE" filter="url(#f1)" height="103.3438" style="stroke: #A80036; stroke-width: 1.5;" width="134" x="435.25" y="1606.5"/><ellipse cx="450.25" cy="1622.5" fill="#ADD1B2" rx="11" ry="11" style="stroke: #A80036; stroke-width: 1.0;"/><path d="M453.0156,1624.0313 L455.4063,1624.7813 Q454.8594,1626.7656 453.5859,1627.7344 Q452.3125,1628.7031 450.3438,1628.7031 Q447.9219,1628.7031 446.3672,1627.0469 Q444.8125,1625.3906 444.8125,1622.5156 Q444.8125,1619.4844 446.375,1617.8047 Q447.9375,1616.125 450.5,1616.125 Q452.7344,1616.125 454.125,1617.4375 Q454.9531,1618.2188 455.375,1619.6875 L452.9375,1620.2656 Q452.7188,1619.3125 452.0391,1618.7656 Q451.3594,1618.2188 450.375,1618.2188 Q449.0156,1618.2188 448.1797,1619.1953 Q447.3438,1620.1719 447.3438,1622.3438 Q447.3438,1624.6406 448.1719,1625.625 Q449,1626.6094 450.3281,1626.6094 Q451.3125,1626.6094 452.0156,1625.9844 Q452.7188,1625.3594 453.0156,1624.0313 Z "/><text fill="#000000" font-size="12" lengthAdjust="spacingAndGlyphs" textLength="102" x="464.25" y="1626.9531">CustomerConsole</text><line style="stroke: #A80036; stroke-width: 1.5;" x1="436.25" x2="568.25" y1="1638.5" y2="1638.5"/><line style="stroke: #A80036; stroke-width: 1.5;" x1="436.25" x2="568.25" y1="1646.5" y2="1646.5"/><text fill="#000000" font-size="11" lengthAdjust="spacingAndGlyphs" textLength="42" x="441.25" y="1661.5">display()</text><text fill="#000000" font-size="11" lengthAdjust="spacingAndGlyphs" textLength="45" x="441.25" y="1675.3359">readPIN()</text><text fill="#000000" font-size="11" lengthAdjust="spacingAndGlyphs" textLength="89" x="441.25" y="1689.1719">readMenuChoice()</text><text fill="#000000" font-size="11" lengthAdjust="spacingAndGlyphs" textLength="67" x="441.25" y="1703.0078">readAmount()</text><rect fill="#FEFECE" filter="url(#f1)" height="324.7188" style="stroke: #A80036; stroke-width: 1.5;" width="194" x="253.25" y="8.5"/><ellipse cx="313.5" cy="24.5" fill="#ADD1B2" rx="11" ry="11" style="stroke: #A80036; stroke-width: 1.0;"/><path d="M316.2656,26.0313 L318.6563,26.7813 Q318.1094,28.7656 316.8359,29.7344 Q315.5625,30.7031 313.5938,30.7031 Q311.1719,30.7031 309.6172,29.0469 Q308.0625,27.3906 308.0625,24.5156 Q308.0625,21.4844 309.625,19.8047 Q311.1875,18.125 313.75,18.125 Q315.9844,18.125 317.375,19.4375 Q318.2031,20.2188 318.625,21.6875 L316.1875,22.2656 Q315.9688,21.3125 315.2891,20.7656 Q314.6094,20.2188 313.625,20.2188 Q312.2656,20.2188 311.4297,21.1953 Q310.5938,22.1719 310.5938,24.3438 Q310.5938,26.6406 311.4219,27.625 Q312.25,28.6094 313.5781,28.6094 Q314.5625,28.6094 315.2656,27.9844 Q315.9688,27.3594 316.2656,26.0313 Z "/><text fill="#000000" font-size="12" lengthAdjust="spacingAndGlyphs" textLength="65" x="334" y="28.9531">Transaction</text><line style="stroke: #A80036; stroke-width: 1.5;" x1="254.25" x2="446.25" y1="40.5" y2="40.5"/><text fill="#000000" font-size="11" lengthAdjust="spacingAndGlyphs" textLength="17" x="259.25" y="55.5">atm</text><text fill="#000000" font-size="11" lengthAdjust="spacingAndGlyphs" textLength="38" x="259.25" y="69.3359">session</text><text fill="#000000" font-size="11" lengthAdjust="spacingAndGlyphs" textLength="22" x="259.25" y="83.1719">card</text><text fill="#000000" font-size="11" lengthAdjust="spacingAndGlyphs" textLength="14" x="259.25" y="97.0078">pin</text><text fill="#000000" font-size="11" lengthAdjust="spacingAndGlyphs" textLength="63" x="259.25" y="110.8438">serialNumber</text><text fill="#000000" font-size="11" lengthAdjust="spacingAndGlyphs" textLength="44" x="259.25" y="124.6797">message</text><text fill="#000000" font-size="11" lengthAdjust="spacingAndGlyphs" textLength="44" x="259.25" y="138.5156">balances</text><text fill="#000000" font-size="11" lengthAdjust="spacingAndGlyphs" textLength="146" x="259.25" y="152.3516">TRANSACTION_TYPES_MENU</text><text fill="#000000" font-size="11" lengthAdjust="spacingAndGlyphs" textLength="85" x="259.25" y="166.1875">nextSerialNumber</text><text fill="#000000" font-size="11" lengthAdjust="spacingAndGlyphs" textLength="24" x="259.25" y="180.0234">state</text><text fill="#000000" font-size="11" lengthAdjust="spacingAndGlyphs" textLength="138" x="259.25" y="193.8594">GETTING_SPECIFICS_STATE</text><text fill="#000000" font-size="11" lengthAdjust="spacingAndGlyphs" textLength="138" x="259.25" y="207.6953">SENDING_TO_BANK_STATE</text><text fill="#000000" font-size="11" lengthAdjust="spacingAndGlyphs" textLength="100" x="259.25" y="221.5313">INVALID_PIN_STATE</text><text fill="#000000" font-size="11" lengthAdjust="spacingAndGlyphs" textLength="182" x="259.25" y="235.3672">COMPLETING_TRANSACTION_STATE</text><text fill="#000000" font-size="11" lengthAdjust="spacingAndGlyphs" textLength="130" x="259.25" y="249.2031">PRINTING_RECEIPT_STATE</text><text fill="#000000" font-size="11" lengthAdjust="spacingAndGlyphs" textLength="154" x="259.25" y="263.0391">ASKING_DO_ANOTHER_STATE</text><line style="stroke: #A80036; stroke-width: 1.5;" x1="254.25" x2="446.25" y1="269.875" y2="269.875"/><text fill="#000000" font-size="11" lengthAdjust="spacingAndGlyphs" textLength="90" x="259.25" y="284.875">makeTransaction()</text><text fill="#000000" font-size="11" lengthAdjust="spacingAndGlyphs" textLength="103" x="259.25" y="298.7109">performTransaction()</text><text fill="#000000" font-size="11" lengthAdjust="spacingAndGlyphs" textLength="138" x="259.25" y="312.5469">performInvalidPINExtension()</text><text fill="#000000" font-size="11" lengthAdjust="spacingAndGlyphs" textLength="108" x="259.25" y="326.3828">completeTransaction()</text><rect fill="#FEFECE" filter="url(#f1)" height="61.8359" style="stroke: #A80036; stroke-width: 1.5;" width="112" x="793.25" y="574"/><ellipse cx="808.25" cy="590" fill="#ADD1B2" rx="11" ry="11" style="stroke: #A80036; stroke-width: 1.0;"/><path d="M811.0156,591.5313 L813.4063,592.2813 Q812.8594,594.2656 811.5859,595.2344 Q810.3125,596.2031 808.3438,596.2031 Q805.9219,596.2031 804.3672,594.5469 Q802.8125,592.8906 802.8125,590.0156 Q802.8125,586.9844 804.375,585.3047 Q805.9375,583.625 808.5,583.625 Q810.7344,583.625 812.125,584.9375 Q812.9531,585.7188 813.375,587.1875 L810.9375,587.7656 Q810.7188,586.8125 810.0391,586.2656 Q809.3594,585.7188 808.375,585.7188 Q807.0156,585.7188 806.1797,586.6953 Q805.3438,587.6719 805.3438,589.8438 Q805.3438,592.1406 806.1719,593.125 Q807,594.1094 808.3281,594.1094 Q809.3125,594.1094 810.0156,593.4844 Q810.7188,592.8594 811.0156,591.5313 Z "/><text fill="#000000" font-size="12" lengthAdjust="spacingAndGlyphs" textLength="80" x="822.25" y="594.4531">OperatorPanel</text><line style="stroke: #A80036; stroke-width: 1.5;" x1="794.25" x2="904.25" y1="606" y2="606"/><text fill="#000000" font-size="11" lengthAdjust="spacingAndGlyphs" textLength="17" x="799.25" y="621">atm</text><line style="stroke: #A80036; stroke-width: 1.5;" x1="794.25" x2="904.25" y1="627.8359" y2="627.8359"/><rect fill="#FEFECE" filter="url(#f1)" height="61.8359" style="stroke: #A80036; stroke-width: 1.5;" width="110" x="914.25" y="1627"/><ellipse cx="929.25" cy="1643" fill="#ADD1B2" rx="11" ry="11" style="stroke: #A80036; stroke-width: 1.0;"/><path d="M932.0156,1644.5313 L934.4063,1645.2813 Q933.8594,1647.2656 932.5859,1648.2344 Q931.3125,1649.2031 929.3438,1649.2031 Q926.9219,1649.2031 925.3672,1647.5469 Q923.8125,1645.8906 923.8125,1643.0156 Q923.8125,1639.9844 925.375,1638.3047 Q926.9375,1636.625 929.5,1636.625 Q931.7344,1636.625 933.125,1637.9375 Q933.9531,1638.7188 934.375,1640.1875 L931.9375,1640.7656 Q931.7188,1639.8125 931.0391,1639.2656 Q930.3594,1638.7188 929.375,1638.7188 Q928.0156,1638.7188 927.1797,1639.6953 Q926.3438,1640.6719 926.3438,1642.8438 Q926.3438,1645.1406 927.1719,1646.125 Q928,1647.1094 929.3281,1647.1094 Q930.3125,1647.1094 931.0156,1646.4844 Q931.7188,1645.8594 932.0156,1644.5313 Z "/><text fill="#000000" font-size="12" lengthAdjust="spacingAndGlyphs" textLength="78" x="943.25" y="1647.4531">ReceiptPrinter</text><line style="stroke: #A80036; stroke-width: 1.5;" x1="915.25" x2="1023.25" y1="1659" y2="1659"/><line style="stroke: #A80036; stroke-width: 1.5;" x1="915.25" x2="1023.25" y1="1667" y2="1667"/><text fill="#000000" font-size="11" lengthAdjust="spacingAndGlyphs" textLength="65" x="920.25" y="1682">printReceipt()</text><rect fill="#FEFECE" filter="url(#f1)" height="186.3594" style="stroke: #A80036; stroke-width: 1.5;" width="195" x="563" y="512"/><ellipse cx="633.25" cy="528" fill="#ADD1B2" rx="11" ry="11" style="stroke: #A80036; stroke-width: 1.0;"/><path d="M636.0156,529.5313 L638.4063,530.2813 Q637.8594,532.2656 636.5859,533.2344 Q635.3125,534.2031 633.3438,534.2031 Q630.9219,534.2031 629.3672,532.5469 Q627.8125,530.8906 627.8125,528.0156 Q627.8125,524.9844 629.375,523.3047 Q630.9375,521.625 633.5,521.625 Q635.7344,521.625 637.125,522.9375 Q637.9531,523.7188 638.375,525.1875 L635.9375,525.7656 Q635.7188,524.8125 635.0391,524.2656 Q634.3594,523.7188 633.375,523.7188 Q632.0156,523.7188 631.1797,524.6953 Q630.3438,525.6719 630.3438,527.8438 Q630.3438,530.1406 631.1719,531.125 Q632,532.1094 633.3281,532.1094 Q634.3125,532.1094 635.0156,531.4844 Q635.7188,530.8594 636.0156,529.5313 Z "/><text fill="#000000" font-size="12" lengthAdjust="spacingAndGlyphs" textLength="46" x="653.75" y="532.4531">Session</text><line style="stroke: #A80036; stroke-width: 1.5;" x1="564" x2="757" y1="544" y2="544"/><text fill="#000000" font-size="11" lengthAdjust="spacingAndGlyphs" textLength="17" x="569" y="559">atm</text><text fill="#000000" font-size="11" lengthAdjust="spacingAndGlyphs" textLength="14" x="569" y="572.8359">pin</text><text fill="#000000" font-size="11" lengthAdjust="spacingAndGlyphs" textLength="24" x="569" y="586.6719">state</text><text fill="#000000" font-size="11" lengthAdjust="spacingAndGlyphs" textLength="119" x="569" y="600.5078">READING_CARD_STATE</text><text fill="#000000" font-size="11" lengthAdjust="spacingAndGlyphs" textLength="105" x="569" y="614.3438">READING_PIN_STATE</text><text fill="#000000" font-size="11" lengthAdjust="spacingAndGlyphs" textLength="172" x="569" y="628.1797">CHOOSING_TRANSACTION_STATE</text><text fill="#000000" font-size="11" lengthAdjust="spacingAndGlyphs" textLength="183" x="569" y="642.0156">PERFORMING_TRANSACTION_STATE</text><text fill="#000000" font-size="11" lengthAdjust="spacingAndGlyphs" textLength="121" x="569" y="655.8516">EJECTING_CARD_STATE</text><text fill="#000000" font-size="11" lengthAdjust="spacingAndGlyphs" textLength="68" x="569" y="669.6875">FINAL_STATE</text><line style="stroke: #A80036; stroke-width: 1.5;" x1="564" x2="757" y1="676.5234" y2="676.5234"/><text fill="#000000" font-size="11" lengthAdjust="spacingAndGlyphs" textLength="85" x="569" y="691.5234">performSession()</text><rect fill="#FEFECE" filter="url(#f1)" height="421.5703" style="stroke: #A80036; stroke-width: 1.5;" width="101" x="1301" y="394"/><ellipse cx="1320.5" cy="410" fill="#ADD1B2" rx="11" ry="11" style="stroke: #A80036; stroke-width: 1.0;"/><path d="M1323.2656,411.5313 L1325.6563,412.2813 Q1325.1094,414.2656 1323.8359,415.2344 Q1322.5625,416.2031 1320.5938,416.2031 Q1318.1719,416.2031 1316.6172,414.5469 Q1315.0625,412.8906 1315.0625,410.0156 Q1315.0625,406.9844 1316.625,405.3047 Q1318.1875,403.625 1320.75,403.625 Q1322.9844,403.625 1324.375,404.9375 Q1325.2031,405.7188 1325.625,407.1875 L1323.1875,407.7656 Q1322.9688,406.8125 1322.2891,406.2656 Q1321.6094,405.7188 1320.625,405.7188 Q1319.2656,405.7188 1318.4297,406.6953 Q1317.5938,407.6719 1317.5938,409.8438 Q1317.5938,412.1406 1318.4219,413.125 Q1319.25,414.1094 1320.5781,414.1094 Q1321.5625,414.1094 1322.2656,413.4844 Q1322.9688,412.8594 1323.2656,411.5313 Z "/><text fill="#000000" font-size="12" lengthAdjust="spacingAndGlyphs" textLength="59" x="1335.5" y="414.4531">Simulation</text><line style="stroke: #A80036; stroke-width: 1.5;" x1="1302" x2="1401" y1="426" y2="426"/><text fill="#000000" font-size="11" lengthAdjust="spacingAndGlyphs" textLength="50" x="1307" y="441">PIN_MODE</text><text fill="#000000" font-size="11" lengthAdjust="spacingAndGlyphs" textLength="79" x="1307" y="454.8359">AMOUNT_MODE</text><text fill="#000000" font-size="11" lengthAdjust="spacingAndGlyphs" textLength="63" x="1307" y="468.6719">MENU_MODE</text><text fill="#000000" font-size="11" lengthAdjust="spacingAndGlyphs" textLength="17" x="1307" y="482.5078">atm</text><text fill="#000000" font-size="11" lengthAdjust="spacingAndGlyphs" textLength="67" x="1307" y="496.3438">operatorPanel</text><text fill="#000000" font-size="11" lengthAdjust="spacingAndGlyphs" textLength="57" x="1307" y="510.1797">cardReader</text><text fill="#000000" font-size="11" lengthAdjust="spacingAndGlyphs" textLength="34" x="1307" y="524.0156">display</text><text fill="#000000" font-size="11" lengthAdjust="spacingAndGlyphs" textLength="45" x="1307" y="537.8516">keyboard</text><text fill="#000000" font-size="11" lengthAdjust="spacingAndGlyphs" textLength="73" x="1307" y="551.6875">cashDispenser</text><text fill="#000000" font-size="11" lengthAdjust="spacingAndGlyphs" textLength="89" x="1307" y="565.5234">envelopeAcceptor</text><text fill="#000000" font-size="11" lengthAdjust="spacingAndGlyphs" textLength="64" x="1307" y="579.3594">receiptPrinter</text><text fill="#000000" font-size="11" lengthAdjust="spacingAndGlyphs" textLength="14" x="1307" y="593.1953">gui</text><text fill="#000000" font-size="11" lengthAdjust="spacingAndGlyphs" textLength="69" x="1307" y="607.0313">simulatedBank</text><text fill="#000000" font-size="11" lengthAdjust="spacingAndGlyphs" textLength="56" x="1307" y="620.8672">theInstance</text><line style="stroke: #A80036; stroke-width: 1.5;" x1="1302" x2="1401" y1="627.7031" y2="627.7031"/><text fill="#000000" font-size="11" lengthAdjust="spacingAndGlyphs" textLength="53" x="1307" y="642.7031">readCard()</text><text fill="#000000" font-size="11" lengthAdjust="spacingAndGlyphs" textLength="54" x="1307" y="656.5391">ejectCard()</text><text fill="#000000" font-size="11" lengthAdjust="spacingAndGlyphs" textLength="58" x="1307" y="670.375">retainCard()</text><text fill="#000000" font-size="11" lengthAdjust="spacingAndGlyphs" textLength="67" x="1307" y="684.2109">clearDisplay()</text><text fill="#000000" font-size="11" lengthAdjust="spacingAndGlyphs" textLength="42" x="1307" y="698.0469">display()</text><text fill="#000000" font-size="11" lengthAdjust="spacingAndGlyphs" textLength="53" x="1307" y="711.8828">readInput()</text><text fill="#000000" font-size="11" lengthAdjust="spacingAndGlyphs" textLength="77" x="1307" y="725.7188">dispenseCash()</text><text fill="#000000" font-size="11" lengthAdjust="spacingAndGlyphs" textLength="85" x="1307" y="739.5547">acceptEnvelope()</text><text fill="#000000" font-size="11" lengthAdjust="spacingAndGlyphs" textLength="85" x="1307" y="753.3906">printReceiptLine()</text><text fill="#000000" font-size="11" lengthAdjust="spacingAndGlyphs" textLength="67" x="1307" y="767.2266">printLogLine()</text><text fill="#000000" font-size="11" lengthAdjust="spacingAndGlyphs" textLength="76" x="1307" y="781.0625">sendMessage()</text><text fill="#000000" font-size="11" lengthAdjust="spacingAndGlyphs" textLength="84" x="1307" y="794.8984">switchChanged()</text><text fill="#000000" font-size="11" lengthAdjust="spacingAndGlyphs" textLength="69" x="1307" y="808.7344">cardInserted()</text><rect fill="#FEFECE" filter="url(#f1)" height="214.0313" style="stroke: #A80036; stroke-width: 1.5;" width="113" x="160" y="498"/><ellipse cx="188.5" cy="514" fill="#ADD1B2" rx="11" ry="11" style="stroke: #A80036; stroke-width: 1.0;"/><path d="M191.2656,515.5313 L193.6563,516.2813 Q193.1094,518.2656 191.8359,519.2344 Q190.5625,520.2031 188.5938,520.2031 Q186.1719,520.2031 184.6172,518.5469 Q183.0625,516.8906 183.0625,514.0156 Q183.0625,510.9844 184.625,509.3047 Q186.1875,507.625 188.75,507.625 Q190.9844,507.625 192.375,508.9375 Q193.2031,509.7188 193.625,511.1875 L191.1875,511.7656 Q190.9688,510.8125 190.2891,510.2656 Q189.6094,509.7188 188.625,509.7188 Q187.2656,509.7188 186.4297,510.6953 Q185.5938,511.6719 185.5938,513.8438 Q185.5938,516.1406 186.4219,517.125 Q187.25,518.1094 188.5781,518.1094 Q189.5625,518.1094 190.2656,517.4844 Q190.9688,516.8594 191.2656,515.5313 Z "/><text fill="#000000" font-size="12" lengthAdjust="spacingAndGlyphs" textLength="51" x="205.5" y="518.4531">Message</text><line style="stroke: #A80036; stroke-width: 1.5;" x1="161" x2="272" y1="530" y2="530"/><text fill="#000000" font-size="11" lengthAdjust="spacingAndGlyphs" textLength="71" x="166" y="545">WITHDRAWAL</text><text fill="#000000" font-size="11" lengthAdjust="spacingAndGlyphs" textLength="87" x="166" y="558.8359">INITIATE_DEPOSIT</text><text fill="#000000" font-size="11" lengthAdjust="spacingAndGlyphs" textLength="101" x="166" y="572.6719">COMPLETE_DEPOSIT</text><text fill="#000000" font-size="11" lengthAdjust="spacingAndGlyphs" textLength="54" x="166" y="586.5078">TRANSFER</text><text fill="#000000" font-size="11" lengthAdjust="spacingAndGlyphs" textLength="41" x="166" y="600.3438">INQUIRY</text><text fill="#000000" font-size="11" lengthAdjust="spacingAndGlyphs" textLength="69" x="166" y="614.1797">messageCode</text><text fill="#000000" font-size="11" lengthAdjust="spacingAndGlyphs" textLength="22" x="166" y="628.0156">card</text><text fill="#000000" font-size="11" lengthAdjust="spacingAndGlyphs" textLength="14" x="166" y="641.8516">pin</text><text fill="#000000" font-size="11" lengthAdjust="spacingAndGlyphs" textLength="63" x="166" y="655.6875">serialNumber</text><text fill="#000000" font-size="11" lengthAdjust="spacingAndGlyphs" textLength="63" x="166" y="669.5234">fromAccount</text><text fill="#000000" font-size="11" lengthAdjust="spacingAndGlyphs" textLength="50" x="166" y="683.3594">toAccount</text><text fill="#000000" font-size="11" lengthAdjust="spacingAndGlyphs" textLength="35" x="166" y="697.1953">amount</text><line style="stroke: #A80036; stroke-width: 1.5;" x1="161" x2="272" y1="704.0313" y2="704.0313"/><rect fill="#FEFECE" filter="url(#f1)" height="172.5234" style="stroke: #A80036; stroke-width: 1.5;" width="100" x="1745.25" y="979.5"/><ellipse cx="1781.4" cy="995.5" fill="#ADD1B2" rx="11" ry="11" style="stroke: #A80036; stroke-width: 1.0;"/><path d="M1784.1656,997.0313 L1786.5563,997.7813 Q1786.0094,999.7656 1784.7359,1000.7344 Q1783.4625,1001.7031 1781.4938,1001.7031 Q1779.0719,1001.7031 1777.5172,1000.0469 Q1775.9625,998.3906 1775.9625,995.5156 Q1775.9625,992.4844 1777.525,990.8047 Q1779.0875,989.125 1781.65,989.125 Q1783.8844,989.125 1785.275,990.4375 Q1786.1031,991.2188 1786.525,992.6875 L1784.0875,993.2656 Q1783.8688,992.3125 1783.1891,991.7656 Q1782.5094,991.2188 1781.525,991.2188 Q1780.1656,991.2188 1779.3297,992.1953 Q1778.4938,993.1719 1778.4938,995.3438 Q1778.4938,997.6406 1779.3219,998.625 Q1780.15,999.6094 1781.4781,999.6094 Q1782.4625,999.6094 1783.1656,998.9844 Q1783.8688,998.3594 1784.1656,997.0313 Z "/><text fill="#000000" font-size="12" lengthAdjust="spacingAndGlyphs" textLength="21" x="1800.1" y="999.9531">GUI</text><line style="stroke: #A80036; stroke-width: 1.5;" x1="1746.25" x2="1844.25" y1="1011.5" y2="1011.5"/><text fill="#000000" font-size="11" lengthAdjust="spacingAndGlyphs" textLength="55" x="1751.25" y="1026.5">mainLayout</text><text fill="#000000" font-size="11" lengthAdjust="spacingAndGlyphs" textLength="43" x="1751.25" y="1040.3359">atmPanel</text><text fill="#000000" font-size="11" lengthAdjust="spacingAndGlyphs" textLength="44" x="1751.25" y="1054.1719">billsPanel</text><text fill="#000000" font-size="11" lengthAdjust="spacingAndGlyphs" textLength="48" x="1751.25" y="1068.0078">cardPanel</text><text fill="#000000" font-size="11" lengthAdjust="spacingAndGlyphs" textLength="40" x="1751.25" y="1081.8438">logPanel</text><line style="stroke: #A80036; stroke-width: 1.5;" x1="1746.25" x2="1844.25" y1="1088.6797" y2="1088.6797"/><text fill="#000000" font-size="11" lengthAdjust="spacingAndGlyphs" textLength="53" x="1751.25" y="1103.6797">readCard()</text><text fill="#000000" font-size="11" lengthAdjust="spacingAndGlyphs" textLength="67" x="1751.25" y="1117.5156">printLogLine()</text><text fill="#000000" font-size="11" lengthAdjust="spacingAndGlyphs" textLength="59" x="1751.25" y="1131.3516">showCard()</text><text fill="#000000" font-size="11" lengthAdjust="spacingAndGlyphs" textLength="88" x="1751.25" y="1145.1875">makeConstraints()</text><rect fill="#FEFECE" filter="url(#f1)" height="214.0313" style="stroke: #A80036; stroke-width: 1.5;" width="150" x="470.25" y="959"/><ellipse cx="500.55" cy="975" fill="#ADD1B2" rx="11" ry="11" style="stroke: #A80036; stroke-width: 1.0;"/><path d="M503.3156,976.5313 L505.7063,977.2813 Q505.1594,979.2656 503.8859,980.2344 Q502.6125,981.2031 500.6438,981.2031 Q498.2219,981.2031 496.6672,979.5469 Q495.1125,977.8906 495.1125,975.0156 Q495.1125,971.9844 496.675,970.3047 Q498.2375,968.625 500.8,968.625 Q503.0344,968.625 504.425,969.9375 Q505.2531,970.7188 505.675,972.1875 L503.2375,972.7656 Q503.0188,971.8125 502.3391,971.2656 Q501.6594,970.7188 500.675,970.7188 Q499.3156,970.7188 498.4797,971.6953 Q497.6438,972.6719 497.6438,974.8438 Q497.6438,977.1406 498.4719,978.125 Q499.3,979.1094 500.6281,979.1094 Q501.6125,979.1094 502.3156,978.4844 Q503.0188,977.8594 503.3156,976.5313 Z "/><text fill="#000000" font-size="12" lengthAdjust="spacingAndGlyphs" textLength="84" x="517.95" y="979.4531">SimulatedBank</text><line style="stroke: #A80036; stroke-width: 1.5;" x1="471.25" x2="619.25" y1="991" y2="991"/><text fill="#000000" font-size="11" lengthAdjust="spacingAndGlyphs" textLength="15" x="476.25" y="1006">PIN</text><text fill="#000000" font-size="11" lengthAdjust="spacingAndGlyphs" textLength="98" x="476.25" y="1019.8359">ACCOUNT_NUMBER</text><text fill="#000000" font-size="11" lengthAdjust="spacingAndGlyphs" textLength="121" x="476.25" y="1033.6719">WITHDRAWALS_TODAY</text><text fill="#000000" font-size="11" lengthAdjust="spacingAndGlyphs" textLength="138" x="476.25" y="1047.5078">DAILY_WITHDRAWAL_LIMIT</text><text fill="#000000" font-size="11" lengthAdjust="spacingAndGlyphs" textLength="49" x="476.25" y="1061.3438">BALANCE</text><text fill="#000000" font-size="11" lengthAdjust="spacingAndGlyphs" textLength="114" x="476.25" y="1075.1797">AVAILABLE_BALANCE</text><line style="stroke: #A80036; stroke-width: 1.5;" x1="471.25" x2="619.25" y1="1082.0156" y2="1082.0156"/><text fill="#000000" font-size="11" lengthAdjust="spacingAndGlyphs" textLength="84" x="476.25" y="1097.0156">handleMessage()</text><text fill="#000000" font-size="11" lengthAdjust="spacingAndGlyphs" textLength="63" x="476.25" y="1110.8516">withdrawal()</text><text fill="#000000" font-size="11" lengthAdjust="spacingAndGlyphs" textLength="74" x="476.25" y="1124.6875">initiateDeposit()</text><text fill="#000000" font-size="11" lengthAdjust="spacingAndGlyphs" textLength="87" x="476.25" y="1138.5234">completeDeposit()</text><text fill="#000000" font-size="11" lengthAdjust="spacingAndGlyphs" textLength="47" x="476.25" y="1152.3594">transfer()</text><text fill="#000000" font-size="11" lengthAdjust="spacingAndGlyphs" textLength="40" x="476.25" y="1166.1953">inquiry()</text><rect fill="#FEFECE" filter="url(#f1)" height="103.3438" style="stroke: #A80036; stroke-width: 1.5;" width="67" x="313" y="2060.5"/><ellipse cx="328" cy="2076.5" fill="#ADD1B2" rx="11" ry="11" style="stroke: #A80036; stroke-width: 1.0;"/><path d="M330.7656,2078.0313 L333.1563,2078.7813 Q332.6094,2080.7656 331.3359,2081.7344 Q330.0625,2082.7031 328.0938,2082.7031 Q325.6719,2082.7031 324.1172,2081.0469 Q322.5625,2079.3906 322.5625,2076.5156 Q322.5625,2073.4844 324.125,2071.8047 Q325.6875,2070.125 328.25,2070.125 Q330.4844,2070.125 331.875,2071.4375 Q332.7031,2072.2188 333.125,2073.6875 L330.6875,2074.2656 Q330.4688,2073.3125 329.7891,2072.7656 Q329.1094,2072.2188 328.125,2072.2188 Q326.7656,2072.2188 325.9297,2073.1953 Q325.0938,2074.1719 325.0938,2076.3438 Q325.0938,2078.6406 325.9219,2079.625 Q326.75,2080.6094 328.0781,2080.6094 Q329.0625,2080.6094 329.7656,2079.9844 Q330.4688,2079.3594 330.7656,2078.0313 Z "/><text fill="#000000" font-size="12" lengthAdjust="spacingAndGlyphs" textLength="35" x="342" y="2080.9531">Money</text><line style="stroke: #A80036; stroke-width: 1.5;" x1="314" x2="379" y1="2092.5" y2="2092.5"/><text fill="#000000" font-size="11" lengthAdjust="spacingAndGlyphs" textLength="27" x="319" y="2107.5">cents</text><line style="stroke: #A80036; stroke-width: 1.5;" x1="314" x2="379" y1="2114.3359" y2="2114.3359"/><text fill="#000000" font-size="11" lengthAdjust="spacingAndGlyphs" textLength="26" x="319" y="2129.3359">add()</text><text fill="#000000" font-size="11" lengthAdjust="spacingAndGlyphs" textLength="48" x="319" y="2143.1719">subtract()</text><text fill="#000000" font-size="11" lengthAdjust="spacingAndGlyphs" textLength="54" x="319" y="2157.0078">lessEqual()</text><rect fill="#FEFECE" filter="url(#f1)" height="75.6719" style="stroke: #A80036; stroke-width: 1.5;" width="84" x="308.25" y="567"/><ellipse cx="323.25" cy="583" fill="#ADD1B2" rx="11" ry="11" style="stroke: #A80036; stroke-width: 1.0;"/><path d="M326.0156,584.5313 L328.4063,585.2813 Q327.8594,587.2656 326.5859,588.2344 Q325.3125,589.2031 323.3438,589.2031 Q320.9219,589.2031 319.3672,587.5469 Q317.8125,585.8906 317.8125,583.0156 Q317.8125,579.9844 319.375,578.3047 Q320.9375,576.625 323.5,576.625 Q325.7344,576.625 327.125,577.9375 Q327.9531,578.7188 328.375,580.1875 L325.9375,580.7656 Q325.7188,579.8125 325.0391,579.2656 Q324.3594,578.7188 323.375,578.7188 Q322.0156,578.7188 321.1797,579.6953 Q320.3438,580.6719 320.3438,582.8438 Q320.3438,585.1406 321.1719,586.125 Q322,587.1094 323.3281,587.1094 Q324.3125,587.1094 325.0156,586.4844 Q325.7188,585.8594 326.0156,584.5313 Z "/><text fill="#000000" font-size="12" lengthAdjust="spacingAndGlyphs" textLength="52" x="337.25" y="587.4531">Balances</text><line style="stroke: #A80036; stroke-width: 1.5;" x1="309.25" x2="391.25" y1="599" y2="599"/><text fill="#000000" font-size="11" lengthAdjust="spacingAndGlyphs" textLength="20" x="314.25" y="614">total</text><text fill="#000000" font-size="11" lengthAdjust="spacingAndGlyphs" textLength="42" x="314.25" y="627.8359">available</text><line style="stroke: #A80036; stroke-width: 1.5;" x1="309.25" x2="391.25" y1="634.6719" y2="634.6719"/><rect fill="#FEFECE" filter="url(#f1)" height="89.5078" style="stroke: #A80036; stroke-width: 1.5;" width="89" x="6" y="126"/><ellipse cx="27.75" cy="142" fill="#ADD1B2" rx="11" ry="11" style="stroke: #A80036; stroke-width: 1.0;"/><path d="M30.5156,143.5313 L32.9063,144.2813 Q32.3594,146.2656 31.0859,147.2344 Q29.8125,148.2031 27.8438,148.2031 Q25.4219,148.2031 23.8672,146.5469 Q22.3125,144.8906 22.3125,142.0156 Q22.3125,138.9844 23.875,137.3047 Q25.4375,135.625 28,135.625 Q30.2344,135.625 31.625,136.9375 Q32.4531,137.7188 32.875,139.1875 L30.4375,139.7656 Q30.2188,138.8125 29.5391,138.2656 Q28.8594,137.7188 27.875,137.7188 Q26.5156,137.7188 25.6797,138.6953 Q24.8438,139.6719 24.8438,141.8438 Q24.8438,144.1406 25.6719,145.125 Q26.5,146.1094 27.8281,146.1094 Q28.8125,146.1094 29.5156,145.4844 Q30.2188,144.8594 30.5156,143.5313 Z "/><text fill="#000000" font-size="12" lengthAdjust="spacingAndGlyphs" textLength="42" x="43.25" y="146.4531">Receipt</text><line style="stroke: #A80036; stroke-width: 1.5;" x1="7" x2="94" y1="158" y2="158"/><text fill="#000000" font-size="11" lengthAdjust="spacingAndGlyphs" textLength="71" x="12" y="173">headingPortion</text><text fill="#000000" font-size="11" lengthAdjust="spacingAndGlyphs" textLength="64" x="12" y="186.8359">detailsPortion</text><text fill="#000000" font-size="11" lengthAdjust="spacingAndGlyphs" textLength="77" x="12" y="200.6719">balancesPortion</text><line style="stroke: #A80036; stroke-width: 1.5;" x1="7" x2="94" y1="207.5078" y2="207.5078"/><rect fill="#FEFECE" filter="url(#f1)" height="61.8359" style="stroke: #A80036; stroke-width: 1.5;" width="87" x="483" y="140"/><ellipse cx="498" cy="156" fill="#ADD1B2" rx="11" ry="11" style="stroke: #A80036; stroke-width: 1.0;"/><path d="M500.7656,157.5313 L503.1563,158.2813 Q502.6094,160.2656 501.3359,161.2344 Q500.0625,162.2031 498.0938,162.2031 Q495.6719,162.2031 494.1172,160.5469 Q492.5625,158.8906 492.5625,156.0156 Q492.5625,152.9844 494.125,151.3047 Q495.6875,149.625 498.25,149.625 Q500.4844,149.625 501.875,150.9375 Q502.7031,151.7188 503.125,153.1875 L500.6875,153.7656 Q500.4688,152.8125 499.7891,152.2656 Q499.1094,151.7188 498.125,151.7188 Q496.7656,151.7188 495.9297,152.6953 Q495.0938,153.6719 495.0938,155.8438 Q495.0938,158.1406 495.9219,159.125 Q496.75,160.1094 498.0781,160.1094 Q499.0625,160.1094 499.7656,159.4844 Q500.4688,158.8594 500.7656,157.5313 Z "/><text fill="#000000" font-size="12" lengthAdjust="spacingAndGlyphs" textLength="55" x="512" y="160.4531">InvalidPIN</text><line style="stroke: #A80036; stroke-width: 1.5;" x1="484" x2="569" y1="172" y2="172"/><line style="stroke: #A80036; stroke-width: 1.5;" x1="484" x2="569" y1="180" y2="180"/><text fill="#000000" font-size="11" lengthAdjust="spacingAndGlyphs" textLength="61" x="489" y="195">isInvalidPIN()</text><rect fill="#FEFECE" filter="url(#f1)" height="75.6719" style="stroke: #A80036; stroke-width: 1.5;" width="73" x="605" y="133"/><ellipse cx="622.7" cy="149" fill="#ADD1B2" rx="11" ry="11" style="stroke: #A80036; stroke-width: 1.0;"/><path d="M625.4656,150.5313 L627.8563,151.2813 Q627.3094,153.2656 626.0359,154.2344 Q624.7625,155.2031 622.7938,155.2031 Q620.3719,155.2031 618.8172,153.5469 Q617.2625,151.8906 617.2625,149.0156 Q617.2625,145.9844 618.825,144.3047 Q620.3875,142.625 622.95,142.625 Q625.1844,142.625 626.575,143.9375 Q627.4031,144.7188 627.825,146.1875 L625.3875,146.7656 Q625.1688,145.8125 624.4891,145.2656 Q623.8094,144.7188 622.825,144.7188 Q621.4656,144.7188 620.6297,145.6953 Q619.7938,146.6719 619.7938,148.8438 Q619.7938,151.1406 620.6219,152.125 Q621.45,153.1094 622.7781,153.1094 Q623.7625,153.1094 624.4656,152.4844 Q625.1688,151.8594 625.4656,150.5313 Z "/><text fill="#000000" font-size="12" lengthAdjust="spacingAndGlyphs" textLength="35" x="637.3" y="153.4531">Status</text><line style="stroke: #A80036; stroke-width: 1.5;" x1="606" x2="677" y1="165" y2="165"/><line style="stroke: #A80036; stroke-width: 1.5;" x1="606" x2="677" y1="173" y2="173"/><text fill="#000000" font-size="11" lengthAdjust="spacingAndGlyphs" textLength="59" x="611" y="188">isSuccess()</text><text fill="#000000" font-size="11" lengthAdjust="spacingAndGlyphs" textLength="61" x="611" y="201.8359">isInvalidPIN()</text><rect fill="#FEFECE" filter="url(#f1)" height="48" style="stroke: #A80036; stroke-width: 1.5;" width="88" x="130.25" y="147"/><ellipse cx="145.25" cy="163" fill="#ADD1B2" rx="11" ry="11" style="stroke: #A80036; stroke-width: 1.0;"/><path d="M148.0156,164.5313 L150.4063,165.2813 Q149.8594,167.2656 148.5859,168.2344 Q147.3125,169.2031 145.3438,169.2031 Q142.9219,169.2031 141.3672,167.5469 Q139.8125,165.8906 139.8125,163.0156 Q139.8125,159.9844 141.375,158.3047 Q142.9375,156.625 145.5,156.625 Q147.7344,156.625 149.125,157.9375 Q149.9531,158.7188 150.375,160.1875 L147.9375,160.7656 Q147.7188,159.8125 147.0391,159.2656 Q146.3594,158.7188 145.375,158.7188 Q144.0156,158.7188 143.1797,159.6953 Q142.3438,160.6719 142.3438,162.8438 Q142.3438,165.1406 143.1719,166.125 Q144,167.1094 145.3281,167.1094 Q146.3125,167.1094 147.0156,166.4844 Q147.7188,165.8594 148.0156,164.5313 Z "/><text fill="#000000" font-size="12" lengthAdjust="spacingAndGlyphs" textLength="56" x="159.25" y="167.4531">Cancelled</text><line style="stroke: #A80036; stroke-width: 1.5;" x1="131.25" x2="217.25" y1="179" y2="179"/><line style="stroke: #A80036; stroke-width: 1.5;" x1="131.25" x2="217.25" y1="187" y2="187"/><rect fill="#FEFECE" filter="url(#f1)" height="48" style="stroke: #A80036; stroke-width: 1.5;" width="134" x="1880.25" y="1042"/><ellipse cx="1895.25" cy="1058" fill="#ADD1B2" rx="11" ry="11" style="stroke: #A80036; stroke-width: 1.0;"/><path d="M1898.0156,1059.5313 L1900.4063,1060.2813 Q1899.8594,1062.2656 1898.5859,1063.2344 Q1897.3125,1064.2031 1895.3438,1064.2031 Q1892.9219,1064.2031 1891.3672,1062.5469 Q1889.8125,1060.8906 1889.8125,1058.0156 Q1889.8125,1054.9844 1891.375,1053.3047 Q1892.9375,1051.625 1895.5,1051.625 Q1897.7344,1051.625 1899.125,1052.9375 Q1899.9531,1053.7188 1900.375,1055.1875 L1897.9375,1055.7656 Q1897.7188,1054.8125 1897.0391,1054.2656 Q1896.3594,1053.7188 1895.375,1053.7188 Q1894.0156,1053.7188 1893.1797,1054.6953 Q1892.3438,1055.6719 1892.3438,1057.8438 Q1892.3438,1060.1406 1893.1719,1061.125 Q1894,1062.1094 1895.3281,1062.1094 Q1896.3125,1062.1094 1897.0156,1061.4844 Q1897.7188,1060.8594 1898.0156,1059.5313 Z "/><text fill="#000000" font-size="12" lengthAdjust="spacingAndGlyphs" textLength="102" x="1909.25" y="1062.4531">SimOperatorPanel</text><line style="stroke: #A80036; stroke-width: 1.5;" x1="1881.25" x2="2013.25" y1="1074" y2="1074"/><line style="stroke: #A80036; stroke-width: 1.5;" x1="1881.25" x2="2013.25" y1="1082" y2="1082"/><rect fill="#FEFECE" filter="url(#f1)" height="103.3438" style="stroke: #A80036; stroke-width: 1.5;" width="122" x="955.25" y="1014.5"/><ellipse cx="970.25" cy="1030.5" fill="#ADD1B2" rx="11" ry="11" style="stroke: #A80036; stroke-width: 1.0;"/><path d="M973.0156,1032.0313 L975.4063,1032.7813 Q974.8594,1034.7656 973.5859,1035.7344 Q972.3125,1036.7031 970.3438,1036.7031 Q967.9219,1036.7031 966.3672,1035.0469 Q964.8125,1033.3906 964.8125,1030.5156 Q964.8125,1027.4844 966.375,1025.8047 Q967.9375,1024.125 970.5,1024.125 Q972.7344,1024.125 974.125,1025.4375 Q974.9531,1026.2188 975.375,1027.6875 L972.9375,1028.2656 Q972.7188,1027.3125 972.0391,1026.7656 Q971.3594,1026.2188 970.375,1026.2188 Q969.0156,1026.2188 968.1797,1027.1953 Q967.3438,1028.1719 967.3438,1030.3438 Q967.3438,1032.6406 968.1719,1033.625 Q969,1034.6094 970.3281,1034.6094 Q971.3125,1034.6094 972.0156,1033.9844 Q972.7188,1033.3594 973.0156,1032.0313 Z "/><text fill="#000000" font-size="12" lengthAdjust="spacingAndGlyphs" textLength="90" x="984.25" y="1034.9531">SimCardReader</text><line style="stroke: #A80036; stroke-width: 1.5;" x1="956.25" x2="1076.25" y1="1046.5" y2="1046.5"/><text fill="#000000" font-size="11" lengthAdjust="spacingAndGlyphs" textLength="71" x="961.25" y="1061.5">originalBounds</text><line style="stroke: #A80036; stroke-width: 1.5;" x1="956.25" x2="1076.25" y1="1068.3359" y2="1068.3359"/><text fill="#000000" font-size="11" lengthAdjust="spacingAndGlyphs" textLength="86" x="961.25" y="1083.3359">animateInsertion()</text><text fill="#000000" font-size="11" lengthAdjust="spacingAndGlyphs" textLength="82" x="961.25" y="1097.1719">animateEjection()</text><text fill="#000000" font-size="11" lengthAdjust="spacingAndGlyphs" textLength="90" x="961.25" y="1111.0078">animateRetention()</text><rect fill="#FEFECE" filter="url(#f1)" height="89.5078" style="stroke: #A80036; stroke-width: 1.5;" width="132" x="1112.25" y="1021"/><ellipse cx="1127.25" cy="1037" fill="#ADD1B2" rx="11" ry="11" style="stroke: #A80036; stroke-width: 1.0;"/><path d="M1130.0156,1038.5313 L1132.4063,1039.2813 Q1131.8594,1041.2656 1130.5859,1042.2344 Q1129.3125,1043.2031 1127.3438,1043.2031 Q1124.9219,1043.2031 1123.3672,1041.5469 Q1121.8125,1039.8906 1121.8125,1037.0156 Q1121.8125,1033.9844 1123.375,1032.3047 Q1124.9375,1030.625 1127.5,1030.625 Q1129.7344,1030.625 1131.125,1031.9375 Q1131.9531,1032.7188 1132.375,1034.1875 L1129.9375,1034.7656 Q1129.7188,1033.8125 1129.0391,1033.2656 Q1128.3594,1032.7188 1127.375,1032.7188 Q1126.0156,1032.7188 1125.1797,1033.6953 Q1124.3438,1034.6719 1124.3438,1036.8438 Q1124.3438,1039.1406 1125.1719,1040.125 Q1126,1041.1094 1127.3281,1041.1094 Q1128.3125,1041.1094 1129.0156,1040.4844 Q1129.7188,1039.8594 1130.0156,1038.5313 Z "/><text fill="#000000" font-size="12" lengthAdjust="spacingAndGlyphs" textLength="100" x="1141.25" y="1041.4531">SimReceiptPrinter</text><line style="stroke: #A80036; stroke-width: 1.5;" x1="1113.25" x2="1243.25" y1="1053" y2="1053"/><text fill="#000000" font-size="11" lengthAdjust="spacingAndGlyphs" textLength="45" x="1118.25" y="1068">printArea</text><text fill="#000000" font-size="11" lengthAdjust="spacingAndGlyphs" textLength="20" x="1118.25" y="1081.8359">take</text><line style="stroke: #A80036; stroke-width: 1.5;" x1="1113.25" x2="1243.25" y1="1088.6719" y2="1088.6719"/><text fill="#000000" font-size="11" lengthAdjust="spacingAndGlyphs" textLength="37" x="1118.25" y="1103.6719">println()</text><rect fill="#FEFECE" filter="url(#f1)" height="75.6719" style="stroke: #A80036; stroke-width: 1.5;" width="102" x="1744.25" y="1620"/><ellipse cx="1764.2" cy="1636" fill="#ADD1B2" rx="11" ry="11" style="stroke: #A80036; stroke-width: 1.0;"/><path d="M1766.9656,1637.5313 L1769.3563,1638.2813 Q1768.8094,1640.2656 1767.5359,1641.2344 Q1766.2625,1642.2031 1764.2938,1642.2031 Q1761.8719,1642.2031 1760.3172,1640.5469 Q1758.7625,1638.8906 1758.7625,1636.0156 Q1758.7625,1632.9844 1760.325,1631.3047 Q1761.8875,1629.625 1764.45,1629.625 Q1766.6844,1629.625 1768.075,1630.9375 Q1768.9031,1631.7188 1769.325,1633.1875 L1766.8875,1633.7656 Q1766.6688,1632.8125 1765.9891,1632.2656 Q1765.3094,1631.7188 1764.325,1631.7188 Q1762.9656,1631.7188 1762.1297,1632.6953 Q1761.2938,1633.6719 1761.2938,1635.8438 Q1761.2938,1638.1406 1762.1219,1639.125 Q1762.95,1640.1094 1764.2781,1640.1094 Q1765.2625,1640.1094 1765.9656,1639.4844 Q1766.6688,1638.8594 1766.9656,1637.5313 Z "/><text fill="#000000" font-size="12" lengthAdjust="spacingAndGlyphs" textLength="59" x="1779.3" y="1640.4531">CardPanel</text><line style="stroke: #A80036; stroke-width: 1.5;" x1="1745.25" x2="1845.25" y1="1652" y2="1652"/><text fill="#000000" font-size="11" lengthAdjust="spacingAndGlyphs" textLength="81" x="1750.25" y="1667">cardNumberField</text><line style="stroke: #A80036; stroke-width: 1.5;" x1="1745.25" x2="1845.25" y1="1673.8359" y2="1673.8359"/><text fill="#000000" font-size="11" lengthAdjust="spacingAndGlyphs" textLength="90" x="1750.25" y="1688.8359">readCardNumber()</text><rect fill="#FEFECE" filter="url(#f1)" height="103.3438" style="stroke: #A80036; stroke-width: 1.5;" width="152" x="1295.25" y="1606.5"/><ellipse cx="1310.25" cy="1622.5" fill="#ADD1B2" rx="11" ry="11" style="stroke: #A80036; stroke-width: 1.0;"/><path d="M1313.0156,1624.0313 L1315.4063,1624.7813 Q1314.8594,1626.7656 1313.5859,1627.7344 Q1312.3125,1628.7031 1310.3438,1628.7031 Q1307.9219,1628.7031 1306.3672,1627.0469 Q1304.8125,1625.3906 1304.8125,1622.5156 Q1304.8125,1619.4844 1306.375,1617.8047 Q1307.9375,1616.125 1310.5,1616.125 Q1312.7344,1616.125 1314.125,1617.4375 Q1314.9531,1618.2188 1315.375,1619.6875 L1312.9375,1620.2656 Q1312.7188,1619.3125 1312.0391,1618.7656 Q1311.3594,1618.2188 1310.375,1618.2188 Q1309.0156,1618.2188 1308.1797,1619.1953 Q1307.3438,1620.1719 1307.3438,1622.3438 Q1307.3438,1624.6406 1308.1719,1625.625 Q1309,1626.6094 1310.3281,1626.6094 Q1311.3125,1626.6094 1312.0156,1625.9844 Q1312.7188,1625.3594 1313.0156,1624.0313 Z "/><text fill="#000000" font-size="12" lengthAdjust="spacingAndGlyphs" textLength="120" x="1324.25" y="1626.9531">SimEnvelopeAcceptor</text><line style="stroke: #A80036; stroke-width: 1.5;" x1="1296.25" x2="1446.25" y1="1638.5" y2="1638.5"/><text fill="#000000" font-size="11" lengthAdjust="spacingAndGlyphs" textLength="39" x="1301.25" y="1653.5">inserted</text><text fill="#000000" font-size="11" lengthAdjust="spacingAndGlyphs" textLength="108" x="1301.25" y="1667.3359">MAXIMUM_WAIT_TIME</text><line style="stroke: #A80036; stroke-width: 1.5;" x1="1296.25" x2="1446.25" y1="1674.1719" y2="1674.1719"/><text fill="#000000" font-size="11" lengthAdjust="spacingAndGlyphs" textLength="85" x="1301.25" y="1689.1719">acceptEnvelope()</text><text fill="#000000" font-size="11" lengthAdjust="spacingAndGlyphs" textLength="92" x="1301.25" y="1703.0078">cancelRequested()</text><rect fill="#FEFECE" filter="url(#f1)" height="75.6719" style="stroke: #A80036; stroke-width: 1.5;" width="142" x="1497.25" y="1028"/><ellipse cx="1512.25" cy="1044" fill="#ADD1B2" rx="11" ry="11" style="stroke: #A80036; stroke-width: 1.0;"/><path d="M1515.0156,1045.5313 L1517.4063,1046.2813 Q1516.8594,1048.2656 1515.5859,1049.2344 Q1514.3125,1050.2031 1512.3438,1050.2031 Q1509.9219,1050.2031 1508.3672,1048.5469 Q1506.8125,1046.8906 1506.8125,1044.0156 Q1506.8125,1040.9844 1508.375,1039.3047 Q1509.9375,1037.625 1512.5,1037.625 Q1514.7344,1037.625 1516.125,1038.9375 Q1516.9531,1039.7188 1517.375,1041.1875 L1514.9375,1041.7656 Q1514.7188,1040.8125 1514.0391,1040.2656 Q1513.3594,1039.7188 1512.375,1039.7188 Q1511.0156,1039.7188 1510.1797,1040.6953 Q1509.3438,1041.6719 1509.3438,1043.8438 Q1509.3438,1046.1406 1510.1719,1047.125 Q1511,1048.1094 1512.3281,1048.1094 Q1513.3125,1048.1094 1514.0156,1047.4844 Q1514.7188,1046.8594 1515.0156,1045.5313 Z "/><text fill="#000000" font-size="12" lengthAdjust="spacingAndGlyphs" textLength="110" x="1526.25" y="1048.4531">SimCashDispenser</text><line style="stroke: #A80036; stroke-width: 1.5;" x1="1498.25" x2="1638.25" y1="1060" y2="1060"/><text fill="#000000" font-size="11" lengthAdjust="spacingAndGlyphs" textLength="22" x="1503.25" y="1075">label</text><line style="stroke: #A80036; stroke-width: 1.5;" x1="1498.25" x2="1638.25" y1="1081.8359" y2="1081.8359"/><text fill="#000000" font-size="11" lengthAdjust="spacingAndGlyphs" textLength="123" x="1503.25" y="1096.8359">animateDispensingCash()</text><rect fill="#FEFECE" filter="url(#f1)" height="684.4531" style="stroke: #A80036; stroke-width: 1.5;" width="161" x="1882" y="1316"/><ellipse cx="1930.75" cy="1332" fill="#ADD1B2" rx="11" ry="11" style="stroke: #A80036; stroke-width: 1.0;"/><path d="M1933.5156,1333.5313 L1935.9063,1334.2813 Q1935.3594,1336.2656 1934.0859,1337.2344 Q1932.8125,1338.2031 1930.8438,1338.2031 Q1928.4219,1338.2031 1926.8672,1336.5469 Q1925.3125,1334.8906 1925.3125,1332.0156 Q1925.3125,1328.9844 1926.875,1327.3047 Q1928.4375,1325.625 1931,1325.625 Q1933.2344,1325.625 1934.625,1326.9375 Q1935.4531,1327.7188 1935.875,1329.1875 L1933.4375,1329.7656 Q1933.2188,1328.8125 1932.5391,1328.2656 Q1931.8594,1327.7188 1930.875,1327.7188 Q1929.5156,1327.7188 1928.6797,1328.6953 Q1927.8438,1329.6719 1927.8438,1331.8438 Q1927.8438,1334.1406 1928.6719,1335.125 Q1929.5,1336.1094 1930.8281,1336.1094 Q1931.8125,1336.1094 1932.5156,1335.4844 Q1933.2188,1334.8594 1933.5156,1333.5313 Z "/><text fill="#000000" font-size="12" lengthAdjust="spacingAndGlyphs" textLength="55" x="1951.25" y="1336.4531">ATMPanel</text><line style="stroke: #A80036; stroke-width: 1.5;" x1="1883" x2="2042" y1="1348" y2="1348"/><text fill="#000000" font-size="11" lengthAdjust="spacingAndGlyphs" textLength="105" x="1888" y="1363">DISPLAYABLE_LINES</text><text fill="#000000" font-size="11" lengthAdjust="spacingAndGlyphs" textLength="112" x="1888" y="1376.8359">BLANK_DISPLAY_LINE</text><text fill="#000000" font-size="11" lengthAdjust="spacingAndGlyphs" textLength="89" x="1888" y="1390.6719">PRINTABLE_LINES</text><text fill="#000000" font-size="11" lengthAdjust="spacingAndGlyphs" textLength="97" x="1888" y="1404.5078">PRINTABLE_CHARS</text><text fill="#000000" font-size="11" lengthAdjust="spacingAndGlyphs" textLength="75" x="1888" y="1418.3438">DISPLAY_ROW</text><text fill="#000000" font-size="11" lengthAdjust="spacingAndGlyphs" textLength="71" x="1888" y="1432.1797">DISPLAY_COL</text><text fill="#000000" font-size="11" lengthAdjust="spacingAndGlyphs" textLength="82" x="1888" y="1446.0156">DISPLAY_WIDTH</text><text fill="#000000" font-size="11" lengthAdjust="spacingAndGlyphs" textLength="86" x="1888" y="1459.8516">DISPLAY_HEIGHT</text><text fill="#000000" font-size="11" lengthAdjust="spacingAndGlyphs" textLength="70" x="1888" y="1473.6875">DISPLAY_FILL</text><text fill="#000000" font-size="11" lengthAdjust="spacingAndGlyphs" textLength="72" x="1888" y="1487.5234">PRINTER_ROW</text><text fill="#000000" font-size="11" lengthAdjust="spacingAndGlyphs" textLength="68" x="1888" y="1501.3594">PRINTER_COL</text><text fill="#000000" font-size="11" lengthAdjust="spacingAndGlyphs" textLength="79" x="1888" y="1515.1953">PRINTER_WIDTH</text><text fill="#000000" font-size="11" lengthAdjust="spacingAndGlyphs" textLength="83" x="1888" y="1529.0313">PRINTER_HEIGHT</text><text fill="#000000" font-size="11" lengthAdjust="spacingAndGlyphs" textLength="67" x="1888" y="1542.8672">PRINTER_FILL</text><text fill="#000000" font-size="11" lengthAdjust="spacingAndGlyphs" textLength="84" x="1888" y="1556.7031">ENVELOPE_ROW</text><text fill="#000000" font-size="11" lengthAdjust="spacingAndGlyphs" textLength="80" x="1888" y="1570.5391">ENVELOPE_COL</text><text fill="#000000" font-size="11" lengthAdjust="spacingAndGlyphs" textLength="91" x="1888" y="1584.375">ENVELOPE_WIDTH</text><text fill="#000000" font-size="11" lengthAdjust="spacingAndGlyphs" textLength="95" x="1888" y="1598.2109">ENVELOPE_HEIGHT</text><text fill="#000000" font-size="11" lengthAdjust="spacingAndGlyphs" textLength="79" x="1888" y="1612.0469">ENVELOPE_FILL</text><text fill="#000000" font-size="11" lengthAdjust="spacingAndGlyphs" textLength="86" x="1888" y="1625.8828">DISPENSER_ROW</text><text fill="#000000" font-size="11" lengthAdjust="spacingAndGlyphs" textLength="82" x="1888" y="1639.7188">DISPENSER_COL</text><text fill="#000000" font-size="11" lengthAdjust="spacingAndGlyphs" textLength="93" x="1888" y="1653.5547">DISPENSER_WIDTH</text><text fill="#000000" font-size="11" lengthAdjust="spacingAndGlyphs" textLength="97" x="1888" y="1667.3906">DISPENSER_HEIGHT</text><text fill="#000000" font-size="11" lengthAdjust="spacingAndGlyphs" textLength="81" x="1888" y="1681.2266">DISPENSER_FILL</text><text fill="#000000" font-size="11" lengthAdjust="spacingAndGlyphs" textLength="72" x="1888" y="1695.0625">READER_ROW</text><text fill="#000000" font-size="11" lengthAdjust="spacingAndGlyphs" textLength="68" x="1888" y="1708.8984">READER_COL</text><text fill="#000000" font-size="11" lengthAdjust="spacingAndGlyphs" textLength="79" x="1888" y="1722.7344">READER_WIDTH</text><text fill="#000000" font-size="11" lengthAdjust="spacingAndGlyphs" textLength="83" x="1888" y="1736.5703">READER_HEIGHT</text><text fill="#000000" font-size="11" lengthAdjust="spacingAndGlyphs" textLength="67" x="1888" y="1750.4063">READER_FILL</text><text fill="#000000" font-size="11" lengthAdjust="spacingAndGlyphs" textLength="89" x="1888" y="1764.2422">KEYBOARD_ROW</text><text fill="#000000" font-size="11" lengthAdjust="spacingAndGlyphs" textLength="85" x="1888" y="1778.0781">KEYBOARD_COL</text><text fill="#000000" font-size="11" lengthAdjust="spacingAndGlyphs" textLength="96" x="1888" y="1791.9141">KEYBOARD_WIDTH</text><text fill="#000000" font-size="11" lengthAdjust="spacingAndGlyphs" textLength="100" x="1888" y="1805.75">KEYBOARD_HEIGHT</text><text fill="#000000" font-size="11" lengthAdjust="spacingAndGlyphs" textLength="84" x="1888" y="1819.5859">KEYBOARD_FILL</text><text fill="#000000" font-size="11" lengthAdjust="spacingAndGlyphs" textLength="138" x="1888" y="1833.4219">SHOW_LOG_BUTTON_ROW</text><text fill="#000000" font-size="11" lengthAdjust="spacingAndGlyphs" textLength="134" x="1888" y="1847.2578">SHOW_LOG_BUTTON_COL</text><text fill="#000000" font-size="11" lengthAdjust="spacingAndGlyphs" textLength="145" x="1888" y="1861.0938">SHOW_LOG_BUTTON_WIDTH</text><text fill="#000000" font-size="11" lengthAdjust="spacingAndGlyphs" textLength="149" x="1888" y="1874.9297">SHOW_LOG_BUTTON_HEIGHT</text><text fill="#000000" font-size="11" lengthAdjust="spacingAndGlyphs" textLength="133" x="1888" y="1888.7656">SHOW_LOG_BUTTON_FILL</text><text fill="#000000" font-size="11" lengthAdjust="spacingAndGlyphs" textLength="87" x="1888" y="1902.6016">OPERATOR_ROW</text><text fill="#000000" font-size="11" lengthAdjust="spacingAndGlyphs" textLength="83" x="1888" y="1916.4375">OPERATOR_COL</text><text fill="#000000" font-size="11" lengthAdjust="spacingAndGlyphs" textLength="94" x="1888" y="1930.2734">OPERATOR_WIDTH</text><text fill="#000000" font-size="11" lengthAdjust="spacingAndGlyphs" textLength="98" x="1888" y="1944.1094">OPERATOR_HEIGHT</text><text fill="#000000" font-size="11" lengthAdjust="spacingAndGlyphs" textLength="82" x="1888" y="1957.9453">OPERATOR_FILL</text><text fill="#000000" font-size="11" lengthAdjust="spacingAndGlyphs" textLength="72" x="1888" y="1971.7813">TOTAL_ROWS</text><text fill="#000000" font-size="11" lengthAdjust="spacingAndGlyphs" textLength="68" x="1888" y="1985.6172">TOTAL_COLS</text><line style="stroke: #A80036; stroke-width: 1.5;" x1="1883" x2="2042" y1="1992.4531" y2="1992.4531"/><rect fill="#FEFECE" filter="url(#f1)" height="255.5391" style="stroke: #A80036; stroke-width: 1.5;" width="111" x="1351" y="938"/><ellipse cx="1368.25" cy="954" fill="#ADD1B2" rx="11" ry="11" style="stroke: #A80036; stroke-width: 1.0;"/><path d="M1371.0156,955.5313 L1373.4063,956.2813 Q1372.8594,958.2656 1371.5859,959.2344 Q1370.3125,960.2031 1368.3438,960.2031 Q1365.9219,960.2031 1364.3672,958.5469 Q1362.8125,956.8906 1362.8125,954.0156 Q1362.8125,950.9844 1364.375,949.3047 Q1365.9375,947.625 1368.5,947.625 Q1370.7344,947.625 1372.125,948.9375 Q1372.9531,949.7188 1373.375,951.1875 L1370.9375,951.7656 Q1370.7188,950.8125 1370.0391,950.2656 Q1369.3594,949.7188 1368.375,949.7188 Q1367.0156,949.7188 1366.1797,950.6953 Q1365.3438,951.6719 1365.3438,953.8438 Q1365.3438,956.1406 1366.1719,957.125 Q1367,958.1094 1368.3281,958.1094 Q1369.3125,958.1094 1370.0156,957.4844 Q1370.7188,956.8594 1371.0156,955.5313 Z "/><text fill="#000000" font-size="12" lengthAdjust="spacingAndGlyphs" textLength="74" x="1382.75" y="958.4531">SimKeyboard</text><line style="stroke: #A80036; stroke-width: 1.5;" x1="1352" x2="1461" y1="970" y2="970"/><text fill="#000000" font-size="11" lengthAdjust="spacingAndGlyphs" textLength="34" x="1357" y="985">display</text><text fill="#000000" font-size="11" lengthAdjust="spacingAndGlyphs" textLength="89" x="1357" y="998.8359">envelopeAcceptor</text><text fill="#000000" font-size="11" lengthAdjust="spacingAndGlyphs" textLength="26" x="1357" y="1012.6719">mode</text><text fill="#000000" font-size="11" lengthAdjust="spacingAndGlyphs" textLength="56" x="1357" y="1026.5078">IDLE_MODE</text><text fill="#000000" font-size="11" lengthAdjust="spacingAndGlyphs" textLength="50" x="1357" y="1040.3438">PIN_MODE</text><text fill="#000000" font-size="11" lengthAdjust="spacingAndGlyphs" textLength="79" x="1357" y="1054.1797">AMOUNT_MODE</text><text fill="#000000" font-size="11" lengthAdjust="spacingAndGlyphs" textLength="63" x="1357" y="1068.0156">MENU_MODE</text><text fill="#000000" font-size="11" lengthAdjust="spacingAndGlyphs" textLength="58" x="1357" y="1081.8516">currentInput</text><text fill="#000000" font-size="11" lengthAdjust="spacingAndGlyphs" textLength="46" x="1357" y="1095.6875">cancelled</text><text fill="#000000" font-size="11" lengthAdjust="spacingAndGlyphs" textLength="48" x="1357" y="1109.5234">maxValue</text><line style="stroke: #A80036; stroke-width: 1.5;" x1="1352" x2="1461" y1="1116.3594" y2="1116.3594"/><text fill="#000000" font-size="11" lengthAdjust="spacingAndGlyphs" textLength="53" x="1357" y="1131.3594">readInput()</text><text fill="#000000" font-size="11" lengthAdjust="spacingAndGlyphs" textLength="86" x="1357" y="1145.1953">digitKeyPressed()</text><text fill="#000000" font-size="11" lengthAdjust="spacingAndGlyphs" textLength="92" x="1357" y="1159.0313">enterKeyPressed()</text><text fill="#000000" font-size="11" lengthAdjust="spacingAndGlyphs" textLength="91" x="1357" y="1172.8672">clearKeyPressed()</text><text fill="#000000" font-size="11" lengthAdjust="spacingAndGlyphs" textLength="99" x="1357" y="1186.7031">cancelKeyPressed()</text><rect fill="#FEFECE" filter="url(#f1)" height="103.3438" style="stroke: #A80036; stroke-width: 1.5;" width="102" x="1482.25" y="1606.5"/><ellipse cx="1500.4" cy="1622.5" fill="#ADD1B2" rx="11" ry="11" style="stroke: #A80036; stroke-width: 1.0;"/><path d="M1503.1656,1624.0313 L1505.5563,1624.7813 Q1505.0094,1626.7656 1503.7359,1627.7344 Q1502.4625,1628.7031 1500.4938,1628.7031 Q1498.0719,1628.7031 1496.5172,1627.0469 Q1494.9625,1625.3906 1494.9625,1622.5156 Q1494.9625,1619.4844 1496.525,1617.8047 Q1498.0875,1616.125 1500.65,1616.125 Q1502.8844,1616.125 1504.275,1617.4375 Q1505.1031,1618.2188 1505.525,1619.6875 L1503.0875,1620.2656 Q1502.8688,1619.3125 1502.1891,1618.7656 Q1501.5094,1618.2188 1500.525,1618.2188 Q1499.1656,1618.2188 1498.3297,1619.1953 Q1497.4938,1620.1719 1497.4938,1622.3438 Q1497.4938,1624.6406 1498.3219,1625.625 Q1499.15,1626.6094 1500.4781,1626.6094 Q1501.4625,1626.6094 1502.1656,1625.9844 Q1502.8688,1625.3594 1503.1656,1624.0313 Z "/><text fill="#000000" font-size="12" lengthAdjust="spacingAndGlyphs" textLength="63" x="1515.1" y="1626.9531">SimDisplay</text><line style="stroke: #A80036; stroke-width: 1.5;" x1="1483.25" x2="1583.25" y1="1638.5" y2="1638.5"/><text fill="#000000" font-size="11" lengthAdjust="spacingAndGlyphs" textLength="54" x="1488.25" y="1653.5">displayLine</text><text fill="#000000" font-size="11" lengthAdjust="spacingAndGlyphs" textLength="90" x="1488.25" y="1667.3359">currentDisplayLine</text><line style="stroke: #A80036; stroke-width: 1.5;" x1="1483.25" x2="1583.25" y1="1674.1719" y2="1674.1719"/><text fill="#000000" font-size="11" lengthAdjust="spacingAndGlyphs" textLength="67" x="1488.25" y="1689.1719">clearDisplay()</text><text fill="#000000" font-size="11" lengthAdjust="spacingAndGlyphs" textLength="42" x="1488.25" y="1703.0078">display()</text><rect fill="#FEFECE" filter="url(#f1)" height="75.6719" style="stroke: #A80036; stroke-width: 1.5;" width="85" x="2078" y="1620"/><ellipse cx="2093" cy="1636" fill="#ADD1B2" rx="11" ry="11" style="stroke: #A80036; stroke-width: 1.0;"/><path d="M2095.7656,1637.5313 L2098.1563,1638.2813 Q2097.6094,1640.2656 2096.3359,1641.2344 Q2095.0625,1642.2031 2093.0938,1642.2031 Q2090.6719,1642.2031 2089.1172,1640.5469 Q2087.5625,1638.8906 2087.5625,1636.0156 Q2087.5625,1632.9844 2089.125,1631.3047 Q2090.6875,1629.625 2093.25,1629.625 Q2095.4844,1629.625 2096.875,1630.9375 Q2097.7031,1631.7188 2098.125,1633.1875 L2095.6875,1633.7656 Q2095.4688,1632.8125 2094.7891,1632.2656 Q2094.1094,1631.7188 2093.125,1631.7188 Q2091.7656,1631.7188 2090.9297,1632.6953 Q2090.0938,1633.6719 2090.0938,1635.8438 Q2090.0938,1638.1406 2090.9219,1639.125 Q2091.75,1640.1094 2093.0781,1640.1094 Q2094.0625,1640.1094 2094.7656,1639.4844 Q2095.4688,1638.8594 2095.7656,1637.5313 Z "/><text fill="#000000" font-size="12" lengthAdjust="spacingAndGlyphs" textLength="53" x="2107" y="1640.4531">LogPanel</text><line style="stroke: #A80036; stroke-width: 1.5;" x1="2079" x2="2162" y1="1652" y2="1652"/><text fill="#000000" font-size="11" lengthAdjust="spacingAndGlyphs" textLength="59" x="2084" y="1667">logPrintArea</text><line style="stroke: #A80036; stroke-width: 1.5;" x1="2079" x2="2162" y1="1673.8359" y2="1673.8359"/><text fill="#000000" font-size="11" lengthAdjust="spacingAndGlyphs" textLength="37" x="2084" y="1688.8359">println()</text><rect fill="#FEFECE" filter="url(#f1)" height="75.6719" style="stroke: #A80036; stroke-width: 1.5;" width="89" x="1620" y="1620"/><ellipse cx="1635.45" cy="1636" fill="#ADD1B2" rx="11" ry="11" style="stroke: #A80036; stroke-width: 1.0;"/><path d="M1638.2156,1637.5313 L1640.6063,1638.2813 Q1640.0594,1640.2656 1638.7859,1641.2344 Q1637.5125,1642.2031 1635.5438,1642.2031 Q1633.1219,1642.2031 1631.5672,1640.5469 Q1630.0125,1638.8906 1630.0125,1636.0156 Q1630.0125,1632.9844 1631.575,1631.3047 Q1633.1375,1629.625 1635.7,1629.625 Q1637.9344,1629.625 1639.325,1630.9375 Q1640.1531,1631.7188 1640.575,1633.1875 L1638.1375,1633.7656 Q1637.9188,1632.8125 1637.2391,1632.2656 Q1636.5594,1631.7188 1635.575,1631.7188 Q1634.2156,1631.7188 1633.3797,1632.6953 Q1632.5438,1633.6719 1632.5438,1635.8438 Q1632.5438,1638.1406 1633.3719,1639.125 Q1634.2,1640.1094 1635.5281,1640.1094 Q1636.5125,1640.1094 1637.2156,1639.4844 Q1637.9188,1638.8594 1638.2156,1637.5313 Z "/><text fill="#000000" font-size="12" lengthAdjust="spacingAndGlyphs" textLength="56" x="1649.55" y="1640.4531">BillsPanel</text><line style="stroke: #A80036; stroke-width: 1.5;" x1="1621" x2="1708" y1="1652" y2="1652"/><text fill="#000000" font-size="11" lengthAdjust="spacingAndGlyphs" textLength="77" x="1626" y="1667">billsNumberField</text><line style="stroke: #A80036; stroke-width: 1.5;" x1="1621" x2="1708" y1="1673.8359" y2="1673.8359"/><text fill="#000000" font-size="11" lengthAdjust="spacingAndGlyphs" textLength="49" x="1626" y="1688.8359">readBills()</text><path d="M483.877,656.68 C491.956,702.22 509.276,768.97 545.25,816 C574.91,854.77 598.763,845.97 637.25,876 C680.454,909.71 725.447,950.68 762.152,985.85 " fill="none" style="stroke: #A80036; stroke-width: 1.0;"/><path d="M762.53,1256.25 C755.247,1276.273 748.331,1296.455 742.25,1316 C711.521,1414.762 687.156,1533.042 674.288,1601.158 " fill="none" style="stroke: #A80036; stroke-width: 1.0;"/><polygon fill="#A80036" points="673.306,1606.378,678.9011,1598.2727,674.2305,1601.4642,671.039,1596.7936,673.306,1606.378" style="stroke: #A80036; stroke-width: 1.0;"/><path d="M762.083,1140.14 C691.78,1205.758 598.324,1294.883 586.25,1316 C533.938,1407.49 513.973,1530.892 506.522,1601.403 " fill="none" style="stroke: #A80036; stroke-width: 1.0;"/><polygon fill="#A80036" points="506.007,1606.387,510.9114,1597.8461,506.5212,1601.4135,502.9538,1597.0234,506.007,1606.387" style="stroke: #A80036; stroke-width: 1.0;"/><path d="M920.6,1238.178 C926.147,1244.528 932.026,1250.511 938.25,1256 C996.775,1307.611 1050.47,1258.522 1103.25,1316 C1180.85,1400.518 1194.16,1543.674 1195.71,1614.586 " fill="none" style="stroke: #A80036; stroke-width: 1.0;"/><polygon fill="#A80036" points="1195.8,1619.979,1199.6374,1610.9085,1195.71,1614.9798,1191.6387,1611.0524,1195.8,1619.979" style="stroke: #A80036; stroke-width: 1.0;"/><path d="M920.469,1235.083 C926.093,1242.433 932.019,1249.456 938.25,1256 C975.046,1294.648 1015.56,1269.791 1042.25,1316 C1118.27,1447.624 1094.56,1857.285 1042.25,2000 C1034.76,2020.437 1021.66,2039.695 1007.57,2056.252 " fill="none" style="stroke: #A80036; stroke-width: 1.0;"/><polygon fill="#A80036" points="1003.97,2060.402,1012.8879,2056.2221,1007.2453,2056.6241,1006.8432,2050.9816,1003.97,2060.402" style="stroke: #A80036; stroke-width: 1.0;"/><path d="M834.198,1256.114 C829.857,1372.539 824.57,1514.333 821.589,1594.277 " fill="none" style="stroke: #A80036; stroke-width: 1.0;"/><polygon fill="#A80036" points="821.396,1599.452,825.73,1590.608,821.5831,1594.4555,817.7356,1590.3086,821.396,1599.452" style="stroke: #A80036; stroke-width: 1.0;"/><path d="M848.725,636.12 C847.876,684.83 846.136,784.67 844.548,875.77 " fill="none" style="stroke: #A80036; stroke-width: 1.0;"/><path d="M882.278,1256.114 C910.807,1387.612 946.356,1551.474 961.663,1622.028 " fill="none" style="stroke: #A80036; stroke-width: 1.0;"/><polygon fill="#A80036" points="962.73,1626.945,964.7314,1617.3016,961.6702,1622.0586,956.9132,1618.9974,962.73,1626.945" style="stroke: #A80036; stroke-width: 1.0;"/><path d="M696.552,698.06 C716.164,747.79 741.154,811.17 764.826,871.2 " fill="none" style="stroke: #A80036; stroke-width: 1.0;"/><polygon fill="#A80036" points="766.673,875.88,767.1029,866.0405,764.8437,871.2267,759.6575,868.9674,766.673,875.88" style="stroke: #A80036; stroke-width: 1.0;"/><path d="M663.303,1709.517 C664.502,1781.252 676.4,1913.507 742.25,2000 C776.679,2045.221 835,2074.1671 880.818,2091.1207 " fill="none" style="stroke: #A80036; stroke-width: 1.0;"/><polygon fill="#A80036" points="885.775,2092.9263,878.6878,2086.0874,881.077,2091.2149,875.9495,2093.6041,885.775,2092.9263" style="stroke: #A80036; stroke-width: 1.0;"/><path d="M665.907,1709.77 C665.597,1782.113 654.804,1915.439 586.25,2000 C534.718,2063.565 438.592,2092.4256 384.956,2104.0929 " fill="none" style="stroke: #A80036; stroke-width: 1.0;"/><polygon fill="#A80036" points="379.901,2105.169,389.5367,2107.2067,384.7913,2104.1276,387.8705,2099.3822,379.901,2105.169" style="stroke: #A80036; stroke-width: 1.0;"/><path d="M1193.3,1696.22 C1188.16,1762.802 1169.65,1904.269 1103.25,2000 C1080.96,2032.143 1046.21,2058.266 1015.26,2077.0756 " fill="none" style="stroke: #A80036; stroke-width: 1.0;"/><polygon fill="#A80036" points="1010.72,2079.7976,1020.4956,2078.5988,1015.0079,2077.2259,1016.3809,2071.7382,1010.72,2079.7976" style="stroke: #A80036; stroke-width: 1.0;"/><path d="M828.365,1716.762 C840.096,1785.439 863.004,1902.968 896.25,2000 C902.586,2018.494 911.071,2038.008 919.347,2055.429 " fill="none" style="stroke: #A80036; stroke-width: 1.0;"/><polygon fill="#A80036" points="921.673,2060.284,921.393,2050.4391,919.5132,2055.7745,914.1779,2053.8947,921.673,2060.284" style="stroke: #A80036; stroke-width: 1.0;"/><path d="M447.368,321.47 C453.083,326.05 459.044,330.26 465.25,334 C553.193,386.94 855.545,316.85 923.25,394 C1045.2,532.97 986.003,755.01 922.428,905.25 " fill="none" style="stroke: #A80036; stroke-width: 1.0;"/><polygon fill="#A80036" points="920.355,910.12,927.5585,903.4036,922.312,905.5189,920.1967,900.2724,920.355,910.12" style="stroke: #A80036; stroke-width: 1.0;"/><path d="M447.522,314.54 C453.328,321.28 459.252,327.81 465.25,334 C495.92,365.67 515.412,360.65 544.25,394 C573.308,427.61 598.29,469.66 617.547,507.3 " fill="none" style="stroke: #A80036; stroke-width: 1.0;"/><polygon fill="#A80036" points="619.867,511.86,619.3457,502.0249,617.5973,507.4048,612.2174,505.6565,619.867,511.86" style="stroke: #A80036; stroke-width: 1.0;"/><path d="M350.25,333.78 C350.25,415.76 350.25,508.88 350.25,561.62 " fill="none" style="stroke: #A80036; stroke-width: 1.0;"/><polygon fill="#A80036" points="350.25,566.91,354.25,557.91,350.25,561.91,346.25,557.91,350.25,566.91" style="stroke: #A80036; stroke-width: 1.0;"/><path d="M253.189,315.5 C247.347,321.95 241.356,328.16 235.25,334 C199.705,368 166.522,351.22 142.25,394 C20.9247,607.86 83.923,924.86 109.86,1029.83 " fill="none" style="stroke: #A80036; stroke-width: 1.0;"/><polygon fill="#A80036" points="111.141,1034.96,112.863,1025.2628,109.9404,1030.1063,105.097,1027.1838,111.141,1034.96" style="stroke: #A80036; stroke-width: 1.0;"/><path d="M300.067,333.78 C283.618,386.82 265.722,444.51 250.706,492.92 " fill="none" style="stroke: #A80036; stroke-width: 1.0;"/><polygon fill="#A80036" points="249.169,497.87,255.6417,490.4468,250.6412,493.0917,247.9964,488.0912,249.169,497.87" style="stroke: #A80036; stroke-width: 1.0;"/><path d="M348.21,643.19 C339.693,804.72 308.635,1461.54 335.25,2000 C336.134,2017.879 337.813,2037.319 339.599,2054.861 " fill="none" style="stroke: #A80036; stroke-width: 1.0;"/><polygon fill="#A80036" points="340.156,2060.24,343.2092,2050.8764,339.6418,2055.2665,335.2516,2051.6991,340.156,2060.24" style="stroke: #A80036; stroke-width: 1.0;"/><path d="M193.813,712.17 C172.271,814.11 140.97,962.22 126.764,1029.45 " fill="none" style="stroke: #A80036; stroke-width: 1.0;"/><polygon fill="#A80036" points="125.689,1034.53,131.4549,1026.5454,126.7176,1029.6369,123.6261,1024.8996,125.689,1034.53" style="stroke: #A80036; stroke-width: 1.0;"/><path d="M217.328,712.14 C221.148,946.24 238.493,1523.903 317.25,2000 C320.266,2018.231 324.905,2037.827 329.594,2055.404 " fill="none" style="stroke: #A80036; stroke-width: 1.0;"/><polygon fill="#A80036" points="330.917,2060.305,332.4336,2050.5736,329.6141,2055.4777,324.71,2052.6582,330.917,2060.305" style="stroke: #A80036; stroke-width: 1.0;"/><path d="M1819.53,1152.79 C1835.8,1210.256 1858.24,1289.542 1880.51,1368.235 " fill="none" style="stroke: #A80036; stroke-width: 1.0;"/><polygon fill="#A80036" points="1881.98,1373.418,1883.3724,1363.6681,1880.6157,1368.6077,1875.676,1365.851,1881.98,1373.418" style="stroke: #A80036; stroke-width: 1.0;"/><path d="M1769.94,1152.69 C1756.3,1200.503 1739.75,1261.283 1727.25,1316 C1702.86,1422.75 1681.32,1549.947 1670.9,1614.649 " fill="none" style="stroke: #A80036; stroke-width: 1.0;"/><polygon fill="#A80036" points="1670.05,1619.955,1675.4249,1611.7021,1670.8419,1615.0181,1667.5259,1610.4351,1670.05,1619.955" style="stroke: #A80036; stroke-width: 1.0;"/><path d="M1795.25,1152.79 C1795.25,1281.21 1795.25,1518.603 1795.25,1614.836 " fill="none" style="stroke: #A80036; stroke-width: 1.0;"/><polygon fill="#A80036" points="1795.25,1619.864,1799.25,1610.864,1795.25,1614.864,1791.25,1610.864,1795.25,1619.864" style="stroke: #A80036; stroke-width: 1.0;"/><path d="M1808.48,1152.61 C1818.11,1188.83 1834.7,1228.838 1863.25,1256 C1929.56,1319.09 1999.58,1247.472 2060.25,1316 C2134.81,1400.218 2132.43,1543.512 2125.75,1614.521 " fill="none" style="stroke: #A80036; stroke-width: 1.0;"/><polygon fill="#A80036" points="2125.22,1619.921,2130.0811,1611.3554,2125.709,1614.945,2122.1194,1610.5729,2125.22,1619.921" style="stroke: #A80036; stroke-width: 1.0;"/><path d="M1437.3,1194.112 C1446.58,1233.149 1456.59,1276.284 1465.25,1316 C1487.1,1416.164 1509.88,1533.5 1522.75,1601.145 " fill="none" style="stroke: #A80036; stroke-width: 1.0;"/><polygon fill="#A80036" points="1523.73,1606.329,1525.9787,1596.7403,1522.7961,1601.417,1518.1194,1598.2345,1523.73,1606.329" style="stroke: #A80036; stroke-width: 1.0;"/><path d="M1398.7,1194.295 C1391.2,1320.634 1380.06,1508.425 1374.57,1601.109 " fill="none" style="stroke: #A80036; stroke-width: 1.0;"/><polygon fill="#A80036" points="1374.26,1606.262,1378.7884,1597.5159,1374.5575,1601.2709,1370.8025,1597.04,1374.26,1606.262" style="stroke: #A80036; stroke-width: 1.0;"/><path d="M479.174,1173.224 C455.649,1216.04 431.484,1266.862 417.25,1316 C339.484,1584.465 340.186,1923.413 343.982,2055.114 " fill="none" style="stroke: #A80036; stroke-width: 1.0;"/><polygon fill="#A80036" points="344.142,2060.47,347.8728,2051.3551,343.9934,2055.4722,339.8763,2051.5928,344.142,2060.47" style="stroke: #A80036; stroke-width: 1.0;"/><path d="M1300.77,628.32 C1216.4,667.76 1045.43,756.95 938.25,876 C933.137,881.68 928.217,887.68 923.491,893.9 " fill="none" style="stroke: #A80036; stroke-width: 1.0;"/><polygon fill="#A80036" points="920.25,898.25,928.834,893.4215,923.2367,894.2401,922.4182,888.6428,920.25,898.25" style="stroke: #A80036; stroke-width: 1.0;"/><path d="M1401.74,631.31 C1479.58,672.65 1629.18,761.64 1718.25,876 C1740.76,904.91 1757.65,941.3 1769.79,974.42 " fill="none" style="stroke: #A80036; stroke-width: 1.0;"/><polygon fill="#A80036" points="1771.55,979.28,1772.2503,969.4561,1769.8493,974.5781,1764.7273,972.1772,1771.55,979.28" style="stroke: #A80036; stroke-width: 1.0;"/><path d="M1300.78,648.88 C1244.59,698.78 1153.95,785.88 1095.25,876 C1068.13,917.64 1047.08,970.13 1033.55,1009.22 " fill="none" style="stroke: #A80036; stroke-width: 1.0;"/><polygon fill="#A80036" points="1031.78,1014.4,1038.4927,1007.1931,1033.4082,1009.6725,1030.9288,1004.588,1031.78,1014.4" style="stroke: #A80036; stroke-width: 1.0;"/><path d="M1401.62,712.08 C1425.22,761.84 1453.71,821.94 1479.25,876 C1503.15,926.58 1530.55,984.81 1548.57,1023.12 " fill="none" style="stroke: #A80036; stroke-width: 1.0;"/><polygon fill="#A80036" points="1550.72,1027.69,1550.5116,1017.8433,1548.5931,1023.1649,1543.2715,1021.2464,1550.72,1027.69" style="stroke: #A80036; stroke-width: 1.0;"/><path d="M1401.67,632.19 C1474.1,673.02 1604.65,759.44 1657.25,876 C1726.72,1029.94 1718.48,1098.6 1657.25,1256 C1644.14,1289.714 1618.66,1283.76 1602.25,1316 C1555.12,1408.597 1540.17,1530.72 1535.44,1600.88 " fill="none" style="stroke: #A80036; stroke-width: 1.0;"/><polygon fill="#A80036" points="1535.09,1606.256,1539.6657,1597.5346,1535.4145,1601.2665,1531.6826,1597.0154,1535.09,1606.256" style="stroke: #A80036; stroke-width: 1.0;"/><path d="M1335.86,816.34 C1334.8,836.5 1333.89,856.63 1333.25,876 C1327.63,1044.8 1325.27,1087.3 1333.25,1256 C1339.1,1379.716 1355.04,1524.184 1364.31,1601.475 " fill="none" style="stroke: #A80036; stroke-width: 1.0;"/><polygon fill="#A80036" points="1364.92,1606.468,1367.8155,1597.0544,1364.3223,1601.5039,1359.8728,1598.0107,1364.92,1606.468" style="stroke: #A80036; stroke-width: 1.0;"/><path d="M1376.42,816.02 C1381.16,855.62 1386,896 1390.36,932.39 " fill="none" style="stroke: #A80036; stroke-width: 1.0;"/><polygon fill="#A80036" points="1391,937.73,1393.8896,928.3146,1390.3992,932.7662,1385.9475,929.2759,1391,937.73" style="stroke: #A80036; stroke-width: 1.0;"/><path d="M1401.81,620.3 C1502.4,651.13 1729.41,732.87 1863.25,876 C1907.14,922.94 1930.72,996.62 1940.93,1036.71 " fill="none" style="stroke: #A80036; stroke-width: 1.0;"/><polygon fill="#A80036" points="1942.23,1041.9,1943.921,1032.1974,1941.014,1037.0501,1936.1612,1034.1431,1942.23,1041.9" style="stroke: #A80036; stroke-width: 1.0;"/><path d="M1300.98,739.38 C1266.02,832.12 1221.44,950.42 1196.77,1015.86 " fill="none" style="stroke: #A80036; stroke-width: 1.0;"/><polygon fill="#A80036" points="1194.88,1020.87,1201.8112,1013.873,1196.6528,1016.1948,1194.331,1011.0365,1194.88,1020.87" style="stroke: #A80036; stroke-width: 1.0;"/><path d="M1300.87,633.45 C1221.86,675.87 1063.35,758.44 923.25,816 C845.638,847.88 816.151,832.75 744.25,876 C700.325,902.42 658.175,940.01 624.065,974.72 " fill="none" style="stroke: #A80036; stroke-width: 1.0;"/><polygon fill="#A80036" points="620.368,978.5,629.522,974.8663,623.8655,974.9268,623.805,969.2703,620.368,978.5" style="stroke: #A80036; stroke-width: 1.0;"/></g></svg>