<?xml version="1.0" encoding="UTF-8" standalone="yes"?><svg xmlns="http://www.w3.org/2000/svg" xmlns:xlink="http://www.w3.org/1999/xlink" height="2442pt" style="width:2550px;height:2442px;" version="1.1" viewBox="0 0 2550 2442" width="2550pt"><defs><filter height="300%" id="f1" width="300%" x="-1" y="-1"><feGaussianBlur result="blurOut" stdDeviation="2"/><feColorMatrix in="blurOut" result="blurOut2" type="matrix" values="0 0 0 0 0 0 0 0 0 0 0 0 0 0 0 0 0 0 .4 0"/><feOffset dx="4" dy="4" in="blurOut2" result="blurOut3"/><feBlend in="SourceGraphic" in2="blurOut3" mode="normal"/></filter></defs><g><rect fill="#FFF8DC" filter="url(#f1)" height="48" style="stroke: #2E8B57; stroke-width: 1.5;" width="106" x="6" y="188"/><ellipse cx="21" cy="204" fill="#ADD1B2" rx="11" ry="11" style="stroke: #2E8B57; stroke-width: 1.0;"/><path d="M23.7656,199.875 Q23.9219,199.6563 24.1094,199.5469 Q24.2969,199.4375 24.5156,199.4375 Q24.8906,199.4375 25.125,199.6953 Q25.3594,199.9531 25.3594,200.5625 L25.3594,202.0156 Q25.3594,202.625 25.125,202.8906 Q24.8906,203.1563 24.5156,203.1563 Q24.1719,203.1563 23.9688,202.9531 Q23.7656,202.7656 23.6563,202.25 Q23.6094,201.8906 23.4219,201.7031 Q23.0938,201.3281 22.4844,201.1094 Q21.875,200.8906 21.25,200.8906 Q20.4844,200.8906 19.8516,201.2188 Q19.2188,201.5469 18.7266,202.2969 Q18.2344,203.0469 18.2344,204.0781 L18.2344,205.1719 Q18.2344,206.4063 19.125,207.2266 Q20.0156,208.0469 21.6094,208.0469 Q22.5469,208.0469 23.2031,207.7969 Q23.5938,207.6406 24.0156,207.2031 Q24.2813,206.9375 24.4297,206.8594 Q24.5781,206.7813 24.7813,206.7813 Q25.1094,206.7813 25.3672,207.0391 Q25.625,207.2969 25.625,207.6406 Q25.625,207.9844 25.2813,208.3906 Q24.7813,208.9688 23.9844,209.2969 Q22.9063,209.75 21.6094,209.75 Q20.0938,209.75 18.8906,209.125 Q17.9063,208.625 17.2188,207.5547 Q16.5313,206.4844 16.5313,205.2031 L16.5313,204.0469 Q16.5313,202.7188 17.1484,201.5703 Q17.7656,200.4219 18.8594,199.8047 Q19.9531,199.1875 21.1875,199.1875 Q21.9219,199.1875 22.5703,199.3516 Q23.2188,199.5156 23.7656,199.875 Z "/><text fill="#000000" font-size="12" lengthAdjust="spacingAndGlyphs" textLength="74" x="35" y="208.4531">EARootClass</text><line style="stroke: #2E8B57; stroke-width: 1.5;" x1="7" x2="111" y1="220" y2="220"/><line style="stroke: #2E8B57; stroke-width: 1.5;" x1="7" x2="111" y1="228" y2="228"/><rect fill="#FFF8DC" filter="url(#f1)" height="75.6719" style="stroke: #2E8B57; stroke-width: 1.5;" width="151" x="414.75" y="1200"/><ellipse cx="436.05" cy="1216" fill="#ADD1B2" rx="11" ry="11" style="stroke: #2E8B57; stroke-width: 1.0;"/><path d="M438.8156,1211.875 Q438.9719,1211.6563 439.1594,1211.5469 Q439.3469,1211.4375 439.5656,1211.4375 Q439.9406,1211.4375 440.175,1211.6953 Q440.4094,1211.9531 440.4094,1212.5625 L440.4094,1214.0156 Q440.4094,1214.625 440.175,1214.8906 Q439.9406,1215.1563 439.5656,1215.1563 Q439.2219,1215.1563 439.0188,1214.9531 Q438.8156,1214.7656 438.7063,1214.25 Q438.6594,1213.8906 438.4719,1213.7031 Q438.1438,1213.3281 437.5344,1213.1094 Q436.925,1212.8906 436.3,1212.8906 Q435.5344,1212.8906 434.9016,1213.2188 Q434.2688,1213.5469 433.7766,1214.2969 Q433.2844,1215.0469 433.2844,1216.0781 L433.2844,1217.1719 Q433.2844,1218.4063 434.175,1219.2266 Q435.0656,1220.0469 436.6594,1220.0469 Q437.5969,1220.0469 438.2531,1219.7969 Q438.6438,1219.6406 439.0656,1219.2031 Q439.3313,1218.9375 439.4797,1218.8594 Q439.6281,1218.7813 439.8313,1218.7813 Q440.1594,1218.7813 440.4172,1219.0391 Q440.675,1219.2969 440.675,1219.6406 Q440.675,1219.9844 440.3313,1220.3906 Q439.8313,1220.9688 439.0344,1221.2969 Q437.9563,1221.75 436.6594,1221.75 Q435.1438,1221.75 433.9406,1221.125 Q432.9563,1220.625 432.2688,1219.5547 Q431.5813,1218.4844 431.5813,1217.2031 L431.5813,1216.0469 Q431.5813,1214.7188 432.1984,1213.5703 Q432.8156,1212.4219 433.9094,1211.8047 Q435.0031,1211.1875 436.2375,1211.1875 Q436.9719,1211.1875 437.6203,1211.3516 Q438.2688,1211.5156 438.8156,1211.875 Z "/><text fill="#000000" font-size="12" lengthAdjust="spacingAndGlyphs" textLength="105" x="451.45" y="1220.4531">AccountInformation</text><line style="stroke: #2E8B57; stroke-width: 1.5;" x1="415.75" x2="564.75" y1="1232" y2="1232"/><text fill="#000000" font-size="11" lengthAdjust="spacingAndGlyphs" textLength="92" x="420.75" y="1247">ACCOUNT_NAMES</text><text fill="#000000" font-size="11" lengthAdjust="spacingAndGlyphs" textLength="139" x="420.75" y="1260.8359">ACCOUNT_ABBREVIATIONS</text><line style="stroke: #2E8B57; stroke-width: 1.5;" x1="415.75" x2="564.75" y1="1267.6719" y2="1267.6719"/><rect fill="#FFF8DC" filter="url(#f1)" height="131.0156" style="stroke: #2E8B57; stroke-width: 1.5;" width="84" x="1633" y="2069.5"/><ellipse cx="1648" cy="2085.5" fill="#ADD1B2" rx="11" ry="11" style="stroke: #2E8B57; stroke-width: 1.0;"/><path d="M1650.7656,2081.375 Q1650.9219,2081.1563 1651.1094,2081.0469 Q1651.2969,2080.9375 1651.5156,2080.9375 Q1651.8906,2080.9375 1652.125,2081.1953 Q1652.3594,2081.4531 1652.3594,2082.0625 L1652.3594,2083.5156 Q1652.3594,2084.125 1652.125,2084.3906 Q1651.8906,2084.6563 1651.5156,2084.6563 Q1651.1719,2084.6563 1650.9688,2084.4531 Q1650.7656,2084.2656 1650.6563,2083.75 Q1650.6094,2083.3906 1650.4219,2083.2031 Q1650.0938,2082.8281 1649.4844,2082.6094 Q1648.875,2082.3906 1648.25,2082.3906 Q1647.4844,2082.3906 1646.8516,2082.7188 Q1646.2188,2083.0469 1645.7266,2083.7969 Q1645.2344,2084.5469 1645.2344,2085.5781 L1645.2344,2086.6719 Q1645.2344,2087.9063 1646.125,2088.7266 Q1647.0156,2089.5469 1648.6094,2089.5469 Q1649.5469,2089.5469 1650.2031,2089.2969 Q1650.5938,2089.1406 1651.0156,2088.7031 Q1651.2813,2088.4375 1651.4297,2088.3594 Q1651.5781,2088.2813 1651.7813,2088.2813 Q1652.1094,2088.2813 1652.3672,2088.5391 Q1652.625,2088.7969 1652.625,2089.1406 Q1652.625,2089.4844 1652.2813,2089.8906 Q1651.7813,2090.4688 1650.9844,2090.7969 Q1649.9063,2091.25 1648.6094,2091.25 Q1647.0938,2091.25 1645.8906,2090.625 Q1644.9063,2090.125 1644.2188,2089.0547 Q1643.5313,2087.9844 1643.5313,2086.7031 L1643.5313,2085.5469 Q1643.5313,2084.2188 1644.1484,2083.0703 Q1644.7656,2081.9219 1645.8594,2081.3047 Q1646.9531,2080.6875 1648.1875,2080.6875 Q1648.9219,2080.6875 1649.5703,2080.8516 Q1650.2188,2081.0156 1650.7656,2081.375 Z "/><text fill="#000000" font-size="12" lengthAdjust="spacingAndGlyphs" textLength="52" x="1662" y="2089.9531">Balances</text><line style="stroke: #2E8B57; stroke-width: 1.5;" x1="1634" x2="1716" y1="2101.5" y2="2101.5"/><text fill="#000000" font-size="11" lengthAdjust="spacingAndGlyphs" textLength="20" x="1639" y="2116.5">total</text><text fill="#000000" font-size="11" lengthAdjust="spacingAndGlyphs" textLength="42" x="1639" y="2130.3359">available</text><line style="stroke: #2E8B57; stroke-width: 1.5;" x1="1634" x2="1716" y1="2137.1719" y2="2137.1719"/><text fill="#000000" font-size="11" lengthAdjust="spacingAndGlyphs" textLength="53" x="1639" y="2152.1719">Balances()</text><text fill="#000000" font-size="11" lengthAdjust="spacingAndGlyphs" textLength="68" x="1639" y="2166.0078">setBalances()</text><text fill="#000000" font-size="11" lengthAdjust="spacingAndGlyphs" textLength="46" x="1639" y="2179.8438">getTotal()</text><text fill="#000000" font-size="11" lengthAdjust="spacingAndGlyphs" textLength="67" x="1639" y="2193.6797">getAvailable()</text><rect fill="#FFF8DC" filter="url(#f1)" height="89.5078" style="stroke: #2E8B57; stroke-width: 1.5;" width="72" x="1036" y="1460"/><ellipse cx="1056.85" cy="1476" fill="#ADD1B2" rx="11" ry="11" style="stroke: #2E8B57; stroke-width: 1.0;"/><path d="M1059.6156,1471.875 Q1059.7719,1471.6563 1059.9594,1471.5469 Q1060.1469,1471.4375 1060.3656,1471.4375 Q1060.7406,1471.4375 1060.975,1471.6953 Q1061.2094,1471.9531 1061.2094,1472.5625 L1061.2094,1474.0156 Q1061.2094,1474.625 1060.975,1474.8906 Q1060.7406,1475.1563 1060.3656,1475.1563 Q1060.0219,1475.1563 1059.8188,1474.9531 Q1059.6156,1474.7656 1059.5063,1474.25 Q1059.4594,1473.8906 1059.2719,1473.7031 Q1058.9438,1473.3281 1058.3344,1473.1094 Q1057.725,1472.8906 1057.1,1472.8906 Q1056.3344,1472.8906 1055.7016,1473.2188 Q1055.0688,1473.5469 1054.5766,1474.2969 Q1054.0844,1475.0469 1054.0844,1476.0781 L1054.0844,1477.1719 Q1054.0844,1478.4063 1054.975,1479.2266 Q1055.8656,1480.0469 1057.4594,1480.0469 Q1058.3969,1480.0469 1059.0531,1479.7969 Q1059.4438,1479.6406 1059.8656,1479.2031 Q1060.1313,1478.9375 1060.2797,1478.8594 Q1060.4281,1478.7813 1060.6313,1478.7813 Q1060.9594,1478.7813 1061.2172,1479.0391 Q1061.475,1479.2969 1061.475,1479.6406 Q1061.475,1479.9844 1061.1313,1480.3906 Q1060.6313,1480.9688 1059.8344,1481.2969 Q1058.7563,1481.75 1057.4594,1481.75 Q1055.9438,1481.75 1054.7406,1481.125 Q1053.7563,1480.625 1053.0688,1479.5547 Q1052.3813,1478.4844 1052.3813,1477.2031 L1052.3813,1476.0469 Q1052.3813,1474.7188 1052.9984,1473.5703 Q1053.6156,1472.4219 1054.7094,1471.8047 Q1055.8031,1471.1875 1057.0375,1471.1875 Q1057.7719,1471.1875 1058.4203,1471.3516 Q1059.0688,1471.5156 1059.6156,1471.875 Z "/><text fill="#000000" font-size="12" lengthAdjust="spacingAndGlyphs" textLength="27" x="1072.15" y="1480.4531">Card</text><line style="stroke: #2E8B57; stroke-width: 1.5;" x1="1037" x2="1107" y1="1492" y2="1492"/><text fill="#000000" font-size="11" lengthAdjust="spacingAndGlyphs" textLength="36" x="1042" y="1507">number</text><line style="stroke: #2E8B57; stroke-width: 1.5;" x1="1037" x2="1107" y1="1513.8359" y2="1513.8359"/><text fill="#000000" font-size="11" lengthAdjust="spacingAndGlyphs" textLength="31" x="1042" y="1528.8359">Card()</text><text fill="#000000" font-size="11" lengthAdjust="spacingAndGlyphs" textLength="60" x="1042" y="1542.6719">getNumber()</text><rect fill="#FFF8DC" filter="url(#f1)" height="352.3906" style="stroke: #2E8B57; stroke-width: 1.5;" width="113" x="1730.75" y="1644"/><ellipse cx="1759.25" cy="1660" fill="#ADD1B2" rx="11" ry="11" style="stroke: #2E8B57; stroke-width: 1.0;"/><path d="M1762.0156,1655.875 Q1762.1719,1655.6563 1762.3594,1655.5469 Q1762.5469,1655.4375 1762.7656,1655.4375 Q1763.1406,1655.4375 1763.375,1655.6953 Q1763.6094,1655.9531 1763.6094,1656.5625 L1763.6094,1658.0156 Q1763.6094,1658.625 1763.375,1658.8906 Q1763.1406,1659.1563 1762.7656,1659.1563 Q1762.4219,1659.1563 1762.2188,1658.9531 Q1762.0156,1658.7656 1761.9063,1658.25 Q1761.8594,1657.8906 1761.6719,1657.7031 Q1761.3438,1657.3281 1760.7344,1657.1094 Q1760.125,1656.8906 1759.5,1656.8906 Q1758.7344,1656.8906 1758.1016,1657.2188 Q1757.4688,1657.5469 1756.9766,1658.2969 Q1756.4844,1659.0469 1756.4844,1660.0781 L1756.4844,1661.1719 Q1756.4844,1662.4063 1757.375,1663.2266 Q1758.2656,1664.0469 1759.8594,1664.0469 Q1760.7969,1664.0469 1761.4531,1663.7969 Q1761.8438,1663.6406 1762.2656,1663.2031 Q1762.5313,1662.9375 1762.6797,1662.8594 Q1762.8281,1662.7813 1763.0313,1662.7813 Q1763.3594,1662.7813 1763.6172,1663.0391 Q1763.875,1663.2969 1763.875,1663.6406 Q1763.875,1663.9844 1763.5313,1664.3906 Q1763.0313,1664.9688 1762.2344,1665.2969 Q1761.1563,1665.75 1759.8594,1665.75 Q1758.3438,1665.75 1757.1406,1665.125 Q1756.1563,1664.625 1755.4688,1663.5547 Q1754.7813,1662.4844 1754.7813,1661.2031 L1754.7813,1660.0469 Q1754.7813,1658.7188 1755.3984,1657.5703 Q1756.0156,1656.4219 1757.1094,1655.8047 Q1758.2031,1655.1875 1759.4375,1655.1875 Q1760.1719,1655.1875 1760.8203,1655.3516 Q1761.4688,1655.5156 1762.0156,1655.875 Z "/><text fill="#000000" font-size="12" lengthAdjust="spacingAndGlyphs" textLength="51" x="1776.25" y="1664.4531">Message</text><line style="stroke: #2E8B57; stroke-width: 1.5;" x1="1731.75" x2="1842.75" y1="1676" y2="1676"/><text fill="#000000" font-size="11" lengthAdjust="spacingAndGlyphs" textLength="71" x="1736.75" y="1691">WITHDRAWAL</text><text fill="#000000" font-size="11" lengthAdjust="spacingAndGlyphs" textLength="87" x="1736.75" y="1704.8359">INITIATE_DEPOSIT</text><text fill="#000000" font-size="11" lengthAdjust="spacingAndGlyphs" textLength="101" x="1736.75" y="1718.6719">COMPLETE_DEPOSIT</text><text fill="#000000" font-size="11" lengthAdjust="spacingAndGlyphs" textLength="54" x="1736.75" y="1732.5078">TRANSFER</text><text fill="#000000" font-size="11" lengthAdjust="spacingAndGlyphs" textLength="41" x="1736.75" y="1746.3438">INQUIRY</text><text fill="#000000" font-size="11" lengthAdjust="spacingAndGlyphs" textLength="69" x="1736.75" y="1760.1797">messageCode</text><text fill="#000000" font-size="11" lengthAdjust="spacingAndGlyphs" textLength="22" x="1736.75" y="1774.0156">card</text><text fill="#000000" font-size="11" lengthAdjust="spacingAndGlyphs" textLength="14" x="1736.75" y="1787.8516">pin</text><text fill="#000000" font-size="11" lengthAdjust="spacingAndGlyphs" textLength="63" x="1736.75" y="1801.6875">serialNumber</text><text fill="#000000" font-size="11" lengthAdjust="spacingAndGlyphs" textLength="63" x="1736.75" y="1815.5234">fromAccount</text><text fill="#000000" font-size="11" lengthAdjust="spacingAndGlyphs" textLength="50" x="1736.75" y="1829.3594">toAccount</text><text fill="#000000" font-size="11" lengthAdjust="spacingAndGlyphs" textLength="35" x="1736.75" y="1843.1953">amount</text><line style="stroke: #2E8B57; stroke-width: 1.5;" x1="1731.75" x2="1842.75" y1="1850.0313" y2="1850.0313"/><text fill="#000000" font-size="11" lengthAdjust="spacingAndGlyphs" textLength="52" x="1736.75" y="1865.0313">Message()</text><text fill="#000000" font-size="11" lengthAdjust="spacingAndGlyphs" textLength="45" x="1736.75" y="1878.8672">toString()</text><text fill="#000000" font-size="11" lengthAdjust="spacingAndGlyphs" textLength="38" x="1736.75" y="1892.7031">setPIN()</text><text fill="#000000" font-size="11" lengthAdjust="spacingAndGlyphs" textLength="92" x="1736.75" y="1906.5391">getMessageCode()</text><text fill="#000000" font-size="11" lengthAdjust="spacingAndGlyphs" textLength="46" x="1736.75" y="1920.375">getCard()</text><text fill="#000000" font-size="11" lengthAdjust="spacingAndGlyphs" textLength="38" x="1736.75" y="1934.2109">getPIN()</text><text fill="#000000" font-size="11" lengthAdjust="spacingAndGlyphs" textLength="87" x="1736.75" y="1948.0469">getSerialNumber()</text><text fill="#000000" font-size="11" lengthAdjust="spacingAndGlyphs" textLength="88" x="1736.75" y="1961.8828">getFromAccount()</text><text fill="#000000" font-size="11" lengthAdjust="spacingAndGlyphs" textLength="76" x="1736.75" y="1975.7188">getToAccount()</text><text fill="#000000" font-size="11" lengthAdjust="spacingAndGlyphs" textLength="60" x="1736.75" y="1989.5547">getAmount()</text><rect fill="#FFF8DC" filter="url(#f1)" height="158.6875" style="stroke: #2E8B57; stroke-width: 1.5;" width="67" x="1890.75" y="2274.5"/><ellipse cx="1905.75" cy="2290.5" fill="#ADD1B2" rx="11" ry="11" style="stroke: #2E8B57; stroke-width: 1.0;"/><path d="M1908.5156,2286.375 Q1908.6719,2286.1563 1908.8594,2286.0469 Q1909.0469,2285.9375 1909.2656,2285.9375 Q1909.6406,2285.9375 1909.875,2286.1953 Q1910.1094,2286.4531 1910.1094,2287.0625 L1910.1094,2288.5156 Q1910.1094,2289.125 1909.875,2289.3906 Q1909.6406,2289.6563 1909.2656,2289.6563 Q1908.9219,2289.6563 1908.7188,2289.4531 Q1908.5156,2289.2656 1908.4063,2288.75 Q1908.3594,2288.3906 1908.1719,2288.2031 Q1907.8438,2287.8281 1907.2344,2287.6094 Q1906.625,2287.3906 1906,2287.3906 Q1905.2344,2287.3906 1904.6016,2287.7188 Q1903.9688,2288.0469 1903.4766,2288.7969 Q1902.9844,2289.5469 1902.9844,2290.5781 L1902.9844,2291.6719 Q1902.9844,2292.9063 1903.875,2293.7266 Q1904.7656,2294.5469 1906.3594,2294.5469 Q1907.2969,2294.5469 1907.9531,2294.2969 Q1908.3438,2294.1406 1908.7656,2293.7031 Q1909.0313,2293.4375 1909.1797,2293.3594 Q1909.3281,2293.2813 1909.5313,2293.2813 Q1909.8594,2293.2813 1910.1172,2293.5391 Q1910.375,2293.7969 1910.375,2294.1406 Q1910.375,2294.4844 1910.0313,2294.8906 Q1909.5313,2295.4688 1908.7344,2295.7969 Q1907.6563,2296.25 1906.3594,2296.25 Q1904.8438,2296.25 1903.6406,2295.625 Q1902.6563,2295.125 1901.9688,2294.0547 Q1901.2813,2292.9844 1901.2813,2291.7031 L1901.2813,2290.5469 Q1901.2813,2289.2188 1901.8984,2288.0703 Q1902.5156,2286.9219 1903.6094,2286.3047 Q1904.7031,2285.6875 1905.9375,2285.6875 Q1906.6719,2285.6875 1907.3203,2285.8516 Q1907.9688,2286.0156 1908.5156,2286.375 Z "/><text fill="#000000" font-size="12" lengthAdjust="spacingAndGlyphs" textLength="35" x="1919.75" y="2294.9531">Money</text><line style="stroke: #2E8B57; stroke-width: 1.5;" x1="1891.75" x2="1956.75" y1="2306.5" y2="2306.5"/><text fill="#000000" font-size="11" lengthAdjust="spacingAndGlyphs" textLength="27" x="1896.75" y="2321.5">cents</text><line style="stroke: #2E8B57; stroke-width: 1.5;" x1="1891.75" x2="1956.75" y1="2328.3359" y2="2328.3359"/><text fill="#000000" font-size="11" lengthAdjust="spacingAndGlyphs" textLength="40" x="1896.75" y="2343.3359">Money()</text><text fill="#000000" font-size="11" lengthAdjust="spacingAndGlyphs" textLength="40" x="1896.75" y="2357.1719">Money()</text><text fill="#000000" font-size="11" lengthAdjust="spacingAndGlyphs" textLength="40" x="1896.75" y="2371.0078">Money()</text><text fill="#000000" font-size="11" lengthAdjust="spacingAndGlyphs" textLength="45" x="1896.75" y="2384.8438">toString()</text><text fill="#000000" font-size="11" lengthAdjust="spacingAndGlyphs" textLength="26" x="1896.75" y="2398.6797">add()</text><text fill="#000000" font-size="11" lengthAdjust="spacingAndGlyphs" textLength="48" x="1896.75" y="2412.5156">subtract()</text><text fill="#000000" font-size="11" lengthAdjust="spacingAndGlyphs" textLength="54" x="1896.75" y="2426.3516">lessEqual()</text><rect fill="#FFF8DC" filter="url(#f1)" height="117.1797" style="stroke: #2E8B57; stroke-width: 1.5;" width="89" x="1403.75" y="1761.5"/><ellipse cx="1425.5" cy="1777.5" fill="#ADD1B2" rx="11" ry="11" style="stroke: #2E8B57; stroke-width: 1.0;"/><path d="M1428.2656,1773.375 Q1428.4219,1773.1563 1428.6094,1773.0469 Q1428.7969,1772.9375 1429.0156,1772.9375 Q1429.3906,1772.9375 1429.625,1773.1953 Q1429.8594,1773.4531 1429.8594,1774.0625 L1429.8594,1775.5156 Q1429.8594,1776.125 1429.625,1776.3906 Q1429.3906,1776.6563 1429.0156,1776.6563 Q1428.6719,1776.6563 1428.4688,1776.4531 Q1428.2656,1776.2656 1428.1563,1775.75 Q1428.1094,1775.3906 1427.9219,1775.2031 Q1427.5938,1774.8281 1426.9844,1774.6094 Q1426.375,1774.3906 1425.75,1774.3906 Q1424.9844,1774.3906 1424.3516,1774.7188 Q1423.7188,1775.0469 1423.2266,1775.7969 Q1422.7344,1776.5469 1422.7344,1777.5781 L1422.7344,1778.6719 Q1422.7344,1779.9063 1423.625,1780.7266 Q1424.5156,1781.5469 1426.1094,1781.5469 Q1427.0469,1781.5469 1427.7031,1781.2969 Q1428.0938,1781.1406 1428.5156,1780.7031 Q1428.7813,1780.4375 1428.9297,1780.3594 Q1429.0781,1780.2813 1429.2813,1780.2813 Q1429.6094,1780.2813 1429.8672,1780.5391 Q1430.125,1780.7969 1430.125,1781.1406 Q1430.125,1781.4844 1429.7813,1781.8906 Q1429.2813,1782.4688 1428.4844,1782.7969 Q1427.4063,1783.25 1426.1094,1783.25 Q1424.5938,1783.25 1423.3906,1782.625 Q1422.4063,1782.125 1421.7188,1781.0547 Q1421.0313,1779.9844 1421.0313,1778.7031 L1421.0313,1777.5469 Q1421.0313,1776.2188 1421.6484,1775.0703 Q1422.2656,1773.9219 1423.3594,1773.3047 Q1424.4531,1772.6875 1425.6875,1772.6875 Q1426.4219,1772.6875 1427.0703,1772.8516 Q1427.7188,1773.0156 1428.2656,1773.375 Z "/><text fill="#000000" font-size="12" lengthAdjust="spacingAndGlyphs" textLength="42" x="1441" y="1781.9531">Receipt</text><line style="stroke: #2E8B57; stroke-width: 1.5;" x1="1404.75" x2="1491.75" y1="1793.5" y2="1793.5"/><text fill="#000000" font-size="11" lengthAdjust="spacingAndGlyphs" textLength="71" x="1409.75" y="1808.5">headingPortion</text><text fill="#000000" font-size="11" lengthAdjust="spacingAndGlyphs" textLength="64" x="1409.75" y="1822.3359">detailsPortion</text><text fill="#000000" font-size="11" lengthAdjust="spacingAndGlyphs" textLength="77" x="1409.75" y="1836.1719">balancesPortion</text><line style="stroke: #2E8B57; stroke-width: 1.5;" x1="1404.75" x2="1491.75" y1="1843.0078" y2="1843.0078"/><text fill="#000000" font-size="11" lengthAdjust="spacingAndGlyphs" textLength="44" x="1409.75" y="1858.0078">Receipt()</text><text fill="#000000" font-size="11" lengthAdjust="spacingAndGlyphs" textLength="49" x="1409.75" y="1871.8438">getLines()</text><rect fill="#FFF8DC" filter="url(#f1)" height="103.3438" style="stroke: #2E8B57; stroke-width: 1.5;" width="79" x="1616.75" y="1768.5"/><ellipse cx="1637.15" cy="1784.5" fill="#ADD1B2" rx="11" ry="11" style="stroke: #2E8B57; stroke-width: 1.0;"/><path d="M1639.9156,1780.375 Q1640.0719,1780.1563 1640.2594,1780.0469 Q1640.4469,1779.9375 1640.6656,1779.9375 Q1641.0406,1779.9375 1641.275,1780.1953 Q1641.5094,1780.4531 1641.5094,1781.0625 L1641.5094,1782.5156 Q1641.5094,1783.125 1641.275,1783.3906 Q1641.0406,1783.6563 1640.6656,1783.6563 Q1640.3219,1783.6563 1640.1188,1783.4531 Q1639.9156,1783.2656 1639.8063,1782.75 Q1639.7594,1782.3906 1639.5719,1782.2031 Q1639.2438,1781.8281 1638.6344,1781.6094 Q1638.025,1781.3906 1637.4,1781.3906 Q1636.6344,1781.3906 1636.0016,1781.7188 Q1635.3688,1782.0469 1634.8766,1782.7969 Q1634.3844,1783.5469 1634.3844,1784.5781 L1634.3844,1785.6719 Q1634.3844,1786.9063 1635.275,1787.7266 Q1636.1656,1788.5469 1637.7594,1788.5469 Q1638.6969,1788.5469 1639.3531,1788.2969 Q1639.7438,1788.1406 1640.1656,1787.7031 Q1640.4313,1787.4375 1640.5797,1787.3594 Q1640.7281,1787.2813 1640.9313,1787.2813 Q1641.2594,1787.2813 1641.5172,1787.5391 Q1641.775,1787.7969 1641.775,1788.1406 Q1641.775,1788.4844 1641.4313,1788.8906 Q1640.9313,1789.4688 1640.1344,1789.7969 Q1639.0563,1790.25 1637.7594,1790.25 Q1636.2438,1790.25 1635.0406,1789.625 Q1634.0563,1789.125 1633.3688,1788.0547 Q1632.6813,1786.9844 1632.6813,1785.7031 L1632.6813,1784.5469 Q1632.6813,1783.2188 1633.2984,1782.0703 Q1633.9156,1780.9219 1635.0094,1780.3047 Q1636.1031,1779.6875 1637.3375,1779.6875 Q1638.0719,1779.6875 1638.7203,1779.8516 Q1639.3688,1780.0156 1639.9156,1780.375 Z "/><text fill="#000000" font-size="12" lengthAdjust="spacingAndGlyphs" textLength="35" x="1652.35" y="1788.9531">Status</text><line style="stroke: #2E8B57; stroke-width: 1.5;" x1="1617.75" x2="1694.75" y1="1800.5" y2="1800.5"/><line style="stroke: #2E8B57; stroke-width: 1.5;" x1="1617.75" x2="1694.75" y1="1808.5" y2="1808.5"/><text fill="#000000" font-size="11" lengthAdjust="spacingAndGlyphs" textLength="45" x="1622.75" y="1823.5">toString()</text><text fill="#000000" font-size="11" lengthAdjust="spacingAndGlyphs" textLength="59" x="1622.75" y="1837.3359">isSuccess()</text><text fill="#000000" font-size="11" lengthAdjust="spacingAndGlyphs" textLength="61" x="1622.75" y="1851.1719">isInvalidPIN()</text><text fill="#000000" font-size="11" lengthAdjust="spacingAndGlyphs" textLength="67" x="1622.75" y="1865.0078">getMessage()</text><rect fill="#FFF8DC" filter="url(#f1)" height="532.2578" style="stroke: #2E8B57; stroke-width: 1.5;" width="158" x="1592" y="498"/><ellipse cx="1655.25" cy="514" fill="#ADD1B2" rx="11" ry="11" style="stroke: #2E8B57; stroke-width: 1.0;"/><path d="M1658.0156,509.875 Q1658.1719,509.6563 1658.3594,509.5469 Q1658.5469,509.4375 1658.7656,509.4375 Q1659.1406,509.4375 1659.375,509.6953 Q1659.6094,509.9531 1659.6094,510.5625 L1659.6094,512.0156 Q1659.6094,512.625 1659.375,512.8906 Q1659.1406,513.1563 1658.7656,513.1563 Q1658.4219,513.1563 1658.2188,512.9531 Q1658.0156,512.7656 1657.9063,512.25 Q1657.8594,511.8906 1657.6719,511.7031 Q1657.3438,511.3281 1656.7344,511.1094 Q1656.125,510.8906 1655.5,510.8906 Q1654.7344,510.8906 1654.1016,511.2188 Q1653.4688,511.5469 1652.9766,512.2969 Q1652.4844,513.0469 1652.4844,514.0781 L1652.4844,515.1719 Q1652.4844,516.4063 1653.375,517.2266 Q1654.2656,518.0469 1655.8594,518.0469 Q1656.7969,518.0469 1657.4531,517.7969 Q1657.8438,517.6406 1658.2656,517.2031 Q1658.5313,516.9375 1658.6797,516.8594 Q1658.8281,516.7813 1659.0313,516.7813 Q1659.3594,516.7813 1659.6172,517.0391 Q1659.875,517.2969 1659.875,517.6406 Q1659.875,517.9844 1659.5313,518.3906 Q1659.0313,518.9688 1658.2344,519.2969 Q1657.1563,519.75 1655.8594,519.75 Q1654.3438,519.75 1653.1406,519.125 Q1652.1563,518.625 1651.4688,517.5547 Q1650.7813,516.4844 1650.7813,515.2031 L1650.7813,514.0469 Q1650.7813,512.7188 1651.3984,511.5703 Q1652.0156,510.4219 1653.1094,509.8047 Q1654.2031,509.1875 1655.4375,509.1875 Q1656.1719,509.1875 1656.8203,509.3516 Q1657.4688,509.5156 1658.0156,509.875 Z "/><text fill="#000000" font-size="12" lengthAdjust="spacingAndGlyphs" textLength="23" x="1675.75" y="518.4531">ATM</text><line style="stroke: #2E8B57; stroke-width: 1.5;" x1="1593" x2="1749" y1="530" y2="530"/><text fill="#000000" font-size="11" lengthAdjust="spacingAndGlyphs" textLength="8" x="1598" y="545">id</text><text fill="#000000" font-size="11" lengthAdjust="spacingAndGlyphs" textLength="26" x="1598" y="558.8359">place</text><text fill="#000000" font-size="11" lengthAdjust="spacingAndGlyphs" textLength="50" x="1598" y="572.6719">bankName</text><text fill="#000000" font-size="11" lengthAdjust="spacingAndGlyphs" textLength="65" x="1598" y="586.5078">bankAddress</text><text fill="#000000" font-size="11" lengthAdjust="spacingAndGlyphs" textLength="57" x="1598" y="600.3438">cardReader</text><text fill="#000000" font-size="11" lengthAdjust="spacingAndGlyphs" textLength="73" x="1598" y="614.1797">cashDispenser</text><text fill="#000000" font-size="11" lengthAdjust="spacingAndGlyphs" textLength="84" x="1598" y="628.0156">customerConsole</text><text fill="#000000" font-size="11" lengthAdjust="spacingAndGlyphs" textLength="89" x="1598" y="641.8516">envelopeAcceptor</text><text fill="#000000" font-size="11" lengthAdjust="spacingAndGlyphs" textLength="14" x="1598" y="655.6875">log</text><text fill="#000000" font-size="11" lengthAdjust="spacingAndGlyphs" textLength="76" x="1598" y="669.5234">networkToBank</text><text fill="#000000" font-size="11" lengthAdjust="spacingAndGlyphs" textLength="67" x="1598" y="683.3594">operatorPanel</text><text fill="#000000" font-size="11" lengthAdjust="spacingAndGlyphs" textLength="64" x="1598" y="697.1953">receiptPrinter</text><text fill="#000000" font-size="11" lengthAdjust="spacingAndGlyphs" textLength="24" x="1598" y="711.0313">state</text><text fill="#000000" font-size="11" lengthAdjust="spacingAndGlyphs" textLength="47" x="1598" y="724.8672">switchOn</text><text fill="#000000" font-size="11" lengthAdjust="spacingAndGlyphs" textLength="59" x="1598" y="738.7031">OFF_STATE</text><text fill="#000000" font-size="11" lengthAdjust="spacingAndGlyphs" textLength="60" x="1598" y="752.5391">IDLE_STATE</text><text fill="#000000" font-size="11" lengthAdjust="spacingAndGlyphs" textLength="146" x="1598" y="766.375">SERVING_CUSTOMER_STATE</text><line style="stroke: #2E8B57; stroke-width: 1.5;" x1="1593" x2="1749" y1="773.2109" y2="773.2109"/><text fill="#000000" font-size="11" lengthAdjust="spacingAndGlyphs" textLength="30" x="1598" y="788.2109">ATM()</text><text fill="#000000" font-size="11" lengthAdjust="spacingAndGlyphs" textLength="24" x="1598" y="802.0469">run()</text><text fill="#000000" font-size="11" lengthAdjust="spacingAndGlyphs" textLength="55" x="1598" y="815.8828">switchOn()</text><text fill="#000000" font-size="11" lengthAdjust="spacingAndGlyphs" textLength="57" x="1598" y="829.7188">switchOff()</text><text fill="#000000" font-size="11" lengthAdjust="spacingAndGlyphs" textLength="69" x="1598" y="843.5547">cardInserted()</text><text fill="#000000" font-size="11" lengthAdjust="spacingAndGlyphs" textLength="32" x="1598" y="857.3906">getID()</text><text fill="#000000" font-size="11" lengthAdjust="spacingAndGlyphs" textLength="49" x="1598" y="871.2266">getPlace()</text><text fill="#000000" font-size="11" lengthAdjust="spacingAndGlyphs" textLength="74" x="1598" y="885.0625">getBankName()</text><text fill="#000000" font-size="11" lengthAdjust="spacingAndGlyphs" textLength="81" x="1598" y="898.8984">getCardReader()</text><text fill="#000000" font-size="11" lengthAdjust="spacingAndGlyphs" textLength="97" x="1598" y="912.7344">getCashDispenser()</text><text fill="#000000" font-size="11" lengthAdjust="spacingAndGlyphs" textLength="108" x="1598" y="926.5703">getCustomerConsole()</text><text fill="#000000" font-size="11" lengthAdjust="spacingAndGlyphs" textLength="112" x="1598" y="940.4063">getEnvelopeAcceptor()</text><text fill="#000000" font-size="11" lengthAdjust="spacingAndGlyphs" textLength="41" x="1598" y="954.2422">getLog()</text><text fill="#000000" font-size="11" lengthAdjust="spacingAndGlyphs" textLength="100" x="1598" y="968.0781">getNetworkToBank()</text><text fill="#000000" font-size="11" lengthAdjust="spacingAndGlyphs" textLength="92" x="1598" y="981.9141">getOperatorPanel()</text><text fill="#000000" font-size="11" lengthAdjust="spacingAndGlyphs" textLength="90" x="1598" y="995.75">getReceiptPrinter()</text><text fill="#000000" font-size="11" lengthAdjust="spacingAndGlyphs" textLength="81" x="1598" y="1009.5859">performStartup()</text><text fill="#000000" font-size="11" lengthAdjust="spacingAndGlyphs" textLength="96" x="1598" y="1023.4219">performShutdown()</text><rect fill="#FFF8DC" filter="url(#f1)" height="214.0313" style="stroke: #2E8B57; stroke-width: 1.5;" width="195" x="974" y="1132"/><ellipse cx="1044.25" cy="1148" fill="#ADD1B2" rx="11" ry="11" style="stroke: #2E8B57; stroke-width: 1.0;"/><path d="M1047.0156,1143.875 Q1047.1719,1143.6563 1047.3594,1143.5469 Q1047.5469,1143.4375 1047.7656,1143.4375 Q1048.1406,1143.4375 1048.375,1143.6953 Q1048.6094,1143.9531 1048.6094,1144.5625 L1048.6094,1146.0156 Q1048.6094,1146.625 1048.375,1146.8906 Q1048.1406,1147.1563 1047.7656,1147.1563 Q1047.4219,1147.1563 1047.2188,1146.9531 Q1047.0156,1146.7656 1046.9063,1146.25 Q1046.8594,1145.8906 1046.6719,1145.7031 Q1046.3438,1145.3281 1045.7344,1145.1094 Q1045.125,1144.8906 1044.5,1144.8906 Q1043.7344,1144.8906 1043.1016,1145.2188 Q1042.4688,1145.5469 1041.9766,1146.2969 Q1041.4844,1147.0469 1041.4844,1148.0781 L1041.4844,1149.1719 Q1041.4844,1150.4063 1042.375,1151.2266 Q1043.2656,1152.0469 1044.8594,1152.0469 Q1045.7969,1152.0469 1046.4531,1151.7969 Q1046.8438,1151.6406 1047.2656,1151.2031 Q1047.5313,1150.9375 1047.6797,1150.8594 Q1047.8281,1150.7813 1048.0313,1150.7813 Q1048.3594,1150.7813 1048.6172,1151.0391 Q1048.875,1151.2969 1048.875,1151.6406 Q1048.875,1151.9844 1048.5313,1152.3906 Q1048.0313,1152.9688 1047.2344,1153.2969 Q1046.1563,1153.75 1044.8594,1153.75 Q1043.3438,1153.75 1042.1406,1153.125 Q1041.1563,1152.625 1040.4688,1151.5547 Q1039.7813,1150.4844 1039.7813,1149.2031 L1039.7813,1148.0469 Q1039.7813,1146.7188 1040.3984,1145.5703 Q1041.0156,1144.4219 1042.1094,1143.8047 Q1043.2031,1143.1875 1044.4375,1143.1875 Q1045.1719,1143.1875 1045.8203,1143.3516 Q1046.4688,1143.5156 1047.0156,1143.875 Z "/><text fill="#000000" font-size="12" lengthAdjust="spacingAndGlyphs" textLength="46" x="1064.75" y="1152.4531">Session</text><line style="stroke: #2E8B57; stroke-width: 1.5;" x1="975" x2="1168" y1="1164" y2="1164"/><text fill="#000000" font-size="11" lengthAdjust="spacingAndGlyphs" textLength="17" x="980" y="1179">atm</text><text fill="#000000" font-size="11" lengthAdjust="spacingAndGlyphs" textLength="14" x="980" y="1192.8359">pin</text><text fill="#000000" font-size="11" lengthAdjust="spacingAndGlyphs" textLength="24" x="980" y="1206.6719">state</text><text fill="#000000" font-size="11" lengthAdjust="spacingAndGlyphs" textLength="119" x="980" y="1220.5078">READING_CARD_STATE</text><text fill="#000000" font-size="11" lengthAdjust="spacingAndGlyphs" textLength="105" x="980" y="1234.3438">READING_PIN_STATE</text><text fill="#000000" font-size="11" lengthAdjust="spacingAndGlyphs" textLength="172" x="980" y="1248.1797">CHOOSING_TRANSACTION_STATE</text><text fill="#000000" font-size="11" lengthAdjust="spacingAndGlyphs" textLength="183" x="980" y="1262.0156">PERFORMING_TRANSACTION_STATE</text><text fill="#000000" font-size="11" lengthAdjust="spacingAndGlyphs" textLength="121" x="980" y="1275.8516">EJECTING_CARD_STATE</text><text fill="#000000" font-size="11" lengthAdjust="spacingAndGlyphs" textLength="68" x="980" y="1289.6875">FINAL_STATE</text><line style="stroke: #2E8B57; stroke-width: 1.5;" x1="975" x2="1168" y1="1296.5234" y2="1296.5234"/><text fill="#000000" font-size="11" lengthAdjust="spacingAndGlyphs" textLength="47" x="980" y="1311.5234">Session()</text><text fill="#000000" font-size="11" lengthAdjust="spacingAndGlyphs" textLength="85" x="980" y="1325.3594">performSession()</text><text fill="#000000" font-size="11" lengthAdjust="spacingAndGlyphs" textLength="38" x="980" y="1339.1953">setPIN()</text><rect fill="#FFF8DC" filter="url(#f1)" height="117.1797" style="stroke: #2E8B57; stroke-width: 1.5;" width="150" x="693" y="704.5"/><ellipse cx="742.25" cy="720.5" fill="#ADD1B2" rx="11" ry="11" style="stroke: #2E8B57; stroke-width: 1.0;"/><path d="M745.0156,716.375 Q745.1719,716.1563 745.3594,716.0469 Q745.5469,715.9375 745.7656,715.9375 Q746.1406,715.9375 746.375,716.1953 Q746.6094,716.4531 746.6094,717.0625 L746.6094,718.5156 Q746.6094,719.125 746.375,719.3906 Q746.1406,719.6563 745.7656,719.6563 Q745.4219,719.6563 745.2188,719.4531 Q745.0156,719.2656 744.9063,718.75 Q744.8594,718.3906 744.6719,718.2031 Q744.3438,717.8281 743.7344,717.6094 Q743.125,717.3906 742.5,717.3906 Q741.7344,717.3906 741.1016,717.7188 Q740.4688,718.0469 739.9766,718.7969 Q739.4844,719.5469 739.4844,720.5781 L739.4844,721.6719 Q739.4844,722.9063 740.375,723.7266 Q741.2656,724.5469 742.8594,724.5469 Q743.7969,724.5469 744.4531,724.2969 Q744.8438,724.1406 745.2656,723.7031 Q745.5313,723.4375 745.6797,723.3594 Q745.8281,723.2813 746.0313,723.2813 Q746.3594,723.2813 746.6172,723.5391 Q746.875,723.7969 746.875,724.1406 Q746.875,724.4844 746.5313,724.8906 Q746.0313,725.4688 745.2344,725.7969 Q744.1563,726.25 742.8594,726.25 Q741.3438,726.25 740.1406,725.625 Q739.1563,725.125 738.4688,724.0547 Q737.7813,722.9844 737.7813,721.7031 L737.7813,720.5469 Q737.7813,719.2188 738.3984,718.0703 Q739.0156,716.9219 740.1094,716.3047 Q741.2031,715.6875 742.4375,715.6875 Q743.1719,715.6875 743.8203,715.8516 Q744.4688,716.0156 745.0156,716.375 Z "/><text fill="#000000" font-size="12" lengthAdjust="spacingAndGlyphs" textLength="43" x="762.75" y="724.9531">Deposit</text><line style="stroke: #2E8B57; stroke-width: 1.5;" x1="694" x2="842" y1="736.5" y2="736.5"/><text fill="#000000" font-size="11" lengthAdjust="spacingAndGlyphs" textLength="9" x="699" y="751.5">to</text><text fill="#000000" font-size="11" lengthAdjust="spacingAndGlyphs" textLength="35" x="699" y="765.3359">amount</text><line style="stroke: #2E8B57; stroke-width: 1.5;" x1="694" x2="842" y1="772.1719" y2="772.1719"/><text fill="#000000" font-size="11" lengthAdjust="spacingAndGlyphs" textLength="44" x="699" y="787.1719">Deposit()</text><text fill="#000000" font-size="11" lengthAdjust="spacingAndGlyphs" textLength="138" x="699" y="801.0078">getSpecificsFromCustomer()</text><text fill="#000000" font-size="11" lengthAdjust="spacingAndGlyphs" textLength="108" x="699" y="814.8438">completeTransaction()</text><rect fill="#FFF8DC" filter="url(#f1)" height="103.3438" style="stroke: #2E8B57; stroke-width: 1.5;" width="150" x="138" y="711.5"/><ellipse cx="190.75" cy="727.5" fill="#ADD1B2" rx="11" ry="11" style="stroke: #2E8B57; stroke-width: 1.0;"/><path d="M193.5156,723.375 Q193.6719,723.1563 193.8594,723.0469 Q194.0469,722.9375 194.2656,722.9375 Q194.6406,722.9375 194.875,723.1953 Q195.1094,723.4531 195.1094,724.0625 L195.1094,725.5156 Q195.1094,726.125 194.875,726.3906 Q194.6406,726.6563 194.2656,726.6563 Q193.9219,726.6563 193.7188,726.4531 Q193.5156,726.2656 193.4063,725.75 Q193.3594,725.3906 193.1719,725.2031 Q192.8438,724.8281 192.2344,724.6094 Q191.625,724.3906 191,724.3906 Q190.2344,724.3906 189.6016,724.7188 Q188.9688,725.0469 188.4766,725.7969 Q187.9844,726.5469 187.9844,727.5781 L187.9844,728.6719 Q187.9844,729.9063 188.875,730.7266 Q189.7656,731.5469 191.3594,731.5469 Q192.2969,731.5469 192.9531,731.2969 Q193.3438,731.1406 193.7656,730.7031 Q194.0313,730.4375 194.1797,730.3594 Q194.3281,730.2813 194.5313,730.2813 Q194.8594,730.2813 195.1172,730.5391 Q195.375,730.7969 195.375,731.1406 Q195.375,731.4844 195.0313,731.8906 Q194.5313,732.4688 193.7344,732.7969 Q192.6563,733.25 191.3594,733.25 Q189.8438,733.25 188.6406,732.625 Q187.6563,732.125 186.9688,731.0547 Q186.2813,729.9844 186.2813,728.7031 L186.2813,727.5469 Q186.2813,726.2188 186.8984,725.0703 Q187.5156,723.9219 188.6094,723.3047 Q189.7031,722.6875 190.9375,722.6875 Q191.6719,722.6875 192.3203,722.8516 Q192.9688,723.0156 193.5156,723.375 Z "/><text fill="#000000" font-size="12" lengthAdjust="spacingAndGlyphs" textLength="36" x="211.25" y="731.9531">Inquiry</text><line style="stroke: #2E8B57; stroke-width: 1.5;" x1="139" x2="287" y1="743.5" y2="743.5"/><text fill="#000000" font-size="11" lengthAdjust="spacingAndGlyphs" textLength="22" x="144" y="758.5">from</text><line style="stroke: #2E8B57; stroke-width: 1.5;" x1="139" x2="287" y1="765.3359" y2="765.3359"/><text fill="#000000" font-size="11" lengthAdjust="spacingAndGlyphs" textLength="40" x="144" y="780.3359">Inquiry()</text><text fill="#000000" font-size="11" lengthAdjust="spacingAndGlyphs" textLength="138" x="144" y="794.1719">getSpecificsFromCustomer()</text><text fill="#000000" font-size="11" lengthAdjust="spacingAndGlyphs" textLength="108" x="144" y="808.0078">completeTransaction()</text><rect fill="#FFF8DC" filter="url(#f1)" height="61.8359" style="stroke: #2E8B57; stroke-width: 1.5;" width="109" x="324.75" y="181"/><ellipse cx="339.75" cy="197" fill="#ADD1B2" rx="11" ry="11" style="stroke: #2E8B57; stroke-width: 1.0;"/><path d="M342.5156,192.875 Q342.6719,192.6563 342.8594,192.5469 Q343.0469,192.4375 343.2656,192.4375 Q343.6406,192.4375 343.875,192.6953 Q344.1094,192.9531 344.1094,193.5625 L344.1094,195.0156 Q344.1094,195.625 343.875,195.8906 Q343.6406,196.1563 343.2656,196.1563 Q342.9219,196.1563 342.7188,195.9531 Q342.5156,195.7656 342.4063,195.25 Q342.3594,194.8906 342.1719,194.7031 Q341.8438,194.3281 341.2344,194.1094 Q340.625,193.8906 340,193.8906 Q339.2344,193.8906 338.6016,194.2188 Q337.9688,194.5469 337.4766,195.2969 Q336.9844,196.0469 336.9844,197.0781 L336.9844,198.1719 Q336.9844,199.4063 337.875,200.2266 Q338.7656,201.0469 340.3594,201.0469 Q341.2969,201.0469 341.9531,200.7969 Q342.3438,200.6406 342.7656,200.2031 Q343.0313,199.9375 343.1797,199.8594 Q343.3281,199.7813 343.5313,199.7813 Q343.8594,199.7813 344.1172,200.0391 Q344.375,200.2969 344.375,200.6406 Q344.375,200.9844 344.0313,201.3906 Q343.5313,201.9688 342.7344,202.2969 Q341.6563,202.75 340.3594,202.75 Q338.8438,202.75 337.6406,202.125 Q336.6563,201.625 335.9688,200.5547 Q335.2813,199.4844 335.2813,198.2031 L335.2813,197.0469 Q335.2813,195.7188 335.8984,194.5703 Q336.5156,193.4219 337.6094,192.8047 Q338.7031,192.1875 339.9375,192.1875 Q340.6719,192.1875 341.3203,192.3516 Q341.9688,192.5156 342.5156,192.875 Z "/><text fill="#000000" font-size="12" lengthAdjust="spacingAndGlyphs" textLength="77" x="353.75" y="201.4531">CardRetained</text><line style="stroke: #2E8B57; stroke-width: 1.5;" x1="325.75" x2="432.75" y1="213" y2="213"/><line style="stroke: #2E8B57; stroke-width: 1.5;" x1="325.75" x2="432.75" y1="221" y2="221"/><text fill="#000000" font-size="11" lengthAdjust="spacingAndGlyphs" textLength="73" x="330.75" y="236">CardRetained()</text><rect fill="#FFF8DC" filter="url(#f1)" height="366.2266" style="stroke: #2E8B57; stroke-width: 1.5;" width="194" x="671" y="30"/><ellipse cx="731.75" cy="46" fill="#A9DCDF" rx="11" ry="11" style="stroke: #2E8B57; stroke-width: 1.0;"/><path d="M733.9375,47.7656 L729.7969,47.7656 L729.375,48.7969 L729.7969,48.7969 Q730.4063,48.7969 730.6719,49.0313 Q730.9375,49.2656 730.9375,49.6563 Q730.9375,50.0313 730.6719,50.2656 Q730.4063,50.5 729.7969,50.5 L727.5,50.5 Q726.8906,50.5 726.6328,50.2656 Q726.375,50.0313 726.375,49.6406 Q726.375,49.2656 726.6484,49.0234 Q726.9219,48.7813 727.5469,48.7969 L730.2188,42.1406 L729.1094,42.1406 Q728.5,42.1406 728.2344,41.9063 Q727.9688,41.6719 727.9688,41.2813 Q727.9688,40.9063 728.2344,40.6719 Q728.5,40.4375 729.1094,40.4375 L732.7813,40.4375 L736.1719,48.7969 Q736.7656,48.7969 736.9531,48.9375 Q737.3438,49.2031 737.3438,49.6563 Q737.3438,50.0313 737.0859,50.2656 Q736.8281,50.5 736.2188,50.5 L733.9219,50.5 Q733.3125,50.5 733.0469,50.2656 Q732.7813,50.0313 732.7813,49.6406 Q732.7813,49.2656 733.0469,49.0313 Q733.3125,48.7969 733.9219,48.7969 L734.3438,48.7969 L733.9375,47.7656 Z M733.2188,46.0625 L731.8594,42.6875 L730.4844,46.0625 L733.2188,46.0625 Z "/><text fill="#000000" font-size="12" font-style="italic" lengthAdjust="spacingAndGlyphs" textLength="64" x="752.25" y="50.4531">Transaction</text><line style="stroke: #2E8B57; stroke-width: 1.5;" x1="672" x2="864" y1="62" y2="62"/><text fill="#000000" font-size="11" lengthAdjust="spacingAndGlyphs" textLength="17" x="677" y="77">atm</text><text fill="#000000" font-size="11" lengthAdjust="spacingAndGlyphs" textLength="38" x="677" y="90.8359">session</text><text fill="#000000" font-size="11" lengthAdjust="spacingAndGlyphs" textLength="22" x="677" y="104.6719">card</text><text fill="#000000" font-size="11" lengthAdjust="spacingAndGlyphs" textLength="14" x="677" y="118.5078">pin</text><text fill="#000000" font-size="11" lengthAdjust="spacingAndGlyphs" textLength="63" x="677" y="132.3438">serialNumber</text><text fill="#000000" font-size="11" lengthAdjust="spacingAndGlyphs" textLength="44" x="677" y="146.1797">message</text><text fill="#000000" font-size="11" lengthAdjust="spacingAndGlyphs" textLength="44" x="677" y="160.0156">balances</text><text fill="#000000" font-size="11" lengthAdjust="spacingAndGlyphs" textLength="146" x="677" y="173.8516">TRANSACTION_TYPES_MENU</text><text fill="#000000" font-size="11" lengthAdjust="spacingAndGlyphs" textLength="85" x="677" y="187.6875">nextSerialNumber</text><text fill="#000000" font-size="11" lengthAdjust="spacingAndGlyphs" textLength="24" x="677" y="201.5234">state</text><text fill="#000000" font-size="11" lengthAdjust="spacingAndGlyphs" textLength="138" x="677" y="215.3594">GETTING_SPECIFICS_STATE</text><text fill="#000000" font-size="11" lengthAdjust="spacingAndGlyphs" textLength="138" x="677" y="229.1953">SENDING_TO_BANK_STATE</text><text fill="#000000" font-size="11" lengthAdjust="spacingAndGlyphs" textLength="100" x="677" y="243.0313">INVALID_PIN_STATE</text><text fill="#000000" font-size="11" lengthAdjust="spacingAndGlyphs" textLength="182" x="677" y="256.8672">COMPLETING_TRANSACTION_STATE</text><text fill="#000000" font-size="11" lengthAdjust="spacingAndGlyphs" textLength="130" x="677" y="270.7031">PRINTING_RECEIPT_STATE</text><text fill="#000000" font-size="11" lengthAdjust="spacingAndGlyphs" textLength="154" x="677" y="284.5391">ASKING_DO_ANOTHER_STATE</text><line style="stroke: #2E8B57; stroke-width: 1.5;" x1="672" x2="864" y1="291.375" y2="291.375"/><text fill="#000000" font-size="11" lengthAdjust="spacingAndGlyphs" textLength="65" x="677" y="306.375">Transaction()</text><text fill="#000000" font-size="11" lengthAdjust="spacingAndGlyphs" textLength="90" x="677" y="320.2109">makeTransaction()</text><text fill="#000000" font-size="11" lengthAdjust="spacingAndGlyphs" textLength="103" x="677" y="334.0469">performTransaction()</text><text fill="#000000" font-size="11" lengthAdjust="spacingAndGlyphs" textLength="138" x="677" y="347.8828">performInvalidPINExtension()</text><text fill="#000000" font-size="11" lengthAdjust="spacingAndGlyphs" textLength="87" x="677" y="361.7188">getSerialNumber()</text><text fill="#000000" font-size="11" lengthAdjust="spacingAndGlyphs" textLength="138" x="677" y="375.5547">getSpecificsFromCustomer()</text><text fill="#000000" font-size="11" lengthAdjust="spacingAndGlyphs" textLength="108" x="677" y="389.3906">completeTransaction()</text><rect fill="#FFF8DC" filter="url(#f1)" height="131.0156" style="stroke: #2E8B57; stroke-width: 1.5;" width="150" x="323" y="697.5"/><ellipse cx="370.75" cy="713.5" fill="#ADD1B2" rx="11" ry="11" style="stroke: #2E8B57; stroke-width: 1.0;"/><path d="M373.5156,709.375 Q373.6719,709.1563 373.8594,709.0469 Q374.0469,708.9375 374.2656,708.9375 Q374.6406,708.9375 374.875,709.1953 Q375.1094,709.4531 375.1094,710.0625 L375.1094,711.5156 Q375.1094,712.125 374.875,712.3906 Q374.6406,712.6563 374.2656,712.6563 Q373.9219,712.6563 373.7188,712.4531 Q373.5156,712.2656 373.4063,711.75 Q373.3594,711.3906 373.1719,711.2031 Q372.8438,710.8281 372.2344,710.6094 Q371.625,710.3906 371,710.3906 Q370.2344,710.3906 369.6016,710.7188 Q368.9688,711.0469 368.4766,711.7969 Q367.9844,712.5469 367.9844,713.5781 L367.9844,714.6719 Q367.9844,715.9063 368.875,716.7266 Q369.7656,717.5469 371.3594,717.5469 Q372.2969,717.5469 372.9531,717.2969 Q373.3438,717.1406 373.7656,716.7031 Q374.0313,716.4375 374.1797,716.3594 Q374.3281,716.2813 374.5313,716.2813 Q374.8594,716.2813 375.1172,716.5391 Q375.375,716.7969 375.375,717.1406 Q375.375,717.4844 375.0313,717.8906 Q374.5313,718.4688 373.7344,718.7969 Q372.6563,719.25 371.3594,719.25 Q369.8438,719.25 368.6406,718.625 Q367.6563,718.125 366.9688,717.0547 Q366.2813,715.9844 366.2813,714.7031 L366.2813,713.5469 Q366.2813,712.2188 366.8984,711.0703 Q367.5156,709.9219 368.6094,709.3047 Q369.7031,708.6875 370.9375,708.6875 Q371.6719,708.6875 372.3203,708.8516 Q372.9688,709.0156 373.5156,709.375 Z "/><text fill="#000000" font-size="12" lengthAdjust="spacingAndGlyphs" textLength="46" x="391.25" y="717.9531">Transfer</text><line style="stroke: #2E8B57; stroke-width: 1.5;" x1="324" x2="472" y1="729.5" y2="729.5"/><text fill="#000000" font-size="11" lengthAdjust="spacingAndGlyphs" textLength="22" x="329" y="744.5">from</text><text fill="#000000" font-size="11" lengthAdjust="spacingAndGlyphs" textLength="9" x="329" y="758.3359">to</text><text fill="#000000" font-size="11" lengthAdjust="spacingAndGlyphs" textLength="35" x="329" y="772.1719">amount</text><line style="stroke: #2E8B57; stroke-width: 1.5;" x1="324" x2="472" y1="779.0078" y2="779.0078"/><text fill="#000000" font-size="11" lengthAdjust="spacingAndGlyphs" textLength="50" x="329" y="794.0078">Transfer()</text><text fill="#000000" font-size="11" lengthAdjust="spacingAndGlyphs" textLength="138" x="329" y="807.8438">getSpecificsFromCustomer()</text><text fill="#000000" font-size="11" lengthAdjust="spacingAndGlyphs" textLength="108" x="329" y="821.6797">completeTransaction()</text><rect fill="#FFF8DC" filter="url(#f1)" height="117.1797" style="stroke: #2E8B57; stroke-width: 1.5;" width="150" x="508" y="704.5"/><ellipse cx="548.65" cy="720.5" fill="#ADD1B2" rx="11" ry="11" style="stroke: #2E8B57; stroke-width: 1.0;"/><path d="M551.4156,716.375 Q551.5719,716.1563 551.7594,716.0469 Q551.9469,715.9375 552.1656,715.9375 Q552.5406,715.9375 552.775,716.1953 Q553.0094,716.4531 553.0094,717.0625 L553.0094,718.5156 Q553.0094,719.125 552.775,719.3906 Q552.5406,719.6563 552.1656,719.6563 Q551.8219,719.6563 551.6188,719.4531 Q551.4156,719.2656 551.3063,718.75 Q551.2594,718.3906 551.0719,718.2031 Q550.7438,717.8281 550.1344,717.6094 Q549.525,717.3906 548.9,717.3906 Q548.1344,717.3906 547.5016,717.7188 Q546.8688,718.0469 546.3766,718.7969 Q545.8844,719.5469 545.8844,720.5781 L545.8844,721.6719 Q545.8844,722.9063 546.775,723.7266 Q547.6656,724.5469 549.2594,724.5469 Q550.1969,724.5469 550.8531,724.2969 Q551.2438,724.1406 551.6656,723.7031 Q551.9313,723.4375 552.0797,723.3594 Q552.2281,723.2813 552.4313,723.2813 Q552.7594,723.2813 553.0172,723.5391 Q553.275,723.7969 553.275,724.1406 Q553.275,724.4844 552.9313,724.8906 Q552.4313,725.4688 551.6344,725.7969 Q550.5563,726.25 549.2594,726.25 Q547.7438,726.25 546.5406,725.625 Q545.5563,725.125 544.8688,724.0547 Q544.1813,722.9844 544.1813,721.7031 L544.1813,720.5469 Q544.1813,719.2188 544.7984,718.0703 Q545.4156,716.9219 546.5094,716.3047 Q547.6031,715.6875 548.8375,715.6875 Q549.5719,715.6875 550.2203,715.8516 Q550.8688,716.0156 551.4156,716.375 Z "/><text fill="#000000" font-size="12" lengthAdjust="spacingAndGlyphs" textLength="61" x="568.35" y="724.9531">Withdrawal</text><line style="stroke: #2E8B57; stroke-width: 1.5;" x1="509" x2="657" y1="736.5" y2="736.5"/><text fill="#000000" font-size="11" lengthAdjust="spacingAndGlyphs" textLength="22" x="514" y="751.5">from</text><text fill="#000000" font-size="11" lengthAdjust="spacingAndGlyphs" textLength="35" x="514" y="765.3359">amount</text><line style="stroke: #2E8B57; stroke-width: 1.5;" x1="509" x2="657" y1="772.1719" y2="772.1719"/><text fill="#000000" font-size="11" lengthAdjust="spacingAndGlyphs" textLength="63" x="514" y="787.1719">Withdrawal()</text><text fill="#000000" font-size="11" lengthAdjust="spacingAndGlyphs" textLength="138" x="514" y="801.0078">getSpecificsFromCustomer()</text><text fill="#000000" font-size="11" lengthAdjust="spacingAndGlyphs" textLength="108" x="514" y="814.8438">completeTransaction()</text><rect fill="#FFF8DC" filter="url(#f1)" height="117.1797" style="stroke: #2E8B57; stroke-width: 1.5;" width="100" x="1254" y="1180"/><ellipse cx="1269" cy="1196" fill="#ADD1B2" rx="11" ry="11" style="stroke: #2E8B57; stroke-width: 1.0;"/><path d="M1271.7656,1191.875 Q1271.9219,1191.6563 1272.1094,1191.5469 Q1272.2969,1191.4375 1272.5156,1191.4375 Q1272.8906,1191.4375 1273.125,1191.6953 Q1273.3594,1191.9531 1273.3594,1192.5625 L1273.3594,1194.0156 Q1273.3594,1194.625 1273.125,1194.8906 Q1272.8906,1195.1563 1272.5156,1195.1563 Q1272.1719,1195.1563 1271.9688,1194.9531 Q1271.7656,1194.7656 1271.6563,1194.25 Q1271.6094,1193.8906 1271.4219,1193.7031 Q1271.0938,1193.3281 1270.4844,1193.1094 Q1269.875,1192.8906 1269.25,1192.8906 Q1268.4844,1192.8906 1267.8516,1193.2188 Q1267.2188,1193.5469 1266.7266,1194.2969 Q1266.2344,1195.0469 1266.2344,1196.0781 L1266.2344,1197.1719 Q1266.2344,1198.4063 1267.125,1199.2266 Q1268.0156,1200.0469 1269.6094,1200.0469 Q1270.5469,1200.0469 1271.2031,1199.7969 Q1271.5938,1199.6406 1272.0156,1199.2031 Q1272.2813,1198.9375 1272.4297,1198.8594 Q1272.5781,1198.7813 1272.7813,1198.7813 Q1273.1094,1198.7813 1273.3672,1199.0391 Q1273.625,1199.2969 1273.625,1199.6406 Q1273.625,1199.9844 1273.2813,1200.3906 Q1272.7813,1200.9688 1271.9844,1201.2969 Q1270.9063,1201.75 1269.6094,1201.75 Q1268.0938,1201.75 1266.8906,1201.125 Q1265.9063,1200.625 1265.2188,1199.5547 Q1264.5313,1198.4844 1264.5313,1197.2031 L1264.5313,1196.0469 Q1264.5313,1194.7188 1265.1484,1193.5703 Q1265.7656,1192.4219 1266.8594,1191.8047 Q1267.9531,1191.1875 1269.1875,1191.1875 Q1269.9219,1191.1875 1270.5703,1191.3516 Q1271.2188,1191.5156 1271.7656,1191.875 Z "/><text fill="#000000" font-size="12" lengthAdjust="spacingAndGlyphs" textLength="68" x="1283" y="1200.4531">CardReader</text><line style="stroke: #2E8B57; stroke-width: 1.5;" x1="1255" x2="1353" y1="1212" y2="1212"/><text fill="#000000" font-size="11" lengthAdjust="spacingAndGlyphs" textLength="17" x="1260" y="1227">atm</text><line style="stroke: #2E8B57; stroke-width: 1.5;" x1="1255" x2="1353" y1="1233.8359" y2="1233.8359"/><text fill="#000000" font-size="11" lengthAdjust="spacingAndGlyphs" textLength="66" x="1260" y="1248.8359">CardReader()</text><text fill="#000000" font-size="11" lengthAdjust="spacingAndGlyphs" textLength="53" x="1260" y="1262.6719">readCard()</text><text fill="#000000" font-size="11" lengthAdjust="spacingAndGlyphs" textLength="54" x="1260" y="1276.5078">ejectCard()</text><text fill="#000000" font-size="11" lengthAdjust="spacingAndGlyphs" textLength="58" x="1260" y="1290.3438">retainCard()</text><rect fill="#FFF8DC" filter="url(#f1)" height="131.0156" style="stroke: #2E8B57; stroke-width: 1.5;" width="120" x="1713" y="1173"/><ellipse cx="1728" cy="1189" fill="#ADD1B2" rx="11" ry="11" style="stroke: #2E8B57; stroke-width: 1.0;"/><path d="M1730.7656,1184.875 Q1730.9219,1184.6563 1731.1094,1184.5469 Q1731.2969,1184.4375 1731.5156,1184.4375 Q1731.8906,1184.4375 1732.125,1184.6953 Q1732.3594,1184.9531 1732.3594,1185.5625 L1732.3594,1187.0156 Q1732.3594,1187.625 1732.125,1187.8906 Q1731.8906,1188.1563 1731.5156,1188.1563 Q1731.1719,1188.1563 1730.9688,1187.9531 Q1730.7656,1187.7656 1730.6563,1187.25 Q1730.6094,1186.8906 1730.4219,1186.7031 Q1730.0938,1186.3281 1729.4844,1186.1094 Q1728.875,1185.8906 1728.25,1185.8906 Q1727.4844,1185.8906 1726.8516,1186.2188 Q1726.2188,1186.5469 1725.7266,1187.2969 Q1725.2344,1188.0469 1725.2344,1189.0781 L1725.2344,1190.1719 Q1725.2344,1191.4063 1726.125,1192.2266 Q1727.0156,1193.0469 1728.6094,1193.0469 Q1729.5469,1193.0469 1730.2031,1192.7969 Q1730.5938,1192.6406 1731.0156,1192.2031 Q1731.2813,1191.9375 1731.4297,1191.8594 Q1731.5781,1191.7813 1731.7813,1191.7813 Q1732.1094,1191.7813 1732.3672,1192.0391 Q1732.625,1192.2969 1732.625,1192.6406 Q1732.625,1192.9844 1732.2813,1193.3906 Q1731.7813,1193.9688 1730.9844,1194.2969 Q1729.9063,1194.75 1728.6094,1194.75 Q1727.0938,1194.75 1725.8906,1194.125 Q1724.9063,1193.625 1724.2188,1192.5547 Q1723.5313,1191.4844 1723.5313,1190.2031 L1723.5313,1189.0469 Q1723.5313,1187.7188 1724.1484,1186.5703 Q1724.7656,1185.4219 1725.8594,1184.8047 Q1726.9531,1184.1875 1728.1875,1184.1875 Q1728.9219,1184.1875 1729.5703,1184.3516 Q1730.2188,1184.5156 1730.7656,1184.875 Z "/><text fill="#000000" font-size="12" lengthAdjust="spacingAndGlyphs" textLength="88" x="1742" y="1193.4531">CashDispenser</text><line style="stroke: #2E8B57; stroke-width: 1.5;" x1="1714" x2="1832" y1="1205" y2="1205"/><text fill="#000000" font-size="11" lengthAdjust="spacingAndGlyphs" textLength="14" x="1719" y="1220">log</text><text fill="#000000" font-size="11" lengthAdjust="spacingAndGlyphs" textLength="63" x="1719" y="1233.8359">cashOnHand</text><line style="stroke: #2E8B57; stroke-width: 1.5;" x1="1714" x2="1832" y1="1240.6719" y2="1240.6719"/><text fill="#000000" font-size="11" lengthAdjust="spacingAndGlyphs" textLength="82" x="1719" y="1255.6719">CashDispenser()</text><text fill="#000000" font-size="11" lengthAdjust="spacingAndGlyphs" textLength="71" x="1719" y="1269.5078">setInitialCash()</text><text fill="#000000" font-size="11" lengthAdjust="spacingAndGlyphs" textLength="101" x="1719" y="1283.3438">checkCashOnHand()</text><text fill="#000000" font-size="11" lengthAdjust="spacingAndGlyphs" textLength="77" x="1719" y="1297.1797">dispenseCash()</text><rect fill="#FFF8DC" filter="url(#f1)" height="61.8359" style="stroke: #2E8B57; stroke-width: 1.5;" width="88" x="15" y="732"/><ellipse cx="30" cy="748" fill="#ADD1B2" rx="11" ry="11" style="stroke: #2E8B57; stroke-width: 1.0;"/><path d="M32.7656,743.875 Q32.9219,743.6563 33.1094,743.5469 Q33.2969,743.4375 33.5156,743.4375 Q33.8906,743.4375 34.125,743.6953 Q34.3594,743.9531 34.3594,744.5625 L34.3594,746.0156 Q34.3594,746.625 34.125,746.8906 Q33.8906,747.1563 33.5156,747.1563 Q33.1719,747.1563 32.9688,746.9531 Q32.7656,746.7656 32.6563,746.25 Q32.6094,745.8906 32.4219,745.7031 Q32.0938,745.3281 31.4844,745.1094 Q30.875,744.8906 30.25,744.8906 Q29.4844,744.8906 28.8516,745.2188 Q28.2188,745.5469 27.7266,746.2969 Q27.2344,747.0469 27.2344,748.0781 L27.2344,749.1719 Q27.2344,750.4063 28.125,751.2266 Q29.0156,752.0469 30.6094,752.0469 Q31.5469,752.0469 32.2031,751.7969 Q32.5938,751.6406 33.0156,751.2031 Q33.2813,750.9375 33.4297,750.8594 Q33.5781,750.7813 33.7813,750.7813 Q34.1094,750.7813 34.3672,751.0391 Q34.625,751.2969 34.625,751.6406 Q34.625,751.9844 34.2813,752.3906 Q33.7813,752.9688 32.9844,753.2969 Q31.9063,753.75 30.6094,753.75 Q29.0938,753.75 27.8906,753.125 Q26.9063,752.625 26.2188,751.5547 Q25.5313,750.4844 25.5313,749.2031 L25.5313,748.0469 Q25.5313,746.7188 26.1484,745.5703 Q26.7656,744.4219 27.8594,743.8047 Q28.9531,743.1875 30.1875,743.1875 Q30.9219,743.1875 31.5703,743.3516 Q32.2188,743.5156 32.7656,743.875 Z "/><text fill="#000000" font-size="12" lengthAdjust="spacingAndGlyphs" textLength="56" x="44" y="752.4531">Cancelled</text><line style="stroke: #2E8B57; stroke-width: 1.5;" x1="16" x2="102" y1="764" y2="764"/><line style="stroke: #2E8B57; stroke-width: 1.5;" x1="16" x2="102" y1="772" y2="772"/><text fill="#000000" font-size="11" lengthAdjust="spacingAndGlyphs" textLength="55" x="21" y="787">Cancelled()</text><rect fill="#FFF8DC" filter="url(#f1)" height="117.1797" style="stroke: #2E8B57; stroke-width: 1.5;" width="134" x="2107" y="2077"/><ellipse cx="2122" cy="2093" fill="#ADD1B2" rx="11" ry="11" style="stroke: #2E8B57; stroke-width: 1.0;"/><path d="M2124.7656,2088.875 Q2124.9219,2088.6563 2125.1094,2088.5469 Q2125.2969,2088.4375 2125.5156,2088.4375 Q2125.8906,2088.4375 2126.125,2088.6953 Q2126.3594,2088.9531 2126.3594,2089.5625 L2126.3594,2091.0156 Q2126.3594,2091.625 2126.125,2091.8906 Q2125.8906,2092.1563 2125.5156,2092.1563 Q2125.1719,2092.1563 2124.9688,2091.9531 Q2124.7656,2091.7656 2124.6563,2091.25 Q2124.6094,2090.8906 2124.4219,2090.7031 Q2124.0938,2090.3281 2123.4844,2090.1094 Q2122.875,2089.8906 2122.25,2089.8906 Q2121.4844,2089.8906 2120.8516,2090.2188 Q2120.2188,2090.5469 2119.7266,2091.2969 Q2119.2344,2092.0469 2119.2344,2093.0781 L2119.2344,2094.1719 Q2119.2344,2095.4063 2120.125,2096.2266 Q2121.0156,2097.0469 2122.6094,2097.0469 Q2123.5469,2097.0469 2124.2031,2096.7969 Q2124.5938,2096.6406 2125.0156,2096.2031 Q2125.2813,2095.9375 2125.4297,2095.8594 Q2125.5781,2095.7813 2125.7813,2095.7813 Q2126.1094,2095.7813 2126.3672,2096.0391 Q2126.625,2096.2969 2126.625,2096.6406 Q2126.625,2096.9844 2126.2813,2097.3906 Q2125.7813,2097.9688 2124.9844,2098.2969 Q2123.9063,2098.75 2122.6094,2098.75 Q2121.0938,2098.75 2119.8906,2098.125 Q2118.9063,2097.625 2118.2188,2096.5547 Q2117.5313,2095.4844 2117.5313,2094.2031 L2117.5313,2093.0469 Q2117.5313,2091.7188 2118.1484,2090.5703 Q2118.7656,2089.4219 2119.8594,2088.8047 Q2120.9531,2088.1875 2122.1875,2088.1875 Q2122.9219,2088.1875 2123.5703,2088.3516 Q2124.2188,2088.5156 2124.7656,2088.875 Z "/><text fill="#000000" font-size="12" lengthAdjust="spacingAndGlyphs" textLength="102" x="2136" y="2097.4531">CustomerConsole</text><line style="stroke: #2E8B57; stroke-width: 1.5;" x1="2108" x2="2240" y1="2109" y2="2109"/><line style="stroke: #2E8B57; stroke-width: 1.5;" x1="2108" x2="2240" y1="2117" y2="2117"/><text fill="#000000" font-size="11" lengthAdjust="spacingAndGlyphs" textLength="93" x="2113" y="2132">CustomerConsole()</text><text fill="#000000" font-size="11" lengthAdjust="spacingAndGlyphs" textLength="42" x="2113" y="2145.8359">display()</text><text fill="#000000" font-size="11" lengthAdjust="spacingAndGlyphs" textLength="45" x="2113" y="2159.6719">readPIN()</text><text fill="#000000" font-size="11" lengthAdjust="spacingAndGlyphs" textLength="89" x="2113" y="2173.5078">readMenuChoice()</text><text fill="#000000" font-size="11" lengthAdjust="spacingAndGlyphs" textLength="67" x="2113" y="2187.3438">readAmount()</text><rect fill="#FFF8DC" filter="url(#f1)" height="89.5078" style="stroke: #2E8B57; stroke-width: 1.5;" width="130" x="1917" y="1194"/><ellipse cx="1932" cy="1210" fill="#ADD1B2" rx="11" ry="11" style="stroke: #2E8B57; stroke-width: 1.0;"/><path d="M1934.7656,1205.875 Q1934.9219,1205.6563 1935.1094,1205.5469 Q1935.2969,1205.4375 1935.5156,1205.4375 Q1935.8906,1205.4375 1936.125,1205.6953 Q1936.3594,1205.9531 1936.3594,1206.5625 L1936.3594,1208.0156 Q1936.3594,1208.625 1936.125,1208.8906 Q1935.8906,1209.1563 1935.5156,1209.1563 Q1935.1719,1209.1563 1934.9688,1208.9531 Q1934.7656,1208.7656 1934.6563,1208.25 Q1934.6094,1207.8906 1934.4219,1207.7031 Q1934.0938,1207.3281 1933.4844,1207.1094 Q1932.875,1206.8906 1932.25,1206.8906 Q1931.4844,1206.8906 1930.8516,1207.2188 Q1930.2188,1207.5469 1929.7266,1208.2969 Q1929.2344,1209.0469 1929.2344,1210.0781 L1929.2344,1211.1719 Q1929.2344,1212.4063 1930.125,1213.2266 Q1931.0156,1214.0469 1932.6094,1214.0469 Q1933.5469,1214.0469 1934.2031,1213.7969 Q1934.5938,1213.6406 1935.0156,1213.2031 Q1935.2813,1212.9375 1935.4297,1212.8594 Q1935.5781,1212.7813 1935.7813,1212.7813 Q1936.1094,1212.7813 1936.3672,1213.0391 Q1936.625,1213.2969 1936.625,1213.6406 Q1936.625,1213.9844 1936.2813,1214.3906 Q1935.7813,1214.9688 1934.9844,1215.2969 Q1933.9063,1215.75 1932.6094,1215.75 Q1931.0938,1215.75 1929.8906,1215.125 Q1928.9063,1214.625 1928.2188,1213.5547 Q1927.5313,1212.4844 1927.5313,1211.2031 L1927.5313,1210.0469 Q1927.5313,1208.7188 1928.1484,1207.5703 Q1928.7656,1206.4219 1929.8594,1205.8047 Q1930.9531,1205.1875 1932.1875,1205.1875 Q1932.9219,1205.1875 1933.5703,1205.3516 Q1934.2188,1205.5156 1934.7656,1205.875 Z "/><text fill="#000000" font-size="12" lengthAdjust="spacingAndGlyphs" textLength="98" x="1946" y="1214.4531">EnvelopeAcceptor</text><line style="stroke: #2E8B57; stroke-width: 1.5;" x1="1918" x2="2046" y1="1226" y2="1226"/><text fill="#000000" font-size="11" lengthAdjust="spacingAndGlyphs" textLength="14" x="1923" y="1241">log</text><line style="stroke: #2E8B57; stroke-width: 1.5;" x1="1918" x2="2046" y1="1247.8359" y2="1247.8359"/><text fill="#000000" font-size="11" lengthAdjust="spacingAndGlyphs" textLength="97" x="1923" y="1262.8359">EnvelopeAcceptor()</text><text fill="#000000" font-size="11" lengthAdjust="spacingAndGlyphs" textLength="85" x="1923" y="1276.6719">acceptEnvelope()</text><rect fill="#FFF8DC" filter="url(#f1)" height="117.1797" style="stroke: #2E8B57; stroke-width: 1.5;" width="125" x="1783" y="1447"/><ellipse cx="1830.75" cy="1463" fill="#ADD1B2" rx="11" ry="11" style="stroke: #2E8B57; stroke-width: 1.0;"/><path d="M1833.5156,1458.875 Q1833.6719,1458.6563 1833.8594,1458.5469 Q1834.0469,1458.4375 1834.2656,1458.4375 Q1834.6406,1458.4375 1834.875,1458.6953 Q1835.1094,1458.9531 1835.1094,1459.5625 L1835.1094,1461.0156 Q1835.1094,1461.625 1834.875,1461.8906 Q1834.6406,1462.1563 1834.2656,1462.1563 Q1833.9219,1462.1563 1833.7188,1461.9531 Q1833.5156,1461.7656 1833.4063,1461.25 Q1833.3594,1460.8906 1833.1719,1460.7031 Q1832.8438,1460.3281 1832.2344,1460.1094 Q1831.625,1459.8906 1831,1459.8906 Q1830.2344,1459.8906 1829.6016,1460.2188 Q1828.9688,1460.5469 1828.4766,1461.2969 Q1827.9844,1462.0469 1827.9844,1463.0781 L1827.9844,1464.1719 Q1827.9844,1465.4063 1828.875,1466.2266 Q1829.7656,1467.0469 1831.3594,1467.0469 Q1832.2969,1467.0469 1832.9531,1466.7969 Q1833.3438,1466.6406 1833.7656,1466.2031 Q1834.0313,1465.9375 1834.1797,1465.8594 Q1834.3281,1465.7813 1834.5313,1465.7813 Q1834.8594,1465.7813 1835.1172,1466.0391 Q1835.375,1466.2969 1835.375,1466.6406 Q1835.375,1466.9844 1835.0313,1467.3906 Q1834.5313,1467.9688 1833.7344,1468.2969 Q1832.6563,1468.75 1831.3594,1468.75 Q1829.8438,1468.75 1828.6406,1468.125 Q1827.6563,1467.625 1826.9688,1466.5547 Q1826.2813,1465.4844 1826.2813,1464.2031 L1826.2813,1463.0469 Q1826.2813,1461.7188 1826.8984,1460.5703 Q1827.5156,1459.4219 1828.6094,1458.8047 Q1829.7031,1458.1875 1830.9375,1458.1875 Q1831.6719,1458.1875 1832.3203,1458.3516 Q1832.9688,1458.5156 1833.5156,1458.875 Z "/><text fill="#000000" font-size="12" lengthAdjust="spacingAndGlyphs" textLength="21" x="1851.25" y="1467.4531">Log</text><line style="stroke: #2E8B57; stroke-width: 1.5;" x1="1784" x2="1907" y1="1479" y2="1479"/><line style="stroke: #2E8B57; stroke-width: 1.5;" x1="1784" x2="1907" y1="1487" y2="1487"/><text fill="#000000" font-size="11" lengthAdjust="spacingAndGlyphs" textLength="26" x="1789" y="1502">Log()</text><text fill="#000000" font-size="11" lengthAdjust="spacingAndGlyphs" textLength="47" x="1789" y="1515.8359">logSend()</text><text fill="#000000" font-size="11" lengthAdjust="spacingAndGlyphs" textLength="71" x="1789" y="1529.6719">logResponse()</text><text fill="#000000" font-size="11" lengthAdjust="spacingAndGlyphs" textLength="98" x="1789" y="1543.5078">logCashDispensed()</text><text fill="#000000" font-size="11" lengthAdjust="spacingAndGlyphs" textLength="113" x="1789" y="1557.3438">logEnvelopeAccepted()</text><rect fill="#FFF8DC" filter="url(#f1)" height="131.0156" style="stroke: #2E8B57; stroke-width: 1.5;" width="119" x="1509" y="1173"/><ellipse cx="1524" cy="1189" fill="#ADD1B2" rx="11" ry="11" style="stroke: #2E8B57; stroke-width: 1.0;"/><path d="M1526.7656,1184.875 Q1526.9219,1184.6563 1527.1094,1184.5469 Q1527.2969,1184.4375 1527.5156,1184.4375 Q1527.8906,1184.4375 1528.125,1184.6953 Q1528.3594,1184.9531 1528.3594,1185.5625 L1528.3594,1187.0156 Q1528.3594,1187.625 1528.125,1187.8906 Q1527.8906,1188.1563 1527.5156,1188.1563 Q1527.1719,1188.1563 1526.9688,1187.9531 Q1526.7656,1187.7656 1526.6563,1187.25 Q1526.6094,1186.8906 1526.4219,1186.7031 Q1526.0938,1186.3281 1525.4844,1186.1094 Q1524.875,1185.8906 1524.25,1185.8906 Q1523.4844,1185.8906 1522.8516,1186.2188 Q1522.2188,1186.5469 1521.7266,1187.2969 Q1521.2344,1188.0469 1521.2344,1189.0781 L1521.2344,1190.1719 Q1521.2344,1191.4063 1522.125,1192.2266 Q1523.0156,1193.0469 1524.6094,1193.0469 Q1525.5469,1193.0469 1526.2031,1192.7969 Q1526.5938,1192.6406 1527.0156,1192.2031 Q1527.2813,1191.9375 1527.4297,1191.8594 Q1527.5781,1191.7813 1527.7813,1191.7813 Q1528.1094,1191.7813 1528.3672,1192.0391 Q1528.625,1192.2969 1528.625,1192.6406 Q1528.625,1192.9844 1528.2813,1193.3906 Q1527.7813,1193.9688 1526.9844,1194.2969 Q1525.9063,1194.75 1524.6094,1194.75 Q1523.0938,1194.75 1521.8906,1194.125 Q1520.9063,1193.625 1520.2188,1192.5547 Q1519.5313,1191.4844 1519.5313,1190.2031 L1519.5313,1189.0469 Q1519.5313,1187.7188 1520.1484,1186.5703 Q1520.7656,1185.4219 1521.8594,1184.8047 Q1522.9531,1184.1875 1524.1875,1184.1875 Q1524.9219,1184.1875 1525.5703,1184.3516 Q1526.2188,1184.5156 1526.7656,1184.875 Z "/><text fill="#000000" font-size="12" lengthAdjust="spacingAndGlyphs" textLength="87" x="1538" y="1193.4531">NetworkToBank</text><line style="stroke: #2E8B57; stroke-width: 1.5;" x1="1510" x2="1627" y1="1205" y2="1205"/><text fill="#000000" font-size="11" lengthAdjust="spacingAndGlyphs" textLength="14" x="1515" y="1220">log</text><text fill="#000000" font-size="11" lengthAdjust="spacingAndGlyphs" textLength="65" x="1515" y="1233.8359">bankAddress</text><line style="stroke: #2E8B57; stroke-width: 1.5;" x1="1510" x2="1627" y1="1240.6719" y2="1240.6719"/><text fill="#000000" font-size="11" lengthAdjust="spacingAndGlyphs" textLength="85" x="1515" y="1255.6719">NetworkToBank()</text><text fill="#000000" font-size="11" lengthAdjust="spacingAndGlyphs" textLength="86" x="1515" y="1269.5078">openConnection()</text><text fill="#000000" font-size="11" lengthAdjust="spacingAndGlyphs" textLength="88" x="1515" y="1283.3438">closeConnection()</text><text fill="#000000" font-size="11" lengthAdjust="spacingAndGlyphs" textLength="76" x="1515" y="1297.1797">sendMessage()</text><rect fill="#FFF8DC" filter="url(#f1)" height="89.5078" style="stroke: #2E8B57; stroke-width: 1.5;" width="112" x="2203" y="1194"/><ellipse cx="2218" cy="1210" fill="#ADD1B2" rx="11" ry="11" style="stroke: #2E8B57; stroke-width: 1.0;"/><path d="M2220.7656,1205.875 Q2220.9219,1205.6563 2221.1094,1205.5469 Q2221.2969,1205.4375 2221.5156,1205.4375 Q2221.8906,1205.4375 2222.125,1205.6953 Q2222.3594,1205.9531 2222.3594,1206.5625 L2222.3594,1208.0156 Q2222.3594,1208.625 2222.125,1208.8906 Q2221.8906,1209.1563 2221.5156,1209.1563 Q2221.1719,1209.1563 2220.9688,1208.9531 Q2220.7656,1208.7656 2220.6563,1208.25 Q2220.6094,1207.8906 2220.4219,1207.7031 Q2220.0938,1207.3281 2219.4844,1207.1094 Q2218.875,1206.8906 2218.25,1206.8906 Q2217.4844,1206.8906 2216.8516,1207.2188 Q2216.2188,1207.5469 2215.7266,1208.2969 Q2215.2344,1209.0469 2215.2344,1210.0781 L2215.2344,1211.1719 Q2215.2344,1212.4063 2216.125,1213.2266 Q2217.0156,1214.0469 2218.6094,1214.0469 Q2219.5469,1214.0469 2220.2031,1213.7969 Q2220.5938,1213.6406 2221.0156,1213.2031 Q2221.2813,1212.9375 2221.4297,1212.8594 Q2221.5781,1212.7813 2221.7813,1212.7813 Q2222.1094,1212.7813 2222.3672,1213.0391 Q2222.625,1213.2969 2222.625,1213.6406 Q2222.625,1213.9844 2222.2813,1214.3906 Q2221.7813,1214.9688 2220.9844,1215.2969 Q2219.9063,1215.75 2218.6094,1215.75 Q2217.0938,1215.75 2215.8906,1215.125 Q2214.9063,1214.625 2214.2188,1213.5547 Q2213.5313,1212.4844 2213.5313,1211.2031 L2213.5313,1210.0469 Q2213.5313,1208.7188 2214.1484,1207.5703 Q2214.7656,1206.4219 2215.8594,1205.8047 Q2216.9531,1205.1875 2218.1875,1205.1875 Q2218.9219,1205.1875 2219.5703,1205.3516 Q2220.2188,1205.5156 2220.7656,1205.875 Z "/><text fill="#000000" font-size="12" lengthAdjust="spacingAndGlyphs" textLength="80" x="2232" y="1214.4531">OperatorPanel</text><line style="stroke: #2E8B57; stroke-width: 1.5;" x1="2204" x2="2314" y1="1226" y2="1226"/><text fill="#000000" font-size="11" lengthAdjust="spacingAndGlyphs" textLength="17" x="2209" y="1241">atm</text><line style="stroke: #2E8B57; stroke-width: 1.5;" x1="2204" x2="2314" y1="1247.8359" y2="1247.8359"/><text fill="#000000" font-size="11" lengthAdjust="spacingAndGlyphs" textLength="77" x="2209" y="1262.8359">OperatorPanel()</text><text fill="#000000" font-size="11" lengthAdjust="spacingAndGlyphs" textLength="71" x="2209" y="1276.6719">getInitialCash()</text><rect fill="#FFF8DC" filter="url(#f1)" height="75.6719" style="stroke: #2E8B57; stroke-width: 1.5;" width="110" x="1376" y="1468"/><ellipse cx="1391" cy="1484" fill="#ADD1B2" rx="11" ry="11" style="stroke: #2E8B57; stroke-width: 1.0;"/><path d="M1393.7656,1479.875 Q1393.9219,1479.6563 1394.1094,1479.5469 Q1394.2969,1479.4375 1394.5156,1479.4375 Q1394.8906,1479.4375 1395.125,1479.6953 Q1395.3594,1479.9531 1395.3594,1480.5625 L1395.3594,1482.0156 Q1395.3594,1482.625 1395.125,1482.8906 Q1394.8906,1483.1563 1394.5156,1483.1563 Q1394.1719,1483.1563 1393.9688,1482.9531 Q1393.7656,1482.7656 1393.6563,1482.25 Q1393.6094,1481.8906 1393.4219,1481.7031 Q1393.0938,1481.3281 1392.4844,1481.1094 Q1391.875,1480.8906 1391.25,1480.8906 Q1390.4844,1480.8906 1389.8516,1481.2188 Q1389.2188,1481.5469 1388.7266,1482.2969 Q1388.2344,1483.0469 1388.2344,1484.0781 L1388.2344,1485.1719 Q1388.2344,1486.4063 1389.125,1487.2266 Q1390.0156,1488.0469 1391.6094,1488.0469 Q1392.5469,1488.0469 1393.2031,1487.7969 Q1393.5938,1487.6406 1394.0156,1487.2031 Q1394.2813,1486.9375 1394.4297,1486.8594 Q1394.5781,1486.7813 1394.7813,1486.7813 Q1395.1094,1486.7813 1395.3672,1487.0391 Q1395.625,1487.2969 1395.625,1487.6406 Q1395.625,1487.9844 1395.2813,1488.3906 Q1394.7813,1488.9688 1393.9844,1489.2969 Q1392.9063,1489.75 1391.6094,1489.75 Q1390.0938,1489.75 1388.8906,1489.125 Q1387.9063,1488.625 1387.2188,1487.5547 Q1386.5313,1486.4844 1386.5313,1485.2031 L1386.5313,1484.0469 Q1386.5313,1482.7188 1387.1484,1481.5703 Q1387.7656,1480.4219 1388.8594,1479.8047 Q1389.9531,1479.1875 1391.1875,1479.1875 Q1391.9219,1479.1875 1392.5703,1479.3516 Q1393.2188,1479.5156 1393.7656,1479.875 Z "/><text fill="#000000" font-size="12" lengthAdjust="spacingAndGlyphs" textLength="78" x="1405" y="1488.4531">ReceiptPrinter</text><line style="stroke: #2E8B57; stroke-width: 1.5;" x1="1377" x2="1485" y1="1500" y2="1500"/><line style="stroke: #2E8B57; stroke-width: 1.5;" x1="1377" x2="1485" y1="1508" y2="1508"/><text fill="#000000" font-size="11" lengthAdjust="spacingAndGlyphs" textLength="75" x="1382" y="1523">ReceiptPrinter()</text><text fill="#000000" font-size="11" lengthAdjust="spacingAndGlyphs" textLength="65" x="1382" y="1536.8359">printReceipt()</text><path d="M1717.24,2172.811 C1764.78,2214.245 1841.3,2280.926 1886.71,2320.503 " fill="none" style="stroke: #A80036; stroke-width: 1.0; stroke-dasharray: 7.0,7.0;"/><polygon fill="#A80036" points="1890.74,2324.011,1886.5833,2315.0823,1886.9707,2320.7259,1881.3271,2321.1132,1890.74,2324.011" style="stroke: #A80036; stroke-width: 1.0;"/><path d="M1730.67,1978.417 C1719.85,2008.656 1709.05,2038.849 1699.88,2064.481 " fill="none" style="stroke: #A80036; stroke-width: 1.0; stroke-dasharray: 7.0,7.0;"/><polygon fill="#A80036" points="1698.18,2069.213,1704.9817,2062.09,1699.8668,2064.5061,1697.4506,2059.3912,1698.18,2069.213" style="stroke: #A80036; stroke-width: 1.0;"/><path d="M1835.18,1564.226 C1831.09,1585.838 1826.19,1611.748 1821.11,1638.648 " fill="none" style="stroke: #A80036; stroke-width: 1.0; stroke-dasharray: 7.0,7.0;"/><polygon fill="#A80036" points="1820.15,1643.681,1825.7515,1635.5802,1821.0783,1638.7679,1817.8906,1634.0948,1820.15,1643.681" style="stroke: #A80036; stroke-width: 1.0;"/><path d="M1782.92,1560.359 C1758.3,1583.9 1731.58,1613.201 1713,1644 C1690.82,1680.771 1676.22,1727.163 1667.35,1762.941 " fill="none" style="stroke: #A80036; stroke-width: 1.0; stroke-dasharray: 7.0,7.0;"/><polygon fill="#A80036" points="1666.09,1768.14,1672.1059,1760.342,1667.2731,1763.282,1664.3331,1758.4491,1666.09,1768.14" style="stroke: #A80036; stroke-width: 1.0;"/><path d="M1561.79,1304.25 C1549.05,1436.587 1529.95,1747.98 1599,1996 C1605.88,2020.702 1617.91,2045.819 1630.4,2067.735 " fill="none" style="stroke: #A80036; stroke-width: 1.0; stroke-dasharray: 7.0,7.0;"/><polygon fill="#A80036" points="1632.9,2072.074,1631.865,2062.2797,1630.4004,2067.7436,1624.9364,2066.279,1632.9,2072.074" style="stroke: #A80036; stroke-width: 1.0;"/><path d="M1578.64,1304.18 C1595.82,1418.51 1631.44,1655.574 1647.65,1763.418 " fill="none" style="stroke: #A80036; stroke-width: 1.0; stroke-dasharray: 7.0,7.0;"/><polygon fill="#A80036" points="1648.41,1768.455,1651.0253,1758.9597,1647.6655,1763.5107,1643.1145,1760.1509,1648.41,1768.455" style="stroke: #A80036; stroke-width: 1.0;"/><path d="M1593.16,1304.18 C1625.66,1390.5 1684.5,1546.773 1728.86,1664.58 " fill="none" style="stroke: #A80036; stroke-width: 1.0; stroke-dasharray: 7.0,7.0;"/><polygon fill="#A80036" points="1730.7,1669.456,1731.2648,1659.6233,1728.9347,1664.778,1723.78,1662.4479,1730.7,1669.456" style="stroke: #A80036; stroke-width: 1.0;"/><path d="M1615.91,1304.23 C1632.12,1324.81 1651,1347.14 1670,1366 C1703.46,1399.21 1744.63,1432.1 1778.75,1457.546 " fill="none" style="stroke: #A80036; stroke-width: 1.0;"/><polygon fill="#A80036" points="1782.87,1460.611,1778.0371,1452.0294,1778.8585,1457.6263,1773.2617,1458.4478,1782.87,1460.611" style="stroke: #A80036; stroke-width: 1.0;"/><text fill="#000000" font-size="13" lengthAdjust="spacingAndGlyphs" textLength="7" x="1626.6831" y="1325.1229">1</text><text fill="#000000" font-size="13" lengthAdjust="spacingAndGlyphs" textLength="7" x="1767.9472" y="1451.0626">1</text><path d="M1471.81,1878.772 C1487.73,1914.201 1510.57,1959.59 1537,1996 C1563.67,2032.737 1600.22,2068.821 1629.01,2094.872 " fill="none" style="stroke: #A80036; stroke-width: 1.0; stroke-dasharray: 7.0,7.0;"/><polygon fill="#A80036" points="1632.84,2098.319,1628.8436,2089.3174,1629.13,2094.967,1623.4804,2095.2534,1632.84,2098.319" style="stroke: #A80036; stroke-width: 1.0;"/><path d="M1432.97,1543.095 C1435.8,1595.128 1441.08,1691.976 1444.57,1755.967 " fill="none" style="stroke: #A80036; stroke-width: 1.0; stroke-dasharray: 7.0,7.0;"/><polygon fill="#A80036" points="1444.86,1761.285,1448.3648,1752.0809,1444.5882,1756.2924,1440.3767,1752.5158,1444.86,1761.285" style="stroke: #A80036; stroke-width: 1.0;"/><path d="M2107.99,2194.034 C2061.23,2234.433 2000.18,2287.178 1961.52,2320.581 " fill="none" style="stroke: #A80036; stroke-width: 1.0; stroke-dasharray: 7.0,7.0;"/><polygon fill="#A80036" points="1957.39,2324.153,1966.8145,2321.2932,1961.1725,2320.8831,1961.5826,2315.2411,1957.39,2324.153" style="stroke: #A80036; stroke-width: 1.0;"/><path d="M1264.58,1297.25 C1248.66,1319.32 1229.66,1344.4 1211,1366 C1179.62,1402.33 1140.58,1440.552 1111.88,1467.536 " fill="none" style="stroke: #A80036; stroke-width: 1.0; stroke-dasharray: 7.0,7.0;"/><polygon fill="#A80036" points="1108.07,1471.101,1117.3678,1467.8528,1111.7137,1467.677,1111.8894,1462.0229,1108.07,1471.101" style="stroke: #A80036; stroke-width: 1.0;"/><path d="M1790.67,1304.15 C1802.19,1345.95 1817.15,1400.26 1828.61,1441.856 " fill="none" style="stroke: #A80036; stroke-width: 1.0;"/><polygon fill="#A80036" points="1829.99,1446.865,1831.4544,1437.1256,1828.6612,1442.0448,1823.742,1439.2517,1829.99,1446.865" style="stroke: #A80036; stroke-width: 1.0;"/><text fill="#000000" font-size="13" lengthAdjust="spacingAndGlyphs" textLength="7" x="1788.4319" y="1325.0079">1</text><text fill="#000000" font-size="13" lengthAdjust="spacingAndGlyphs" textLength="7" x="1819.8014" y="1435.4824">1</text><path d="M1959.85,1283.17 C1937.68,1326.36 1903.35,1393.26 1878.18,1442.299 " fill="none" style="stroke: #A80036; stroke-width: 1.0;"/><polygon fill="#A80036" points="1875.77,1446.988,1883.441,1440.811,1878.0551,1442.5407,1876.3254,1437.1548,1875.77,1446.988" style="stroke: #A80036; stroke-width: 1.0;"/><text fill="#000000" font-size="13" lengthAdjust="spacingAndGlyphs" textLength="7" x="1932.8619" y="1304.5292">1</text><text fill="#000000" font-size="13" lengthAdjust="spacingAndGlyphs" textLength="7" x="1870.5886" y="1435.6155">1</text><path d="M1072,1346.24 C1072,1383.76 1072,1424.16 1072,1454.69 " fill="none" style="stroke: #A80036; stroke-width: 1.0; stroke-dasharray: 7.0,7.0;"/><polygon fill="#A80036" points="1072,1459.886,1076,1450.886,1072,1454.886,1068,1450.886,1072,1459.886" style="stroke: #A80036; stroke-width: 1.0;"/><path d="M838.704,396.23 C846.995,422.68 854.458,449.82 860,476 C901.098,670.1 846.872,1186.31 931,1366 C952.961,1412.91 998.172,1452.548 1031.51,1477.141 " fill="none" style="stroke: #A80036; stroke-width: 1.0; stroke-dasharray: 7.0,7.0;"/><polygon fill="#A80036" points="1035.92,1480.362,1031.002,1471.829,1031.879,1477.4174,1026.2906,1478.2945,1035.92,1480.362" style="stroke: #A80036; stroke-width: 1.0;"/><path d="M1761.82,809.02 C1862.94,863.7 2020.95,967.5 2088,1110 C2136.44,1212.95 2145,1267.53 2088,1366 C2052.29,1427.69 1977.7,1464.385 1920.71,1484.436 " fill="none" style="stroke: #A80036; stroke-width: 1.0;"/><polygon fill="#A80036" points="1908.1,1488.704,1917.9076,1489.6046,1912.8356,1487.0996,1915.3406,1482.0277,1908.1,1488.704" style="stroke: #A80036; stroke-width: 1.0;"/><line style="stroke: #A80036; stroke-width: 1.0;" x1="1912.8356" x2="1920.42" y1="1487.0996" y2="1484.5345"/><polygon fill="#A80036" points="1750.09,802.75,1753.4972,809.1054,1760.6742,808.4046,1757.267,802.0492,1750.09,802.75" style="stroke: #A80036; stroke-width: 1.0;"/><text fill="#000000" font-size="13" lengthAdjust="spacingAndGlyphs" textLength="7" x="1758.4066" y="805.2681">1</text><text fill="#000000" font-size="13" lengthAdjust="spacingAndGlyphs" textLength="7" x="1915.7144" y="1477.7944">1</text><path d="M1730.93,1042.91 C1740.17,1085.75 1749,1126.72 1756.17,1159.95 " fill="none" style="stroke: #A80036; stroke-width: 1.0;"/><polygon fill="#A80036" points="1758.93,1172.76,1760.9421,1163.1189,1757.8756,1167.8724,1753.122,1164.8059,1758.93,1172.76" style="stroke: #A80036; stroke-width: 1.0;"/><line style="stroke: #A80036; stroke-width: 1.0;" x1="1757.8756" x2="1756.19" y1="1167.8724" y2="1160.06"/><polygon fill="#A80036" points="1728.19,1030.19,1725.5452,1036.8986,1730.7205,1041.9201,1733.3653,1035.2116,1728.19,1030.19" style="stroke: #A80036; stroke-width: 1.0;"/><text fill="#000000" font-size="13" lengthAdjust="spacingAndGlyphs" textLength="7" x="1725.3767" y="1051.5118">1</text><text fill="#000000" font-size="13" lengthAdjust="spacingAndGlyphs" textLength="7" x="1749.16" y="1161.6524">1</text><path d="M1757.35,896.34 C1819.36,990.64 1899.79,1112.96 1945.67,1182.74 " fill="none" style="stroke: #A80036; stroke-width: 1.0;"/><polygon fill="#A80036" points="1953,1193.89,1951.3951,1184.1728,1950.2519,1189.7129,1944.7118,1188.5697,1953,1193.89" style="stroke: #A80036; stroke-width: 1.0;"/><line style="stroke: #A80036; stroke-width: 1.0;" x1="1950.2519" x2="1945.86" y1="1189.7129" y2="1183.03"/><polygon fill="#A80036" points="1750.08,885.28,1750.0317,892.4909,1756.6693,895.309,1756.7177,888.098,1750.08,885.28" style="stroke: #A80036; stroke-width: 1.0;"/><text fill="#000000" font-size="13" lengthAdjust="spacingAndGlyphs" textLength="7" x="1758.3944" y="905.8515">1</text><text fill="#000000" font-size="13" lengthAdjust="spacingAndGlyphs" textLength="7" x="1940.4984" y="1182.6757">1</text><path d="M1611.07,1042.91 C1601.83,1085.75 1593,1126.72 1585.83,1159.95 " fill="none" style="stroke: #A80036; stroke-width: 1.0;"/><polygon fill="#A80036" points="1583.07,1172.76,1588.878,1164.8059,1584.1244,1167.8724,1581.0579,1163.1189,1583.07,1172.76" style="stroke: #A80036; stroke-width: 1.0;"/><line style="stroke: #A80036; stroke-width: 1.0;" x1="1584.1244" x2="1585.81" y1="1167.8724" y2="1160.06"/><polygon fill="#A80036" points="1613.81,1030.19,1608.6347,1035.2116,1611.2795,1041.9201,1616.4548,1036.8986,1613.81,1030.19" style="stroke: #A80036; stroke-width: 1.0;"/><text fill="#000000" font-size="13" lengthAdjust="spacingAndGlyphs" textLength="7" x="1599.7374" y="1051.5118">1</text><text fill="#000000" font-size="13" lengthAdjust="spacingAndGlyphs" textLength="7" x="1576.0298" y="1161.6524">1</text><path d="M1763.38,780.15 C1917.95,811.03 2224.94,897.25 2356,1110 C2549.88,1424.73 2317.79,1890.828 2216.62,2065.527 " fill="none" style="stroke: #A80036; stroke-width: 1.0;"/><polygon fill="#A80036" points="2210.01,2076.856,2218.0048,2071.1042,2212.533,2072.5392,2211.0979,2067.0674,2210.01,2076.856" style="stroke: #A80036; stroke-width: 1.0;"/><line style="stroke: #A80036; stroke-width: 1.0;" x1="2212.533" x2="2216.565" y1="2072.5392" y2="2065.629"/><polygon fill="#A80036" points="1750.26,777.59,1755.3788,782.6692,1762.036,779.8977,1756.9172,774.8185,1750.26,777.59" style="stroke: #A80036; stroke-width: 1.0;"/><text fill="#000000" font-size="13" lengthAdjust="spacingAndGlyphs" textLength="7" x="1757.6793" y="774.5464">1</text><text fill="#000000" font-size="13" lengthAdjust="spacingAndGlyphs" textLength="7" x="2205.4564" y="2065.4668">1</text><path d="M1760.99,820.43 C1861.07,884.14 2025.08,994.84 2150,1110 C2177.79,1135.62 2205.36,1168.07 2225.82,1193.89 " fill="none" style="stroke: #A80036; stroke-width: 1.0;"/><polygon fill="#A80036" points="1750.01,813.47,1752.9289,820.0639,1760.1383,819.9057,1757.2194,813.3117,1750.01,813.47" style="stroke: #A80036; stroke-width: 1.0;"/><text fill="#000000" font-size="13" lengthAdjust="spacingAndGlyphs" textLength="7" x="1758.3091" y="839.0518">1</text><text fill="#000000" font-size="13" lengthAdjust="spacingAndGlyphs" textLength="7" x="2212.7568" y="1182.6757">1</text><path d="M1584.46,881.46 C1541.53,945.56 1493.34,1028.47 1467,1110 C1428.54,1229.06 1426.54,1378.09 1428.62,1454.571 " fill="none" style="stroke: #A80036; stroke-width: 1.0;"/><polygon fill="#A80036" points="1429.05,1467.985,1432.7613,1458.8622,1428.8907,1462.9875,1424.7654,1459.117,1429.05,1467.985" style="stroke: #A80036; stroke-width: 1.0;"/><line style="stroke: #A80036; stroke-width: 1.0;" x1="1428.8907" x2="1428.63" y1="1462.9875" y2="1454.992"/><polygon fill="#A80036" points="1591.86,870.52,1585.1852,873.2488,1585.1368,880.4598,1591.8117,877.7309,1591.86,870.52" style="stroke: #A80036; stroke-width: 1.0;"/><text fill="#000000" font-size="13" lengthAdjust="spacingAndGlyphs" textLength="7" x="1420.022" y="1456.5461">1</text><path d="M1583.65,877.58 C1509.89,972.65 1407.24,1104.94 1349.02,1179.97 " fill="none" style="stroke: #A80036; stroke-width: 1.0;"/><polygon fill="#A80036" points="1591.82,867.05,1584.9814,869.3376,1584.4628,876.53,1591.3014,874.2424,1591.82,867.05" style="stroke: #A80036; stroke-width: 1.0;"/><text fill="#000000" font-size="13" lengthAdjust="spacingAndGlyphs" textLength="7" x="1576.8903" y="870.8424">1</text><text fill="#000000" font-size="13" lengthAdjust="spacingAndGlyphs" textLength="7" x="1345.4519" y="1168.5933">1</text><path d="M1581.2,828.25 C1486.97,895.56 1335.52,1006.42 1211,1110 C1197.26,1121.43 1183.06,1133.8 1169.24,1146.18 " fill="none" style="stroke: #A80036; stroke-width: 1.0;"/><polygon fill="#A80036" points="1591.84,820.66,1584.6327,820.8953,1582.0779,827.6386,1589.2851,827.4033,1591.84,820.66" style="stroke: #A80036; stroke-width: 1.0;"/><text fill="#000000" font-size="13" lengthAdjust="spacingAndGlyphs" textLength="7" x="1576.9119" y="820.6107">1</text><text fill="#000000" font-size="13" lengthAdjust="spacingAndGlyphs" textLength="5" x="1177.0815" y="1127.2487">*</text><path d="M1061.06,1118.62 C1044.23,965.65 1004.837,694.17 922,476 C908.539,440.55 890.497,404.35 871.508,370.62 " fill="none" style="stroke: #A80036; stroke-width: 1.0;"/><polygon fill="#A80036" points="865.037,359.28,866.0231,369.0794,867.515,363.6228,872.9716,365.1146,865.037,359.28" style="stroke: #A80036; stroke-width: 1.0;"/><line style="stroke: #A80036; stroke-width: 1.0;" x1="867.515" x2="871.48" y1="363.6228" y2="370.575"/><polygon fill="#A80036" points="1062.47,1131.69,1065.8,1125.2938,1061.1767,1119.7599,1057.8466,1126.1561,1062.47,1131.69" style="stroke: #A80036; stroke-width: 1.0;"/><text fill="#000000" font-size="13" lengthAdjust="spacingAndGlyphs" textLength="7" x="1053.6455" y="1120.6121">1</text><text fill="#000000" font-size="13" lengthAdjust="spacingAndGlyphs" textLength="5" x="872.7752" y="375.4522">*</text><path d="M876.379,279.89 C1056.31,389.28 1413.39,606.38 1580.63,708.06 " fill="none" style="stroke: #A80036; stroke-width: 1.0;"/><polygon fill="#A80036" points="1591.85,714.88,1586.2423,706.7835,1587.5791,712.2801,1582.0825,713.6169,1591.85,714.88" style="stroke: #A80036; stroke-width: 1.0;"/><line style="stroke: #A80036; stroke-width: 1.0;" x1="1587.5791" x2="1580.745" y1="712.2801" y2="708.125"/><polygon fill="#A80036" points="865.065,273.01,868.112,279.5457,875.3169,279.2469,872.2699,272.7112,865.065,273.01" style="stroke: #A80036; stroke-width: 1.0;"/><text fill="#000000" font-size="13" lengthAdjust="spacingAndGlyphs" textLength="5" x="872.8074" y="276.5113">*</text><text fill="#000000" font-size="13" lengthAdjust="spacingAndGlyphs" textLength="7" x="1576.9227" y="706.0708">1</text><path d="M702.51,396.28 C693.148,422.97 683.738,450.17 675,476 C651.156,546.5 625.313,627.25 607.106,684.93 " fill="none" style="stroke: #A80036; stroke-width: 1.0;"/><polygon fill="none" points="613.685,687.34,601,704.32,600.332,683.14,613.685,687.34" style="stroke: #A80036; stroke-width: 1.0;"/><path d="M768,396.1 C768,493.82 768,609.19 768,683.87 " fill="none" style="stroke: #A80036; stroke-width: 1.0;"/><polygon fill="none" points="775,684.27,768,704.27,761,684.27,775,684.27" style="stroke: #A80036; stroke-width: 1.0;"/><path d="M670.755,284.86 C611.11,332.85 537.352,400.99 490,476 C450.935,537.88 427.057,617.83 413.452,677.47 " fill="none" style="stroke: #A80036; stroke-width: 1.0;"/><polygon fill="none" points="420.238,679.2,409.142,697.25,406.559,676.22,420.238,679.2" style="stroke: #A80036; stroke-width: 1.0;"/><path d="M670.725,282.02 C609.077,323.54 526.758,376.12 450,416 C388.11,448.15 352.276,424.72 305,476 C250.166,535.47 228.005,627.86 219.055,691.44 " fill="none" style="stroke: #A80036; stroke-width: 1.0;"/><polygon fill="none" points="225.985,692.44,216.543,711.41,212.095,690.69,225.985,692.44" style="stroke: #A80036; stroke-width: 1.0;"/><path d="M571.689,821.53 C552.728,917.96 514.968,1110.01 498.27,1194.94 " fill="none" style="stroke: #A80036; stroke-width: 1.0; stroke-dasharray: 7.0,7.0;"/><polygon fill="#A80036" points="497.298,1199.88,502.97,1191.8284,498.2692,1194.9752,495.1224,1190.2744,497.298,1199.88" style="stroke: #A80036; stroke-width: 1.0;"/><path d="M757.511,821.59 C744.719,881.84 719.145,977.54 675,1050 C639.666,1107.99 582.96,1161.71 541.633,1196.55 " fill="none" style="stroke: #A80036; stroke-width: 1.0; stroke-dasharray: 7.0,7.0;"/><polygon fill="#A80036" points="537.683,1199.86,547.149,1197.1407,541.5138,1196.6467,542.0078,1191.0115,537.683,1199.86" style="stroke: #A80036; stroke-width: 1.0;"/><path d="M410.599,828.78 C429.741,927.19 465.623,1111.67 481.764,1194.66 " fill="none" style="stroke: #A80036; stroke-width: 1.0; stroke-dasharray: 7.0,7.0;"/><polygon fill="#A80036" points="482.798,1199.97,485.001,1190.3707,481.8408,1195.0625,477.149,1191.9022,482.798,1199.97" style="stroke: #A80036; stroke-width: 1.0;"/><path d="M221.805,814.54 C233.814,874.15 259.256,974.65 305,1050 C340.242,1108.05 396.963,1161.76 438.319,1196.58 " fill="none" style="stroke: #A80036; stroke-width: 1.0; stroke-dasharray: 7.0,7.0;"/><polygon fill="#A80036" points="442.272,1199.89,437.9453,1191.0424,438.4405,1196.6776,432.8054,1197.1728,442.272,1199.89" style="stroke: #A80036; stroke-width: 1.0;"/></g></svg>