<?xml version="1.0" encoding="UTF-8" standalone="yes"?><svg xmlns="http://www.w3.org/2000/svg" xmlns:xlink="http://www.w3.org/1999/xlink" height="382pt" style="width:565px;height:382px;" version="1.1" viewBox="0 0 565 382" width="565pt"><defs><filter height="300%" id="f1" width="300%" x="-1" y="-1"><feGaussianBlur result="blurOut" stdDeviation="2"/><feColorMatrix in="blurOut" result="blurOut2" type="matrix" values="0 0 0 0 0 0 0 0 0 0 0 0 0 0 0 0 0 0 .4 0"/><feOffset dx="4" dy="4" in="blurOut2" result="blurOut3"/><feBlend in="SourceGraphic" in2="blurOut3" mode="normal"/></filter></defs><g><polygon fill="#FFFFFF" filter="url(#f1)" points="81,24,363,24,370,47.6094,374,47.6094,374,125,81,125,81,24" style="stroke: #000000; stroke-width: 2.0;"/><line style="stroke: #000000; stroke-width: 2.0;" x1="81" x2="370" y1="47.6094" y2="47.6094"/><text fill="#000000" font-size="14" font-weight="bold" lengthAdjust="spacingAndGlyphs" textLength="276" x="84" y="41">EA_Model.Class_Model.atm.transaction</text><polygon fill="#FFFFFF" filter="url(#f1)" points="22,149,252,149,259,172.6094,263,172.6094,263,375,22,375,22,149" style="stroke: #000000; stroke-width: 2.0;"/><line style="stroke: #000000; stroke-width: 2.0;" x1="22" x2="259" y1="172.6094" y2="172.6094"/><text fill="#000000" font-size="14" font-weight="bold" lengthAdjust="spacingAndGlyphs" textLength="224" x="25" y="166">EA_Model.Class_Model.banking</text><polygon fill="#FFFFFF" filter="url(#f1)" points="287,149,486,149,493,172.6094,497,172.6094,497,250,287,250,287,149" style="stroke: #000000; stroke-width: 2.0;"/><line style="stroke: #000000; stroke-width: 2.0;" x1="287" x2="493" y1="172.6094" y2="172.6094"/><text fill="#000000" font-size="14" font-weight="bold" lengthAdjust="spacingAndGlyphs" textLength="193" x="290" y="166">EA_Model.Class_Model.atm</text><polygon fill="#FFFFFF" filter="url(#f1)" points="287,274,547,274,554,297.6094,558,297.6094,558,375,287,375,287,274" style="stroke: #000000; stroke-width: 2.0;"/><line style="stroke: #000000; stroke-width: 2.0;" x1="287" x2="554" y1="297.6094" y2="297.6094"/><text fill="#000000" font-size="14" font-weight="bold" lengthAdjust="spacingAndGlyphs" textLength="254" x="290" y="291">EA_Model.Class_Model.atm.physical</text><rect fill="#FFF8DC" filter="url(#f1)" height="48" style="stroke: #2E8B57; stroke-width: 1.5;" width="97" x="156.75" y="61"/><ellipse cx="171.75" cy="77" fill="#ADD1B2" rx="11" ry="11" style="stroke: #2E8B57; stroke-width: 1.0;"/><path d="M174.5156,78.5313 L176.9063,79.2813 Q176.3594,81.2656 175.0859,82.2344 Q173.8125,83.2031 171.8438,83.2031 Q169.4219,83.2031 167.8672,81.5469 Q166.3125,79.8906 166.3125,77.0156 Q166.3125,73.9844 167.875,72.3047 Q169.4375,70.625 172,70.625 Q174.2344,70.625 175.625,71.9375 Q176.4531,72.7188 176.875,74.1875 L174.4375,74.7656 Q174.2188,73.8125 173.5391,73.2656 Q172.8594,72.7188 171.875,72.7188 Q170.5156,72.7188 169.6797,73.6953 Q168.8438,74.6719 168.8438,76.8438 Q168.8438,79.1406 169.6719,80.125 Q170.5,81.1094 171.8281,81.1094 Q172.8125,81.1094 173.5156,80.4844 Q174.2188,79.8594 174.5156,78.5313 Z "/><text fill="#000000" font-size="12" lengthAdjust="spacingAndGlyphs" textLength="65" x="185.75" y="81.4531">Transaction</text><line style="stroke: #2E8B57; stroke-width: 1.5;" x1="157.75" x2="252.75" y1="93" y2="93"/><line style="stroke: #2E8B57; stroke-width: 1.5;" x1="157.75" x2="252.75" y1="101" y2="101"/><rect fill="#FFF8DC" filter="url(#f1)" height="48" style="stroke: #2E8B57; stroke-width: 1.5;" width="67" x="111.75" y="311"/><ellipse cx="126.75" cy="327" fill="#ADD1B2" rx="11" ry="11" style="stroke: #2E8B57; stroke-width: 1.0;"/><path d="M129.5156,328.5313 L131.9063,329.2813 Q131.3594,331.2656 130.0859,332.2344 Q128.8125,333.2031 126.8438,333.2031 Q124.4219,333.2031 122.8672,331.5469 Q121.3125,329.8906 121.3125,327.0156 Q121.3125,323.9844 122.875,322.3047 Q124.4375,320.625 127,320.625 Q129.2344,320.625 130.625,321.9375 Q131.4531,322.7188 131.875,324.1875 L129.4375,324.7656 Q129.2188,323.8125 128.5391,323.2656 Q127.8594,322.7188 126.875,322.7188 Q125.5156,322.7188 124.6797,323.6953 Q123.8438,324.6719 123.8438,326.8438 Q123.8438,329.1406 124.6719,330.125 Q125.5,331.1094 126.8281,331.1094 Q127.8125,331.1094 128.5156,330.4844 Q129.2188,329.8594 129.5156,328.5313 Z "/><text fill="#000000" font-size="12" lengthAdjust="spacingAndGlyphs" textLength="35" x="140.75" y="331.4531">Money</text><line style="stroke: #2E8B57; stroke-width: 1.5;" x1="112.75" x2="177.75" y1="343" y2="343"/><line style="stroke: #2E8B57; stroke-width: 1.5;" x1="112.75" x2="177.75" y1="351" y2="351"/><rect fill="#FFF8DC" filter="url(#f1)" height="48" style="stroke: #2E8B57; stroke-width: 1.5;" width="83" x="163.75" y="186"/><ellipse cx="178.75" cy="202" fill="#ADD1B2" rx="11" ry="11" style="stroke: #2E8B57; stroke-width: 1.0;"/><path d="M181.5156,203.5313 L183.9063,204.2813 Q183.3594,206.2656 182.0859,207.2344 Q180.8125,208.2031 178.8438,208.2031 Q176.4219,208.2031 174.8672,206.5469 Q173.3125,204.8906 173.3125,202.0156 Q173.3125,198.9844 174.875,197.3047 Q176.4375,195.625 179,195.625 Q181.2344,195.625 182.625,196.9375 Q183.4531,197.7188 183.875,199.1875 L181.4375,199.7656 Q181.2188,198.8125 180.5391,198.2656 Q179.8594,197.7188 178.875,197.7188 Q177.5156,197.7188 176.6797,198.6953 Q175.8438,199.6719 175.8438,201.8438 Q175.8438,204.1406 176.6719,205.125 Q177.5,206.1094 178.8281,206.1094 Q179.8125,206.1094 180.5156,205.4844 Q181.2188,204.8594 181.5156,203.5313 Z "/><text fill="#000000" font-size="12" lengthAdjust="spacingAndGlyphs" textLength="51" x="192.75" y="206.4531">Message</text><line style="stroke: #2E8B57; stroke-width: 1.5;" x1="164.75" x2="245.75" y1="218" y2="218"/><line style="stroke: #2E8B57; stroke-width: 1.5;" x1="164.75" x2="245.75" y1="226" y2="226"/><rect fill="#FFF8DC" filter="url(#f1)" height="48" style="stroke: #2E8B57; stroke-width: 1.5;" width="84" x="44" y="186"/><ellipse cx="59" cy="202" fill="#ADD1B2" rx="11" ry="11" style="stroke: #2E8B57; stroke-width: 1.0;"/><path d="M61.7656,203.5313 L64.1563,204.2813 Q63.6094,206.2656 62.3359,207.2344 Q61.0625,208.2031 59.0938,208.2031 Q56.6719,208.2031 55.1172,206.5469 Q53.5625,204.8906 53.5625,202.0156 Q53.5625,198.9844 55.125,197.3047 Q56.6875,195.625 59.25,195.625 Q61.4844,195.625 62.875,196.9375 Q63.7031,197.7188 64.125,199.1875 L61.6875,199.7656 Q61.4688,198.8125 60.7891,198.2656 Q60.1094,197.7188 59.125,197.7188 Q57.7656,197.7188 56.9297,198.6953 Q56.0938,199.6719 56.0938,201.8438 Q56.0938,204.1406 56.9219,205.125 Q57.75,206.1094 59.0781,206.1094 Q60.0625,206.1094 60.7656,205.4844 Q61.4688,204.8594 61.7656,203.5313 Z "/><text fill="#000000" font-size="12" lengthAdjust="spacingAndGlyphs" textLength="52" x="73" y="206.4531">Balances</text><line style="stroke: #2E8B57; stroke-width: 1.5;" x1="45" x2="127" y1="218" y2="218"/><line style="stroke: #2E8B57; stroke-width: 1.5;" x1="45" x2="127" y1="226" y2="226"/><rect fill="#FFF8DC" filter="url(#f1)" height="48" style="stroke: #2E8B57; stroke-width: 1.5;" width="55" x="303.75" y="186"/><ellipse cx="318.75" cy="202" fill="#ADD1B2" rx="11" ry="11" style="stroke: #2E8B57; stroke-width: 1.0;"/><path d="M321.5156,203.5313 L323.9063,204.2813 Q323.3594,206.2656 322.0859,207.2344 Q320.8125,208.2031 318.8438,208.2031 Q316.4219,208.2031 314.8672,206.5469 Q313.3125,204.8906 313.3125,202.0156 Q313.3125,198.9844 314.875,197.3047 Q316.4375,195.625 319,195.625 Q321.2344,195.625 322.625,196.9375 Q323.4531,197.7188 323.875,199.1875 L321.4375,199.7656 Q321.2188,198.8125 320.5391,198.2656 Q319.8594,197.7188 318.875,197.7188 Q317.5156,197.7188 316.6797,198.6953 Q315.8438,199.6719 315.8438,201.8438 Q315.8438,204.1406 316.6719,205.125 Q317.5,206.1094 318.8281,206.1094 Q319.8125,206.1094 320.5156,205.4844 Q321.2188,204.8594 321.5156,203.5313 Z "/><text fill="#000000" font-size="12" lengthAdjust="spacingAndGlyphs" textLength="23" x="332.75" y="206.4531">ATM</text><line style="stroke: #2E8B57; stroke-width: 1.5;" x1="304.75" x2="357.75" y1="218" y2="218"/><line style="stroke: #2E8B57; stroke-width: 1.5;" x1="304.75" x2="357.75" y1="226" y2="226"/><rect fill="#FFF8DC" filter="url(#f1)" height="48" style="stroke: #2E8B57; stroke-width: 1.5;" width="53" x="304.75" y="311"/><ellipse cx="319.75" cy="327" fill="#ADD1B2" rx="11" ry="11" style="stroke: #2E8B57; stroke-width: 1.0;"/><path d="M322.5156,328.5313 L324.9063,329.2813 Q324.3594,331.2656 323.0859,332.2344 Q321.8125,333.2031 319.8438,333.2031 Q317.4219,333.2031 315.8672,331.5469 Q314.3125,329.8906 314.3125,327.0156 Q314.3125,323.9844 315.875,322.3047 Q317.4375,320.625 320,320.625 Q322.2344,320.625 323.625,321.9375 Q324.4531,322.7188 324.875,324.1875 L322.4375,324.7656 Q322.2188,323.8125 321.5391,323.2656 Q320.8594,322.7188 319.875,322.7188 Q318.5156,322.7188 317.6797,323.6953 Q316.8438,324.6719 316.8438,326.8438 Q316.8438,329.1406 317.6719,330.125 Q318.5,331.1094 319.8281,331.1094 Q320.8125,331.1094 321.5156,330.4844 Q322.2188,329.8594 322.5156,328.5313 Z "/><text fill="#000000" font-size="12" lengthAdjust="spacingAndGlyphs" textLength="21" x="333.75" y="331.4531">Log</text><line style="stroke: #2E8B57; stroke-width: 1.5;" x1="305.75" x2="356.75" y1="343" y2="343"/><line style="stroke: #2E8B57; stroke-width: 1.5;" x1="305.75" x2="356.75" y1="351" y2="351"/><path d="M97.0974,234.135 C106.945,254.666 121.348,284.693 131.788,306.4561 " fill="none" style="stroke: #A80036; stroke-width: 1.0;"/><polygon fill="#A80036" points="133.952,310.9684,133.6663,301.1237,131.7896,306.4602,126.4531,304.5835,133.952,310.9684" style="stroke: #A80036; stroke-width: 1.0;"/><path d="M193.714,234.135 C183.7,254.666 169.052,284.693 158.436,306.4561 " fill="none" style="stroke: #A80036; stroke-width: 1.0;"/><polygon fill="#A80036" points="156.235,310.9684,163.7757,304.6329,158.427,306.4745,156.5854,301.1258,156.235,310.9684" style="stroke: #A80036; stroke-width: 1.0;"/><path d="M331,234.135 C331,254.494 331,284.191 331,305.908 " fill="none" style="stroke: #A80036; stroke-width: 1.0;"/><polygon fill="#A80036" points="331,310.9684,335,301.9684,331,305.9684,327,301.9684,331,310.9684" style="stroke: #A80036; stroke-width: 1.0;"/><path d="M179.217,109.024 C168.696,118.678 156.547,130.161 146,141 C133.264,154.089 119.75,169.278 108.779,181.977 " fill="none" style="stroke: #A80036; stroke-width: 1.0;"/><polygon fill="#A80036" points="105.4596,185.833,114.3628,181.6219,108.7217,182.0437,108.2999,176.4026,105.4596,185.833" style="stroke: #A80036; stroke-width: 1.0;"/><path d="M205,109.135 C205,129.494 205,159.191 205,180.908 " fill="none" style="stroke: #A80036; stroke-width: 1.0;"/><polygon fill="#A80036" points="205,185.968,209,176.968,205,180.968,201,176.968,205,185.968" style="stroke: #A80036; stroke-width: 1.0;"/><path d="M229.69,109.14 C240.04,118.91 252.163,130.447 263,141 C276.767,154.406 291.899,169.502 304.387,182.059 " fill="none" style="stroke: #A80036; stroke-width: 1.0;"/><polygon fill="#A80036" points="308.173,185.87,304.6672,176.6662,304.6489,182.3231,298.9921,182.3048,308.173,185.87" style="stroke: #A80036; stroke-width: 1.0;"/></g></svg>