<?xml version="1.0" encoding="UTF-8" standalone="yes"?><svg xmlns="http://www.w3.org/2000/svg" xmlns:xlink="http://www.w3.org/1999/xlink" height="348pt" style="width:918px;height:348px;" version="1.1" viewBox="0 0 918 348" width="918pt"><defs><filter height="300%" id="f1" width="300%" x="-1" y="-1"><feGaussianBlur result="blurOut" stdDeviation="2"/><feColorMatrix in="blurOut" result="blurOut2" type="matrix" values="0 0 0 0 0 0 0 0 0 0 0 0 0 0 0 0 0 0 .4 0"/><feOffset dx="4" dy="4" in="blurOut2" result="blurOut3"/><feBlend in="SourceGraphic" in2="blurOut3" mode="normal"/></filter></defs><g><polygon fill="#FFFFFF" filter="url(#f1)" points="22,24,268,24,275,47.6094,594,47.6094,594,341,22,341,22,24" style="stroke: #000000; stroke-width: 2.0;"/><line style="stroke: #000000; stroke-width: 2.0;" x1="22" x2="275" y1="47.6094" y2="47.6094"/><text fill="#000000" font-size="14" font-weight="bold" lengthAdjust="spacingAndGlyphs" textLength="240" x="25" y="41">EA_Model.Class_Model.simulation</text><polygon fill="#FFFFFF" filter="url(#f1)" points="618,24,900,24,907,47.6094,911,47.6094,911,125,618,125,618,24" style="stroke: #000000; stroke-width: 2.0;"/><line style="stroke: #000000; stroke-width: 2.0;" x1="618" x2="907" y1="47.6094" y2="47.6094"/><text fill="#000000" font-size="14" font-weight="bold" lengthAdjust="spacingAndGlyphs" textLength="276" x="621" y="41">EA_Model.Class_Model.atm.transaction</text><polygon fill="#FFFFFF" filter="url(#f1)" points="618,240,848,240,855,263.6094,859,263.6094,859,341,618,341,618,240" style="stroke: #000000; stroke-width: 2.0;"/><line style="stroke: #000000; stroke-width: 2.0;" x1="618" x2="855" y1="263.6094" y2="263.6094"/><text fill="#000000" font-size="14" font-weight="bold" lengthAdjust="spacingAndGlyphs" textLength="224" x="621" y="257">EA_Model.Class_Model.banking</text><rect fill="#FFF8DC" filter="url(#f1)" height="48" style="stroke: #2E8B57; stroke-width: 1.5;" width="91" x="291.75" y="61"/><ellipse cx="306.75" cy="77" fill="#ADD1B2" rx="11" ry="11" style="stroke: #2E8B57; stroke-width: 1.0;"/><path d="M309.5156,78.5313 L311.9063,79.2813 Q311.3594,81.2656 310.0859,82.2344 Q308.8125,83.2031 306.8438,83.2031 Q304.4219,83.2031 302.8672,81.5469 Q301.3125,79.8906 301.3125,77.0156 Q301.3125,73.9844 302.875,72.3047 Q304.4375,70.625 307,70.625 Q309.2344,70.625 310.625,71.9375 Q311.4531,72.7188 311.875,74.1875 L309.4375,74.7656 Q309.2188,73.8125 308.5391,73.2656 Q307.8594,72.7188 306.875,72.7188 Q305.5156,72.7188 304.6797,73.6953 Q303.8438,74.6719 303.8438,76.8438 Q303.8438,79.1406 304.6719,80.125 Q305.5,81.1094 306.8281,81.1094 Q307.8125,81.1094 308.5156,80.4844 Q309.2188,79.8594 309.5156,78.5313 Z "/><text fill="#000000" font-size="12" lengthAdjust="spacingAndGlyphs" textLength="59" x="320.75" y="81.4531">Simulation</text><line style="stroke: #2E8B57; stroke-width: 1.5;" x1="292.75" x2="381.75" y1="93" y2="93"/><line style="stroke: #2E8B57; stroke-width: 1.5;" x1="292.75" x2="381.75" y1="101" y2="101"/><rect fill="#FFF8DC" filter="url(#f1)" height="48" style="stroke: #2E8B57; stroke-width: 1.5;" width="122" x="38" y="169"/><ellipse cx="53" cy="185" fill="#ADD1B2" rx="11" ry="11" style="stroke: #2E8B57; stroke-width: 1.0;"/><path d="M55.7656,186.5313 L58.1563,187.2813 Q57.6094,189.2656 56.3359,190.2344 Q55.0625,191.2031 53.0938,191.2031 Q50.6719,191.2031 49.1172,189.5469 Q47.5625,187.8906 47.5625,185.0156 Q47.5625,181.9844 49.125,180.3047 Q50.6875,178.625 53.25,178.625 Q55.4844,178.625 56.875,179.9375 Q57.7031,180.7188 58.125,182.1875 L55.6875,182.7656 Q55.4688,181.8125 54.7891,181.2656 Q54.1094,180.7188 53.125,180.7188 Q51.7656,180.7188 50.9297,181.6953 Q50.0938,182.6719 50.0938,184.8438 Q50.0938,187.1406 50.9219,188.125 Q51.75,189.1094 53.0781,189.1094 Q54.0625,189.1094 54.7656,188.4844 Q55.4688,187.8594 55.7656,186.5313 Z "/><text fill="#000000" font-size="12" lengthAdjust="spacingAndGlyphs" textLength="90" x="67" y="189.4531">SimCardReader</text><line style="stroke: #2E8B57; stroke-width: 1.5;" x1="39" x2="159" y1="201" y2="201"/><line style="stroke: #2E8B57; stroke-width: 1.5;" x1="39" x2="159" y1="209" y2="209"/><rect fill="#FFF8DC" filter="url(#f1)" height="48" style="stroke: #2E8B57; stroke-width: 1.5;" width="106" x="195" y="169"/><ellipse cx="210" cy="185" fill="#ADD1B2" rx="11" ry="11" style="stroke: #2E8B57; stroke-width: 1.0;"/><path d="M212.7656,186.5313 L215.1563,187.2813 Q214.6094,189.2656 213.3359,190.2344 Q212.0625,191.2031 210.0938,191.2031 Q207.6719,191.2031 206.1172,189.5469 Q204.5625,187.8906 204.5625,185.0156 Q204.5625,181.9844 206.125,180.3047 Q207.6875,178.625 210.25,178.625 Q212.4844,178.625 213.875,179.9375 Q214.7031,180.7188 215.125,182.1875 L212.6875,182.7656 Q212.4688,181.8125 211.7891,181.2656 Q211.1094,180.7188 210.125,180.7188 Q208.7656,180.7188 207.9297,181.6953 Q207.0938,182.6719 207.0938,184.8438 Q207.0938,187.1406 207.9219,188.125 Q208.75,189.1094 210.0781,189.1094 Q211.0625,189.1094 211.7656,188.4844 Q212.4688,187.8594 212.7656,186.5313 Z "/><text fill="#000000" font-size="12" lengthAdjust="spacingAndGlyphs" textLength="74" x="224" y="189.4531">SimKeyboard</text><line style="stroke: #2E8B57; stroke-width: 1.5;" x1="196" x2="300" y1="201" y2="201"/><line style="stroke: #2E8B57; stroke-width: 1.5;" x1="196" x2="300" y1="209" y2="209"/><rect fill="#FFF8DC" filter="url(#f1)" height="48" style="stroke: #2E8B57; stroke-width: 1.5;" width="95" x="244.75" y="277"/><ellipse cx="259.75" cy="293" fill="#ADD1B2" rx="11" ry="11" style="stroke: #2E8B57; stroke-width: 1.0;"/><path d="M262.5156,294.5313 L264.9063,295.2813 Q264.3594,297.2656 263.0859,298.2344 Q261.8125,299.2031 259.8438,299.2031 Q257.4219,299.2031 255.8672,297.5469 Q254.3125,295.8906 254.3125,293.0156 Q254.3125,289.9844 255.875,288.3047 Q257.4375,286.625 260,286.625 Q262.2344,286.625 263.625,287.9375 Q264.4531,288.7188 264.875,290.1875 L262.4375,290.7656 Q262.2188,289.8125 261.5391,289.2656 Q260.8594,288.7188 259.875,288.7188 Q258.5156,288.7188 257.6797,289.6953 Q256.8438,290.6719 256.8438,292.8438 Q256.8438,295.1406 257.6719,296.125 Q258.5,297.1094 259.8281,297.1094 Q260.8125,297.1094 261.5156,296.4844 Q262.2188,295.8594 262.5156,294.5313 Z "/><text fill="#000000" font-size="12" lengthAdjust="spacingAndGlyphs" textLength="63" x="273.75" y="297.4531">SimDisplay</text><line style="stroke: #2E8B57; stroke-width: 1.5;" x1="245.75" x2="338.75" y1="309" y2="309"/><line style="stroke: #2E8B57; stroke-width: 1.5;" x1="245.75" x2="338.75" y1="317" y2="317"/><rect fill="#FFF8DC" filter="url(#f1)" height="48" style="stroke: #2E8B57; stroke-width: 1.5;" width="116" x="373" y="169"/><ellipse cx="388" cy="185" fill="#ADD1B2" rx="11" ry="11" style="stroke: #2E8B57; stroke-width: 1.0;"/><path d="M390.7656,186.5313 L393.1563,187.2813 Q392.6094,189.2656 391.3359,190.2344 Q390.0625,191.2031 388.0938,191.2031 Q385.6719,191.2031 384.1172,189.5469 Q382.5625,187.8906 382.5625,185.0156 Q382.5625,181.9844 384.125,180.3047 Q385.6875,178.625 388.25,178.625 Q390.4844,178.625 391.875,179.9375 Q392.7031,180.7188 393.125,182.1875 L390.6875,182.7656 Q390.4688,181.8125 389.7891,181.2656 Q389.1094,180.7188 388.125,180.7188 Q386.7656,180.7188 385.9297,181.6953 Q385.0938,182.6719 385.0938,184.8438 Q385.0938,187.1406 385.9219,188.125 Q386.75,189.1094 388.0781,189.1094 Q389.0625,189.1094 389.7656,188.4844 Q390.4688,187.8594 390.7656,186.5313 Z "/><text fill="#000000" font-size="12" lengthAdjust="spacingAndGlyphs" textLength="84" x="402" y="189.4531">SimulatedBank</text><line style="stroke: #2E8B57; stroke-width: 1.5;" x1="374" x2="488" y1="201" y2="201"/><line style="stroke: #2E8B57; stroke-width: 1.5;" x1="374" x2="488" y1="209" y2="209"/><rect fill="#FFF8DC" filter="url(#f1)" height="48" style="stroke: #2E8B57; stroke-width: 1.5;" width="53" x="524.75" y="169"/><ellipse cx="539.75" cy="185" fill="#ADD1B2" rx="11" ry="11" style="stroke: #2E8B57; stroke-width: 1.0;"/><path d="M542.5156,186.5313 L544.9063,187.2813 Q544.3594,189.2656 543.0859,190.2344 Q541.8125,191.2031 539.8438,191.2031 Q537.4219,191.2031 535.8672,189.5469 Q534.3125,187.8906 534.3125,185.0156 Q534.3125,181.9844 535.875,180.3047 Q537.4375,178.625 540,178.625 Q542.2344,178.625 543.625,179.9375 Q544.4531,180.7188 544.875,182.1875 L542.4375,182.7656 Q542.2188,181.8125 541.5391,181.2656 Q540.8594,180.7188 539.875,180.7188 Q538.5156,180.7188 537.6797,181.6953 Q536.8438,182.6719 536.8438,184.8438 Q536.8438,187.1406 537.6719,188.125 Q538.5,189.1094 539.8281,189.1094 Q540.8125,189.1094 541.5156,188.4844 Q542.2188,187.8594 542.5156,186.5313 Z "/><text fill="#000000" font-size="12" lengthAdjust="spacingAndGlyphs" textLength="21" x="553.75" y="189.4531">GUI</text><line style="stroke: #2E8B57; stroke-width: 1.5;" x1="525.75" x2="576.75" y1="201" y2="201"/><line style="stroke: #2E8B57; stroke-width: 1.5;" x1="525.75" x2="576.75" y1="209" y2="209"/><rect fill="#FFF8DC" filter="url(#f1)" height="48" style="stroke: #2E8B57; stroke-width: 1.5;" width="97" x="715.75" y="61"/><ellipse cx="730.75" cy="77" fill="#ADD1B2" rx="11" ry="11" style="stroke: #2E8B57; stroke-width: 1.0;"/><path d="M733.5156,78.5313 L735.9063,79.2813 Q735.3594,81.2656 734.0859,82.2344 Q732.8125,83.2031 730.8438,83.2031 Q728.4219,83.2031 726.8672,81.5469 Q725.3125,79.8906 725.3125,77.0156 Q725.3125,73.9844 726.875,72.3047 Q728.4375,70.625 731,70.625 Q733.2344,70.625 734.625,71.9375 Q735.4531,72.7188 735.875,74.1875 L733.4375,74.7656 Q733.2188,73.8125 732.5391,73.2656 Q731.8594,72.7188 730.875,72.7188 Q729.5156,72.7188 728.6797,73.6953 Q727.8438,74.6719 727.8438,76.8438 Q727.8438,79.1406 728.6719,80.125 Q729.5,81.1094 730.8281,81.1094 Q731.8125,81.1094 732.5156,80.4844 Q733.2188,79.8594 733.5156,78.5313 Z "/><text fill="#000000" font-size="12" lengthAdjust="spacingAndGlyphs" textLength="65" x="744.75" y="81.4531">Transaction</text><line style="stroke: #2E8B57; stroke-width: 1.5;" x1="716.75" x2="811.75" y1="93" y2="93"/><line style="stroke: #2E8B57; stroke-width: 1.5;" x1="716.75" x2="811.75" y1="101" y2="101"/><rect fill="#FFF8DC" filter="url(#f1)" height="48" style="stroke: #2E8B57; stroke-width: 1.5;" width="67" x="634.75" y="277"/><ellipse cx="649.75" cy="293" fill="#ADD1B2" rx="11" ry="11" style="stroke: #2E8B57; stroke-width: 1.0;"/><path d="M652.5156,294.5313 L654.9063,295.2813 Q654.3594,297.2656 653.0859,298.2344 Q651.8125,299.2031 649.8438,299.2031 Q647.4219,299.2031 645.8672,297.5469 Q644.3125,295.8906 644.3125,293.0156 Q644.3125,289.9844 645.875,288.3047 Q647.4375,286.625 650,286.625 Q652.2344,286.625 653.625,287.9375 Q654.4531,288.7188 654.875,290.1875 L652.4375,290.7656 Q652.2188,289.8125 651.5391,289.2656 Q650.8594,288.7188 649.875,288.7188 Q648.5156,288.7188 647.6797,289.6953 Q646.8438,290.6719 646.8438,292.8438 Q646.8438,295.1406 647.6719,296.125 Q648.5,297.1094 649.8281,297.1094 Q650.8125,297.1094 651.5156,296.4844 Q652.2188,295.8594 652.5156,294.5313 Z "/><text fill="#000000" font-size="12" lengthAdjust="spacingAndGlyphs" textLength="35" x="663.75" y="297.4531">Money</text><line style="stroke: #2E8B57; stroke-width: 1.5;" x1="635.75" x2="700.75" y1="309" y2="309"/><line style="stroke: #2E8B57; stroke-width: 1.5;" x1="635.75" x2="700.75" y1="317" y2="317"/><path d="M257.547,217 C264.247,233.141 273.244,254.816 280.364,271.9688 " fill="none" style="stroke: #A80036; stroke-width: 1.0;"/><polygon fill="#A80036" points="282.319,276.6784,282.5632,266.8326,280.4022,272.0604,275.1744,269.8994,282.319,276.6784" style="stroke: #A80036; stroke-width: 1.0;"/><path d="M489.307,212.437 C495.257,214.08 501.231,215.635 507,217 C545.183,226.033 558.789,214.688 594,232 C613.751,241.711 632.004,258.3613 645.44,272.7552 " fill="none" style="stroke: #A80036; stroke-width: 1.0;"/><polygon fill="#A80036" points="649.1,276.7476,645.9671,267.4103,645.7214,273.0618,640.0699,272.8161,649.1,276.7476" style="stroke: #A80036; stroke-width: 1.0;"/><path d="M382.266,107.683 C416.613,124.237 464.936,147.742 507,169 C511.181,171.113 515.569,173.365 519.889,175.602 " fill="none" style="stroke: #A80036; stroke-width: 1.0;"/><polygon fill="#A80036" points="524.536,178.017,518.3953,170.3169,520.0996,175.7109,514.7055,177.4152,524.536,178.017" style="stroke: #A80036; stroke-width: 1.0;"/><path d="M291.674,106.187 C252.974,123.423 197.136,148.293 155.524,166.826 " fill="none" style="stroke: #A80036; stroke-width: 1.0;"/><polygon fill="#A80036" points="150.778,168.939,160.6269,168.9321,155.3456,166.9051,157.3727,161.6239,150.778,168.939" style="stroke: #A80036; stroke-width: 1.0;"/><path d="M334.746,109.397 C331.942,135.764 326.467,179.803 318,217 C313.778,235.547 307.416,255.938 302.042,271.8676 " fill="none" style="stroke: #A80036; stroke-width: 1.0;"/><polygon fill="#A80036" points="300.409,276.661,307.0973,269.4314,302.0212,271.928,299.5246,266.8519,300.409,276.661" style="stroke: #A80036; stroke-width: 1.0;"/><path d="M317.688,109 C303.905,125.417 285.314,147.559 270.8,164.844 " fill="none" style="stroke: #A80036; stroke-width: 1.0;"/><polygon fill="#A80036" points="267.581,168.678,276.4306,164.3555,270.7953,164.848,270.3027,159.2127,267.581,168.678" style="stroke: #A80036; stroke-width: 1.0;"/><path d="M357.397,109 C371.955,125.417 391.59,147.559 406.919,164.844 " fill="none" style="stroke: #A80036; stroke-width: 1.0;"/><polygon fill="#A80036" points="410.319,168.678,407.3376,159.2912,407.0005,164.938,401.3537,164.6009,410.319,168.678" style="stroke: #A80036; stroke-width: 1.0;"/></g></svg>